<svg width="453" height="118" viewBox="0 0 453 118" fill="none" xmlns="http://www.w3.org/2000/svg">
<path d="M65.05 4.70459H46.64C22.0081 4.70459 2.03999 24.6727 2.03999 49.3046V68.4246C2.03999 93.0565 22.0081 113.025 46.64 113.025H65.05C89.6819 113.025 109.65 93.0565 109.65 68.4246V49.3046C109.65 24.6727 89.6819 4.70459 65.05 4.70459Z" fill="#127B93"/>
<path d="M65.05 6.74479C88.55 6.74479 107.61 25.7948 107.61 49.3048V68.4348C107.61 91.9348 88.56 110.995 65.05 110.995H46.63C23.13 110.995 4.07 91.9448 4.07 68.4348V49.3048C4.08 25.7948 23.13 6.74479 46.64 6.74479H65.06M65.05 2.66479H46.63C20.92 2.66479 0 23.5848 0 49.2948V68.4248C0 94.1448 20.92 115.065 46.64 115.065H65.06C90.78 115.065 111.7 94.1448 111.7 68.4248V49.2948C111.7 23.5748 90.78 2.65479 65.06 2.65479L65.05 2.66479Z" fill="#002C3A"/>
<path d="M65.27 91.4246C88.6537 91.4246 107.61 72.4684 107.61 49.0846C107.61 25.7009 88.6537 6.74463 65.27 6.74463L46.42 6.74463C23.0363 6.74463 4.08 25.7009 4.08 49.0846C4.08 72.4684 23.0363 91.4246 46.42 91.4246H65.27Z" fill="#06BADD"/>
<path d="M66.41 12.5747H45.27C25.697 12.5747 9.83 28.4417 9.83 48.0147C9.83 67.5877 25.697 83.4547 45.27 83.4547H66.41C85.983 83.4547 101.85 67.5877 101.85 48.0147C101.85 28.4417 85.983 12.5747 66.41 12.5747Z" fill="#34EBE6"/>
<path d="M36.6299 56.1245C36.1999 56.0545 35.8099 55.9645 35.4299 55.9345C31.9399 55.6445 28.3699 52.0445 28.9099 47.5945C29.0999 45.9845 29.7499 44.5645 30.8799 43.4045C33.0899 41.1445 35.3299 38.9145 37.5599 36.6745C41.4399 32.7845 45.3199 28.9045 49.1999 25.0245C49.6699 24.5545 50.1599 24.1045 50.6299 23.6345C53.2099 21.0445 58.1499 20.7945 61.0099 23.5945C63.5099 26.0345 65.9599 28.5245 68.4399 30.9845C72.3099 34.8445 76.1599 38.7145 80.0399 42.5445C81.3999 43.8845 82.4299 45.3845 82.7399 47.3045C83.1599 49.9645 82.2699 52.1845 80.3699 54.0245C79.0799 55.2745 77.5199 55.9145 75.7199 56.0045C75.5799 56.0045 75.4499 56.0245 75.3099 56.0445C75.2499 56.0445 75.1999 56.0845 75.1099 56.1245V56.6145C75.1099 59.9745 75.1499 63.3345 75.0999 66.6845C75.0299 70.7845 71.8799 73.3645 69.1999 73.7545C68.5399 73.8445 67.8799 73.9145 67.2099 73.9145C59.5899 73.9245 51.9699 73.9145 44.3399 73.9345C41.6699 73.9345 39.5099 72.9545 37.9299 70.8045C37.0599 69.6245 36.6599 68.2545 36.6399 66.8145C36.5899 63.4545 36.6299 60.1045 36.6299 56.7445C36.6299 56.5645 36.6299 56.3845 36.6299 56.1545V56.1245ZM60.3599 62.6745C60.3599 62.6745 60.3299 62.6745 60.3199 62.6745C60.3199 61.7345 60.3399 60.7945 60.3199 59.8645C60.2999 59.0345 59.9699 58.3145 59.3899 57.7145C57.7799 56.0445 55.7499 55.7745 53.6899 56.7045C52.3099 57.3245 51.4099 58.4345 51.3499 60.0045C51.2899 61.7845 51.3299 63.5745 51.3499 65.3545C51.3499 65.9945 51.5299 66.6045 51.9099 67.1445C53.1999 68.9445 55.5399 69.6845 57.5899 68.8645C59.2599 68.2045 60.4799 66.9745 60.3599 64.8045C60.3199 64.0945 60.3599 63.3845 60.3599 62.6745Z" fill="#9FFFFA"/>
<path d="M36.6299 53.0947C36.1999 53.0247 35.8099 52.9347 35.4299 52.9047C31.9399 52.6147 28.3699 49.0147 28.9099 44.5647C29.0999 42.9547 29.7499 41.5347 30.8799 40.3747C33.0899 38.1147 35.3299 35.8847 37.5599 33.6447C41.4399 29.7547 45.3199 25.8747 49.1999 21.9947C49.6699 21.5247 50.1599 21.0747 50.6299 20.6047C53.2099 18.0147 58.1499 17.7647 61.0099 20.5647C63.5099 23.0047 65.9599 25.4947 68.4399 27.9547C72.3099 31.8147 76.1599 35.6847 80.0399 39.5147C81.3999 40.8547 82.4299 42.3547 82.7399 44.2747C83.1599 46.9347 82.2699 49.1547 80.3699 50.9947C79.0799 52.2447 77.5199 52.8847 75.7199 52.9747C75.5799 52.9747 75.4499 52.9947 75.3099 53.0147C75.2499 53.0147 75.1999 53.0547 75.1099 53.0947V53.5847C75.1099 56.9447 75.1499 60.3047 75.0999 63.6547C75.0299 67.7547 71.8799 70.3347 69.1999 70.7247C68.5399 70.8147 67.8799 70.8847 67.2099 70.8847C59.5899 70.8947 51.9699 70.8847 44.3399 70.9047C41.6699 70.9047 39.5099 69.9247 37.9299 67.7747C37.0599 66.5947 36.6599 65.2247 36.6399 63.7847C36.5899 60.4247 36.6299 57.0747 36.6299 53.7147C36.6299 53.5347 36.6299 53.3547 36.6299 53.1247V53.0947ZM60.3599 59.6447C60.3599 59.6447 60.3299 59.6447 60.3199 59.6447C60.3199 58.7047 60.3399 57.7647 60.3199 56.8347C60.2999 56.0047 59.9699 55.2847 59.3899 54.6847C57.7799 53.0147 55.7499 52.7447 53.6899 53.6747C52.3099 54.2947 51.4099 55.4047 51.3499 56.9747C51.2899 58.7547 51.3299 60.5447 51.3499 62.3247C51.3499 62.9647 51.5299 63.5747 51.9099 64.1147C53.1999 65.9147 55.5399 66.6547 57.5899 65.8347C59.2599 65.1747 60.4799 63.9447 60.3599 61.7747C60.3199 61.0647 60.3599 60.3547 60.3599 59.6447Z" fill="#002C3A"/>
<g clip-path="url(#clip0_9_4627)">
<path d="M428.54 2H168.49C156.456 2 146.7 11.7557 146.7 23.79V93.93C146.7 105.964 156.456 115.72 168.49 115.72H428.54C440.574 115.72 450.33 105.964 450.33 93.93V23.79C450.33 11.7557 440.574 2 428.54 2Z" fill="#531ED3"/>
<path d="M428.54 4C439.47 4 448.33 12.86 448.33 23.79V93.92C448.33 104.85 439.47 113.71 428.54 113.71H168.49C157.56 113.71 148.7 104.85 148.7 93.92V23.79C148.7 12.86 157.56 4 168.49 4H428.54ZM428.54 0H168.49C155.37 0 144.7 10.67 144.7 23.79V93.92C144.7 107.04 155.37 117.71 168.49 117.71H428.54C441.66 117.71 452.33 107.04 452.33 93.92V23.79C452.33 10.67 441.66 0 428.54 0Z" fill="#031C0A"/>
<path d="M448.33 72.81V24.32C448.33 13.0976 439.232 4 428.01 4L169.02 4C157.798 4 148.7 13.0976 148.7 24.32V72.81C148.7 84.0324 157.798 93.13 169.02 93.13L428.01 93.13C439.232 93.13 448.33 84.0324 448.33 72.81Z" fill="#BB9FFF"/>
<path d="M429.22 10.1401H167.8C160.593 10.1401 154.75 15.9828 154.75 23.1901V71.7001C154.75 78.9074 160.593 84.7501 167.8 84.7501H429.22C436.427 84.7501 442.27 78.9074 442.27 71.7001V23.1901C442.27 15.9828 436.427 10.1401 429.22 10.1401Z" fill="#1D0E33"/>
<path d="M277.53 68.5597H271.21L270.13 61.3297H262.44L261.36 68.5597H255.61L261.99 28.6997H271.16L277.54 68.5597H277.53ZM263.23 55.9097H269.27L266.25 35.7497L263.23 55.9097Z" fill="#BB9FFF"/>
<path d="M280.43 28.6899H290.34C296.6 28.6899 299.68 32.1599 299.68 38.5399V58.6999C299.68 65.0799 296.6 68.5499 290.34 68.5499H280.43V28.6899ZM286.69 34.3899V62.8599H290.22C292.21 62.8599 293.41 61.8299 293.41 58.9899V38.2599C293.41 35.4099 292.21 34.3899 290.22 34.3899H286.69Z" fill="#BB9FFF"/>
<path d="M316.93 56.9999L321.2 28.6999H329.91V68.5599H323.99V39.9699L319.66 68.5599H313.74L309.07 40.3699V68.5599H303.6V28.6899H312.31L316.92 56.9899L316.93 56.9999Z" fill="#BB9FFF"/>
<path d="M334.47 28.6899H340.73V68.5499H334.47V28.6899Z" fill="#BB9FFF"/>
<path d="M350.87 39.6899V68.5599H345.23V28.6899H353.09L359.53 52.5499V28.6899H365.11V68.5499H358.68L350.88 39.6799L350.87 39.6899Z" fill="#BB9FFF"/>
<path d="M224.69 68.5599C224.69 76.5399 212.97 80.2799 198.51 80.2799C184.05 80.2799 172.33 76.0599 172.33 68.5599C172.33 54.0999 184.05 42.3799 198.51 42.3799C212.97 42.3799 224.69 54.0999 224.69 68.5599Z" fill="#BB9FFF"/>
<path d="M224.69 68.5603C224.69 76.5403 212.97 80.2803 198.51 80.2803C187.75 80.2803 178.5 77.9403 174.48 73.6503C179.19 75.5603 185.6 76.5603 192.66 76.5603C207.12 76.5603 218.84 72.8203 218.84 64.8403C218.84 56.8603 215.2 49.5803 209.48 44.7803C218.46 48.9303 224.69 58.0203 224.69 68.5603Z" fill="#9046F9"/>
<path d="M198.51 49.9801C208.28 49.9801 216.2 42.06 216.2 32.2901C216.2 22.5202 208.28 14.6001 198.51 14.6001C188.74 14.6001 180.82 22.5202 180.82 32.2901C180.82 42.06 188.74 49.9801 198.51 49.9801Z" fill="#BB9FFF"/>
<path d="M216.2 32.29C216.2 42.06 208.28 49.98 198.51 49.98C190.13 49.98 183.11 44.15 181.28 36.32C183.95 41.77 189.55 45.52 196.02 45.52C205.08 45.52 212.43 38.18 212.43 29.11C212.43 24.06 210.15 19.55 206.56 16.54C212.28 19.47 216.2 25.42 216.2 32.29Z" fill="#9046F9"/>
<path d="M191.98 26.1102C189.1 28.9902 187.13 31.6902 185.25 29.8102C183.37 27.9302 184.19 24.0802 187.07 21.2002C189.95 18.3202 193.8 17.5102 195.68 19.3802C197.55 21.2502 194.86 23.2302 191.98 26.1102Z" fill="#E8E1FF"/>
<path d="M186.53 57.3202C183.65 60.2002 181.68 62.9002 179.8 61.0202C177.92 59.1402 178.74 55.2902 181.62 52.4102C184.5 49.5302 188.35 48.7202 190.23 50.5902C192.1 52.4602 189.41 54.4402 186.53 57.3202Z" fill="#E8E1FF"/>
</g>
<defs>
<clipPath id="clip0_9_4627">
<rect width="307.63" height="117.72" fill="white" transform="translate(144.7)"/>
</clipPath>
</defs>
</svg>
