<svg width="375" height="422" viewBox="0 0 375 422" fill="none" xmlns="http://www.w3.org/2000/svg">
<path d="M35.3801 3.40991H340.35C357.56 3.40991 371.54 17.3799 371.54 34.5999V386.56C371.54 403.77 357.57 417.75 340.35 417.75H35.3801C18.1701 417.75 4.20007 403.78 4.20007 386.57V34.5899C4.20007 17.3799 18.1701 3.40991 35.3801 3.40991Z" fill="#531ED3"/>
<path d="M340.35 6.82C355.69 6.82 368.13 19.26 368.13 34.6V386.57C368.13 401.91 355.69 414.35 340.35 414.35H35.3801C20.0401 414.35 7.60004 401.91 7.60004 386.57V34.59C7.60004 19.25 20.0401 6.81 35.3801 6.81H340.35M340.35 0H35.3801C16.3001 0 0.790039 15.52 0.790039 34.59V386.56C0.790039 405.64 16.3101 421.15 35.3801 421.15H340.35C359.43 421.15 374.94 405.63 374.94 386.56V34.59C374.94 15.51 359.42 0 340.35 0Z" fill="#0E361B"/>
<path d="M368.13 353.89V34.6C368.13 19.2576 355.692 6.82007 340.35 6.82007L35.39 6.82007C20.0475 6.82007 7.61002 19.2576 7.61002 34.6V353.89C7.61002 369.232 20.0475 381.67 35.39 381.67H340.35C355.692 381.67 368.13 369.232 368.13 353.89Z" fill="#9046F9"/>
<path d="M331.12 16.5601H44.61C29.4774 16.5601 17.21 28.8275 17.21 43.9601V336.85C17.21 351.983 29.4774 364.25 44.61 364.25H331.12C346.253 364.25 358.52 351.983 358.52 336.85V43.9601C358.52 28.8275 346.253 16.5601 331.12 16.5601Z" fill="#BB9FFF"/>
<path opacity="0.22" d="M327.9 407.28C332.705 407.28 336.6 403.385 336.6 398.58C336.6 393.775 332.705 389.88 327.9 389.88H47.8501C43.0452 389.88 39.1501 393.775 39.1501 398.58C39.1501 403.385 43.0452 407.28 47.8501 407.28H327.9Z" fill="#BB9FFF"/>
<path d="M340.35 377.83H35.3801C20.0401 377.83 7.6001 365.39 7.6001 350.05V353.89C7.6001 369.23 20.0401 381.67 35.3801 381.67H340.35C355.69 381.67 368.13 369.23 368.13 353.89V350.05C368.13 365.39 355.69 377.83 340.35 377.83Z" fill="#9A5AFF"/>
<path d="M17.21 98.1601V125.36L93.67 16.5601H73.22L17.21 98.1601Z" fill="#E8E1FF"/>
<path d="M17.21 79.3101L67.73 16.5601H44.61C42.22 16.5601 39.9 16.8701 37.69 17.4401L17.22 42.4501V79.3101H17.21Z" fill="#E8E1FF"/>
<path d="M358.52 289.78V262.58L282.06 364.25H302.52L358.52 289.78Z" fill="#E8E1FF"/>
<path d="M358.52 297.07L308 364.25H331.12C333.51 364.25 335.83 363.94 338.04 363.37L358.51 336.14V297.07H358.52Z" fill="#E8E1FF"/>
<path d="M136.012 284.983L144.279 336.65H136.086L134.684 327.276H124.719L123.317 336.65H115.862L124.129 284.983H136.012ZM129.664 294.135L125.752 320.264H133.576L129.664 294.135ZM148.06 336.65V284.983H160.903C169.022 284.983 173.008 289.485 173.008 297.752V323.881C173.008 332.147 169.022 336.65 160.903 336.65H148.06ZM160.755 292.364H156.179V329.269H160.755C163.339 329.269 164.889 327.94 164.889 324.25V297.383C164.889 293.692 163.339 292.364 160.755 292.364ZM189.408 284.983L195.387 321.666L200.923 284.983H212.216V336.65H204.539V299.597L198.93 336.65H191.254L185.201 300.114V336.65H178.116V284.983H189.408ZM218.122 336.65V284.983H226.241V336.65H218.122ZM249.523 336.65L239.411 299.228V336.65H232.103V284.983H242.289L250.63 315.909V284.983H257.863V336.65H249.523Z" fill="#1D0E33"/>
<path d="M326.73 47.9299H48.9901C38.088 47.9299 29.2501 56.7678 29.2501 67.6699V242.84C29.2501 253.742 38.088 262.58 48.9901 262.58H326.73C337.632 262.58 346.47 253.742 346.47 242.84V67.6699C346.47 56.7678 337.632 47.9299 326.73 47.9299Z" fill="#E8E1FF"/>
<path d="M326.47 34.6001H49.2501C38.2044 34.6001 29.2501 43.5544 29.2501 54.6001V234.95C29.2501 245.996 38.2044 254.95 49.2501 254.95H326.47C337.516 254.95 346.47 245.996 346.47 234.95V54.6001C346.47 43.5544 337.516 34.6001 326.47 34.6001Z" fill="#1D0E33"/>
<path d="M257.8 201.18C257.8 222.5 226.49 232.49 187.87 232.49C149.25 232.49 117.94 221.21 117.94 201.18C117.94 162.56 149.25 131.25 187.87 131.25C226.49 131.25 257.8 162.56 257.8 201.18Z" fill="#BB9FFF"/>
<path d="M257.8 201.18C257.8 222.5 226.49 232.49 187.87 232.49C159.12 232.49 134.42 226.24 123.67 214.78C136.25 219.87 153.37 222.56 172.24 222.56C210.86 222.56 242.17 212.56 242.17 191.25C242.17 169.94 232.46 150.5 217.18 137.67C241.16 148.76 257.8 173.03 257.8 201.18Z" fill="#9046F9"/>
<path d="M187.87 151.55C213.966 151.55 235.12 130.396 235.12 104.3C235.12 78.2046 213.966 57.05 187.87 57.05C161.775 57.05 140.62 78.2046 140.62 104.3C140.62 130.396 161.775 151.55 187.87 151.55Z" fill="#BB9FFF"/>
<path d="M235.11 104.29C235.11 130.38 213.96 151.54 187.86 151.54C165.47 151.54 146.71 135.96 141.84 115.05C148.97 129.6 163.92 139.62 181.22 139.62C205.42 139.62 225.04 120 225.04 95.8C225.04 82.31 218.95 70.25 209.37 62.21C224.65 70.04 235.11 85.94 235.11 104.29Z" fill="#9046F9"/>
<path d="M170.44 87.8C162.75 95.49 157.47 102.69 152.47 97.69C147.46 92.68 149.64 82.38 157.33 74.69C165.02 67 175.32 64.82 180.33 69.83C185.34 74.84 178.14 80.11 170.44 87.8Z" fill="#E8E1FF"/>
<path d="M155.87 171.15C148.18 178.84 142.9 186.04 137.9 181.04C132.89 176.03 135.07 165.73 142.76 158.04C150.45 150.35 160.75 148.17 165.76 153.18C170.77 158.19 163.57 163.46 155.87 171.15Z" fill="#E8E1FF"/>
</svg>
