<svg width="1920" height="154" viewBox="0 0 1920 154" fill="none" xmlns="http://www.w3.org/2000/svg">
<g clip-path="url(#clip0_215_239)">
<path opacity="0.9" d="M0 153.75V38.16V0H1920V153.75H700.84H0Z" fill="url(#paint0_linear_215_239)"/>
</g>
<path d="M106.05 26H87.64C63.0081 26 43.04 45.9681 43.04 70.6V89.72C43.04 114.352 63.0081 134.32 87.64 134.32H106.05C130.682 134.32 150.65 114.352 150.65 89.72V70.6C150.65 45.9681 130.682 26 106.05 26Z" fill="#127B93"/>
<path d="M106.05 28.0402C129.55 28.0402 148.61 47.0902 148.61 70.6002V89.7302C148.61 113.23 129.56 132.29 106.05 132.29H87.63C64.13 132.29 45.07 113.24 45.07 89.7302V70.6002C45.08 47.0902 64.13 28.0402 87.64 28.0402H106.06M106.05 23.9602H87.63C61.92 23.9602 41 44.8802 41 70.5902V89.7202C41 115.44 61.92 136.36 87.64 136.36H106.06C131.78 136.36 152.7 115.44 152.7 89.7202V70.5902C152.7 44.8702 131.78 23.9502 106.06 23.9502L106.05 23.9602Z" fill="#002C3A"/>
<path d="M106.27 112.72C129.654 112.72 148.61 93.7638 148.61 70.38C148.61 46.9963 129.654 28.04 106.27 28.04H87.42C64.0363 28.04 45.08 46.9963 45.08 70.38C45.08 93.7638 64.0363 112.72 87.42 112.72H106.27Z" fill="#06BADD"/>
<path d="M107.41 33.8701H86.27C66.697 33.8701 50.83 49.7371 50.83 69.3101C50.83 88.8831 66.697 104.75 86.27 104.75H107.41C126.983 104.75 142.85 88.8831 142.85 69.3101C142.85 49.7371 126.983 33.8701 107.41 33.8701Z" fill="#34EBE6"/>
<path d="M77.6299 77.4199C77.1999 77.3499 76.8099 77.2599 76.4299 77.2299C72.9399 76.9399 69.3699 73.3399 69.9099 68.8899C70.0999 67.2799 70.7499 65.8599 71.8799 64.6999C74.0899 62.4399 76.3299 60.2099 78.5599 57.9699C82.4399 54.0799 86.3199 50.1999 90.1999 46.3199C90.6699 45.8499 91.1599 45.3999 91.6299 44.9299C94.2099 42.3399 99.1499 42.0899 102.01 44.8899C104.51 47.3299 106.96 49.8199 109.44 52.2799C113.31 56.1399 117.16 60.0099 121.04 63.8399C122.4 65.1799 123.43 66.6799 123.74 68.5999C124.16 71.2599 123.27 73.4799 121.37 75.3199C120.08 76.5699 118.52 77.2099 116.72 77.2999C116.58 77.2999 116.45 77.3199 116.31 77.3399C116.25 77.3399 116.2 77.3799 116.11 77.4199V77.9099C116.11 81.2699 116.15 84.6299 116.1 87.9799C116.03 92.0799 112.88 94.6599 110.2 95.0499C109.54 95.1399 108.88 95.2099 108.21 95.2099C100.59 95.2199 92.9699 95.2099 85.3399 95.2299C82.6699 95.2299 80.5099 94.2499 78.9299 92.0999C78.0599 90.9199 77.6599 89.5499 77.6399 88.1099C77.5899 84.7499 77.6299 81.3999 77.6299 78.0399C77.6299 77.8599 77.6299 77.6799 77.6299 77.4499V77.4199ZM101.36 83.9699C101.36 83.9699 101.33 83.9699 101.32 83.9699C101.32 83.0299 101.34 82.0899 101.32 81.1599C101.3 80.3299 100.97 79.6099 100.39 79.0099C98.7799 77.3399 96.7499 77.0699 94.6899 77.9999C93.3099 78.6199 92.4099 79.7299 92.3499 81.2999C92.2899 83.0799 92.3299 84.8699 92.3499 86.6499C92.3499 87.2899 92.5299 87.8999 92.9099 88.4399C94.1999 90.2399 96.5399 90.9799 98.5899 90.1599C100.26 89.4999 101.48 88.2699 101.36 86.0999C101.32 85.3899 101.36 84.6799 101.36 83.9699Z" fill="#9FFFFA"/>
<path d="M77.6299 74.3901C77.1999 74.3201 76.8099 74.2301 76.4299 74.2001C72.9399 73.9101 69.3699 70.3101 69.9099 65.8601C70.0999 64.2501 70.7499 62.8301 71.8799 61.6701C74.0899 59.4101 76.3299 57.1801 78.5599 54.9401C82.4399 51.0501 86.3199 47.1701 90.1999 43.2901C90.6699 42.8201 91.1599 42.3701 91.6299 41.9001C94.2099 39.3101 99.1499 39.0601 102.01 41.8601C104.51 44.3001 106.96 46.7901 109.44 49.2501C113.31 53.1101 117.16 56.9801 121.04 60.8101C122.4 62.1501 123.43 63.6501 123.74 65.5701C124.16 68.2301 123.27 70.4501 121.37 72.2901C120.08 73.5401 118.52 74.1801 116.72 74.2701C116.58 74.2701 116.45 74.2901 116.31 74.3101C116.25 74.3101 116.2 74.3501 116.11 74.3901V74.8801C116.11 78.2401 116.15 81.6001 116.1 84.9501C116.03 89.0501 112.88 91.6301 110.2 92.0201C109.54 92.1101 108.88 92.1801 108.21 92.1801C100.59 92.1901 92.9699 92.1801 85.3399 92.2001C82.6699 92.2001 80.5099 91.2201 78.9299 89.0701C78.0599 87.8901 77.6599 86.5201 77.6399 85.0801C77.5899 81.7201 77.6299 78.3701 77.6299 75.0101C77.6299 74.8301 77.6299 74.6501 77.6299 74.4201V74.3901ZM101.36 80.9401C101.36 80.9401 101.33 80.9401 101.32 80.9401C101.32 80.0001 101.34 79.0601 101.32 78.1301C101.3 77.3001 100.97 76.5801 100.39 75.9801C98.7799 74.3101 96.7499 74.0401 94.6899 74.9701C93.3099 75.5901 92.4099 76.7001 92.3499 78.2701C92.2899 80.0501 92.3299 81.8401 92.3499 83.6201C92.3499 84.2601 92.5299 84.8701 92.9099 85.4101C94.1999 87.2101 96.5399 87.9501 98.5899 87.1301C100.26 86.4701 101.48 85.2401 101.36 83.0701C101.32 82.3601 101.36 81.6501 101.36 80.9401Z" fill="#002C3A"/>
<g clip-path="url(#clip1_215_239)">
<path d="M629.83 23.1499H209.79C197.673 23.1499 187.85 32.9728 187.85 45.0899V115.22C187.85 127.337 197.673 137.16 209.79 137.16H629.83C641.947 137.16 651.77 127.337 651.77 115.22V45.0899C651.77 32.9728 641.947 23.1499 629.83 23.1499Z" fill="#062D00"/>
<path d="M629.83 25.3C640.76 25.3 649.62 34.16 649.62 45.09V115.22C649.62 126.15 640.76 135.01 629.83 135.01H209.79C198.86 135.01 190 126.15 190 115.22V45.09C190 34.16 198.86 25.3 209.79 25.3H629.84M629.83 21H209.79C196.51 21 185.7 31.81 185.7 45.09V115.22C185.7 128.5 196.51 139.31 209.79 139.31H629.84C643.12 139.31 653.93 128.5 653.93 115.22V45.09C653.93 31.81 643.12 21 629.84 21H629.83Z" fill="#002C3A"/>
<path d="M649.62 94.1098V45.6198C649.62 34.3974 640.522 25.2998 629.3 25.2998L210.31 25.2998C199.088 25.2998 189.99 34.3974 189.99 45.6198V94.1098C189.99 105.332 199.088 114.43 210.31 114.43L629.3 114.43C640.522 114.43 649.62 105.332 649.62 94.1098Z" fill="#BDFA19"/>
<path d="M630.52 31.4302H209.1C201.893 31.4302 196.05 37.2729 196.05 44.4802V92.9902C196.05 100.197 201.893 106.04 209.1 106.04H630.52C637.727 106.04 643.57 100.197 643.57 92.9902V44.4802C643.57 37.2729 637.727 31.4302 630.52 31.4302Z" fill="#003A03"/>
<path d="M376.97 74.99V80.29C376.97 86.67 373.78 90.31 367.63 90.31C361.48 90.31 358.29 86.67 358.29 80.29V59.56C358.29 53.18 361.48 49.54 367.63 49.54C373.78 49.54 376.97 53.18 376.97 59.56V63.43H371.05V59.16C371.05 56.31 369.8 55.23 367.8 55.23C365.8 55.23 364.55 56.31 364.55 59.16V80.69C364.55 83.54 365.8 84.56 367.8 84.56C369.8 84.56 371.05 83.53 371.05 80.69V74.99H376.97Z" fill="#BDFA19"/>
<path d="M380.28 59.56C380.28 53.18 383.64 49.54 389.79 49.54C395.94 49.54 399.3 53.18 399.3 59.56V80.29C399.3 86.67 395.94 90.31 389.79 90.31C383.64 90.31 380.28 86.67 380.28 80.29V59.56ZM386.54 80.69C386.54 83.54 387.79 84.62 389.79 84.62C391.79 84.62 393.04 83.54 393.04 80.69V59.16C393.04 56.31 391.79 55.23 389.79 55.23C387.79 55.23 386.54 56.31 386.54 59.16V80.69Z" fill="#BDFA19"/>
<path d="M403.34 49.9902H409.6V84.1602H419.91V89.8502H403.34V49.9902Z" fill="#BDFA19"/>
<path d="M422.64 49.9902H428.9V84.1602H439.21V89.8502H422.64V49.9902Z" fill="#BDFA19"/>
<path d="M448.21 66.7902H456.81V72.4902H448.21V84.1602H459.03V89.8502H441.95V49.9902H459.03V55.6802H448.21V66.7802V66.7902Z" fill="#BDFA19"/>
<path d="M481.07 74.99V80.29C481.07 86.67 477.88 90.31 471.73 90.31C465.58 90.31 462.39 86.67 462.39 80.29V59.56C462.39 53.18 465.58 49.54 471.73 49.54C477.88 49.54 481.07 53.18 481.07 59.56V63.43H475.15V59.16C475.15 56.31 473.9 55.23 471.9 55.23C469.9 55.23 468.65 56.31 468.65 59.16V80.69C468.65 83.54 469.9 84.56 471.9 84.56C473.9 84.56 475.15 83.53 475.15 80.69V74.99H481.07Z" fill="#BDFA19"/>
<path d="M483.06 49.9902H502.42V55.6802H495.87V89.8502H489.61V55.6802H483.06V49.9902Z" fill="#BDFA19"/>
<path d="M505.16 49.9902H511.42V89.8502H505.16V49.9902Z" fill="#BDFA19"/>
<path d="M515.46 59.56C515.46 53.18 518.82 49.54 524.97 49.54C531.12 49.54 534.48 53.18 534.48 59.56V80.29C534.48 86.67 531.12 90.31 524.97 90.31C518.82 90.31 515.46 86.67 515.46 80.29V59.56ZM521.73 80.69C521.73 83.54 522.98 84.62 524.98 84.62C526.98 84.62 528.23 83.54 528.23 80.69V59.16C528.23 56.31 526.98 55.23 524.98 55.23C522.98 55.23 521.73 56.31 521.73 59.16V80.69Z" fill="#BDFA19"/>
<path d="M544.11 60.9802V89.8502H538.47V49.9902H546.33L552.77 73.8502V49.9902H558.35V89.8502H551.92L544.12 60.9802H544.11Z" fill="#BDFA19"/>
<path d="M246.66 50.0102C246 46.6502 245.36 43.6902 244.87 40.7002C244.84 40.5302 244.85 40.3602 244.89 40.1802C245.05 39.3102 246 38.8402 246.82 39.1602C247.01 39.2402 247.21 39.3202 247.4 39.3902C248.81 39.9402 250.19 40.8402 251.63 40.9602C254.29 41.1902 256.94 41.1002 259.25 42.7602C259.54 42.9702 260.2 42.7502 260.67 42.6402C262.99 42.1202 265.33 41.6502 267.63 41.0102C269.29 40.5502 270.88 39.8402 272.5 39.2502C272.67 39.1902 272.84 39.1302 273.01 39.0702C273.85 38.7702 274.79 39.2902 274.9 40.1702C274.91 40.2702 274.91 40.3702 274.9 40.4602C274.39 43.5902 273.75 46.6902 273.13 49.9202C275.26 50.5202 277.6 51.0802 279.87 51.8502C283.36 53.0402 284.01 54.0902 283.79 57.6802C283.72 58.7502 283.73 59.4802 285.03 60.0102C288.25 61.3302 288.92 62.8402 288.34 66.3002C287.01 74.2502 281.69 78.5102 274.48 80.5702C264.42 83.4502 254.22 83.4602 244.22 80.2302C237.39 78.0202 232.55 73.6802 231.4 66.1302C230.89 62.7802 231.55 61.3502 234.67 60.0402C235.89 59.5302 236.05 58.8502 235.98 57.7302C235.75 53.9902 236.28 53.1902 239.83 51.8502C240.99 51.4102 242.22 51.1202 243.42 50.8002C244.53 50.5002 245.65 50.2502 246.66 50.0102ZM281.85 55.8402C278.54 53.3902 275.09 52.9402 271.64 52.5102C271.39 52.4802 271.07 52.7202 270.84 52.9102C269.17 54.2602 267.52 55.6302 265.54 57.2602C266.27 57.9502 267.08 59.3502 267.85 59.3302C272.52 59.1702 277.14 58.5502 281.86 55.8402H281.85ZM253.92 57.0402C252.2 55.6302 250.66 54.3602 249.1 53.1002C248.81 52.8602 248.45 52.4502 248.17 52.4902C244.71 52.9402 241.23 53.3602 238.01 55.7802C239.01 56.3502 239.68 56.9502 240.45 57.1402C243.62 57.9402 246.82 58.6102 250 59.3402C252.09 59.8202 253.5 59.1702 253.92 57.0402ZM235.81 62.2602C234.35 62.4302 233.34 63.4702 233.89 65.2102C234.7 67.7502 235.72 70.2502 236.93 72.6302C237.45 73.6502 238.66 74.3102 239.56 75.1402C239.73 72.6002 239.77 70.3602 239.1 68.3402C238.43 66.3102 237.07 64.5202 235.81 62.2602ZM283.59 62.2102C283.22 63.3402 283.19 64.6202 282.54 65.1902C279.44 67.9002 280.68 71.6302 279.51 75.1002C283.06 73.5502 285.22 69.9602 285.88 65.5502C286.17 63.6102 285.62 62.5602 283.6 62.2102H283.59Z" fill="#BDFA19"/>
<path d="M241.1 82.4001C253.6 86.4901 265.93 86.5301 278.24 82.5101C279.46 88.6301 277.47 92.2801 271.71 93.9201C263.64 96.2101 255.54 96.0701 247.47 93.7901C243.86 92.7701 241.61 90.7301 241.61 86.7001C241.61 85.3201 241.3 83.9401 241.11 82.3901L241.1 82.4001Z" fill="#BDFA19"/>
<path d="M272.45 90.9004C263.88 93.3404 255.27 93.1904 246.69 90.7704C244.45 90.1404 242.71 89.1304 241.64 87.5504C241.94 91.0304 244.11 92.8504 247.46 93.8004C255.53 96.0804 263.64 96.2204 271.7 93.9304C275.91 92.7304 278.1 90.4604 278.51 86.9404C277.35 88.7804 275.35 90.0804 272.44 90.9104L272.45 90.9004Z" fill="#DCFF48"/>
<path d="M260.08 79.6C249.93 79.6 240.73 77.1 233.96 73.04C236.25 76.51 239.82 78.81 244.21 80.23C254.21 83.46 264.41 83.45 274.47 80.57C279.1 79.24 282.96 77.01 285.47 73.47C278.78 77.28 269.87 79.61 260.08 79.61V79.6Z" fill="#DCFF48"/>
<path opacity="0.62" d="M260.41 44.4204V54.8904C260.41 55.8404 261 56.7004 261.9 57.0304C262.68 57.3204 263.55 57.1604 264.17 56.6204L272.25 49.6304L272.98 42.3504C273.05 41.6804 272.42 41.1504 271.78 41.3304L260.41 44.4304V44.4204Z" fill="#6FD800"/>
</g>
<path d="M925.65 29.0049H1218.99C1231.04 29.0049 1240.82 38.7849 1240.82 50.8349V107.775C1240.82 119.825 1231.04 129.605 1218.99 129.605H925.64C913.59 129.605 903.81 119.825 903.81 107.775V50.8349C903.82 38.7849 913.6 29.0049 925.65 29.0049Z" fill="#043559"/>
<path d="M1218.98 30.895C1229.99 30.895 1238.91 39.815 1238.91 50.825V107.765C1238.91 118.775 1229.99 127.695 1218.98 127.695H925.65C914.64 127.695 905.72 118.775 905.72 107.765V50.835C905.71 39.825 914.64 30.895 925.65 30.895H1218.99M1218.98 27.105H925.65C912.56 27.105 901.92 37.745 901.92 50.835V107.775C901.92 120.855 912.56 131.505 925.65 131.505H1218.99C1232.07 131.505 1242.72 120.865 1242.72 107.775V50.835C1242.72 37.755 1232.08 27.105 1218.99 27.105H1218.98Z" fill="#002C3A"/>
<path d="M1238.92 89.135V51.295C1238.92 40.0284 1229.79 30.895 1218.52 30.895L926.12 30.895C914.853 30.895 905.72 40.0284 905.72 51.295V89.135C905.72 100.402 914.853 109.535 926.12 109.535L1218.52 109.535C1229.79 109.535 1238.92 100.402 1238.92 89.135Z" fill="#1091FC"/>
<path d="M925.04 35.2251H1219.58C1227.9 35.2251 1234.65 41.9751 1234.65 50.2951V88.1451C1234.65 96.4651 1227.9 103.215 1219.58 103.215H925.04C916.72 103.215 909.97 96.4651 909.97 88.1451V50.3051C909.97 41.9851 916.72 35.2351 925.04 35.2351V35.2251Z" fill="#043E68"/>
<path d="M1219.58 36.315C1227.31 36.315 1233.57 42.575 1233.57 50.305V88.155C1233.57 95.885 1227.31 102.145 1219.58 102.145H925.04C917.31 102.145 911.05 95.885 911.05 88.155V50.305C911.05 42.575 917.31 36.315 925.04 36.315H1219.58ZM1219.58 34.145H925.04C916.13 34.145 908.88 41.395 908.88 50.305V88.155C908.88 97.065 916.13 104.315 925.04 104.315H1219.58C1228.49 104.315 1235.74 97.065 1235.74 88.155V50.305C1235.74 41.395 1228.49 34.145 1219.58 34.145Z" fill="#03ABFF"/>
<path d="M1215.99 40.585H1067.97C1060.96 40.585 1055.27 46.2709 1055.27 53.285V84.635C1055.27 91.649 1060.96 97.335 1067.97 97.335H1215.99C1223 97.335 1228.69 91.649 1228.69 84.635V53.285C1228.69 46.2709 1223 40.585 1215.99 40.585Z" fill="#00263D"/>
<path d="M939.32 85.105V81.105C939.8 81.145 940.36 81.145 940.84 81.145C942.24 81.145 943.36 80.625 943.36 78.465V57.105H947.76V78.145C947.76 83.745 944.76 85.185 941.44 85.185C940.64 85.185 940.04 85.185 939.32 85.105ZM960.514 57.105L964.994 85.105H960.554L959.794 80.025H954.394L953.634 85.105H949.594L954.074 57.105H960.514ZM957.074 62.065L954.954 76.225H959.194L957.074 62.065ZM975.604 74.665H979.764V78.385C979.764 82.865 977.524 85.425 973.204 85.425C968.884 85.425 966.644 82.865 966.644 78.385V63.825C966.644 59.345 968.884 56.785 973.204 56.785C977.524 56.785 979.764 59.345 979.764 63.825V66.545H975.604V63.545C975.604 61.545 974.724 60.785 973.324 60.785C971.924 60.785 971.044 61.545 971.044 63.545V78.665C971.044 80.665 971.924 81.385 973.324 81.385C974.724 81.385 975.604 80.665 975.604 78.665V74.665ZM992.474 85.105L988.194 73.945L986.834 76.505V85.105H982.434V57.105H986.834V69.305L992.594 57.105H996.994L990.874 69.585L996.994 85.105H992.474ZM1005.48 57.105C1009.88 57.105 1012.04 59.545 1012.04 64.025V67.665C1012.04 72.145 1009.88 74.585 1005.48 74.585H1003.4V85.105H998.997V57.105H1005.48ZM1005.48 61.105H1003.4V70.585H1005.48C1006.88 70.585 1007.64 69.945 1007.64 67.945V63.745C1007.64 61.745 1006.88 61.105 1005.48 61.105ZM1018.11 63.545V78.665C1018.11 80.665 1018.99 81.425 1020.39 81.425C1021.79 81.425 1022.67 80.665 1022.67 78.665V63.545C1022.67 61.545 1021.79 60.785 1020.39 60.785C1018.99 60.785 1018.11 61.545 1018.11 63.545ZM1013.71 78.385V63.825C1013.71 59.345 1016.07 56.785 1020.39 56.785C1024.71 56.785 1027.07 59.345 1027.07 63.825V78.385C1027.07 82.865 1024.71 85.425 1020.39 85.425C1016.07 85.425 1013.71 82.865 1013.71 78.385ZM1028.65 61.105V57.105H1042.25V61.105H1037.65V85.105H1033.25V61.105H1028.65Z" fill="white"/>
<path d="M1087.56 63.745V60.625C1090.96 60.625 1091.72 58.985 1092.4 57.105H1095.36V85.105H1090.96V63.745H1087.56ZM1109.18 65.545V63.985C1109.18 61.465 1108.3 60.785 1106.9 60.785C1105.5 60.785 1104.62 61.545 1104.62 63.545V65.345H1100.46V63.825C1100.46 59.345 1102.7 56.785 1107.02 56.785C1111.34 56.785 1113.58 59.345 1113.58 63.825V64.545C1113.58 67.545 1112.62 69.425 1110.5 70.305C1112.7 71.265 1113.58 73.345 1113.58 76.185V78.385C1113.58 82.865 1111.34 85.425 1107.02 85.425C1102.7 85.425 1100.46 82.865 1100.46 78.385V76.065H1104.62V78.665C1104.62 80.665 1105.5 81.425 1106.9 81.425C1108.3 81.425 1109.18 80.745 1109.18 78.265V76.065C1109.18 73.465 1108.3 72.505 1106.3 72.505H1104.82V68.505H1106.54C1108.18 68.505 1109.18 67.785 1109.18 65.545ZM1116.56 80.865H1120.8V85.105H1116.56V80.865ZM1123.78 76.065H1127.94V78.665C1127.94 80.665 1128.82 81.385 1130.22 81.385C1131.62 81.385 1132.5 80.665 1132.5 78.665V72.505C1132.5 70.505 1131.62 69.745 1130.22 69.745C1128.82 69.745 1127.94 70.505 1127.94 72.505V73.345H1123.78L1124.58 57.105H1136.18V61.105H1128.54L1128.18 67.785C1128.98 66.465 1130.26 65.745 1132.02 65.745C1135.26 65.745 1136.9 68.025 1136.9 72.145V78.385C1136.9 82.865 1134.66 85.425 1130.34 85.425C1126.02 85.425 1123.78 82.865 1123.78 78.385V76.065ZM1148.56 63.985C1148.56 61.465 1147.68 60.785 1146.28 60.785C1144.88 60.785 1144 61.545 1144 63.545V66.545H1139.84V63.825C1139.84 59.345 1142.08 56.785 1146.4 56.785C1150.72 56.785 1152.96 59.345 1152.96 63.825C1152.96 72.625 1144.2 75.905 1144.2 80.505C1144.2 80.705 1144.2 80.905 1144.24 81.105H1152.56V85.105H1139.84V81.665C1139.84 73.425 1148.56 72.065 1148.56 63.985ZM1161.35 63.825C1161.35 59.345 1163.55 56.785 1167.83 56.785C1172.11 56.785 1174.31 59.345 1174.31 63.825V64.705H1170.15V63.545C1170.15 61.545 1169.35 60.785 1167.95 60.785C1166.55 60.785 1165.75 61.545 1165.75 63.545C1165.75 69.305 1174.35 70.385 1174.35 78.385C1174.35 82.865 1172.11 85.425 1167.79 85.425C1163.47 85.425 1161.23 82.865 1161.23 78.385V76.665H1165.39V78.665C1165.39 80.665 1166.27 81.385 1167.67 81.385C1169.07 81.385 1169.95 80.665 1169.95 78.665C1169.95 72.905 1161.35 71.825 1161.35 63.825ZM1180.91 63.545V78.665C1180.91 80.665 1181.79 81.425 1183.19 81.425C1184.59 81.425 1185.47 80.665 1185.47 78.665V63.545C1185.47 61.545 1184.59 60.785 1183.19 60.785C1181.79 60.785 1180.91 61.545 1180.91 63.545ZM1176.51 78.385V63.825C1176.51 59.345 1178.87 56.785 1183.19 56.785C1187.51 56.785 1189.87 59.345 1189.87 63.825V78.385C1189.87 82.865 1187.51 85.425 1183.19 85.425C1178.87 85.425 1176.51 82.865 1176.51 78.385ZM1192.73 85.105V57.105H1197.13V81.105H1204.37V85.105H1192.73Z" fill="#7BDAFF"/>
<path d="M1580.79 29.0049H1291.43C1278.27 29.0049 1267.61 39.6695 1267.61 52.8249V105.785C1267.61 118.94 1278.27 129.605 1291.43 129.605H1580.79C1593.95 129.605 1604.61 118.94 1604.61 105.785V52.8249C1604.61 39.6695 1593.95 29.0049 1580.79 29.0049Z" fill="#043559"/>
<path d="M1580.79 30.895C1592.9 30.895 1602.71 40.705 1602.71 52.815V105.785C1602.71 117.895 1592.9 127.705 1580.79 127.705H1291.43C1279.32 127.705 1269.51 117.895 1269.51 105.785V52.815C1269.51 40.705 1279.32 30.895 1291.43 30.895H1580.79ZM1580.79 27.105H1291.43C1277.25 27.105 1265.72 38.635 1265.72 52.815V105.785C1265.72 119.965 1277.25 131.495 1291.43 131.495H1580.79C1594.97 131.495 1606.5 119.965 1606.5 105.785V52.815C1606.5 38.635 1594.97 27.105 1580.79 27.105Z" fill="#002C3A"/>
<path d="M1602.71 87.155V53.275C1602.71 40.9149 1592.69 30.895 1580.33 30.895L1291.89 30.895C1279.53 30.895 1269.51 40.9149 1269.51 53.275V87.155C1269.51 99.5152 1279.53 109.535 1291.89 109.535L1580.33 109.535C1592.69 109.535 1602.71 99.5152 1602.71 87.155Z" fill="#1091FC"/>
<path d="M1581.4 35.2251H1290.83C1281.41 35.2251 1273.77 42.8631 1273.77 52.2851V86.1651C1273.77 95.5871 1281.41 103.225 1290.83 103.225H1581.4C1590.82 103.225 1598.46 95.5871 1598.46 86.1651V52.2851C1598.46 42.8631 1590.82 35.2251 1581.4 35.2251Z" fill="#043E68"/>
<path d="M1581.39 36.315C1590.21 36.315 1597.37 43.465 1597.37 52.295V86.175C1597.37 94.995 1590.22 102.155 1581.39 102.155H1290.82C1282 102.155 1274.84 95.005 1274.84 86.175V52.285C1274.84 43.465 1281.99 36.305 1290.82 36.305H1581.39M1581.39 34.145H1290.82C1280.82 34.145 1272.68 42.285 1272.68 52.285V86.165C1272.68 96.165 1280.82 104.305 1290.82 104.305H1581.39C1591.39 104.305 1599.53 96.165 1599.53 86.165V52.285C1599.53 42.285 1591.39 34.145 1581.39 34.145Z" fill="#03ABFF"/>
<path d="M1578.56 40.585H1432.98C1425.29 40.585 1419.06 46.8172 1419.06 54.505V83.415C1419.06 91.1028 1425.29 97.335 1432.98 97.335H1578.56C1586.25 97.335 1592.48 91.1028 1592.48 83.415V54.505C1592.48 46.8172 1586.25 40.585 1578.56 40.585Z" fill="#00263D"/>
<path d="M1314.38 61.825C1314.38 57.345 1316.58 54.785 1320.86 54.785C1325.14 54.785 1327.34 57.345 1327.34 61.825V62.705H1323.18V61.545C1323.18 59.545 1322.38 58.785 1320.98 58.785C1319.58 58.785 1318.78 59.545 1318.78 61.545C1318.78 67.305 1327.38 68.385 1327.38 76.385C1327.38 80.865 1325.14 83.425 1320.82 83.425C1316.5 83.425 1314.26 80.865 1314.26 76.385V74.665H1318.42V76.665C1318.42 78.665 1319.3 79.385 1320.7 79.385C1322.1 79.385 1322.98 78.665 1322.98 76.665C1322.98 70.905 1314.38 69.825 1314.38 61.825ZM1333.94 61.545V76.665C1333.94 78.665 1334.82 79.425 1336.22 79.425C1337.62 79.425 1338.5 78.665 1338.5 76.665V61.545C1338.5 59.545 1337.62 58.785 1336.22 58.785C1334.82 58.785 1333.94 59.545 1333.94 61.545ZM1329.54 76.385V61.825C1329.54 57.345 1331.9 54.785 1336.22 54.785C1340.54 54.785 1342.9 57.345 1342.9 61.825V76.385C1342.9 80.865 1340.54 83.425 1336.22 83.425C1331.9 83.425 1329.54 80.865 1329.54 76.385ZM1345.76 83.105V55.105H1350.16V79.105H1357.4V83.105H1345.76ZM1357.91 83.105L1368.95 55.105H1372.75L1361.71 83.105H1357.91ZM1374.43 62.225C1374.43 58.465 1375.99 56.065 1379.07 55.385V53.305H1382.67V55.385C1385.79 56.025 1387.39 58.425 1387.39 62.225V63.105H1383.23V61.945C1383.23 59.945 1382.43 59.185 1381.03 59.185C1379.63 59.185 1378.83 59.945 1378.83 61.945C1378.83 67.705 1387.43 67.985 1387.43 75.985C1387.43 79.785 1385.79 82.225 1382.67 82.865V84.905H1379.07V82.865C1375.91 82.225 1374.31 79.785 1374.31 75.985V74.065H1378.47V76.265C1378.47 78.265 1379.35 78.985 1380.75 78.985C1382.15 78.985 1383.03 78.265 1383.03 76.265C1383.03 70.505 1374.43 70.225 1374.43 62.225Z" fill="white"/>
<path d="M1471.11 74.065H1475.27V76.665C1475.27 78.665 1476.15 79.385 1477.55 79.385C1478.95 79.385 1479.83 78.665 1479.83 76.665V70.505C1479.83 68.505 1478.95 67.745 1477.55 67.745C1476.15 67.745 1475.27 68.505 1475.27 70.505V71.345H1471.11L1471.91 55.105H1483.51V59.105H1475.87L1475.51 65.785C1476.31 64.465 1477.59 63.745 1479.35 63.745C1482.59 63.745 1484.23 66.025 1484.23 70.145V76.385C1484.23 80.865 1481.99 83.425 1477.67 83.425C1473.35 83.425 1471.11 80.865 1471.11 76.385V74.065ZM1500.09 61.825V76.145C1500.09 80.865 1497.93 83.425 1493.37 83.425C1489.05 83.425 1486.81 80.865 1486.81 76.385V75.665H1490.97V76.665C1490.97 78.665 1491.85 79.425 1493.25 79.425C1494.81 79.425 1495.69 78.665 1495.69 75.985V70.865C1494.93 72.465 1493.57 73.345 1491.61 73.345C1488.37 73.345 1486.73 71.065 1486.73 66.945V61.825C1486.73 57.345 1489.09 54.785 1493.41 54.785C1497.73 54.785 1500.09 57.345 1500.09 61.825ZM1493.41 69.345C1494.81 69.345 1495.69 68.585 1495.69 66.585V61.545C1495.69 59.545 1494.81 58.825 1493.41 58.825C1492.01 58.825 1491.13 59.545 1491.13 61.545V66.585C1491.13 68.585 1492.01 69.345 1493.41 69.345ZM1503.03 78.865H1507.27V83.105H1503.03V78.865ZM1519.17 61.985C1519.17 59.465 1518.29 58.785 1516.89 58.785C1515.49 58.785 1514.61 59.545 1514.61 61.545V64.545H1510.45V61.825C1510.45 57.345 1512.69 54.785 1517.01 54.785C1521.33 54.785 1523.57 57.345 1523.57 61.825C1523.57 70.625 1514.81 73.905 1514.81 78.505C1514.81 78.705 1514.81 78.905 1514.85 79.105H1523.17V83.105H1510.45V79.665C1510.45 71.425 1519.17 70.065 1519.17 61.985ZM1534.79 63.545V61.985C1534.79 59.465 1533.91 58.785 1532.51 58.785C1531.11 58.785 1530.23 59.545 1530.23 61.545V63.345H1526.07V61.825C1526.07 57.345 1528.31 54.785 1532.63 54.785C1536.95 54.785 1539.19 57.345 1539.19 61.825V62.545C1539.19 65.545 1538.23 67.425 1536.11 68.305C1538.31 69.265 1539.19 71.345 1539.19 74.185V76.385C1539.19 80.865 1536.95 83.425 1532.63 83.425C1528.31 83.425 1526.07 80.865 1526.07 76.385V74.065H1530.23V76.665C1530.23 78.665 1531.11 79.425 1532.51 79.425C1533.91 79.425 1534.79 78.745 1534.79 76.265V74.065C1534.79 71.465 1533.91 70.505 1531.91 70.505H1530.43V66.505H1532.15C1533.79 66.505 1534.79 65.785 1534.79 63.545Z" fill="#7BDAFF"/>
<path d="M1687.51 29.0249H1704.89C1728.12 29.0249 1746.98 47.8849 1746.98 71.1149V89.1749C1746.98 112.405 1728.12 131.265 1704.89 131.265H1687.51C1664.28 131.265 1645.42 112.405 1645.42 89.1749V71.1149C1645.42 47.8849 1664.28 29.0249 1687.51 29.0249Z" fill="#127B93"/>
<path d="M1704.9 30.955C1727.08 30.955 1745.07 48.935 1745.07 71.125V89.185C1745.07 111.365 1727.09 129.355 1704.9 129.355H1687.52C1665.34 129.355 1647.35 111.375 1647.35 89.185V71.125C1647.35 48.945 1665.33 30.955 1687.52 30.955H1704.9ZM1704.9 27.105H1687.52C1663.25 27.105 1643.5 46.855 1643.5 71.125V89.185C1643.5 113.455 1663.25 133.205 1687.52 133.205H1704.9C1729.17 133.205 1748.92 113.455 1748.92 89.185V71.125C1748.92 46.855 1729.17 27.105 1704.9 27.105Z" fill="#002C3A"/>
<path d="M1745.07 70.925V70.915C1745.07 48.8457 1727.18 30.9551 1705.11 30.9551H1687.32C1665.25 30.9551 1647.36 48.8457 1647.36 70.915V70.925C1647.36 92.9943 1665.25 110.885 1687.32 110.885H1705.11C1727.18 110.885 1745.07 92.9943 1745.07 70.925Z" fill="#06BADD"/>
<path d="M1706.19 36.4551H1686.23C1667.76 36.4551 1652.78 51.4312 1652.78 69.9051C1652.78 88.379 1667.76 103.355 1686.23 103.355H1706.19C1724.66 103.355 1739.64 88.379 1739.64 69.9051C1739.64 51.4312 1724.66 36.4551 1706.19 36.4551Z" fill="#34EBE6"/>
<path d="M1677.23 78.8653C1678.27 80.0653 1679.44 81.1253 1680.71 82.0753C1682.69 83.5753 1684.86 84.7153 1687.2 85.5453C1687.36 85.6053 1687.37 85.6453 1687.27 85.7753C1686.69 86.5453 1686.11 87.3153 1685.54 88.0853C1685.46 88.1953 1685.38 88.2253 1685.24 88.2253C1683.91 88.1653 1682.61 87.9553 1681.32 87.6653C1678.58 87.0353 1676.01 85.9853 1673.67 84.4153C1672.28 83.4853 1671.03 82.3853 1669.92 81.1353C1669.86 81.0653 1669.85 80.9953 1669.85 80.9053C1669.93 79.6753 1670.03 78.4453 1670.17 77.2153C1670.31 75.9253 1670.48 74.6353 1670.69 73.3553C1671.34 69.3553 1672.3 65.4353 1673.72 61.6353C1674.55 59.4053 1675.5 57.2353 1676.71 55.1853C1676.92 54.8353 1677.17 54.5553 1677.5 54.3253C1679.91 52.6453 1682.52 51.3853 1685.34 50.5753C1686.49 50.2453 1687.65 50.0253 1688.84 49.8953C1688.96 49.8853 1689.03 49.9053 1689.09 50.0353C1689.22 50.3253 1689.37 50.6153 1689.52 50.9053C1689.58 51.0253 1689.59 51.0653 1689.44 51.0953C1688.01 51.4253 1686.61 51.8653 1685.26 52.4353C1683.16 53.3253 1681.25 54.5353 1679.49 55.9953C1679.16 56.2753 1678.83 56.5553 1678.51 56.8353C1678.48 56.8653 1678.43 56.8853 1678.42 56.9453C1678.5 56.9653 1678.55 56.9153 1678.61 56.8853C1680.29 56.0353 1681.98 55.2053 1683.74 54.5253C1685.78 53.7353 1687.88 53.1453 1690.04 52.7853C1692.57 52.3653 1695.11 52.2453 1697.67 52.3253C1701.09 52.4353 1704.44 53.0053 1707.67 54.1553C1709.79 54.9053 1711.8 55.8853 1713.8 56.8953C1713.86 56.9253 1713.92 56.9553 1713.98 56.9753C1714 56.9753 1714.02 57.0053 1714.04 56.9753C1714.04 56.9753 1714.02 56.9553 1714.01 56.9453C1713.45 56.4153 1712.85 55.9253 1712.25 55.4453C1710.17 53.7753 1707.84 52.5953 1705.31 51.7753C1704.53 51.5253 1703.74 51.3053 1702.95 51.1053C1702.83 51.0753 1702.82 51.0453 1702.87 50.9453C1703.02 50.6653 1703.17 50.3853 1703.29 50.0953C1703.36 49.9353 1703.46 49.9053 1703.62 49.9153C1704.55 50.0153 1705.47 50.1653 1706.38 50.3953C1709.59 51.2053 1712.51 52.6453 1715.2 54.5553C1715.32 54.6453 1715.42 54.7453 1715.5 54.8753C1716.42 56.3453 1717.17 57.9053 1717.84 59.4953C1718.86 61.9053 1719.69 64.3853 1720.36 66.9253C1720.99 69.3053 1721.48 71.7253 1721.84 74.1653C1722.12 75.9953 1722.32 77.8353 1722.47 79.6753C1722.5 80.0853 1722.52 80.4853 1722.56 80.8953C1722.56 81.0153 1722.53 81.0953 1722.46 81.1853C1720.41 83.4953 1717.93 85.1953 1715.09 86.3953C1713.31 87.1453 1711.46 87.6653 1709.55 87.9853C1708.75 88.1153 1707.95 88.2153 1707.14 88.2453C1707.03 88.2453 1706.97 88.2253 1706.9 88.1353C1706.31 87.3453 1705.72 86.5553 1705.12 85.7653C1705.02 85.6353 1705.08 85.6153 1705.19 85.5753C1707.42 84.7853 1709.51 83.7053 1711.42 82.3053C1712.79 81.3053 1714.05 80.1653 1715.17 78.8853C1715.19 78.8653 1715.2 78.8453 1715.22 78.8253C1715.24 78.8253 1715.25 78.8153 1715.27 78.8053C1715.27 78.8053 1715.24 78.7853 1715.23 78.7953C1715.2 78.7953 1715.23 78.8153 1715.23 78.8253C1715.19 78.7753 1715.17 78.8253 1715.15 78.8453C1714.68 79.1753 1714.21 79.5053 1713.73 79.8253C1711.6 81.2353 1709.31 82.3153 1706.87 83.0953C1705.22 83.6253 1703.54 83.9953 1701.82 84.2553C1699.31 84.6253 1696.79 84.7153 1694.26 84.6053C1690.94 84.4553 1687.69 83.8953 1684.55 82.7653C1682.03 81.8553 1679.68 80.6053 1677.51 79.0153C1677.43 78.9553 1677.34 78.9053 1677.26 78.8453C1677.24 78.8153 1677.22 78.7753 1677.17 78.8253C1677.17 78.8153 1677.2 78.7953 1677.17 78.7953C1677.16 78.7953 1677.14 78.7953 1677.13 78.8053C1677.15 78.8053 1677.16 78.8153 1677.18 78.8253L1677.23 78.8853V78.8653ZM1684.22 71.3953C1684.23 71.6753 1684.23 71.9053 1684.26 72.1453C1684.43 73.4053 1684.95 74.4853 1685.93 75.3253C1687.47 76.6553 1689.75 76.5353 1691.16 75.0753C1691.94 74.2753 1692.4 73.3253 1692.54 72.2253C1692.76 70.5353 1692.33 69.0453 1691.12 67.8153C1689.61 66.2853 1687.15 66.3053 1685.65 67.8553C1684.68 68.8553 1684.24 70.0653 1684.22 71.3953ZM1708.18 71.6553C1708.18 70.2253 1707.8 69.1153 1707.02 68.1653C1706.24 67.2253 1705.24 66.6853 1704 66.6753C1702.76 66.6753 1701.76 67.2053 1700.97 68.1453C1700.33 68.8953 1699.96 69.7653 1699.85 70.7453C1699.64 72.5453 1700.13 74.1153 1701.52 75.3353C1703.04 76.6653 1705.31 76.5453 1706.72 75.1053C1707.71 74.0953 1708.16 72.8653 1708.18 71.6553ZM1678.41 56.9653C1678.41 56.9653 1678.41 56.9653 1678.4 56.9553C1678.4 56.9553 1678.4 56.9753 1678.39 56.9753C1678.39 56.9753 1678.39 56.9753 1678.4 56.9853C1678.4 56.9853 1678.4 56.9653 1678.41 56.9653Z" fill="#71FFF4"/>
<path d="M1677.23 76.4751C1678.27 77.6751 1679.44 78.7351 1680.71 79.6851C1682.69 81.1851 1684.86 82.3251 1687.2 83.1551C1687.36 83.2151 1687.37 83.2551 1687.27 83.3851C1686.69 84.1551 1686.11 84.9251 1685.54 85.6951C1685.46 85.8051 1685.38 85.8351 1685.24 85.8351C1683.91 85.7751 1682.61 85.5651 1681.32 85.2751C1678.58 84.6451 1676.01 83.5951 1673.67 82.0251C1672.28 81.0951 1671.03 79.9951 1669.92 78.7451C1669.86 78.6751 1669.85 78.6051 1669.85 78.5151C1669.93 77.2851 1670.03 76.0551 1670.17 74.8251C1670.31 73.5351 1670.48 72.2451 1670.69 70.9651C1671.34 66.9651 1672.3 63.0451 1673.72 59.2451C1674.55 57.0151 1675.5 54.8451 1676.71 52.7951C1676.92 52.4451 1677.17 52.1651 1677.5 51.9351C1679.91 50.2551 1682.52 48.9951 1685.34 48.1851C1686.49 47.8551 1687.65 47.6351 1688.84 47.5051C1688.96 47.4951 1689.03 47.5151 1689.09 47.6451C1689.22 47.9351 1689.37 48.2251 1689.52 48.5151C1689.58 48.6351 1689.59 48.6751 1689.44 48.7051C1688.01 49.0351 1686.61 49.4751 1685.26 50.0451C1683.16 50.9351 1681.25 52.1451 1679.49 53.6051C1679.16 53.8851 1678.83 54.1651 1678.51 54.4451C1678.48 54.4751 1678.43 54.4951 1678.42 54.5551C1678.5 54.5751 1678.55 54.5251 1678.61 54.4951C1680.29 53.6451 1681.98 52.8151 1683.74 52.1351C1685.78 51.3451 1687.88 50.7551 1690.04 50.3951C1692.57 49.9751 1695.11 49.8551 1697.67 49.9351C1701.09 50.0451 1704.44 50.6151 1707.67 51.7651C1709.79 52.5151 1711.8 53.4951 1713.8 54.5051C1713.86 54.5351 1713.92 54.5651 1713.98 54.5851C1714 54.5851 1714.02 54.6151 1714.04 54.5851C1714.04 54.5851 1714.02 54.5651 1714.01 54.5551C1713.45 54.0251 1712.85 53.5351 1712.25 53.0551C1710.17 51.3851 1707.84 50.2051 1705.31 49.3851C1704.53 49.1351 1703.74 48.9151 1702.95 48.7151C1702.83 48.6851 1702.82 48.6551 1702.87 48.5551C1703.02 48.2751 1703.17 47.9951 1703.29 47.7051C1703.36 47.5451 1703.46 47.5151 1703.62 47.5251C1704.55 47.6251 1705.47 47.7751 1706.38 48.0051C1709.59 48.8151 1712.51 50.2551 1715.2 52.1651C1715.32 52.2551 1715.42 52.3551 1715.5 52.4851C1716.42 53.9551 1717.17 55.5151 1717.84 57.1051C1718.86 59.5151 1719.69 61.9951 1720.36 64.5351C1720.99 66.9151 1721.48 69.3351 1721.84 71.7751C1722.12 73.6051 1722.32 75.4451 1722.47 77.2851C1722.5 77.6951 1722.52 78.0951 1722.56 78.5051C1722.56 78.6251 1722.53 78.7051 1722.46 78.7951C1720.41 81.1051 1717.93 82.8051 1715.09 84.0051C1713.31 84.7551 1711.46 85.2751 1709.55 85.5951C1708.75 85.7251 1707.95 85.8251 1707.14 85.8551C1707.03 85.8551 1706.97 85.8351 1706.9 85.7451C1706.31 84.9551 1705.72 84.1651 1705.12 83.3751C1705.02 83.2451 1705.08 83.2251 1705.19 83.1851C1707.42 82.3951 1709.51 81.3151 1711.42 79.9151C1712.79 78.9151 1714.05 77.7751 1715.17 76.4951C1715.19 76.4751 1715.2 76.4551 1715.22 76.4351C1715.24 76.4351 1715.25 76.4251 1715.27 76.4151C1715.27 76.4151 1715.24 76.3951 1715.23 76.4051C1715.2 76.4051 1715.23 76.4251 1715.23 76.4351C1715.19 76.3851 1715.17 76.4351 1715.15 76.4551C1714.68 76.7851 1714.21 77.1151 1713.73 77.4351C1711.6 78.8451 1709.31 79.9251 1706.87 80.7051C1705.22 81.2351 1703.54 81.6051 1701.82 81.8651C1699.31 82.2351 1696.79 82.3251 1694.26 82.2151C1690.94 82.0651 1687.69 81.5051 1684.55 80.3751C1682.03 79.4651 1679.68 78.2151 1677.51 76.6251C1677.43 76.5651 1677.34 76.5151 1677.26 76.4551C1677.24 76.4251 1677.22 76.3851 1677.17 76.4351C1677.17 76.4251 1677.2 76.4051 1677.17 76.4051C1677.16 76.4051 1677.14 76.4051 1677.13 76.4151C1677.15 76.4151 1677.16 76.4251 1677.18 76.4351L1677.23 76.4951V76.4751ZM1684.22 69.0051C1684.23 69.2851 1684.23 69.5151 1684.26 69.7551C1684.43 71.0151 1684.95 72.0951 1685.93 72.9351C1687.47 74.2651 1689.75 74.1451 1691.16 72.6851C1691.94 71.8851 1692.4 70.9351 1692.54 69.8351C1692.76 68.1451 1692.33 66.6551 1691.12 65.4251C1689.61 63.8951 1687.15 63.9151 1685.65 65.4651C1684.68 66.4651 1684.24 67.6751 1684.22 69.0051ZM1708.18 69.2551C1708.18 67.8251 1707.8 66.7151 1707.02 65.7651C1706.24 64.8251 1705.24 64.2851 1704 64.2751C1702.76 64.2751 1701.76 64.8051 1700.97 65.7451C1700.33 66.4951 1699.96 67.3651 1699.85 68.3451C1699.64 70.1451 1700.13 71.7151 1701.52 72.9351C1703.04 74.2651 1705.31 74.1451 1706.72 72.7051C1707.71 71.6951 1708.16 70.4651 1708.18 69.2551ZM1678.41 54.5751C1678.41 54.5751 1678.41 54.5751 1678.4 54.5651C1678.4 54.5651 1678.4 54.5851 1678.39 54.5851C1678.39 54.5851 1678.39 54.5851 1678.4 54.5951C1678.4 54.5951 1678.4 54.5751 1678.41 54.5751Z" fill="#002C3A"/>
<path d="M1814.94 29.0249H1832.32C1855.55 29.0249 1874.41 47.8849 1874.41 71.1149V89.1749C1874.41 112.405 1855.55 131.265 1832.32 131.265H1814.94C1791.71 131.265 1772.85 112.405 1772.85 89.1749V71.1149C1772.85 47.8849 1791.71 29.0249 1814.94 29.0249Z" fill="#127B93"/>
<path d="M1832.32 30.955C1854.5 30.955 1872.49 48.935 1872.49 71.125V89.185C1872.49 111.365 1854.51 129.355 1832.32 129.355H1814.94C1792.76 129.355 1774.77 111.375 1774.77 89.185V71.125C1774.77 48.945 1792.75 30.955 1814.94 30.955H1832.32ZM1832.32 27.105H1814.94C1790.67 27.105 1770.92 46.855 1770.92 71.125V89.185C1770.92 113.455 1790.67 133.205 1814.94 133.205H1832.32C1856.59 133.205 1876.34 113.455 1876.34 89.185V71.125C1876.34 46.855 1856.59 27.105 1832.32 27.105Z" fill="#002C3A"/>
<path d="M1872.49 70.9148V70.9048C1872.49 48.8355 1854.6 30.9448 1832.53 30.9448H1814.74C1792.67 30.9448 1774.78 48.8355 1774.78 70.9048V70.9148C1774.78 92.9841 1792.67 110.875 1814.74 110.875H1832.53C1854.6 110.875 1872.49 92.9841 1872.49 70.9148Z" fill="#06BADD"/>
<path d="M1833.61 36.4551H1813.65C1795.18 36.4551 1780.2 51.4312 1780.2 69.9051C1780.2 88.379 1795.18 103.355 1813.65 103.355H1833.61C1852.08 103.355 1867.06 88.379 1867.06 69.9051C1867.06 51.4312 1852.08 36.4551 1833.61 36.4551Z" fill="#34EBE6"/>
<path d="M1850.09 55.645C1848.33 56.415 1846.44 56.935 1844.45 57.165C1846.48 55.965 1848.04 54.075 1848.77 51.815C1846.87 52.925 1844.76 53.735 1842.53 54.165C1840.74 52.285 1838.18 51.105 1835.36 51.105C1829.93 51.105 1825.53 55.435 1825.53 60.785C1825.53 61.545 1825.62 62.275 1825.78 62.985C1817.61 62.585 1810.37 58.725 1805.52 52.875C1804.68 54.305 1804.19 55.965 1804.19 57.735C1804.19 61.095 1805.93 64.055 1808.56 65.785C1806.95 65.735 1805.43 65.295 1804.11 64.575V64.695C1804.11 65.935 1804.35 67.115 1804.78 68.205C1805.98 71.235 1808.68 73.535 1811.99 74.185C1811.16 74.405 1810.3 74.525 1809.4 74.525C1808.77 74.525 1808.15 74.465 1807.55 74.345C1808.8 78.185 1812.43 80.985 1816.73 81.065C1813.36 83.665 1809.13 85.205 1804.52 85.205C1803.73 85.205 1802.94 85.155 1802.17 85.065C1806.52 87.805 1811.69 89.415 1817.24 89.415C1832.61 89.415 1842.05 78.765 1844.54 67.725C1844.98 65.775 1845.21 63.805 1845.21 61.885C1845.21 61.465 1845.21 61.045 1845.18 60.635C1847.1 59.275 1848.77 57.565 1850.08 55.625L1850.09 55.645Z" fill="#71FFF4"/>
<path d="M1850.09 53.2548C1848.33 54.0248 1846.44 54.5448 1844.45 54.7748C1846.48 53.5748 1848.04 51.6848 1848.77 49.4248C1846.87 50.5348 1844.76 51.3448 1842.53 51.7748C1840.74 49.8948 1838.18 48.7148 1835.36 48.7148C1829.93 48.7148 1825.53 53.0448 1825.53 58.3948C1825.53 59.1548 1825.62 59.8848 1825.78 60.5948C1817.61 60.1948 1810.37 56.3348 1805.52 50.4848C1804.68 51.9148 1804.19 53.5748 1804.19 55.3448C1804.19 58.7048 1805.93 61.6648 1808.56 63.3948C1806.95 63.3448 1805.43 62.9048 1804.11 62.1848V62.3048C1804.11 63.5448 1804.35 64.7248 1804.78 65.8148C1805.98 68.8448 1808.68 71.1448 1811.99 71.7948C1811.16 72.0148 1810.3 72.1348 1809.4 72.1348C1808.77 72.1348 1808.15 72.0748 1807.55 71.9548C1808.8 75.7948 1812.43 78.5948 1816.73 78.6748C1813.36 81.2748 1809.13 82.8148 1804.52 82.8148C1803.73 82.8148 1802.94 82.7648 1802.17 82.6748C1806.52 85.4148 1811.69 87.0248 1817.24 87.0248C1832.61 87.0248 1842.05 76.3748 1844.54 65.3348C1844.98 63.3848 1845.21 61.4148 1845.21 59.4948C1845.21 59.0748 1845.21 58.6548 1845.18 58.2448C1847.1 56.8848 1848.77 55.1748 1850.08 53.2348L1850.09 53.2548Z" fill="#002C3A"/>
<defs>
<linearGradient id="paint0_linear_215_239" x1="960" y1="-63.47" x2="960" y2="250.92" gradientUnits="userSpaceOnUse">
<stop offset="0.33" stop-color="#0D5C7C"/>
<stop offset="0.6" stop-color="#094259"/>
</linearGradient>
<clipPath id="clip0_215_239">
<rect width="1920" height="153.75" fill="white"/>
</clipPath>
<clipPath id="clip1_215_239">
<rect width="468.22" height="118.31" fill="white" transform="translate(185.7 21)"/>
</clipPath>
</defs>
</svg>
