<svg width="375" height="422" viewBox="0 0 375 422" fill="none" xmlns="http://www.w3.org/2000/svg">
<path d="M34.75 3.40991H339.72C356.93 3.40991 370.91 17.3799 370.91 34.5999V386.56C370.91 403.77 356.94 417.75 339.72 417.75H34.75C17.54 417.75 3.57001 403.78 3.57001 386.57V34.5899C3.57001 17.3799 17.54 3.40991 34.75 3.40991Z" fill="#0C7E40"/>
<path d="M339.71 6.82C355.05 6.82 367.49 19.26 367.49 34.6V386.57C367.49 401.91 355.05 414.35 339.71 414.35H34.74C19.4 414.35 6.95999 401.91 6.95999 386.57V34.59C6.95999 19.25 19.4 6.81 34.74 6.81H339.71M339.71 0H34.74C15.66 0 0.149994 15.52 0.149994 34.59V386.56C0.149994 405.64 15.67 421.15 34.74 421.15H339.71C358.79 421.15 374.3 405.63 374.3 386.56V34.59C374.3 15.51 358.78 0 339.71 0Z" fill="#0E361B"/>
<path d="M367.49 353.89V34.6001C367.49 19.2576 355.052 6.82007 339.71 6.82007L34.75 6.82007C19.4075 6.82007 6.97 19.2576 6.97 34.6001V353.89C6.97 369.233 19.4075 381.67 34.75 381.67H339.71C355.052 381.67 367.49 369.233 367.49 353.89Z" fill="#6FD800"/>
<path d="M330.49 16.5601H43.98C28.8474 16.5601 16.58 28.8275 16.58 43.9601V336.85C16.58 351.983 28.8474 364.25 43.98 364.25H330.49C345.623 364.25 357.89 351.983 357.89 336.85V43.9601C357.89 28.8275 345.623 16.5601 330.49 16.5601Z" fill="#BDFA19"/>
<g opacity="0.51">
<path d="M327.25 389.87H47.2C42.3951 389.87 38.5 393.765 38.5 398.57C38.5 403.375 42.3951 407.27 47.2 407.27H327.25C332.055 407.27 335.95 403.375 335.95 398.57C335.95 393.765 332.055 389.87 327.25 389.87Z" fill="#0CA052"/>
</g>
<path d="M339.71 377.83H34.74C19.4 377.83 6.95999 365.39 6.95999 350.05V353.89C6.95999 369.23 19.4 381.67 34.74 381.67H339.71C355.05 381.67 367.49 369.23 367.49 353.89V350.05C367.49 365.39 355.05 377.83 339.71 377.83Z" fill="#D6FF57"/>
<path d="M16.58 98.1601V125.36L93.04 16.5601H72.58L16.58 98.1601Z" fill="#DCFF48"/>
<path d="M16.58 79.3101L67.1 16.5601H43.98C41.59 16.5601 39.27 16.8701 37.06 17.4401L16.59 42.4501V79.3101H16.58Z" fill="#DCFF48"/>
<path d="M357.89 289.78V262.58L281.43 364.25H301.88L357.89 289.78Z" fill="#DCFF48"/>
<path d="M357.89 297.07L307.37 364.25H330.49C332.88 364.25 335.2 363.94 337.41 363.37L357.88 336.14V297.07H357.89Z" fill="#DCFF48"/>
<path d="M74.5315 317.385H82.2078V324.25C82.2078 332.517 78.0744 337.24 70.1029 337.24C62.1315 337.24 57.9981 332.517 57.9981 324.25V297.383C57.9981 289.116 62.1315 284.392 70.1029 284.392C78.0744 284.392 82.2078 289.116 82.2078 297.383V302.402H74.5315V296.866C74.5315 293.176 72.9077 291.773 70.3244 291.773C67.741 291.773 66.1172 293.176 66.1172 296.866V324.766C66.1172 328.457 67.741 329.786 70.3244 329.786C72.9077 329.786 74.5315 328.457 74.5315 324.766V317.385ZM94.5888 296.866V324.766C94.5888 328.457 96.2127 329.859 98.796 329.859C101.379 329.859 103.003 328.457 103.003 324.766V296.866C103.003 293.176 101.379 291.773 98.796 291.773C96.2127 291.773 94.5888 293.176 94.5888 296.866ZM86.4697 324.25V297.383C86.4697 289.116 90.8245 284.392 98.796 284.392C106.767 284.392 111.122 289.116 111.122 297.383V324.25C111.122 332.517 106.767 337.24 98.796 337.24C90.8245 337.24 86.4697 332.517 86.4697 324.25ZM116.399 336.65V284.983H124.518V329.269H137.877V336.65H116.399ZM141.41 336.65V284.983H149.529V329.269H162.889V336.65H141.41ZM174.541 292.364V306.757H185.687V314.138H174.541V329.269H188.565V336.65H166.422V284.983H188.565V292.364H174.541ZM209.465 317.385H217.142V324.25C217.142 332.517 213.008 337.24 205.037 337.24C197.065 337.24 192.932 332.517 192.932 324.25V297.383C192.932 289.116 197.065 284.392 205.037 284.392C213.008 284.392 217.142 289.116 217.142 297.383V302.402H209.465V296.866C209.465 293.176 207.842 291.773 205.258 291.773C202.675 291.773 201.051 293.176 201.051 296.866V324.766C201.051 328.457 202.675 329.786 205.258 329.786C207.842 329.786 209.465 328.457 209.465 324.766V317.385ZM219.706 292.364V284.983H244.801V292.364H236.313V336.65H228.194V292.364H219.706ZM248.377 336.65V284.983H256.496V336.65H248.377ZM269.888 296.866V324.766C269.888 328.457 271.511 329.859 274.095 329.859C276.678 329.859 278.302 328.457 278.302 324.766V296.866C278.302 293.176 276.678 291.773 274.095 291.773C271.511 291.773 269.888 293.176 269.888 296.866ZM261.768 324.25V297.383C261.768 289.116 266.123 284.392 274.095 284.392C282.066 284.392 286.421 289.116 286.421 297.383V324.25C286.421 332.517 282.066 337.24 274.095 337.24C266.123 337.24 261.768 332.517 261.768 324.25ZM309.043 336.65L298.931 299.228V336.65H291.623V284.983H301.809L310.15 315.909V284.983H317.383V336.65H309.043Z" fill="#0E3318"/>
<path d="M325.98 47.9299H48.24C37.3379 47.9299 28.5 56.7678 28.5 67.6699V242.84C28.5 253.742 37.3379 262.58 48.24 262.58H325.98C336.882 262.58 345.72 253.742 345.72 242.84V67.6699C345.72 56.7678 336.882 47.9299 325.98 47.9299Z" fill="#DCFF48"/>
<path d="M325.72 34.6001H48.5C37.4543 34.6001 28.5 43.5544 28.5 54.6001V234.95C28.5 245.996 37.4543 254.95 48.5 254.95H325.72C336.766 254.95 345.72 245.996 345.72 234.95V54.6001C345.72 43.5544 336.766 34.6001 325.72 34.6001Z" fill="#0E3318"/>
<path d="M149.75 96.5001C147.88 87.0201 146.07 78.6401 144.7 70.1901C144.62 69.7101 144.65 69.2201 144.75 68.7201C145.21 66.2701 147.88 64.9201 150.19 65.8501C150.74 66.0701 151.28 66.2901 151.83 66.5001C155.81 68.0601 159.71 70.5801 163.79 70.9401C171.3 71.5901 178.79 71.3401 185.33 76.0401C186.16 76.6401 188.01 76.0001 189.34 75.7101C195.91 74.2401 202.52 72.9 209 71.09C213.69 69.78 218.19 67.7901 222.77 66.1201C223.25 65.9501 223.72 65.7701 224.2 65.6001C226.56 64.7601 229.24 66.2301 229.54 68.7201C229.57 69.0001 229.57 69.2801 229.53 69.5501C228.1 78.3901 226.28 87.1701 224.54 96.2801C230.56 97.9801 237.17 99.5501 243.58 101.74C253.44 105.12 255.29 108.07 254.66 118.2C254.47 121.22 254.49 123.27 258.17 124.78C267.28 128.5 269.16 132.77 267.53 142.55C263.78 165.02 248.72 177.06 228.37 182.89C199.93 191.03 171.11 191.05 142.85 181.93C123.55 175.7 109.87 163.41 106.63 142.08C105.2 132.62 107.04 128.57 115.88 124.87C119.34 123.42 119.77 121.51 119.58 118.34C118.94 107.78 120.43 105.52 130.46 101.72C133.75 100.48 137.2 99.6701 140.61 98.7501C143.74 97.9101 146.91 97.2001 149.76 96.5101L149.75 96.5001ZM249.22 112.99C239.87 106.07 230.11 104.79 220.35 103.58C219.65 103.49 218.73 104.18 218.08 104.7C213.37 108.52 208.69 112.4 203.09 117.01C205.16 118.96 207.46 122.93 209.61 122.86C222.8 122.41 235.86 120.65 249.21 113L249.22 112.99ZM170.27 116.38C165.42 112.41 161.04 108.81 156.65 105.24C155.82 104.57 154.81 103.4 154.02 103.5C144.25 104.77 134.42 105.95 125.32 112.8C128.15 114.42 130.04 116.11 132.21 116.66C141.16 118.92 150.21 120.83 159.21 122.88C165.12 124.23 169.09 122.39 170.28 116.38H170.27ZM119.09 131.13C114.95 131.61 112.1 134.56 113.67 139.47C115.96 146.66 118.85 153.73 122.26 160.45C123.72 163.33 127.15 165.2 129.68 167.53C130.15 160.35 130.26 154.01 128.39 148.32C126.51 142.59 122.65 137.52 119.08 131.13H119.09ZM254.12 130.99C253.06 134.19 252.98 137.81 251.14 139.42C242.38 147.07 245.88 157.63 242.57 167.43C252.61 163.06 258.72 152.9 260.57 140.44C261.38 134.97 259.82 131.99 254.11 130.99H254.12Z" fill="#BDFA19"/>
<path d="M134.05 188.06C169.39 199.62 204.21 199.73 239.01 188.38C242.45 205.67 236.83 215.99 220.54 220.62C197.75 227.1 174.84 226.71 152.02 220.26C141.82 217.38 135.45 211.61 135.46 200.23C135.46 196.33 134.58 192.43 134.04 188.06H134.05Z" fill="#BDFA19"/>
<path d="M222.64 212.08C198.42 218.96 174.09 218.55 149.84 211.7C143.51 209.91 138.58 207.06 135.57 202.61C136.4 212.43 142.56 217.6 152.03 220.27C174.85 226.72 197.75 227.11 220.55 220.63C232.45 217.25 238.64 210.83 239.78 200.88C236.49 206.07 230.84 209.76 222.64 212.09V212.08Z" fill="#DCFF48"/>
<path d="M187.69 180.15C159.02 180.15 133 173.08 113.88 161.6C120.36 171.4 130.44 177.91 142.84 181.92C171.1 191.05 199.92 191.02 228.36 182.88C241.45 179.13 252.34 172.81 259.45 162.8C240.54 173.57 215.35 180.15 187.69 180.15Z" fill="#DCFF48"/>
<path opacity="0.62" d="M188.63 80.7099V110.3C188.63 113 190.31 115.4 192.84 116.34C195.04 117.15 197.5 116.7 199.27 115.17L222.11 95.4099L224.17 74.8399C224.36 72.9499 222.6 71.4599 220.77 71.9599L188.63 80.7199V80.7099Z" fill="#6FD800"/>
</svg>
