<svg width="613" height="119" viewBox="0 0 613 119" fill="none" xmlns="http://www.w3.org/2000/svg">
<path d="M65.05 5H46.64C22.0081 5 2.03999 24.9681 2.03999 49.6V68.72C2.03999 93.3519 22.0081 113.32 46.64 113.32H65.05C89.6819 113.32 109.65 93.3519 109.65 68.72V49.6C109.65 24.9681 89.6819 5 65.05 5Z" fill="#127B93"/>
<path d="M65.05 7.0402C88.55 7.0402 107.61 26.0902 107.61 49.6002V68.7302C107.61 92.2302 88.56 111.29 65.05 111.29H46.63C23.13 111.29 4.07 92.2402 4.07 68.7302V49.6002C4.08 26.0902 23.13 7.0402 46.64 7.0402H65.06M65.05 2.9602H46.63C20.92 2.9602 0 23.8802 0 49.5902V68.7202C0 94.4402 20.92 115.36 46.64 115.36H65.06C90.78 115.36 111.7 94.4402 111.7 68.7202V49.5902C111.7 23.8702 90.78 2.9502 65.06 2.9502L65.05 2.9602Z" fill="#002C3A"/>
<path d="M65.27 91.72C88.6537 91.72 107.61 72.7638 107.61 49.38C107.61 25.9963 88.6537 7.04004 65.27 7.04004L46.42 7.04004C23.0363 7.04004 4.08 25.9963 4.08 49.38C4.08 72.7638 23.0363 91.72 46.42 91.72H65.27Z" fill="#06BADD"/>
<path d="M66.41 12.8701H45.27C25.697 12.8701 9.83 28.7371 9.83 48.3101C9.83 67.8831 25.697 83.7501 45.27 83.7501H66.41C85.983 83.7501 101.85 67.8831 101.85 48.3101C101.85 28.7371 85.983 12.8701 66.41 12.8701Z" fill="#34EBE6"/>
<path d="M36.6299 56.4199C36.1999 56.3499 35.8099 56.2599 35.4299 56.2299C31.9399 55.9399 28.3699 52.3399 28.9099 47.8899C29.0999 46.2799 29.7499 44.8599 30.8799 43.6999C33.0899 41.4399 35.3299 39.2099 37.5599 36.9699C41.4399 33.0799 45.3199 29.1999 49.1999 25.3199C49.6699 24.8499 50.1599 24.3999 50.6299 23.9299C53.2099 21.3399 58.1499 21.0899 61.0099 23.8899C63.5099 26.3299 65.9599 28.8199 68.4399 31.2799C72.3099 35.1399 76.1599 39.0099 80.0399 42.8399C81.3999 44.1799 82.4299 45.6799 82.7399 47.5999C83.1599 50.2599 82.2699 52.4799 80.3699 54.3199C79.0799 55.5699 77.5199 56.2099 75.7199 56.2999C75.5799 56.2999 75.4499 56.3199 75.3099 56.3399C75.2499 56.3399 75.1999 56.3799 75.1099 56.4199V56.9099C75.1099 60.2699 75.1499 63.6299 75.0999 66.9799C75.0299 71.0799 71.8799 73.6599 69.1999 74.0499C68.5399 74.1399 67.8799 74.2099 67.2099 74.2099C59.5899 74.2199 51.9699 74.2099 44.3399 74.2299C41.6699 74.2299 39.5099 73.2499 37.9299 71.0999C37.0599 69.9199 36.6599 68.5499 36.6399 67.1099C36.5899 63.7499 36.6299 60.3999 36.6299 57.0399C36.6299 56.8599 36.6299 56.6799 36.6299 56.4499V56.4199ZM60.3599 62.9699C60.3599 62.9699 60.3299 62.9699 60.3199 62.9699C60.3199 62.0299 60.3399 61.0899 60.3199 60.1599C60.2999 59.3299 59.9699 58.6099 59.3899 58.0099C57.7799 56.3399 55.7499 56.0699 53.6899 56.9999C52.3099 57.6199 51.4099 58.7299 51.3499 60.2999C51.2899 62.0799 51.3299 63.8699 51.3499 65.6499C51.3499 66.2899 51.5299 66.8999 51.9099 67.4399C53.1999 69.2399 55.5399 69.9799 57.5899 69.1599C59.2599 68.4999 60.4799 67.2699 60.3599 65.0999C60.3199 64.3899 60.3599 63.6799 60.3599 62.9699Z" fill="#9FFFFA"/>
<path d="M36.6299 53.3901C36.1999 53.3201 35.8099 53.2301 35.4299 53.2001C31.9399 52.9101 28.3699 49.3101 28.9099 44.8601C29.0999 43.2501 29.7499 41.8301 30.8799 40.6701C33.0899 38.4101 35.3299 36.1801 37.5599 33.9401C41.4399 30.0501 45.3199 26.1701 49.1999 22.2901C49.6699 21.8201 50.1599 21.3701 50.6299 20.9001C53.2099 18.3101 58.1499 18.0601 61.0099 20.8601C63.5099 23.3001 65.9599 25.7901 68.4399 28.2501C72.3099 32.1101 76.1599 35.9801 80.0399 39.8101C81.3999 41.1501 82.4299 42.6501 82.7399 44.5701C83.1599 47.2301 82.2699 49.4501 80.3699 51.2901C79.0799 52.5401 77.5199 53.1801 75.7199 53.2701C75.5799 53.2701 75.4499 53.2901 75.3099 53.3101C75.2499 53.3101 75.1999 53.3501 75.1099 53.3901V53.8801C75.1099 57.2401 75.1499 60.6001 75.0999 63.9501C75.0299 68.0501 71.8799 70.6301 69.1999 71.0201C68.5399 71.1101 67.8799 71.1801 67.2099 71.1801C59.5899 71.1901 51.9699 71.1801 44.3399 71.2001C41.6699 71.2001 39.5099 70.2201 37.9299 68.0701C37.0599 66.8901 36.6599 65.5201 36.6399 64.0801C36.5899 60.7201 36.6299 57.3701 36.6299 54.0101C36.6299 53.8301 36.6299 53.6501 36.6299 53.4201V53.3901ZM60.3599 59.9401C60.3599 59.9401 60.3299 59.9401 60.3199 59.9401C60.3199 59.0001 60.3399 58.0601 60.3199 57.1301C60.2999 56.3001 59.9699 55.5801 59.3899 54.9801C57.7799 53.3101 55.7499 53.0401 53.6899 53.9701C52.3099 54.5901 51.4099 55.7001 51.3499 57.2701C51.2899 59.0501 51.3299 60.8401 51.3499 62.6201C51.3499 63.2601 51.5299 63.8701 51.9099 64.4101C53.1999 66.2101 55.5399 66.9501 57.5899 66.1301C59.2599 65.4701 60.4799 64.2401 60.3599 62.0701C60.3199 61.3601 60.3599 60.6501 60.3599 59.9401Z" fill="#002C3A"/>
<g clip-path="url(#clip0_9_4457)">
<path d="M588.83 2.1499H168.79C156.673 2.1499 146.85 11.9728 146.85 24.0899V94.2199C146.85 106.337 156.673 116.16 168.79 116.16H588.83C600.947 116.16 610.77 106.337 610.77 94.2199V24.0899C610.77 11.9728 600.947 2.1499 588.83 2.1499Z" fill="#062D00"/>
<path d="M588.83 4.3C599.76 4.3 608.62 13.16 608.62 24.09V94.22C608.62 105.15 599.76 114.01 588.83 114.01H168.79C157.86 114.01 149 105.15 149 94.22V24.09C149 13.16 157.86 4.3 168.79 4.3H588.84M588.83 0H168.79C155.51 0 144.7 10.81 144.7 24.09V94.22C144.7 107.5 155.51 118.31 168.79 118.31H588.84C602.12 118.31 612.93 107.5 612.93 94.22V24.09C612.93 10.81 602.12 0 588.84 0H588.83Z" fill="#002C3A"/>
<path d="M608.62 73.1098V24.6198C608.62 13.3974 599.522 4.2998 588.3 4.2998L169.31 4.2998C158.088 4.2998 148.99 13.3974 148.99 24.6198V73.1098C148.99 84.3322 158.088 93.4298 169.31 93.4298L588.3 93.4298C599.522 93.4298 608.62 84.3322 608.62 73.1098Z" fill="#BDFA19"/>
<path d="M589.52 10.4302H168.1C160.893 10.4302 155.05 16.2729 155.05 23.4802V71.9902C155.05 79.1975 160.893 85.0402 168.1 85.0402H589.52C596.727 85.0402 602.57 79.1975 602.57 71.9902V23.4802C602.57 16.2729 596.727 10.4302 589.52 10.4302Z" fill="#003A03"/>
<path d="M335.97 53.99V59.29C335.97 65.67 332.78 69.31 326.63 69.31C320.48 69.31 317.29 65.67 317.29 59.29V38.56C317.29 32.18 320.48 28.54 326.63 28.54C332.78 28.54 335.97 32.18 335.97 38.56V42.43H330.05V38.16C330.05 35.31 328.8 34.23 326.8 34.23C324.8 34.23 323.55 35.31 323.55 38.16V59.69C323.55 62.54 324.8 63.56 326.8 63.56C328.8 63.56 330.05 62.53 330.05 59.69V53.99H335.97Z" fill="#BDFA19"/>
<path d="M339.28 38.56C339.28 32.18 342.64 28.54 348.79 28.54C354.94 28.54 358.3 32.18 358.3 38.56V59.29C358.3 65.67 354.94 69.31 348.79 69.31C342.64 69.31 339.28 65.67 339.28 59.29V38.56ZM345.54 59.69C345.54 62.54 346.79 63.62 348.79 63.62C350.79 63.62 352.04 62.54 352.04 59.69V38.16C352.04 35.31 350.79 34.23 348.79 34.23C346.79 34.23 345.54 35.31 345.54 38.16V59.69Z" fill="#BDFA19"/>
<path d="M362.34 28.9902H368.6V63.1602H378.91V68.8502H362.34V28.9902Z" fill="#BDFA19"/>
<path d="M381.64 28.9902H387.9V63.1602H398.21V68.8502H381.64V28.9902Z" fill="#BDFA19"/>
<path d="M407.21 45.7902H415.81V51.4902H407.21V63.1602H418.03V68.8502H400.95V28.9902H418.03V34.6802H407.21V45.7802V45.7902Z" fill="#BDFA19"/>
<path d="M440.07 53.99V59.29C440.07 65.67 436.88 69.31 430.73 69.31C424.58 69.31 421.39 65.67 421.39 59.29V38.56C421.39 32.18 424.58 28.54 430.73 28.54C436.88 28.54 440.07 32.18 440.07 38.56V42.43H434.15V38.16C434.15 35.31 432.9 34.23 430.9 34.23C428.9 34.23 427.65 35.31 427.65 38.16V59.69C427.65 62.54 428.9 63.56 430.9 63.56C432.9 63.56 434.15 62.53 434.15 59.69V53.99H440.07Z" fill="#BDFA19"/>
<path d="M442.06 28.9902H461.42V34.6802H454.87V68.8502H448.61V34.6802H442.06V28.9902Z" fill="#BDFA19"/>
<path d="M464.16 28.9902H470.42V68.8502H464.16V28.9902Z" fill="#BDFA19"/>
<path d="M474.46 38.56C474.46 32.18 477.82 28.54 483.97 28.54C490.12 28.54 493.48 32.18 493.48 38.56V59.29C493.48 65.67 490.12 69.31 483.97 69.31C477.82 69.31 474.46 65.67 474.46 59.29V38.56ZM480.73 59.69C480.73 62.54 481.98 63.62 483.98 63.62C485.98 63.62 487.23 62.54 487.23 59.69V38.16C487.23 35.31 485.98 34.23 483.98 34.23C481.98 34.23 480.73 35.31 480.73 38.16V59.69Z" fill="#BDFA19"/>
<path d="M503.11 39.9802V68.8502H497.47V28.9902H505.33L511.77 52.8502V28.9902H517.35V68.8502H510.92L503.12 39.9802H503.11Z" fill="#BDFA19"/>
<path d="M205.66 29.0102C205 25.6502 204.36 22.6902 203.87 19.7002C203.84 19.5302 203.85 19.3602 203.89 19.1802C204.05 18.3102 205 17.8402 205.82 18.1602C206.01 18.2402 206.21 18.3202 206.4 18.3902C207.81 18.9402 209.19 19.8402 210.63 19.9602C213.29 20.1902 215.94 20.1002 218.25 21.7602C218.54 21.9702 219.2 21.7502 219.67 21.6402C221.99 21.1202 224.33 20.6502 226.63 20.0102C228.29 19.5502 229.88 18.8402 231.5 18.2502C231.67 18.1902 231.84 18.1302 232.01 18.0702C232.85 17.7702 233.79 18.2902 233.9 19.1702C233.91 19.2702 233.91 19.3702 233.9 19.4602C233.39 22.5902 232.75 25.6902 232.13 28.9202C234.26 29.5202 236.6 30.0802 238.87 30.8502C242.36 32.0402 243.01 33.0902 242.79 36.6802C242.72 37.7502 242.73 38.4802 244.03 39.0102C247.25 40.3302 247.92 41.8402 247.34 45.3002C246.01 53.2502 240.69 57.5102 233.48 59.5702C223.42 62.4502 213.22 62.4602 203.22 59.2302C196.39 57.0202 191.55 52.6802 190.4 45.1302C189.89 41.7802 190.55 40.3502 193.67 39.0402C194.89 38.5302 195.05 37.8502 194.98 36.7302C194.75 32.9902 195.28 32.1902 198.83 30.8502C199.99 30.4102 201.22 30.1202 202.42 29.8002C203.53 29.5002 204.65 29.2502 205.66 29.0102ZM240.85 34.8402C237.54 32.3902 234.09 31.9402 230.64 31.5102C230.39 31.4802 230.07 31.7202 229.84 31.9102C228.17 33.2602 226.52 34.6302 224.54 36.2602C225.27 36.9502 226.08 38.3502 226.85 38.3302C231.52 38.1702 236.14 37.5502 240.86 34.8402H240.85ZM212.92 36.0402C211.2 34.6302 209.66 33.3602 208.1 32.1002C207.81 31.8602 207.45 31.4502 207.17 31.4902C203.71 31.9402 200.23 32.3602 197.01 34.7802C198.01 35.3502 198.68 35.9502 199.45 36.1402C202.62 36.9402 205.82 37.6102 209 38.3402C211.09 38.8202 212.5 38.1702 212.92 36.0402ZM194.81 41.2602C193.35 41.4302 192.34 42.4702 192.89 44.2102C193.7 46.7502 194.72 49.2502 195.93 51.6302C196.45 52.6502 197.66 53.3102 198.56 54.1402C198.73 51.6002 198.77 49.3602 198.1 47.3402C197.43 45.3102 196.07 43.5202 194.81 41.2602ZM242.59 41.2102C242.22 42.3402 242.19 43.6202 241.54 44.1902C238.44 46.9002 239.68 50.6302 238.51 54.1002C242.06 52.5502 244.22 48.9602 244.88 44.5502C245.17 42.6102 244.62 41.5602 242.6 41.2102H242.59Z" fill="#BDFA19"/>
<path d="M200.1 61.4001C212.6 65.4901 224.93 65.5301 237.24 61.5101C238.46 67.6301 236.47 71.2801 230.71 72.9201C222.64 75.2101 214.54 75.0701 206.47 72.7901C202.86 71.7701 200.61 69.7301 200.61 65.7001C200.61 64.3201 200.3 62.9401 200.11 61.3901L200.1 61.4001Z" fill="#BDFA19"/>
<path d="M231.45 69.9004C222.88 72.3404 214.27 72.1904 205.69 69.7704C203.45 69.1404 201.71 68.1304 200.64 66.5504C200.94 70.0304 203.11 71.8504 206.46 72.8004C214.53 75.0804 222.64 75.2204 230.7 72.9304C234.91 71.7304 237.1 69.4604 237.51 65.9404C236.35 67.7804 234.35 69.0804 231.44 69.9104L231.45 69.9004Z" fill="#DCFF48"/>
<path d="M219.08 58.6C208.93 58.6 199.73 56.1 192.96 52.04C195.25 55.51 198.82 57.81 203.21 59.23C213.21 62.46 223.41 62.45 233.47 59.57C238.1 58.24 241.96 56.01 244.47 52.47C237.78 56.28 228.87 58.61 219.08 58.61V58.6Z" fill="#DCFF48"/>
<path opacity="0.62" d="M219.41 23.4204V33.8904C219.41 34.8404 220 35.7004 220.9 36.0304C221.68 36.3204 222.55 36.1604 223.17 35.6204L231.25 28.6304L231.98 21.3504C232.05 20.6804 231.42 20.1504 230.78 20.3304L219.41 23.4304V23.4204Z" fill="#6FD800"/>
</g>
<defs>
<clipPath id="clip0_9_4457">
<rect width="468.22" height="118.31" fill="white" transform="translate(144.7)"/>
</clipPath>
</defs>
</svg>
