<svg width="598" height="876" viewBox="0 0 598 876" fill="none" xmlns="http://www.w3.org/2000/svg">
<g clip-path="url(#clip0_216_240)">
<path d="M575.92 20.7998H21.5C9.62588 20.7998 0 30.4257 0 42.2998V854.51C0 866.384 9.62588 876.01 21.5 876.01H575.92C587.794 876.01 597.42 866.384 597.42 854.51V42.2998C597.42 30.4257 587.794 20.7998 575.92 20.7998Z" fill="#08263A"/>
<path d="M29.42 0H568.01C584.25 0 597.43 13.18 597.43 29.42V842.29C597.43 848.98 592 854.41 585.31 854.41H12.12C5.43 854.41 0 848.98 0 842.29V29.42C0 13.18 13.18 0 29.42 0Z" fill="#133754"/>
<path d="M13.18 0H584.24C591.52 0 597.42 5.91 597.42 13.18V86.53H0V13.18C0 5.91 5.91 0 13.18 0Z" fill="#0F4A72"/>
</g>
<g clip-path="url(#clip1_216_240)">
<path d="M127.984 39.5982V33.6001H115.293L110.195 32.2329L106.593 26.6743L102.106 19.7484C100.122 16.6965 96.8862 16.6965 94.9106 19.7484L90.4146 26.6743L86.813 32.2329L81.7154 33.6001H69V39.5982H69.0163C68.935 40.648 69.3171 41.8118 70.2276 42.935L75.4228 49.3481L79.5854 54.4916L78.8049 69.3525C78.6179 72.9822 81.2358 74.8948 84.6341 73.5926L98.5122 68.2538L112.382 73.5926C115.78 74.8948 118.398 72.9822 118.203 69.3525L117.423 54.4916L121.577 49.3481L126.772 42.935C127.683 41.8118 128.065 40.648 127.984 39.5982Z" fill="#FFAA17"/>
<path d="M124.553 29.6204L110.195 25.7709L106.593 20.2124L102.106 13.2865C100.122 10.2346 96.8862 10.2346 94.9106 13.2865L90.4146 20.2124L86.813 25.7709L72.4553 29.6204C68.9431 30.5564 67.9431 33.6409 70.2276 36.473L75.4228 42.8862L79.5854 48.0297L78.8049 62.8906C78.6179 66.5203 81.2358 68.4329 84.6341 67.1307L98.5122 61.7919L112.382 67.1307C115.78 68.4329 118.398 66.5285 118.203 62.8906L117.423 48.0297L121.577 42.8862L126.772 36.473C129.057 33.6409 128.057 30.5564 124.545 29.6204H124.553Z" fill="#FFDA33"/>
<g style="mix-blend-mode:overlay" opacity="0.2">
<path d="M83.187 26.7476L72.4472 29.6204C71.2033 29.9541 70.2846 30.5564 69.6992 31.3214L95.5203 62.9313L98.4959 61.7837L112.366 67.1226C113.837 67.6841 115.163 67.6434 116.171 67.1226L83.187 26.7476Z" fill="white"/>
</g>
<g style="mix-blend-mode:overlay" opacity="0.2">
<path d="M121.61 42.8537L96.252 11.8135C95.7642 12.1797 95.3089 12.668 94.9024 13.2947L90.5528 19.9927L117.683 53.2058L117.415 48.0297L121.569 42.8862L121.602 42.8455L121.61 42.8537Z" fill="white"/>
</g>
</g>
<rect x="190" y="12.5" width="287" height="60" rx="14" fill="#133754"/>
<path d="M258.32 31.14V28.02C261.72 28.02 262.48 26.38 263.16 24.5H266.12V52.5H261.72V31.14H258.32ZM277.11 31.22C277.11 26.74 279.31 24.18 283.59 24.18C287.87 24.18 290.07 26.74 290.07 31.22V32.1H285.91V30.94C285.91 28.94 285.11 28.18 283.71 28.18C282.31 28.18 281.51 28.94 281.51 30.94C281.51 36.7 290.11 37.78 290.11 45.78C290.11 50.26 287.87 52.82 283.55 52.82C279.23 52.82 276.99 50.26 276.99 45.78V44.06H281.15V46.06C281.15 48.06 282.03 48.78 283.43 48.78C284.83 48.78 285.71 48.06 285.71 46.06C285.71 40.3 277.11 39.22 277.11 31.22ZM291.351 28.5V24.5H304.951V28.5H300.351V52.5H295.951V28.5H291.351ZM315.126 24.5L319.606 52.5H315.166L314.406 47.42H309.006L308.246 52.5H304.206L308.686 24.5H315.126ZM311.686 29.46L309.566 43.62H313.806L311.686 29.46ZM335.335 52.5H330.855C330.615 51.78 330.455 51.34 330.455 49.06V44.66C330.455 42.06 329.575 41.1 327.575 41.1H326.055V52.5H321.655V24.5H328.295C332.855 24.5 334.815 26.62 334.815 30.94V33.14C334.815 36.02 333.895 37.9 331.935 38.82C334.135 39.74 334.855 41.86 334.855 44.78V49.1C334.855 50.46 334.895 51.46 335.335 52.5ZM328.175 28.5H326.055V37.1H327.775C329.415 37.1 330.415 36.38 330.415 34.14V31.38C330.415 29.38 329.735 28.5 328.175 28.5ZM337.748 48.26H341.988V52.5H337.748V48.26ZM337.748 33.02H341.988V37.26H337.748V33.02ZM350.341 47.42V43.42L358.341 24.5H363.141V43.42H365.221V47.42H363.141V52.5H358.821V47.42H350.341ZM354.381 43.42H358.821V32.9L354.381 43.42ZM365.841 52.5L376.881 24.5H380.681L369.641 52.5H365.841ZM385.195 31.14V28.02C388.595 28.02 389.355 26.38 390.035 24.5H392.995V52.5H388.595V31.14H385.195ZM398.134 43.46H402.294V46.06C402.294 48.06 403.174 48.78 404.574 48.78C405.974 48.78 406.854 48.06 406.854 46.06V39.9C406.854 37.9 405.974 37.14 404.574 37.14C403.174 37.14 402.294 37.9 402.294 39.9V40.74H398.134L398.934 24.5H410.534V28.5H402.894L402.534 35.18C403.334 33.86 404.614 33.14 406.374 33.14C409.614 33.14 411.254 35.42 411.254 39.54V45.78C411.254 50.26 409.014 52.82 404.694 52.82C400.374 52.82 398.134 50.26 398.134 45.78V43.46Z" fill="white"/>
<path d="M45.51 120.5H168.46C183.92 120.5 196.47 133.05 196.47 148.51V312.61C196.47 328.07 183.92 340.62 168.46 340.62H45.51C30.05 340.62 17.5 328.07 17.5 312.61V148.51C17.5 133.05 30.05 120.5 45.51 120.5Z" fill="#004AB5"/>
<path d="M168.46 122C183.1 122 194.97 133.87 194.97 148.51V312.61C194.97 327.25 183.1 339.12 168.46 339.12H45.51C30.87 339.12 19 327.25 19 312.61V148.51C19 133.87 30.87 122 45.51 122H168.46ZM168.46 119H45.51C29.24 119 16 132.24 16 148.51V312.61C16 328.88 29.24 342.12 45.51 342.12H168.46C184.73 342.12 197.97 328.88 197.97 312.61V148.51C197.97 132.24 184.73 119 168.46 119Z" fill="#041521"/>
<path d="M168.47 122H45.51C30.8689 122 19 133.869 19 148.51V293.6C19 308.241 30.8689 320.11 45.51 320.11H168.47C183.111 320.11 194.98 308.241 194.98 293.6V148.51C194.98 133.869 183.111 122 168.47 122Z" fill="#005EB1"/>
<path d="M187.31 283.36V158.76C187.31 144.119 175.441 132.25 160.8 132.25H53.1901C38.549 132.25 26.6801 144.119 26.6801 158.76V283.36C26.6801 298.001 38.549 309.87 53.1901 309.87H160.8C175.441 309.87 187.31 298.001 187.31 283.36Z" fill="#012947"/>
<path d="M237.77 120.65H360.72C376.26 120.65 388.88 133.27 388.88 148.81V312.91C388.88 328.45 376.26 341.07 360.72 341.07H237.77C222.23 341.07 209.61 328.45 209.61 312.91V148.8C209.61 133.26 222.23 120.65 237.77 120.65Z" fill="#127B93"/>
<path d="M360.72 122.29C375.36 122.29 387.23 134.16 387.23 148.8V312.9C387.23 327.54 375.36 339.41 360.72 339.41H237.77C223.13 339.41 211.26 327.54 211.26 312.9V148.8C211.26 134.16 223.13 122.29 237.77 122.29H360.72ZM360.72 119H237.77C221.34 119 207.97 132.37 207.97 148.8V312.9C207.97 329.33 221.34 342.7 237.77 342.7H360.72C377.15 342.7 390.52 329.33 390.52 312.9V148.8C390.52 132.37 377.15 119 360.72 119Z" fill="#002C3A"/>
<path d="M360.73 122.29H237.77C223.129 122.29 211.26 134.159 211.26 148.8V293.89C211.26 308.531 223.129 320.4 237.77 320.4H360.73C375.371 320.4 387.24 308.531 387.24 293.89V148.8C387.24 134.159 375.371 122.29 360.73 122.29Z" fill="#06BADD"/>
<path d="M379.57 283.65V159.05C379.57 144.409 367.701 132.54 353.06 132.54H245.45C230.809 132.54 218.94 144.409 218.94 159.05V283.65C218.94 298.291 230.809 310.16 245.45 310.16H353.06C367.701 310.16 379.57 298.291 379.57 283.65Z" fill="#A6FFFA"/>
<g clip-path="url(#clip2_216_240)">
<path d="M290.46 247.61C289.92 245.99 289.65 244.24 289.65 241.81C289.65 221.17 305.84 219.28 305.84 195.81C305.84 189.06 303.14 186.5 298.42 186.5C293.7 186.5 291 189.06 291 195.81V206.06H276.97V196.75C276.97 181.63 284.39 173 298.83 173C313.27 173 320.69 181.63 320.69 196.74C320.69 221.29 303.15 225.07 303.15 242.34C303.15 244.09 303.29 245.85 303.69 247.6H290.47L290.46 247.61ZM304.09 254.22V268.52H289.79V254.22H304.09Z" fill="#133754"/>
</g>
<path d="M430.32 120.65H553.27C568.81 120.65 581.43 133.27 581.43 148.81V312.91C581.43 328.45 568.81 341.07 553.27 341.07H430.32C414.78 341.07 402.16 328.45 402.16 312.91V148.8C402.16 133.26 414.78 120.65 430.32 120.65Z" fill="#127B93"/>
<path d="M553.27 122.29C567.91 122.29 579.78 134.16 579.78 148.8V312.9C579.78 327.54 567.91 339.41 553.27 339.41H430.32C415.68 339.41 403.81 327.54 403.81 312.9V148.8C403.81 134.16 415.68 122.29 430.32 122.29H553.27ZM553.27 119H430.32C413.89 119 400.52 132.37 400.52 148.8V312.9C400.52 329.33 413.89 342.7 430.32 342.7H553.27C569.7 342.7 583.07 329.33 583.07 312.9V148.8C583.07 132.37 569.7 119 553.27 119Z" fill="#002C3A"/>
<path d="M553.28 122.29H430.32C415.679 122.29 403.81 134.159 403.81 148.8V293.89C403.81 308.531 415.679 320.4 430.32 320.4H553.28C567.921 320.4 579.79 308.531 579.79 293.89V148.8C579.79 134.159 567.921 122.29 553.28 122.29Z" fill="#06BADD"/>
<path d="M572.12 283.65V159.05C572.12 144.409 560.251 132.54 545.61 132.54H438C423.359 132.54 411.49 144.409 411.49 159.05V283.65C411.49 298.291 423.359 310.16 438 310.16H545.61C560.251 310.16 572.12 298.291 572.12 283.65Z" fill="#A6FFFA"/>
<g clip-path="url(#clip3_216_240)">
<path d="M483.01 247.61C482.47 245.99 482.2 244.24 482.2 241.81C482.2 221.17 498.39 219.28 498.39 195.81C498.39 189.06 495.69 186.5 490.97 186.5C486.25 186.5 483.55 189.06 483.55 195.81V206.06H469.52V196.75C469.52 181.63 476.94 173 491.38 173C505.82 173 513.24 181.63 513.24 196.74C513.24 221.29 495.7 225.07 495.7 242.34C495.7 244.09 495.84 245.85 496.24 247.6H483.02L483.01 247.61ZM496.64 254.22V268.52H482.34V254.22H496.64Z" fill="#133754"/>
</g>
<path d="M45.51 366.2H168.46C183.92 366.2 196.47 378.75 196.47 394.21V558.31C196.47 573.77 183.92 586.32 168.46 586.32H45.51C30.05 586.32 17.5 573.77 17.5 558.31V394.21C17.5 378.75 30.05 366.2 45.51 366.2Z" fill="#004AB5"/>
<path d="M168.46 367.7C183.1 367.7 194.97 379.57 194.97 394.21V558.31C194.97 572.95 183.1 584.82 168.46 584.82H45.51C30.87 584.82 19 572.95 19 558.31V394.21C19 379.57 30.87 367.7 45.51 367.7H168.46ZM168.46 364.7H45.51C29.24 364.7 16 377.94 16 394.21V558.31C16 574.58 29.24 587.82 45.51 587.82H168.46C184.73 587.82 197.97 574.58 197.97 558.31V394.21C197.97 377.94 184.73 364.7 168.46 364.7Z" fill="#041521"/>
<path d="M168.47 367.7H45.51C30.8689 367.7 19 379.569 19 394.21V539.3C19 553.941 30.8689 565.81 45.51 565.81H168.47C183.111 565.81 194.98 553.941 194.98 539.3V394.21C194.98 379.569 183.111 367.7 168.47 367.7Z" fill="#005EB1"/>
<path d="M187.31 529.06V404.46C187.31 389.819 175.441 377.95 160.8 377.95H53.1901C38.549 377.95 26.6801 389.819 26.6801 404.46V529.06C26.6801 543.701 38.549 555.57 53.1901 555.57H160.8C175.441 555.57 187.31 543.701 187.31 529.06Z" fill="#012947"/>
<path d="M237.48 366.2H360.43C375.89 366.2 388.44 378.75 388.44 394.21V558.31C388.44 573.77 375.89 586.32 360.43 586.32H237.48C222.02 586.32 209.47 573.77 209.47 558.31V394.21C209.47 378.75 222.02 366.2 237.48 366.2Z" fill="#004AB5"/>
<path d="M360.43 367.7C375.07 367.7 386.94 379.57 386.94 394.21V558.31C386.94 572.95 375.07 584.82 360.43 584.82H237.48C222.84 584.82 210.97 572.95 210.97 558.31V394.21C210.97 379.57 222.84 367.7 237.48 367.7H360.43ZM360.43 364.7H237.48C221.21 364.7 207.97 377.94 207.97 394.21V558.31C207.97 574.58 221.21 587.82 237.48 587.82H360.43C376.7 587.82 389.94 574.58 389.94 558.31V394.21C389.94 377.94 376.7 364.7 360.43 364.7Z" fill="#041521"/>
<path d="M360.44 367.7H237.48C222.839 367.7 210.97 379.569 210.97 394.21V539.3C210.97 553.941 222.839 565.81 237.48 565.81H360.44C375.081 565.81 386.95 553.941 386.95 539.3V394.21C386.95 379.569 375.081 367.7 360.44 367.7Z" fill="#005EB1"/>
<path d="M379.28 529.06V404.46C379.28 389.819 367.411 377.95 352.77 377.95H245.16C230.519 377.95 218.65 389.819 218.65 404.46V529.06C218.65 543.701 230.519 555.57 245.16 555.57H352.77C367.411 555.57 379.28 543.701 379.28 529.06Z" fill="#012947"/>
<path d="M429.74 366.35H552.69C568.23 366.35 580.85 378.97 580.85 394.51V558.61C580.85 574.15 568.23 586.77 552.69 586.77H429.74C414.2 586.77 401.58 574.15 401.58 558.61V394.5C401.58 378.96 414.2 366.35 429.74 366.35Z" fill="#127B93"/>
<path d="M552.69 367.99C567.33 367.99 579.2 379.86 579.2 394.5V558.6C579.2 573.24 567.33 585.11 552.69 585.11H429.74C415.1 585.11 403.23 573.24 403.23 558.6V394.5C403.23 379.86 415.1 367.99 429.74 367.99H552.69ZM552.69 364.7H429.74C413.31 364.7 399.94 378.07 399.94 394.5V558.6C399.94 575.03 413.31 588.4 429.74 588.4H552.69C569.12 588.4 582.49 575.03 582.49 558.6V394.5C582.49 378.07 569.12 364.7 552.69 364.7Z" fill="#002C3A"/>
<path d="M552.7 367.99H429.74C415.099 367.99 403.23 379.859 403.23 394.5V539.59C403.23 554.231 415.099 566.1 429.74 566.1H552.7C567.341 566.1 579.21 554.231 579.21 539.59V394.5C579.21 379.859 567.341 367.99 552.7 367.99Z" fill="#06BADD"/>
<path d="M571.54 529.35V404.75C571.54 390.109 559.671 378.24 545.03 378.24H437.42C422.779 378.24 410.91 390.109 410.91 404.75V529.35C410.91 543.991 422.779 555.86 437.42 555.86H545.03C559.671 555.86 571.54 543.991 571.54 529.35Z" fill="#A6FFFA"/>
<g clip-path="url(#clip4_216_240)">
<path d="M482.43 493.31C481.89 491.69 481.62 489.94 481.62 487.51C481.62 466.87 497.81 464.98 497.81 441.51C497.81 434.76 495.11 432.2 490.39 432.2C485.67 432.2 482.97 434.76 482.97 441.51V451.76H468.94V442.45C468.94 427.33 476.36 418.7 490.8 418.7C505.24 418.7 512.66 427.33 512.66 442.44C512.66 466.99 495.12 470.77 495.12 488.04C495.12 489.79 495.26 491.55 495.66 493.3H482.44L482.43 493.31ZM496.06 499.92V514.22H481.76V499.92H496.06Z" fill="#133754"/>
</g>
<path d="M45.8 612.05H168.75C184.29 612.05 196.91 624.67 196.91 640.21V804.31C196.91 819.85 184.29 832.47 168.75 832.47H45.8C30.26 832.47 17.64 819.85 17.64 804.31V640.2C17.64 624.66 30.26 612.05 45.8 612.05Z" fill="#127B93"/>
<path d="M168.75 613.69C183.39 613.69 195.26 625.56 195.26 640.2V804.3C195.26 818.94 183.39 830.81 168.75 830.81H45.8C31.16 830.81 19.29 818.94 19.29 804.3V640.2C19.29 625.56 31.16 613.69 45.8 613.69H168.75ZM168.75 610.4H45.8C29.37 610.4 16 623.77 16 640.2V804.3C16 820.73 29.37 834.1 45.8 834.1H168.75C185.18 834.1 198.55 820.73 198.55 804.3V640.2C198.55 623.77 185.18 610.4 168.75 610.4Z" fill="#002C3A"/>
<path d="M168.76 613.69H45.8C31.159 613.69 19.29 625.559 19.29 640.2V785.29C19.29 799.931 31.159 811.8 45.8 811.8H168.76C183.401 811.8 195.27 799.931 195.27 785.29V640.2C195.27 625.559 183.401 613.69 168.76 613.69Z" fill="#06BADD"/>
<path d="M187.6 775.05V650.45C187.6 635.809 175.731 623.94 161.09 623.94H53.48C38.8389 623.94 26.97 635.809 26.97 650.45V775.05C26.97 789.691 38.8389 801.56 53.48 801.56H161.09C175.731 801.56 187.6 789.691 187.6 775.05Z" fill="#A6FFFA"/>
<g clip-path="url(#clip5_216_240)">
<path d="M98.49 739.01C97.95 737.39 97.68 735.64 97.68 733.21C97.68 712.57 113.87 710.68 113.87 687.21C113.87 680.46 111.17 677.9 106.45 677.9C101.73 677.9 99.03 680.46 99.03 687.21V697.46H85V688.15C85 673.03 92.42 664.4 106.86 664.4C121.3 664.4 128.72 673.03 128.72 688.14C128.72 712.69 111.18 716.47 111.18 733.74C111.18 735.49 111.32 737.25 111.72 739H98.5L98.49 739.01ZM112.12 745.62V759.92H97.82V745.62H112.12Z" fill="#133754"/>
</g>
<path d="M238.35 612.05H361.3C376.84 612.05 389.46 624.67 389.46 640.21V804.31C389.46 819.85 376.84 832.47 361.3 832.47H238.35C222.81 832.47 210.19 819.85 210.19 804.31V640.2C210.19 624.66 222.81 612.05 238.35 612.05Z" fill="#127B93"/>
<path d="M361.3 613.69C375.94 613.69 387.81 625.56 387.81 640.2V804.3C387.81 818.94 375.94 830.81 361.3 830.81H238.35C223.71 830.81 211.84 818.94 211.84 804.3V640.2C211.84 625.56 223.71 613.69 238.35 613.69H361.3ZM361.3 610.4H238.35C221.92 610.4 208.55 623.77 208.55 640.2V804.3C208.55 820.73 221.92 834.1 238.35 834.1H361.3C377.73 834.1 391.1 820.73 391.1 804.3V640.2C391.1 623.77 377.73 610.4 361.3 610.4Z" fill="#002C3A"/>
<path d="M361.31 613.69H238.35C223.709 613.69 211.84 625.559 211.84 640.2V785.29C211.84 799.931 223.709 811.8 238.35 811.8H361.31C375.951 811.8 387.82 799.931 387.82 785.29V640.2C387.82 625.559 375.951 613.69 361.31 613.69Z" fill="#06BADD"/>
<path d="M380.15 775.05V650.45C380.15 635.809 368.281 623.94 353.64 623.94H246.03C231.389 623.94 219.52 635.809 219.52 650.45V775.05C219.52 789.691 231.389 801.56 246.03 801.56H353.64C368.281 801.56 380.15 789.691 380.15 775.05Z" fill="#A6FFFA"/>
<g clip-path="url(#clip6_216_240)">
<path d="M291.04 739.01C290.5 737.39 290.23 735.64 290.23 733.21C290.23 712.57 306.42 710.68 306.42 687.21C306.42 680.46 303.72 677.9 299 677.9C294.28 677.9 291.58 680.46 291.58 687.21V697.46H277.55V688.15C277.55 673.03 284.97 664.4 299.41 664.4C313.85 664.4 321.27 673.03 321.27 688.14C321.27 712.69 303.73 716.47 303.73 733.74C303.73 735.49 303.87 737.25 304.27 739H291.05L291.04 739.01ZM304.67 745.62V759.92H290.37V745.62H304.67Z" fill="#133754"/>
</g>
<path d="M430.61 611.9H553.56C569.02 611.9 581.57 624.45 581.57 639.91V804.01C581.57 819.47 569.02 832.02 553.56 832.02H430.61C415.15 832.02 402.6 819.47 402.6 804.01V639.91C402.6 624.45 415.15 611.9 430.61 611.9Z" fill="#004AB5"/>
<path d="M553.56 613.4C568.2 613.4 580.07 625.27 580.07 639.91V804.01C580.07 818.65 568.2 830.52 553.56 830.52H430.61C415.97 830.52 404.1 818.65 404.1 804.01V639.91C404.1 625.27 415.97 613.4 430.61 613.4H553.56ZM553.56 610.4H430.61C414.34 610.4 401.1 623.64 401.1 639.91V804.01C401.1 820.28 414.34 833.52 430.61 833.52H553.56C569.83 833.52 583.07 820.28 583.07 804.01V639.91C583.07 623.64 569.83 610.4 553.56 610.4Z" fill="#041521"/>
<path d="M553.57 613.4H430.61C415.969 613.4 404.1 625.269 404.1 639.91V785C404.1 799.641 415.969 811.51 430.61 811.51H553.57C568.211 811.51 580.08 799.641 580.08 785V639.91C580.08 625.269 568.211 613.4 553.57 613.4Z" fill="#005EB1"/>
<path d="M572.41 774.76V650.16C572.41 635.519 560.541 623.65 545.9 623.65H438.29C423.649 623.65 411.78 635.519 411.78 650.16V774.76C411.78 789.401 423.649 801.27 438.29 801.27H545.9C560.541 801.27 572.41 789.401 572.41 774.76Z" fill="#012947"/>
<defs>
<clipPath id="clip0_216_240">
<rect width="597.42" height="876.01" fill="white"/>
</clipPath>
<clipPath id="clip1_216_240">
<rect width="59" height="63" fill="white" transform="translate(69 11)"/>
</clipPath>
<clipPath id="clip2_216_240">
<rect width="43.71" height="95.52" fill="white" transform="translate(276.97 173)"/>
</clipPath>
<clipPath id="clip3_216_240">
<rect width="43.71" height="95.52" fill="white" transform="translate(469.52 173)"/>
</clipPath>
<clipPath id="clip4_216_240">
<rect width="43.71" height="95.52" fill="white" transform="translate(468.94 418.7)"/>
</clipPath>
<clipPath id="clip5_216_240">
<rect width="43.71" height="95.52" fill="white" transform="translate(85 664.4)"/>
</clipPath>
<clipPath id="clip6_216_240">
<rect width="43.71" height="95.52" fill="white" transform="translate(277.55 664.4)"/>
</clipPath>
</defs>
</svg>
