<svg width="281" height="109" viewBox="0 0 281 109" fill="none" xmlns="http://www.w3.org/2000/svg">
<path d="M259.52 2.68146H21.24C10.5478 2.68146 1.88 11.6585 1.88 22.7323V86.8205C1.88 97.8942 10.5478 106.871 21.24 106.871H259.52C270.212 106.871 278.88 97.8942 278.88 86.8205V22.7323C278.88 11.6585 270.212 2.68146 259.52 2.68146Z" fill="#AE4E0C"/>
<path d="M259.52 4.63893C269.16 4.63893 276.98 12.738 276.98 22.722V86.8101C276.98 96.7941 269.16 104.893 259.52 104.893H21.24C11.6 104.893 3.78003 96.7941 3.78003 86.8101V22.722C3.78003 12.738 11.6 4.63893 21.24 4.63893H259.52ZM259.52 0.713684H21.24C9.51999 0.713684 -0.0100098 10.5838 -0.0100098 22.722V86.8101C-0.0100098 98.9484 9.51999 108.818 21.24 108.818H259.52C271.24 108.818 280.77 98.9484 280.77 86.8101V22.722C280.77 10.5838 271.24 0.713684 259.52 0.713684Z" fill="#002C3A"/>
<path d="M276.98 67.5153V23.2087C276.98 12.9529 268.952 4.63892 259.05 4.63892L21.71 4.63892C11.8075 4.63892 3.77997 12.9529 3.77997 23.2087V67.5153C3.77997 77.7712 11.8075 86.0852 21.71 86.0852L259.05 86.0852C268.952 86.0852 276.98 77.7712 276.98 67.5153Z" fill="#F1DB9F"/>
<path d="M20.64 9.12341H260.12C267.07 9.12341 272.72 14.975 272.72 22.173V66.49C272.72 73.688 267.07 79.5396 260.12 79.5396H20.64C13.69 79.5396 8.03992 73.688 8.03992 66.49V22.1834C8.03992 14.9854 13.69 9.13377 20.64 9.13377V9.12341Z" fill="#F6C014"/>
<path d="M260.12 10.2523C266.48 10.2523 271.64 15.5964 271.64 22.1834V66.5003C271.64 73.0873 266.48 78.4314 260.12 78.4314H20.64C14.28 78.4314 9.11993 73.0873 9.11993 66.5003V22.173C9.11993 15.5861 14.28 10.242 20.64 10.242H260.12M260.12 8.00488H20.64C13.09 8.00488 6.95996 14.364 6.95996 22.173V66.49C6.95996 74.3094 13.1 80.6581 20.64 80.6581H260.12C267.67 80.6581 273.8 74.299 273.8 66.49V22.173C273.8 14.3536 267.66 8.00488 260.12 8.00488Z" fill="#FFFF64"/>
</svg>
