<svg width="281" height="109" viewBox="0 0 281 109" fill="none" xmlns="http://www.w3.org/2000/svg">
<path d="M259.52 2.68146H21.24C10.5478 2.68146 1.88 11.6585 1.88 22.7323V86.8205C1.88 97.8942 10.5478 106.871 21.24 106.871H259.52C270.212 106.871 278.88 97.8942 278.88 86.8205V22.7323C278.88 11.6585 270.212 2.68146 259.52 2.68146Z" fill="#AE4E0C"/>
<path d="M259.52 4.63893C269.16 4.63893 276.98 12.738 276.98 22.722V86.8101C276.98 96.7941 269.16 104.893 259.52 104.893H21.24C11.6 104.893 3.78003 96.7941 3.78003 86.8101V22.722C3.78003 12.738 11.6 4.63893 21.24 4.63893H259.52ZM259.52 0.713684H21.24C9.51999 0.713684 -0.0100098 10.5838 -0.0100098 22.722V86.8101C-0.0100098 98.9484 9.51999 108.818 21.24 108.818H259.52C271.24 108.818 280.77 98.9484 280.77 86.8101V22.722C280.77 10.5838 271.24 0.713684 259.52 0.713684Z" fill="#002C3A"/>
<path d="M276.98 67.5153V23.2087C276.98 12.9529 268.952 4.63892 259.05 4.63892L21.71 4.63892C11.8075 4.63892 3.77997 12.9529 3.77997 23.2087V67.5153C3.77997 77.7712 11.8075 86.0852 21.71 86.0852L259.05 86.0852C268.952 86.0852 276.98 77.7712 276.98 67.5153Z" fill="#F1DB9F"/>
<path d="M20.64 9.12341H260.12C267.07 9.12341 272.72 14.975 272.72 22.173V66.49C272.72 73.688 267.07 79.5396 260.12 79.5396H20.64C13.69 79.5396 8.03992 73.688 8.03992 66.49V22.1834C8.03992 14.9854 13.69 9.13377 20.64 9.13377V9.12341Z" fill="#F6C014"/>
<path d="M260.12 10.2523C266.48 10.2523 271.64 15.5964 271.64 22.1834V66.5003C271.64 73.0873 266.48 78.4314 260.12 78.4314H20.64C14.28 78.4314 9.11993 73.0873 9.11993 66.5003V22.173C9.11993 15.5861 14.28 10.242 20.64 10.242H260.12M260.12 8.00488H20.64C13.09 8.00488 6.95996 14.364 6.95996 22.173V66.49C6.95996 74.3094 13.1 80.6581 20.64 80.6581H260.12C267.67 80.6581 273.8 74.299 273.8 66.49V22.173C273.8 14.3536 267.66 8.00488 260.12 8.00488Z" fill="#FFFF64"/>
<path d="M35.22 49.1575H39.796V53.2495C39.796 58.1775 37.332 60.9935 32.58 60.9935C27.828 60.9935 25.364 58.1775 25.364 53.2495V37.2335C25.364 32.3055 27.828 29.4895 32.58 29.4895C37.332 29.4895 39.796 32.3055 39.796 37.2335V40.2255H35.22V36.9255C35.22 34.7255 34.252 33.8895 32.712 33.8895C31.172 33.8895 30.204 34.7255 30.204 36.9255V53.5575C30.204 55.7575 31.172 56.5495 32.712 56.5495C34.252 56.5495 35.22 55.7575 35.22 53.5575V49.1575ZM47.1767 36.9255V53.5575C47.1767 55.7575 48.1447 56.5935 49.6847 56.5935C51.2247 56.5935 52.1927 55.7575 52.1927 53.5575V36.9255C52.1927 34.7255 51.2247 33.8895 49.6847 33.8895C48.1447 33.8895 47.1767 34.7255 47.1767 36.9255ZM42.3367 53.2495V37.2335C42.3367 32.3055 44.9327 29.4895 49.6847 29.4895C54.4367 29.4895 57.0327 32.3055 57.0327 37.2335V53.2495C57.0327 58.1775 54.4367 60.9935 49.6847 60.9935C44.9327 60.9935 42.3367 58.1775 42.3367 53.2495ZM70.518 60.6415L64.49 38.3335V60.6415H60.134V29.8415H66.206L71.178 48.2775V29.8415H75.49V60.6415H70.518ZM89.2953 60.6415L83.2673 38.3335V60.6415H78.9113V29.8415H84.9833L89.9553 48.2775V29.8415H94.2673V60.6415H89.2953ZM102.573 34.2415V42.8215H109.217V47.2215H102.573V56.2415H110.933V60.6415H97.7327V29.8415H110.933V34.2415H102.573ZM123.392 49.1575H127.968V53.2495C127.968 58.1775 125.504 60.9935 120.752 60.9935C116 60.9935 113.536 58.1775 113.536 53.2495V37.2335C113.536 32.3055 116 29.4895 120.752 29.4895C125.504 29.4895 127.968 32.3055 127.968 37.2335V40.2255H123.392V36.9255C123.392 34.7255 122.424 33.8895 120.884 33.8895C119.344 33.8895 118.376 34.7255 118.376 36.9255V53.5575C118.376 55.7575 119.344 56.5495 120.884 56.5495C122.424 56.5495 123.392 55.7575 123.392 53.5575V49.1575ZM129.497 34.2415V29.8415H144.457V34.2415H139.397V60.6415H134.557V34.2415H129.497ZM165.916 60.6415L164.156 44.2295L162.396 60.6415H155.752L152.32 29.8415H157.028L159.624 54.1295L161.956 29.8415H166.62L169.04 54.3055L171.548 29.8415H175.772L172.34 60.6415H165.916ZM188.305 29.8415L193.233 60.6415H188.349L187.513 55.0535H181.573L180.737 60.6415H176.293L181.221 29.8415H188.305ZM184.521 35.2975L182.189 50.8735H186.853L184.521 35.2975ZM195.487 60.6415V29.8415H200.327V56.2415H208.291V60.6415H195.487ZM210.397 60.6415V29.8415H215.237V56.2415H223.201V60.6415H210.397ZM230.147 34.2415V42.8215H236.791V47.2215H230.147V56.2415H238.507V60.6415H225.307V29.8415H238.507V34.2415H230.147ZM240.098 34.2415V29.8415H255.058V34.2415H249.998V60.6415H245.158V34.2415H240.098Z" fill="#261500"/>
</svg>
