<svg width="375" height="422" viewBox="0 0 375 422" fill="none" xmlns="http://www.w3.org/2000/svg">
<path d="M34.59 3.40991H339.56C356.77 3.40991 370.75 17.3799 370.75 34.5999V386.56C370.75 403.77 356.78 417.75 339.56 417.75H34.59C17.38 417.75 3.41 403.78 3.41 386.57V34.5899C3.41 17.3799 17.38 3.40991 34.59 3.40991Z" fill="#0D7C79"/>
<path d="M339.56 6.82C354.9 6.82 367.34 19.26 367.34 34.6V386.57C367.34 401.91 354.9 414.35 339.56 414.35H34.59C19.25 414.35 6.81 401.91 6.81 386.57V34.59C6.81 19.25 19.25 6.81 34.59 6.81H339.56M339.56 0H34.59C15.52 0 0 15.52 0 34.59V386.56C0 405.64 15.52 421.15 34.59 421.15H339.56C358.64 421.15 374.15 405.63 374.15 386.56V34.59C374.15 15.51 358.63 0 339.56 0Z" fill="#0E3535"/>
<path d="M367.34 353.89V34.6001C367.34 19.2576 354.902 6.82007 339.56 6.82007L34.6 6.82007C19.2575 6.82007 6.82001 19.2576 6.82001 34.6001V353.89C6.82001 369.233 19.2575 381.67 34.6 381.67H339.56C354.902 381.67 367.34 369.233 367.34 353.89Z" fill="#00D6CB"/>
<path d="M330.33 16.5601H43.82C28.6874 16.5601 16.42 28.8275 16.42 43.9601V336.85C16.42 351.983 28.6874 364.25 43.82 364.25H330.33C345.463 364.25 357.73 351.983 357.73 336.85V43.9601C357.73 28.8275 345.463 16.5601 330.33 16.5601Z" fill="#1CF9F3"/>
<g opacity="0.51">
<path d="M327.1 389.87H47.05C42.2451 389.87 38.35 393.765 38.35 398.57C38.35 403.375 42.2451 407.27 47.05 407.27H327.1C331.905 407.27 335.8 403.375 335.8 398.57C335.8 393.765 331.905 389.87 327.1 389.87Z" fill="#0D9E9E"/>
</g>
<path d="M339.56 377.83H34.59C19.25 377.83 6.81 365.39 6.81 350.05V353.89C6.81 369.23 19.25 381.67 34.59 381.67H339.56C354.9 381.67 367.34 369.23 367.34 353.89V350.05C367.34 365.39 354.9 377.83 339.56 377.83Z" fill="#5AFBFF"/>
<path d="M16.42 98.1601V125.36L92.88 16.5601H72.43L16.42 98.1601Z" fill="#C2FEFF"/>
<path d="M16.42 79.3101L66.94 16.5601H43.82C41.43 16.5601 39.11 16.8701 36.9 17.4401L16.43 42.4501V79.3101H16.42Z" fill="#C2FEFF"/>
<path d="M357.73 289.78V262.58L281.27 364.25H301.73L357.73 289.78Z" fill="#C2FEFF"/>
<path d="M357.73 297.07L307.21 364.25H330.33C332.72 364.25 335.04 363.94 337.25 363.37L357.72 336.14V297.07H357.73Z" fill="#C2FEFF"/>
<path d="M143.322 292.954V308.528H153.803V315.909H143.322V337.24H135.202V285.573H156.681V292.954H143.322ZM160.575 337.24V285.573H168.694V337.24H160.575ZM173.597 297.973C173.597 289.706 177.656 284.983 185.554 284.983C193.452 284.983 197.511 289.706 197.511 297.973V299.597H189.835V297.456C189.835 293.766 188.359 292.364 185.776 292.364C183.192 292.364 181.716 293.766 181.716 297.456C181.716 308.085 197.585 310.078 197.585 324.84C197.585 333.107 193.452 337.83 185.48 337.83C177.509 337.83 173.375 333.107 173.375 324.84V321.666H181.052V325.357C181.052 329.047 182.675 330.376 185.259 330.376C187.842 330.376 189.466 329.047 189.466 325.357C189.466 314.728 173.597 312.735 173.597 297.973ZM210.356 315.097V337.24H202.237V285.573H210.356V307.716H219.582V285.573H227.849V337.24H219.582V315.097H210.356Z" fill="#0E3535"/>
<path d="M327.41 47.9299H49.67C38.7679 47.9299 29.93 56.7678 29.93 67.6699V242.84C29.93 253.742 38.7679 262.58 49.67 262.58H327.41C338.312 262.58 347.15 253.742 347.15 242.84V67.6699C347.15 56.7678 338.312 47.9299 327.41 47.9299Z" fill="#C2FEFF"/>
<path d="M327.15 34.6001H49.93C38.8843 34.6001 29.93 43.5544 29.93 54.6001V234.95C29.93 245.996 38.8843 254.95 49.93 254.95H327.15C338.196 254.95 347.15 245.996 347.15 234.95V54.6001C347.15 43.5544 338.196 34.6001 327.15 34.6001Z" fill="#0E3535"/>
<path d="M327.15 34.6001H49.93C38.88 34.6001 29.93 43.5501 29.93 54.6001V60.8901C29.93 49.8401 38.88 40.8901 49.93 40.8901H327.15C338.2 40.8901 347.15 49.8401 347.15 60.8901V54.6001C347.15 43.5501 338.2 34.6001 327.15 34.6001Z" fill="#092611"/>
<path d="M212.37 95.3301C193.62 80.3501 168.63 73.7901 143.86 79.0801C153.26 87.3801 161.13 97.5901 166.84 109.33C155.64 117.06 145.89 127.34 135.44 137.24C115.62 155.98 103.86 119.19 72.08 123.78C84.71 133.89 79.12 157.9 106.79 163.02C83.67 181.57 101.94 192.15 95.29 206.89C127.68 196.9 119.79 162.22 143.83 172.17C166.33 180.69 185.87 188.33 204.58 182.45C195.61 189.08 187.79 190.48 180.79 190.22C179.93 199 178.02 204.52 174.39 212.26C193.39 208.43 209.04 196.45 218.03 180.45C263.98 165.09 279.32 142.19 290.28 118.92C268.26 102.62 240.84 93.8701 212.37 95.3301ZM255.67 124.21C252.47 124.98 249.25 123.01 248.48 119.81C247.71 116.61 249.68 113.39 252.88 112.62C256.08 111.85 259.3 113.82 260.07 117.02C260.84 120.22 258.87 123.44 255.67 124.21Z" fill="url(#paint0_linear_1_438)"/>
<defs>
<linearGradient id="paint0_linear_1_438" x1="81.8039" y1="164.281" x2="289.192" y2="114.453" gradientUnits="userSpaceOnUse">
<stop stop-color="#00FFDD"/>
<stop offset="1" stop-color="#00D4FF"/>
</linearGradient>
</defs>
</svg>
