<svg width="622" height="220" viewBox="0 0 622 220" fill="none" xmlns="http://www.w3.org/2000/svg">
<g clip-path="url(#clip0_3_3335)">
<path d="M586.01 3.5H35.52C17.8358 3.5 3.5 17.8358 3.5 35.52V184.24C3.5 201.924 17.8358 216.26 35.52 216.26H586.01C603.694 216.26 618.03 201.924 618.03 184.24V35.52C618.03 17.8358 603.694 3.5 586.01 3.5Z" fill="#0C7E40"/>
<path d="M586.01 7C601.76 7 614.53 19.77 614.53 35.52V184.23C614.53 199.98 601.76 212.75 586.01 212.75H35.52C19.77 212.75 7 199.98 7 184.23V35.52C7 19.77 19.77 7 35.52 7H586.01ZM586.01 0H35.52C15.93 0 0 15.93 0 35.52V184.23C0 203.82 15.93 219.75 35.52 219.75H586.01C605.6 219.75 621.53 203.82 621.53 184.23V35.52C621.53 15.93 605.6 0 586.01 0Z" fill="#0E361B"/>
<path d="M614.53 150.69V35.52C614.53 19.7688 601.761 7 586.01 7L35.52 7C19.7689 7 7 19.7688 7 35.52V150.69C7 166.441 19.7689 179.21 35.52 179.21L586.01 179.21C601.761 179.21 614.53 166.441 614.53 150.69Z" fill="#6FD800"/>
<path d="M576.53 17H44.99C29.4542 17 16.86 29.5942 16.86 45.13V133.2C16.86 148.736 29.4542 161.33 44.99 161.33H576.53C592.066 161.33 604.66 148.736 604.66 133.2V45.13C604.66 29.5942 592.066 17 576.53 17Z" fill="#BDFA19"/>
<g opacity="0.51">
<path d="M573.22 187.63H48.31C43.3781 187.63 39.38 191.628 39.38 196.56C39.38 201.492 43.3781 205.49 48.31 205.49H573.22C578.152 205.49 582.15 201.492 582.15 196.56C582.15 191.628 578.152 187.63 573.22 187.63Z" fill="#0CA052"/>
</g>
<path d="M586.01 175.27H35.52C19.77 175.27 7 162.5 7 146.75V150.69C7 166.44 19.77 179.21 35.52 179.21H586.01C601.76 179.21 614.53 166.44 614.53 150.69V146.75C614.53 162.5 601.76 175.27 586.01 175.27Z" fill="#D6FF57"/>
<path d="M16.86 93.47V121.4L95.37 17H74.37L16.86 93.47Z" fill="#DCFF48"/>
<path d="M16.86 85.98L68.74 17H45C42.54 17 40.16 17.32 37.89 17.91L16.87 45.87V85.98H16.86Z" fill="#DCFF48"/>
<path d="M604.67 84.8601V56.9301L526.16 161.33H547.16L604.67 84.8601Z" fill="#DCFF48"/>
<path d="M604.67 92.3501L552.8 161.33H576.54C579 161.33 581.38 161.01 583.65 160.42L604.67 132.46V92.3501Z" fill="#DCFF48"/>
<path d="M115.55 48.7699H130.4V129.77H154.83V143.27H115.55V48.7699Z" fill="#DCFF48"/>
<path d="M176.16 88.5899H196.54V102.09H176.16V129.76H201.81V143.26H161.31V48.7699H201.81V62.2699H176.16V88.5899Z" fill="#DCFF48"/>
<path d="M206.66 48.7699H252.56V62.2699H237.04V143.27H222.19V62.2699H206.67V48.7699H206.66Z" fill="#DCFF48"/>
<path d="M259.04 63.0799V48.7699H273.35V61.5899L266.87 76.5699H260.8L264.71 63.0699H259.04V63.0799Z" fill="#DCFF48"/>
<path d="M303.45 47.6899C317.89 47.6899 325.32 56.3299 325.32 71.4499V74.4199H311.28V70.5099C311.28 63.7599 308.58 61.1999 303.86 61.1999C299.14 61.1999 296.44 63.7599 296.44 70.5099C296.44 89.9499 325.46 93.5899 325.46 120.59C325.46 135.71 317.9 144.35 303.32 144.35C288.74 144.35 281.18 135.71 281.18 120.59V114.79H295.22V121.54C295.22 128.29 298.19 130.72 302.91 130.72C307.63 130.72 310.6 128.29 310.6 121.54C310.6 102.1 281.58 98.4599 281.58 71.4599C281.58 56.3399 289 47.6999 303.45 47.6999V47.6899Z" fill="#DCFF48"/>
<path d="M369.73 90.7499H388.9V104.25H369.73V143.26H354.88V48.7699H394.16V62.2699H369.73V90.7499Z" fill="#DCFF48"/>
<path d="M401.31 48.7699H416.16V143.27H401.31V48.7699Z" fill="#DCFF48"/>
<path d="M446.94 47.6899C461.38 47.6899 468.81 56.3299 468.81 71.4499V74.4199H454.77V70.5099C454.77 63.7599 452.07 61.1999 447.35 61.1999C442.63 61.1999 439.93 63.7599 439.93 70.5099C439.93 89.9499 468.95 93.5899 468.95 120.59C468.95 135.71 461.39 144.35 446.81 144.35C432.23 144.35 424.67 135.71 424.67 120.59V114.79H438.71V121.54C438.71 128.29 441.68 130.72 446.4 130.72C451.12 130.72 454.09 128.29 454.09 121.54C454.09 102.1 425.07 98.4599 425.07 71.4599C425.07 56.3399 432.49 47.6999 446.94 47.6999V47.6899Z" fill="#DCFF48"/>
<path d="M492.29 143.27H477.44V48.7699H492.29V89.2699H509.16V48.7699H524.28V143.27H509.16V102.77H492.29V143.27Z" fill="#DCFF48"/>
<path d="M115.55 42.9399H130.4V123.94H154.83V137.44H115.55V42.9399Z" fill="#0E361B"/>
<path d="M176.16 82.7699H196.54V96.2699H176.16V123.94H201.81V137.44H161.31V42.9399H201.81V56.4399H176.16V82.7599V82.7699Z" fill="#0E361B"/>
<path d="M206.66 42.9399H252.56V56.4399H237.04V137.44H222.19V56.4399H206.67V42.9399H206.66Z" fill="#0E361B"/>
<path d="M259.04 57.2499V42.9399H273.35V55.7599L266.87 70.7399H260.8L264.71 57.2399H259.04V57.2499Z" fill="#0E361B"/>
<path d="M303.45 41.86C317.89 41.86 325.32 50.5 325.32 65.62V68.59H311.28V64.68C311.28 57.93 308.58 55.37 303.86 55.37C299.14 55.37 296.44 57.93 296.44 64.68C296.44 84.12 325.46 87.76 325.46 114.76C325.46 129.88 317.9 138.52 303.32 138.52C288.74 138.52 281.18 129.88 281.18 114.76V108.96H295.22V115.71C295.22 122.46 298.19 124.89 302.91 124.89C307.63 124.89 310.6 122.46 310.6 115.71C310.6 96.27 281.58 92.63 281.58 65.63C281.58 50.51 289 41.87 303.45 41.87V41.86Z" fill="#0E361B"/>
<path d="M369.73 84.9299H388.9V98.4299H369.73V137.44H354.88V42.9399H394.16V56.4399H369.73V84.9199V84.9299Z" fill="#0E361B"/>
<path d="M401.31 42.9399H416.16V137.44H401.31V42.9399Z" fill="#0E361B"/>
<path d="M446.94 41.86C461.38 41.86 468.81 50.5 468.81 65.62V68.59H454.77V64.68C454.77 57.93 452.07 55.37 447.35 55.37C442.63 55.37 439.93 57.93 439.93 64.68C439.93 84.12 468.95 87.76 468.95 114.76C468.95 129.88 461.39 138.52 446.81 138.52C432.23 138.52 424.67 129.88 424.67 114.76V108.96H438.71V115.71C438.71 122.46 441.68 124.89 446.4 124.89C451.12 124.89 454.09 122.46 454.09 115.71C454.09 96.27 425.07 92.63 425.07 65.63C425.07 50.51 432.49 41.87 446.94 41.87V41.86Z" fill="#0E361B"/>
<path d="M492.29 137.44H477.44V42.9399H492.29V83.4399H509.16V42.9399H524.28V137.44H509.16V96.9399H492.29V137.44Z" fill="#0E361B"/>
</g>
<defs>
<clipPath id="clip0_3_3335">
<rect width="621.53" height="219.76" fill="white"/>
</clipPath>
</defs>
</svg>
