<svg width="1652" height="811" viewBox="0 0 1652 811" fill="none" xmlns="http://www.w3.org/2000/svg">
<g clip-path="url(#clip0_218_244)">
<path d="M57.0902 4.1499H1594.49C1623.7 4.1499 1647.42 27.8699 1647.42 57.0799V753.88C1647.42 783.09 1623.7 806.81 1594.49 806.81H57.0902C27.8802 806.81 4.16016 783.09 4.16016 753.88V57.0899C4.15016 27.8699 27.8702 4.1499 57.0902 4.1499Z" fill="#0D7C79"/>
<path d="M1594.48 8.31C1621.42 8.31 1643.26 30.15 1643.26 57.09V753.89C1643.26 780.83 1621.42 802.67 1594.48 802.67H57.08C30.14 802.67 8.3 780.83 8.3 753.89V57.09C8.3 30.15 30.14 8.31 57.08 8.31H1594.48ZM1594.48 0H57.08C25.61 0 0 25.61 0 57.09V753.89C0 785.37 25.61 810.98 57.08 810.98H1594.48C1625.96 810.98 1651.56 785.37 1651.56 753.89V57.09C1651.56 25.61 1625.95 0 1594.48 0Z" fill="#0E3535"/>
<path d="M1643.26 696.52V57.0901C1643.26 30.1496 1621.42 8.31006 1594.48 8.31006L57.0798 8.31006C30.1394 8.31006 8.2998 30.1496 8.2998 57.0901V696.52C8.2998 723.46 30.1394 745.3 57.0798 745.3L1594.48 745.3C1621.42 745.3 1643.26 723.46 1643.26 696.52Z" fill="#00D6CB"/>
<path d="M1578.28 25.4099H73.3002C46.7242 25.4099 25.1802 46.954 25.1802 73.5299V666.59C25.1802 693.166 46.7242 714.71 73.3002 714.71H1578.28C1604.86 714.71 1626.4 693.166 1626.4 666.59V73.5299C1626.4 46.954 1604.86 25.4099 1578.28 25.4099Z" fill="#1CF9F3"/>
<g opacity="0.51">
<path d="M1572.61 759.7H78.9602C70.5213 759.7 63.6802 766.539 63.6802 774.975C63.6802 783.411 70.5213 790.25 78.9602 790.25H1572.61C1581.05 790.25 1587.89 783.411 1587.89 774.975C1587.89 766.539 1581.05 759.7 1572.61 759.7Z" fill="#0D9E9E"/>
</g>
<path d="M1594.48 738.55H57.0901C30.1501 738.55 8.31006 716.71 8.31006 689.77V696.51C8.31006 723.45 30.1501 745.29 57.0901 745.29H1594.49C1621.43 745.29 1643.27 723.45 1643.27 696.51V689.77C1643.27 716.71 1621.43 738.55 1594.49 738.55H1594.48Z" fill="#1CF9F3"/>
<path d="M1570.38 80.51H80.7801C61.6379 80.51 46.1201 96.0278 46.1201 115.17V422.8C46.1201 441.942 61.6379 457.46 80.7801 457.46H1570.38C1589.52 457.46 1605.04 441.942 1605.04 422.8V115.17C1605.04 96.0278 1589.52 80.51 1570.38 80.51Z" fill="#DCFF48"/>
<path d="M1569.92 57.0901H81.2401C61.8439 57.0901 46.1201 72.8138 46.1201 92.2101V639.05C46.1201 658.446 61.8439 674.17 81.2401 674.17H1569.92C1589.32 674.17 1605.04 658.446 1605.04 639.05V92.2101C1605.04 72.8138 1589.32 57.0901 1569.92 57.0901Z" fill="#0E3535"/>
<path d="M788.87 338.27H797.76V344.53H788.87V362.61H781.99V318.81H800.2V325.07H788.87V338.27Z" fill="#1CF9F3"/>
<path d="M803.51 318.81H810.39V362.61H803.51V318.81Z" fill="#1CF9F3"/>
<path d="M824.66 318.31C831.36 318.31 834.8 322.31 834.8 329.32V330.7H828.29V328.89C828.29 325.76 827.04 324.57 824.85 324.57C822.66 324.57 821.41 325.76 821.41 328.89C821.41 337.9 834.86 339.59 834.86 352.11C834.86 359.12 831.36 363.12 824.6 363.12C817.84 363.12 814.34 359.12 814.34 352.11V349.42H820.85V352.55C820.85 355.68 822.23 356.81 824.42 356.81C826.61 356.81 827.99 355.68 827.99 352.55C827.99 343.54 814.54 341.85 814.54 329.33C814.54 322.32 817.98 318.32 824.68 318.32L824.66 318.31Z" fill="#1CF9F3"/>
<path d="M845.68 362.61H838.8V318.81H845.68V337.58H853.5V318.81H860.51V362.61H853.5V343.84H845.68V362.61Z" fill="#1CF9F3"/>
</g>
<path d="M842.37 128.94C817.07 116.34 786.68 114.99 759.48 127.22C772.36 134.44 783.95 144.24 793.43 156.35C782.46 168.02 773.78 182.28 764.21 196.26C746.04 222.75 723.38 183.31 687.94 196.47C704.98 204.98 704.51 234 737.62 233.03C715.61 260.12 739.26 267.76 735.26 286.38C770.07 266.86 752.38 228.89 782.53 234.38C810.54 238.61 834.93 242.56 855.01 231.16C846.33 241.02 837.68 244.57 829.55 246C830.74 256.31 829.91 263.15 827.65 272.95C848.58 263.83 863.62 246.16 870 225.51C919.09 196.44 931.07 166.28 937.91 136.77C908.52 123.46 874.79 120.19 842.38 128.93L842.37 128.94ZM899.37 151.45C895.88 153.13 891.68 151.66 890 148.16C888.32 144.67 889.79 140.47 893.29 138.79C896.78 137.11 900.98 138.58 902.66 142.08C904.34 145.57 902.87 149.77 899.37 151.45Z" fill="url(#paint0_linear_218_244)"/>
<path d="M992.3 395.66H639.46C626.084 395.66 615.24 406.504 615.24 419.88V445.69C615.24 459.066 626.084 469.91 639.46 469.91H992.3C1005.68 469.91 1016.52 459.066 1016.52 445.69V419.88C1016.52 406.504 1005.68 395.66 992.3 395.66Z" fill="url(#paint1_linear_218_244)"/>
<path d="M743.31 423.5C743.31 417.66 746.39 414.33 752.01 414.33C757.63 414.33 760.72 417.67 760.72 423.5V442.47C760.72 448.31 757.64 451.64 752.01 451.64C746.38 451.64 743.31 448.3 743.31 442.47V423.5ZM749.05 442.84C749.05 445.45 750.2 446.44 752.02 446.44C753.84 446.44 754.99 445.45 754.99 442.84V423.14C754.99 420.53 753.84 419.54 752.02 419.54C750.2 419.54 749.05 420.53 749.05 423.14V442.84Z" fill="black"/>
<path d="M769.95 445.71V451.24H764.42V445.71H769.95Z" fill="black"/>
<path d="M773.65 423.5C773.65 417.66 776.73 414.33 782.35 414.33C787.97 414.33 791.06 417.67 791.06 423.5V442.47C791.06 448.31 787.98 451.64 782.35 451.64C776.72 451.64 773.65 448.3 773.65 442.47V423.5ZM779.38 442.84C779.38 445.45 780.53 446.44 782.35 446.44C784.17 446.44 785.32 445.45 785.32 442.84V423.14C785.32 420.53 784.17 419.54 782.35 419.54C780.53 419.54 779.38 420.53 779.38 423.14V442.84Z" fill="black"/>
<path d="M794.29 423.5C794.29 417.66 797.37 414.33 802.99 414.33C808.61 414.33 811.7 417.67 811.7 423.5V442.47C811.7 448.31 808.62 451.64 802.99 451.64C797.36 451.64 794.29 448.3 794.29 442.47V423.5ZM800.02 442.84C800.02 445.45 801.17 446.44 802.99 446.44C804.81 446.44 805.96 445.45 805.96 442.84V423.14C805.96 420.53 804.81 419.54 802.99 419.54C801.17 419.54 800.02 420.53 800.02 423.14V442.84Z" fill="black"/>
<path d="M818.94 419.33C823.37 419.33 824.36 417.19 825.25 414.74H829.11V451.23H823.38V423.4H818.95V419.33H818.94Z" fill="black"/>
<path d="M851.83 414.33C857.41 414.33 860.27 417.67 860.27 423.5V424.65H854.85V423.14C854.85 420.53 853.81 419.54 851.98 419.54C850.15 419.54 849.11 420.53 849.11 423.14C849.11 430.65 860.32 432.05 860.32 442.48C860.32 448.32 857.4 451.65 851.77 451.65C846.14 451.65 843.22 448.31 843.22 442.48V440.24H848.64V442.85C848.64 445.46 849.79 446.39 851.61 446.39C853.43 446.39 854.58 445.45 854.58 442.85C854.58 435.34 843.37 433.94 843.37 423.51C843.37 417.67 846.24 414.34 851.81 414.34L851.83 414.33Z" fill="black"/>
<path d="M863.15 423.5C863.15 417.66 866.23 414.33 871.85 414.33C877.47 414.33 880.56 417.67 880.56 423.5V442.47C880.56 448.31 877.48 451.64 871.85 451.64C866.22 451.64 863.15 448.3 863.15 442.47V423.5ZM868.88 442.84C868.88 445.45 870.03 446.44 871.85 446.44C873.67 446.44 874.82 445.45 874.82 442.84V423.14C874.82 420.53 873.67 419.54 871.85 419.54C870.03 419.54 868.88 420.53 868.88 423.14V442.84Z" fill="black"/>
<path d="M884.25 414.75H889.98V446.02H899.41V451.23H884.24V414.74L884.25 414.75Z" fill="black"/>
<path d="M1089.12 521.67H562.45C550.808 521.67 541.37 531.108 541.37 542.75V591.18C541.37 602.822 550.808 612.26 562.45 612.26H1089.12C1100.76 612.26 1110.2 602.822 1110.2 591.18V542.75C1110.2 531.108 1100.76 521.67 1089.12 521.67Z" fill="#0D7C79"/>
<path d="M1089.12 525.82C1098.47 525.82 1106.04 533.4 1106.04 542.74V591.18C1106.04 600.53 1098.46 608.1 1089.12 608.1H562.44C553.09 608.1 545.52 600.52 545.52 591.18V542.74C545.52 533.39 553.1 525.82 562.44 525.82H1089.12ZM1089.12 517.51H562.44C548.53 517.51 537.21 528.83 537.21 542.74V591.18C537.21 605.09 548.53 616.41 562.44 616.41H1089.12C1103.03 616.41 1114.35 605.09 1114.35 591.18V542.74C1114.35 528.83 1103.03 517.51 1089.12 517.51Z" fill="#0E3535"/>
<path d="M1090.08 525.82H561.48C552.666 525.82 545.52 532.966 545.52 541.78V583.08C545.52 591.895 552.666 599.04 561.48 599.04H1090.08C1098.89 599.04 1106.04 591.895 1106.04 583.08V541.78C1106.04 532.966 1098.89 525.82 1090.08 525.82Z" fill="#1CF9F3"/>
<path d="M657.31 576.94H653.03L652.3 572.04H647.09L646.36 576.94H642.46L646.78 549.94H652.99L657.31 576.94ZM647.63 568.37H651.72L649.68 554.71L647.64 568.37H647.63Z" fill="#0A2A3F"/>
<path d="M659.28 549.93H665.99C670.23 549.93 672.32 552.28 672.32 556.6V570.25C672.32 574.57 670.24 576.92 665.99 576.92H659.28V549.92V549.93ZM663.52 553.79V573.08H665.91C667.26 573.08 668.07 572.39 668.07 570.46V556.42C668.07 554.49 667.26 553.8 665.91 553.8H663.52V553.79Z" fill="#0A2A3F"/>
<path d="M675.02 549.93H681.73C685.97 549.93 688.06 552.28 688.06 556.6V570.25C688.06 574.57 685.98 576.92 681.73 576.92H675.02V549.92V549.93ZM679.26 553.79V573.08H681.65C683 573.08 683.81 572.39 683.81 570.46V556.42C683.81 554.49 683 553.8 681.65 553.8H679.26V553.79Z" fill="#0A2A3F"/>
<path d="M695.5 549.93H708.62V553.79H704.18V576.93H699.94V553.79H695.5V549.93Z" fill="#0A2A3F"/>
<path d="M710.12 556.41C710.12 552.09 712.4 549.62 716.56 549.62C720.72 549.62 723 552.09 723 556.41V570.45C723 574.77 720.72 577.24 716.56 577.24C712.4 577.24 710.12 574.77 710.12 570.45V556.41ZM714.36 570.72C714.36 572.65 715.21 573.38 716.56 573.38C717.91 573.38 718.76 572.65 718.76 570.72V556.14C718.76 554.21 717.91 553.48 716.56 553.48C715.21 553.48 714.36 554.21 714.36 556.14V570.72Z" fill="#0A2A3F"/>
<path d="M731.3 566.17L729.99 568.64V576.93H725.75V549.93H729.99V561.7L735.54 549.93H739.78L733.88 561.97L739.78 576.94H735.42L731.29 566.18L731.3 566.17Z" fill="#0A2A3F"/>
<path d="M745.95 561.31H751.78V565.17H745.95V573.08H753.28V576.94H741.71V549.94H753.28V553.8H745.95V561.32V561.31Z" fill="#0A2A3F"/>
<path d="M759.69 557.38V576.94H755.87V549.94H761.19L765.55 566.1V549.94H769.33V576.94H764.97L759.69 557.38Z" fill="#0A2A3F"/>
<path d="M1085.02 533.14H817.36C811.02 533.14 805.88 538.28 805.88 544.62V579.53C805.88 585.87 811.02 591.01 817.36 591.01H1085.02C1091.36 591.01 1096.5 585.87 1096.5 579.53V544.62C1096.5 538.28 1091.36 533.14 1085.02 533.14Z" fill="#0A2A3F"/>
<path d="M861.89 576.54C861.61 575.7 861.42 575.18 861.42 572.52V567.38C861.42 564.34 860.39 563.22 858.05 563.22H856.27V576.54H851.13V543.81H858.89C864.22 543.81 866.51 546.29 866.51 551.34V553.91C866.51 557.28 865.43 559.47 863.14 560.55C865.71 561.63 866.55 564.1 866.55 567.52V572.57C866.55 574.16 866.6 575.33 867.11 576.54H861.87H861.89ZM856.28 548.48V558.53H858.29C860.21 558.53 861.38 557.69 861.38 555.07V551.84C861.38 549.5 860.59 548.47 858.76 548.47H856.28V548.48Z" fill="#1CF9F3"/>
<path d="M874.84 543.81V569.06C874.84 571.4 875.87 572.24 877.5 572.24C879.13 572.24 880.17 571.4 880.17 569.06V543.81H885.03V568.73C885.03 573.97 882.41 576.96 877.36 576.96C872.31 576.96 869.69 573.97 869.69 568.73V543.81H874.83H874.84Z" fill="#1CF9F3"/>
<path d="M903.93 551.34V552.51C903.93 555.88 902.9 558.03 900.61 559.1C903.37 560.18 904.44 562.65 904.44 566.11V568.78C904.44 573.83 901.78 576.54 896.63 576.54H888.54V543.81H896.3C901.63 543.81 903.92 546.29 903.92 551.34H903.93ZM893.69 548.48V557.13H895.7C897.62 557.13 898.79 556.29 898.79 553.67V551.85C898.79 549.51 898 548.48 896.17 548.48H893.69ZM893.69 561.81V571.86H896.64C898.37 571.86 899.3 571.07 899.3 568.63V565.78C899.3 562.74 898.32 561.81 895.98 561.81H893.69Z" fill="#1CF9F3"/>
<path d="M911.64 565.69L905.14 543.81H910.52L914.45 558.73L918.38 543.81H923.29L916.79 565.69V576.54H911.65V565.69H911.64Z" fill="#1CF9F3"/>
<path d="M1076.26 569.7L1084.96 554.63C1086.58 551.83 1084.56 548.33 1081.32 548.33H1063.91C1060.68 548.33 1058.66 551.83 1060.27 554.63L1068.97 569.7C1070.59 572.5 1074.63 572.5 1076.25 569.7H1076.26Z" fill="#1CF9F3"/>
<path d="M597.33 537.21H567.07C561.945 537.21 557.79 541.365 557.79 546.49V576.75C557.79 581.875 561.945 586.03 567.07 586.03H597.33C602.455 586.03 606.61 581.875 606.61 576.75V546.49C606.61 541.365 602.455 537.21 597.33 537.21Z" fill="#0A2A3F"/>
<path d="M1222.01 254.67H1536.94C1548.01 254.67 1556.99 263.65 1556.99 274.72V323.2C1556.99 334.27 1548.01 343.25 1536.94 343.25H1222.01C1210.94 343.25 1201.96 334.27 1201.96 323.2V274.72C1201.96 263.65 1210.94 254.67 1222.01 254.67Z" fill="#0D7C79"/>
<path d="M1536.95 257.17C1546.64 257.17 1554.5 265.03 1554.5 274.72V323.2C1554.5 332.89 1546.64 340.75 1536.95 340.75H1222.02C1212.33 340.75 1204.47 332.89 1204.47 323.2V274.72C1204.47 265.03 1212.33 257.17 1222.02 257.17H1536.95ZM1536.95 252.17H1222.02C1209.59 252.17 1199.47 262.29 1199.47 274.72V323.2C1199.47 335.63 1209.59 345.75 1222.02 345.75H1536.95C1549.38 345.75 1559.5 335.63 1559.5 323.2V274.72C1559.5 262.29 1549.38 252.17 1536.95 252.17Z" fill="#0E3535"/>
<path d="M1534.72 263.61H1224.23C1217.08 263.61 1211.28 269.408 1211.28 276.56V314.41C1211.28 321.562 1217.08 327.36 1224.23 327.36H1534.72C1541.87 327.36 1547.67 321.562 1547.67 314.41V276.56C1547.67 269.408 1541.87 263.61 1534.72 263.61Z" fill="#0A2A3F"/>
<path d="M1282.15 292.79H1292.96V298.2H1282.15V292.79Z" fill="#1CF9F3"/>
<path d="M1296.53 285.66C1296.53 279.61 1299.72 276.14 1305.56 276.14C1311.4 276.14 1314.59 279.6 1314.59 285.66V305.34C1314.59 311.39 1311.4 314.86 1305.56 314.86C1299.72 314.86 1296.53 311.4 1296.53 305.34V285.66ZM1302.47 305.71C1302.47 308.41 1303.66 309.44 1305.55 309.44C1307.44 309.44 1308.63 308.41 1308.63 305.71V285.27C1308.63 282.57 1307.44 281.54 1305.55 281.54C1303.66 281.54 1302.47 282.57 1302.47 285.27V305.71Z" fill="#1CF9F3"/>
<path d="M1322.1 281.33C1326.69 281.33 1327.72 279.11 1328.64 276.57H1332.64V314.41H1326.69V285.54H1322.1V281.32V281.33Z" fill="#1CF9F3"/>
<path d="M1345.77 314.42H1339.82V276.58H1345.77V292.8H1352.53V276.58H1358.58V314.42H1352.53V298.2H1345.77V314.42Z" fill="#1CF9F3"/>
<path d="M1370.8 285.66C1370.8 279.61 1373.99 276.14 1379.83 276.14C1385.67 276.14 1388.86 279.6 1388.86 285.66V305.34C1388.86 311.39 1385.67 314.86 1379.83 314.86C1373.99 314.86 1370.8 311.4 1370.8 305.34V285.66ZM1376.75 305.71C1376.75 308.41 1377.94 309.44 1379.83 309.44C1381.72 309.44 1382.91 308.41 1382.91 305.71V285.27C1382.91 282.57 1381.72 281.54 1379.83 281.54C1377.94 281.54 1376.75 282.57 1376.75 285.27V305.71Z" fill="#1CF9F3"/>
<path d="M1410.16 276.57V281.76L1401.4 314.41H1395.45L1404.15 281.97H1392.31V276.56H1410.15L1410.16 276.57Z" fill="#1CF9F3"/>
<path d="M1426.7 303.44L1430.75 276.57H1439.02V314.41H1433.4V287.27L1429.29 314.41H1423.67L1419.24 287.65V314.41H1414.05V276.57H1422.32L1426.7 303.44Z" fill="#1CF9F3"/>
<path d="M1443.35 276.57H1449.3V314.41H1443.35V276.57Z" fill="#1CF9F3"/>
<path d="M1458.92 287.01V314.42H1453.57V276.58H1461.03L1467.14 299.23V276.58H1472.44V314.42H1466.33L1458.92 287.01Z" fill="#1CF9F3"/>
<path opacity="0.07" d="M1224.24 327.36H1534.73C1541.88 327.36 1547.68 321.56 1547.68 314.41V309.89C1547.68 317.04 1541.88 322.84 1534.73 322.84H1224.24C1217.09 322.84 1211.29 317.04 1211.29 309.89V314.41C1211.29 321.56 1217.09 327.36 1224.24 327.36Z" fill="#C2FEFF"/>
<path d="M1218.19 367.33H1536.6C1546.82 367.33 1555.12 375.63 1555.12 385.85V471.87C1555.12 482.09 1546.82 490.39 1536.6 490.39H1218.19C1207.97 490.39 1199.67 482.09 1199.67 471.87V385.85C1199.67 375.63 1207.97 367.33 1218.19 367.33Z" fill="#0C7E40"/>
<path d="M1536.6 369.36C1545.71 369.36 1553.1 376.75 1553.1 385.86V471.88C1553.1 480.99 1545.71 488.38 1536.6 488.38H1218.19C1209.08 488.38 1201.69 480.99 1201.69 471.88V385.86C1201.69 376.75 1209.08 369.36 1218.19 369.36H1536.6ZM1536.6 365.31H1218.19C1206.86 365.31 1197.64 374.53 1197.64 385.86V471.88C1197.64 483.21 1206.86 492.43 1218.19 492.43H1536.6C1547.93 492.43 1557.15 483.21 1557.15 471.88V385.86C1557.15 374.53 1547.93 365.31 1536.6 365.31Z" fill="#0E361B"/>
<path d="M1553.1 452.47V385.86C1553.1 376.747 1545.71 369.36 1536.6 369.36H1218.19C1209.08 369.36 1201.69 376.747 1201.69 385.86V452.47C1201.69 461.583 1209.08 468.97 1218.19 468.97H1536.6C1545.71 468.97 1553.1 461.583 1553.1 452.47Z" fill="#6FD800"/>
<path d="M1531.13 375.14H1223.67C1214.68 375.14 1207.4 382.424 1207.4 391.41V442.35C1207.4 451.336 1214.68 458.62 1223.67 458.62H1531.13C1540.12 458.62 1547.4 451.336 1547.4 442.35V391.41C1547.4 382.424 1540.12 375.14 1531.13 375.14Z" fill="#BDFA19"/>
<g opacity="0.51">
<path d="M1529.2 473.84H1225.59C1222.73 473.84 1220.42 476.153 1220.42 479.005C1220.42 481.858 1222.73 484.17 1225.59 484.17H1529.2C1532.06 484.17 1534.37 481.858 1534.37 479.005C1534.37 476.153 1532.06 473.84 1529.2 473.84Z" fill="#0CA052"/>
</g>
<path d="M1536.6 466.69H1218.19C1209.08 466.69 1201.69 459.3 1201.69 450.19V452.47C1201.69 461.58 1209.08 468.97 1218.19 468.97H1536.6C1545.71 468.97 1553.1 461.58 1553.1 452.47V450.19C1553.1 459.3 1545.71 466.69 1536.6 466.69Z" fill="#D6FF57"/>
<path d="M1207.4 419.37V435.53L1252.81 375.14H1240.66L1207.4 419.37Z" fill="#DCFF48"/>
<path d="M1207.4 415.04L1237.4 375.14H1223.67C1222.25 375.14 1220.87 375.32 1219.56 375.67L1207.4 391.84V415.04Z" fill="#DCFF48"/>
<path d="M1547.39 414.39V398.24L1501.98 458.62H1514.13L1547.39 414.39Z" fill="#DCFF48"/>
<path d="M1547.39 418.73L1517.39 458.63H1531.12C1532.54 458.63 1533.92 458.45 1535.23 458.1L1547.39 441.93V418.73Z" fill="#DCFF48"/>
<path d="M1264.48 393.52H1273.07V440.37H1287.2V448.18H1264.48V393.52Z" fill="#DCFF48"/>
<path d="M1299.54 416.55H1311.33V424.36H1299.54V440.37H1314.38V448.18H1290.96V393.52H1314.38V401.33H1299.54V416.56V416.55Z" fill="#DCFF48"/>
<path d="M1317.18 393.52H1343.73V401.33H1334.75V448.18H1326.16V401.33H1317.18V393.52Z" fill="#DCFF48"/>
<path d="M1347.48 401.8V393.52H1355.76V400.94L1352.01 409.61H1348.5L1350.76 401.8H1347.48Z" fill="#DCFF48"/>
<path d="M1373.16 392.89C1381.51 392.89 1385.81 397.89 1385.81 406.63V408.35H1377.69V406.09C1377.69 402.19 1376.13 400.7 1373.4 400.7C1370.67 400.7 1369.11 402.18 1369.11 406.09C1369.11 417.33 1385.9 419.44 1385.9 435.06C1385.9 443.81 1381.53 448.8 1373.09 448.8C1364.65 448.8 1360.28 443.8 1360.28 435.06V431.7H1368.4V435.6C1368.4 439.5 1370.12 440.91 1372.85 440.91C1375.58 440.91 1377.3 439.5 1377.3 435.6C1377.3 424.36 1360.51 422.25 1360.51 406.63C1360.51 397.88 1364.8 392.89 1373.16 392.89Z" fill="#DCFF48"/>
<path d="M1411.5 417.8H1422.59V425.61H1411.5V448.18H1402.91V393.52H1425.63V401.33H1411.5V417.81V417.8Z" fill="#DCFF48"/>
<path d="M1429.77 393.52H1438.36V448.18H1429.77V393.52Z" fill="#DCFF48"/>
<path d="M1456.16 392.89C1464.51 392.89 1468.81 397.89 1468.81 406.63V408.35H1460.69V406.09C1460.69 402.19 1459.13 400.7 1456.4 400.7C1453.67 400.7 1452.11 402.18 1452.11 406.09C1452.11 417.33 1468.9 419.44 1468.9 435.06C1468.9 443.81 1464.53 448.8 1456.09 448.8C1447.65 448.8 1443.28 443.8 1443.28 435.06V431.7H1451.4V435.6C1451.4 439.5 1453.12 440.91 1455.85 440.91C1458.58 440.91 1460.3 439.5 1460.3 435.6C1460.3 424.36 1443.51 422.25 1443.51 406.63C1443.51 397.88 1447.8 392.89 1456.16 392.89Z" fill="#DCFF48"/>
<path d="M1482.39 448.18H1473.8V393.52H1482.39V416.94H1492.15V393.52H1500.9V448.18H1492.15V424.76H1482.39V448.18Z" fill="#DCFF48"/>
<path d="M1264.48 390.15H1273.07V437H1287.2V444.81H1264.48V390.15Z" fill="#0E361B"/>
<path d="M1299.54 413.18H1311.33V420.99H1299.54V437H1314.38V444.81H1290.96V390.15H1314.38V397.96H1299.54V413.19V413.18Z" fill="#0E361B"/>
<path d="M1317.18 390.15H1343.73V397.96H1334.75V444.81H1326.16V397.96H1317.18V390.15Z" fill="#0E361B"/>
<path d="M1347.48 398.43V390.15H1355.76V397.57L1352.01 406.24H1348.5L1350.76 398.43H1347.48Z" fill="#0E361B"/>
<path d="M1373.16 389.52C1381.51 389.52 1385.81 394.52 1385.81 403.26V404.98H1377.69V402.72C1377.69 398.82 1376.13 397.33 1373.4 397.33C1370.67 397.33 1369.11 398.81 1369.11 402.72C1369.11 413.96 1385.9 416.07 1385.9 431.69C1385.9 440.44 1381.53 445.43 1373.09 445.43C1364.65 445.43 1360.28 440.43 1360.28 431.69V428.33H1368.4V432.23C1368.4 436.13 1370.12 437.54 1372.85 437.54C1375.58 437.54 1377.3 436.13 1377.3 432.23C1377.3 420.99 1360.51 418.88 1360.51 403.26C1360.51 394.51 1364.8 389.52 1373.16 389.52Z" fill="#0E361B"/>
<path d="M1411.5 414.43H1422.59V422.24H1411.5V444.81H1402.91V390.15H1425.63V397.96H1411.5V414.44V414.43Z" fill="#0E361B"/>
<path d="M1429.77 390.15H1438.36V444.81H1429.77V390.15Z" fill="#0E361B"/>
<path d="M1456.16 389.52C1464.51 389.52 1468.81 394.52 1468.81 403.26V404.98H1460.69V402.72C1460.69 398.82 1459.13 397.33 1456.4 397.33C1453.67 397.33 1452.11 398.81 1452.11 402.72C1452.11 413.96 1468.9 416.07 1468.9 431.69C1468.9 440.44 1464.53 445.43 1456.09 445.43C1447.65 445.43 1443.28 440.43 1443.28 431.69V428.33H1451.4V432.23C1451.4 436.13 1453.12 437.54 1455.85 437.54C1458.58 437.54 1460.3 436.13 1460.3 432.23C1460.3 420.99 1443.51 418.88 1443.51 403.26C1443.51 394.51 1447.8 389.52 1456.16 389.52Z" fill="#0E361B"/>
<path d="M1482.39 444.81H1473.8V390.15H1482.39V413.57H1492.15V390.15H1500.9V444.81H1492.15V421.39H1482.39V444.81Z" fill="#0E361B"/>
<path d="M144.463 123.189H425.537C460.88 123.189 489.571 151.92 489.571 187.313V562.993C489.571 598.386 460.88 627.117 425.537 627.117H144.463C109.12 627.117 80.4292 598.386 80.4292 562.993V187.313C80.4292 151.92 109.12 123.189 144.463 123.189Z" fill="#004AB5"/>
<path d="M425.537 126.623C459.006 126.623 486.142 153.797 486.142 187.313V562.993C486.142 596.509 459.006 623.683 425.537 623.683H144.463C110.994 623.683 83.8583 596.509 83.8583 562.993V187.313C83.8583 153.797 110.994 126.623 144.463 126.623H425.537ZM425.537 119.755H144.463C107.268 119.755 77 150.065 77 187.313V562.993C77 600.24 107.268 630.551 144.463 630.551H425.537C462.732 630.551 493 600.24 493 562.993V187.313C493 150.065 462.732 119.755 425.537 119.755Z" fill="#041521"/>
<path d="M425.56 126.623H144.463C110.992 126.623 83.8584 153.795 83.8584 187.313V519.473C83.8584 552.991 110.992 580.163 144.463 580.163H425.56C459.031 580.163 486.165 552.991 486.165 519.473V187.313C486.165 153.795 459.031 126.623 425.56 126.623Z" fill="#005EB1"/>
<path d="M468.63 496.03V210.779C468.63 177.26 441.497 150.088 408.026 150.088L162.02 150.088C128.549 150.088 101.416 177.26 101.416 210.779V496.03C101.416 529.548 128.549 556.72 162.02 556.72H408.026C441.497 556.72 468.63 529.548 468.63 496.03Z" fill="#012947"/>
<g clip-path="url(#clip1_218_244)">
<path d="M190.498 558.542H205.15C224.735 558.542 240.629 574.437 240.629 594.022V609.245C240.629 628.83 224.735 644.724 205.15 644.724H190.498C170.913 644.734 155.009 628.83 155.009 609.245V594.022C155.009 574.446 170.913 558.542 190.498 558.542Z" fill="#127B93"/>
<path d="M205.15 560.171C223.851 560.171 239.01 575.33 239.01 594.031V609.254C239.01 627.956 223.851 643.114 205.15 643.114H190.498C171.796 643.114 156.638 627.956 156.638 609.254V594.031C156.638 575.33 171.796 560.171 190.498 560.171H205.15ZM205.15 556.923H190.498C170.038 556.923 153.389 573.572 153.389 594.031V609.254C153.389 629.713 170.038 646.363 190.498 646.363H205.15C225.609 646.363 242.259 629.713 242.259 609.254V594.031C242.249 573.572 225.609 556.923 205.15 556.923Z" fill="#002C3A"/>
<path d="M205.325 627.542C223.928 627.542 239.01 612.46 239.01 593.857C239.01 575.253 223.928 560.172 205.325 560.172H190.323C171.719 560.172 156.638 575.253 156.638 593.857C156.638 612.46 171.719 627.542 190.323 627.542H205.325Z" fill="#06BADD"/>
<path d="M206.226 564.81H189.412C173.837 564.81 161.212 577.436 161.212 593.01C161.212 608.584 173.837 621.21 189.412 621.21H206.226C221.801 621.21 234.426 608.584 234.426 593.01C234.426 577.436 221.801 564.81 206.226 564.81Z" fill="#34EBE6"/>
<path d="M203.788 610.975C202.647 610.975 201.506 610.662 200.493 610.082L182.62 599.765C180.549 598.569 179.316 596.433 179.316 594.04C179.316 591.648 180.549 589.512 182.62 588.316L200.493 577.999C201.506 577.419 202.647 577.106 203.788 577.106C207.433 577.106 210.405 580.069 210.405 583.723V604.367C210.405 606.189 209.688 607.873 208.39 609.125C207.157 610.303 205.482 610.984 203.797 610.984L203.788 610.975Z" fill="#127B93"/>
<path d="M203.788 578.726C206.392 578.726 208.776 580.806 208.776 583.714V604.358C208.776 607.266 206.392 609.346 203.788 609.346C202.96 609.346 202.104 609.134 201.303 608.674L183.43 598.357C180.107 596.443 180.107 591.648 183.43 589.724L201.303 579.407C202.104 578.947 202.96 578.735 203.788 578.735M203.788 575.477C202.361 575.477 200.935 575.864 199.683 576.591L181.81 586.908C179.233 588.399 177.696 591.059 177.696 594.031C177.696 597.004 179.233 599.673 181.81 601.155L199.683 611.472C200.944 612.199 202.361 612.586 203.788 612.586C208.325 612.586 212.025 608.895 212.025 604.348V583.705C212.025 579.168 208.334 575.468 203.788 575.468V575.477Z" fill="#002C3A"/>
</g>
<g clip-path="url(#clip2_218_244)">
<path d="M372.314 558.542H386.966C406.551 558.542 422.445 574.437 422.445 594.022V609.245C422.445 628.83 406.551 644.724 386.966 644.724H372.314C352.728 644.734 336.825 628.83 336.825 609.245V594.022C336.825 574.446 352.728 558.542 372.314 558.542Z" fill="#127B93"/>
<path d="M386.966 560.171C405.667 560.171 420.826 575.33 420.826 594.031V609.254C420.826 627.956 405.667 643.114 386.966 643.114H372.314C353.612 643.114 338.454 627.956 338.454 609.254V594.031C338.454 575.33 353.612 560.171 372.314 560.171H386.966ZM386.966 556.923H372.314C351.854 556.923 335.205 573.572 335.205 594.031V609.254C335.205 629.713 351.854 646.363 372.314 646.363H386.966C407.425 646.363 424.074 629.713 424.074 609.254V594.031C424.065 573.572 407.425 556.923 386.966 556.923Z" fill="#002C3A"/>
<path d="M387.141 627.542C405.744 627.542 420.826 612.46 420.826 593.857C420.826 575.253 405.744 560.172 387.141 560.172H372.139C353.535 560.172 338.454 575.253 338.454 593.857C338.454 612.46 353.535 627.542 372.139 627.542H387.141Z" fill="#06BADD"/>
<path d="M388.043 564.81H371.228C355.654 564.81 343.028 577.436 343.028 593.01C343.028 608.584 355.654 621.21 371.228 621.21H388.043C403.617 621.21 416.242 608.584 416.242 593.01C416.242 577.436 403.617 564.81 388.043 564.81Z" fill="#34EBE6"/>
<path d="M372.351 577.078C373.492 577.078 374.633 577.391 375.645 577.971L393.519 588.288C395.589 589.485 396.823 591.62 396.823 594.013C396.823 596.406 395.589 598.541 393.519 599.738L375.645 610.055C374.633 610.635 373.492 610.948 372.351 610.948C368.706 610.948 365.733 607.984 365.733 604.33L365.733 583.687C365.733 581.864 366.451 580.18 367.749 578.928C368.982 577.75 370.657 577.069 372.341 577.069L372.351 577.078Z" fill="#127B93"/>
<path d="M372.35 609.328C369.746 609.328 367.362 607.248 367.362 604.339L367.362 583.696C367.362 580.787 369.746 578.707 372.35 578.707C373.179 578.707 374.035 578.919 374.835 579.379L392.709 589.696C396.031 591.611 396.031 596.406 392.709 598.329L374.835 608.647C374.035 609.107 373.179 609.318 372.35 609.318M372.35 612.576C373.777 612.576 375.203 612.19 376.455 611.463L394.328 601.146C396.905 599.655 398.442 596.995 398.442 594.022C398.442 591.049 396.905 588.38 394.328 586.899L376.455 576.581C375.194 575.854 373.777 575.468 372.35 575.468C367.813 575.468 364.113 579.158 364.113 583.705L364.113 604.349C364.113 608.886 367.804 612.586 372.35 612.586L372.35 612.576Z" fill="#002C3A"/>
</g>
<path d="M231.251 527.861V502.091H237.657C241.706 502.091 243.694 504.337 243.694 508.46V521.492C243.694 525.615 241.706 527.861 237.657 527.861H231.251ZM237.583 505.772H235.3V524.179H237.583C238.871 524.179 239.645 523.517 239.645 521.676V508.276C239.645 506.435 238.871 505.772 237.583 505.772ZM255.225 502.091L259.348 527.861H255.262L254.563 523.185H249.593L248.893 527.861H245.175L249.298 502.091H255.225ZM252.059 506.656L250.108 519.688H254.01L252.059 506.656ZM261.05 502.091H265.1V521.971C265.1 523.811 265.91 524.474 267.198 524.474C268.487 524.474 269.297 523.811 269.297 521.971V502.091H273.125V521.713C273.125 525.836 271.064 528.192 267.088 528.192C263.112 528.192 261.05 525.836 261.05 521.713V502.091ZM275.902 527.861V502.091H279.952V524.179H286.615V527.861H275.902ZM294.341 502.091C298.391 502.091 300.379 504.337 300.379 508.46V511.81C300.379 515.933 298.391 518.179 294.341 518.179H292.427V527.861H288.378V502.091H294.341ZM294.341 505.772H292.427V514.497H294.341C295.63 514.497 296.329 513.908 296.329 512.068V508.202C296.329 506.361 295.63 505.772 294.341 505.772ZM306.304 516.817V527.861H302.255V502.091H306.304V513.135H310.906V502.091H315.029V527.861H310.906V516.817H306.304ZM317.965 527.861V502.091H322.015V527.861H317.965ZM333.627 527.861L328.584 509.196V527.861H324.939V502.091H330.02L334.18 517.516V502.091H337.787V527.861H333.627Z" fill="#34EBE6"/>
<path d="M331.747 115.765V106.755H312.659L305.001 104.702C305.001 104.702 299.59 96.3545 299.58 96.3545L292.825 85.9453C289.843 81.362 284.984 81.362 282.002 85.9453L275.246 96.3545L269.835 104.702L262.168 106.755H243.052V115.765H243.08C242.96 117.348 243.531 119.087 244.893 120.781L252.707 130.417L258.965 138.139L257.787 160.457C257.502 165.915 261.441 168.777 266.549 166.826L287.413 158.81L308.269 166.826C313.376 168.777 317.306 165.915 317.021 160.457L315.852 138.139L322.101 130.417L329.915 120.781C331.277 119.096 331.857 117.348 331.738 115.765H331.747Z" fill="#FBA91E"/>
<path d="M326.583 100.781L305.001 95.0015C305.001 95.0015 299.589 86.6539 299.58 86.6539L292.825 76.2539C289.843 71.6706 284.983 71.6706 282.002 76.2539L275.246 86.6539L269.834 95.0015L248.243 100.781C242.969 102.19 241.46 106.828 244.893 111.071L252.707 120.707L258.965 128.429L257.787 150.747C257.502 156.205 261.441 159.067 266.549 157.116L287.413 149.1L308.268 157.116C313.376 159.067 317.306 156.205 317.021 150.747L315.852 128.429L322.101 120.707L329.915 111.071C333.357 106.819 331.848 102.19 326.565 100.781H326.583Z" fill="#FEDA34"/>
<g style="mix-blend-mode:overlay" opacity="0.2">
<path d="M264.395 96.465L248.252 100.781C246.384 101.278 244.994 102.19 244.129 103.34L282.949 150.821L287.422 149.1L308.278 157.116C310.486 157.963 312.474 157.908 314.002 157.116L264.395 96.4558V96.465Z" fill="white"/>
</g>
<g style="mix-blend-mode:overlay" opacity="0.2">
<path d="M322.156 120.652L284.035 74.0359C283.308 74.5881 282.618 75.3244 282.011 76.2539L275.476 86.3226L316.275 136.215L315.87 128.438L322.12 120.716L322.166 120.661L322.156 120.652Z" fill="white"/>
</g>
<path d="M243.853 125.548L242.04 119.842L229.947 123.68L224.682 123.919C224.682 123.919 219.574 119.722 219.565 119.722L213.196 114.486C210.38 112.176 207.306 113.16 206.34 116.667L204.149 124.619L202.4 130.997L197.955 133.841L185.843 137.688L187.656 143.394H187.675C187.914 144.416 188.632 145.41 189.838 146.201L196.731 150.729L202.253 154.365L205.999 168.75C206.919 172.265 209.993 173.287 212.828 171.023L224.434 161.746L239.27 162.629C242.896 162.841 244.82 160.236 243.54 156.831L238.303 142.925L240.715 136.777L243.734 129.101C244.258 127.757 244.277 126.533 243.881 125.557L243.853 125.548Z" fill="#FBA91E"/>
<path d="M237.558 117.081L222.713 117.762L217.605 113.565L211.227 108.328C208.41 106.018 205.336 107.003 204.37 110.51L202.18 118.461L200.431 124.84L187.914 132.847C184.849 134.798 184.831 138.037 187.859 140.044L194.752 144.572L200.274 148.207L204.02 162.592C204.941 166.108 208.015 167.13 210.849 164.866L222.455 155.589L237.291 156.472C240.917 156.684 242.841 154.079 241.561 150.674L236.325 136.767L238.736 130.61L241.755 122.934C243.08 119.548 241.193 116.915 237.558 117.081Z" fill="#FEDA34"/>
<g style="mix-blend-mode:overlay" opacity="0.2">
<path d="M197.274 126.855L187.914 132.837C186.828 133.528 186.138 134.384 185.815 135.286L219.979 157.567L222.464 155.579L237.3 156.463C238.874 156.555 240.116 156.113 240.926 155.313L197.283 126.846L197.274 126.855Z" fill="white"/>
</g>
<g style="mix-blend-mode:overlay" opacity="0.2">
<path d="M238.754 130.573L205.217 108.697C204.867 109.194 204.572 109.801 204.379 110.51L202.262 118.204L238.156 141.618L236.334 136.767L238.745 130.61L238.763 130.564L238.754 130.573Z" fill="white"/>
</g>
<path d="M331.903 125.392L333.717 119.686L345.81 123.523L351.074 123.763C351.074 123.763 356.182 119.566 356.192 119.566L362.56 114.329C365.377 112.019 368.46 113.004 369.417 116.51L371.608 124.462L373.356 130.84L377.802 133.684L389.913 137.531L388.1 143.237H388.082C387.843 144.259 387.125 145.253 385.919 146.045L379.026 150.573L373.503 154.208L369.758 168.593C368.837 172.109 365.763 173.131 362.929 170.866L351.323 161.589L336.487 162.473C332.861 162.685 330.937 160.08 332.216 156.675L337.453 142.768L335.042 136.62L332.023 128.944C331.499 127.601 331.48 126.377 331.876 125.401L331.903 125.392Z" fill="#FBA91E"/>
<path d="M338.19 116.934L353.035 117.615L358.143 113.418L364.521 108.181C367.337 105.88 370.411 106.856 371.378 110.363L373.568 118.314L375.317 124.692L387.834 132.7C390.898 134.651 390.917 137.89 387.889 139.897L380.995 144.434L375.473 148.069L371.727 162.455C370.807 165.97 367.733 166.992 364.898 164.728L353.293 155.451L338.457 156.334C334.83 156.546 332.907 153.941 334.186 150.536L339.423 136.629L337.012 130.472L333.993 122.797C332.668 119.41 334.554 116.777 338.181 116.943L338.19 116.934Z" fill="#FEDA34"/>
<g style="mix-blend-mode:overlay" opacity="0.2">
<path d="M378.474 126.708L387.834 132.69C388.92 133.381 389.61 134.236 389.932 135.138L355.769 157.42L353.284 155.432L338.447 156.316C336.874 156.408 335.631 155.966 334.821 155.165L378.464 126.699L378.474 126.708Z" fill="white"/>
</g>
<g style="mix-blend-mode:overlay" opacity="0.2">
<path d="M336.993 130.417L370.54 108.54C370.89 109.037 371.175 109.645 371.378 110.353L373.494 118.048L337.601 141.461L339.423 136.611L337.012 130.454L336.993 130.408V130.417Z" fill="white"/>
</g>
<path d="M222.489 195.613C226.539 195.613 228.527 197.859 228.527 201.982V205.332C228.527 209.455 226.539 211.701 222.489 211.701H220.575V221.383H216.525V195.613H222.489ZM222.489 199.294H220.575V208.019H222.489C223.778 208.019 224.477 207.43 224.477 205.59V201.724C224.477 199.883 223.778 199.294 222.489 199.294ZM230.582 221.383V195.613H234.632V217.701H241.295V221.383H230.582ZM252.04 195.613L256.163 221.383H252.077L251.377 216.707H246.407L245.708 221.383H241.99L246.113 195.613H252.04ZM248.874 200.178L246.923 213.21H250.825L248.874 200.178ZM260.043 221.383V212.842L254.926 195.613H259.16L262.252 207.357L265.345 195.613H269.21L264.093 212.842V221.383H260.043ZM274.897 199.294V206.473H280.456V210.154H274.897V217.701H281.892V221.383H270.848V195.613H281.892V199.294H274.897ZM296.992 221.383H292.869C292.648 220.72 292.501 220.315 292.501 218.217V214.167C292.501 211.774 291.691 210.891 289.85 210.891H288.451V221.383H284.401V195.613H290.513C294.709 195.613 296.513 197.564 296.513 201.54V203.565C296.513 206.215 295.667 207.946 293.863 208.792C295.887 209.639 296.55 211.59 296.55 214.278V218.254C296.55 219.505 296.587 220.426 296.992 221.383ZM290.402 199.294H288.451V207.209H290.034C291.543 207.209 292.464 206.547 292.464 204.485V201.945C292.464 200.104 291.838 199.294 290.402 199.294Z" fill="#34EBE6"/>
<path d="M314.987 213.063H318.816V215.456C318.816 217.296 319.626 217.959 320.914 217.959C322.203 217.959 323.013 217.296 323.013 215.456V209.786C323.013 207.946 322.203 207.246 320.914 207.246C319.626 207.246 318.816 207.946 318.816 209.786V210.559H314.987L315.724 195.613H326.4V199.294H319.368L319.037 205.442C319.773 204.227 320.951 203.565 322.571 203.565C325.553 203.565 327.062 205.663 327.062 209.455V215.198C327.062 219.321 325.001 221.677 321.025 221.677C317.049 221.677 314.987 219.321 314.987 215.198V213.063ZM333.486 201.54V215.456C333.486 217.296 334.296 217.996 335.584 217.996C336.873 217.996 337.683 217.296 337.683 215.456V201.54C337.683 199.699 336.873 199 335.584 199C334.296 199 333.486 199.699 333.486 201.54ZM329.436 215.198V201.798C329.436 197.674 331.608 195.318 335.584 195.318C339.56 195.318 341.732 197.674 341.732 201.798V215.198C341.732 219.321 339.56 221.677 335.584 221.677C331.608 221.677 329.436 219.321 329.436 215.198ZM350.438 210.707V207.025H356.107V215.198C356.107 219.321 354.046 221.677 350.07 221.677C346.094 221.677 344.032 219.321 344.032 215.198V201.798C344.032 197.674 346.094 195.318 350.07 195.318C354.046 195.318 356.107 197.674 356.107 201.798V204.301H352.279V201.54C352.279 199.699 351.469 199 350.18 199C348.892 199 348.082 199.699 348.082 201.54V215.456C348.082 217.296 348.892 217.959 350.18 217.959C351.469 217.959 352.279 217.296 352.279 215.456V210.707H350.438Z" fill="#34EBE6"/>
<defs>
<linearGradient id="paint0_linear_218_244" x1="687.94" y1="202.56" x2="937.9" y2="202.56" gradientUnits="userSpaceOnUse">
<stop stop-color="#00FFDD"/>
<stop offset="1" stop-color="#00D4FF"/>
</linearGradient>
<linearGradient id="paint1_linear_218_244" x1="615.24" y1="432.78" x2="1016.52" y2="432.78" gradientUnits="userSpaceOnUse">
<stop stop-color="#00FFDD"/>
<stop offset="1" stop-color="#00D4FF"/>
</linearGradient>
<clipPath id="clip0_218_244">
<rect width="1651.57" height="810.97" fill="white"/>
</clipPath>
<clipPath id="clip1_218_244">
<rect width="88.8602" height="89.4308" fill="white" transform="translate(153.389 556.923)"/>
</clipPath>
<clipPath id="clip2_218_244">
<rect width="88.8602" height="89.4308" fill="white" transform="translate(335.205 556.923)"/>
</clipPath>
</defs>
</svg>
