<svg width="1646" height="422" viewBox="0 0 1646 422" fill="none" xmlns="http://www.w3.org/2000/svg">
<path d="M34.59 3.40991H339.56C356.77 3.40991 370.75 17.3799 370.75 34.5999V386.56C370.75 403.77 356.78 417.75 339.56 417.75H34.59C17.38 417.75 3.41 403.78 3.41 386.57V34.5899C3.41 17.3799 17.38 3.40991 34.59 3.40991Z" fill="#0D7C79"/>
<path d="M339.56 6.82C354.9 6.82 367.34 19.26 367.34 34.6V386.57C367.34 401.91 354.9 414.35 339.56 414.35H34.59C19.25 414.35 6.81 401.91 6.81 386.57V34.59C6.81 19.25 19.25 6.81 34.59 6.81H339.56M339.56 0H34.59C15.52 0 0 15.52 0 34.59V386.56C0 405.64 15.52 421.15 34.59 421.15H339.56C358.64 421.15 374.15 405.63 374.15 386.56V34.59C374.15 15.51 358.63 0 339.56 0Z" fill="#0E3535"/>
<path d="M367.34 353.89V34.6001C367.34 19.2576 354.902 6.82007 339.56 6.82007L34.6 6.82007C19.2575 6.82007 6.82001 19.2576 6.82001 34.6001V353.89C6.82001 369.233 19.2575 381.67 34.6 381.67H339.56C354.902 381.67 367.34 369.233 367.34 353.89Z" fill="#00D6CB"/>
<path d="M330.33 16.5601H43.82C28.6874 16.5601 16.42 28.8275 16.42 43.9601V336.85C16.42 351.983 28.6874 364.25 43.82 364.25H330.33C345.463 364.25 357.73 351.983 357.73 336.85V43.9601C357.73 28.8275 345.463 16.5601 330.33 16.5601Z" fill="#1CF9F3"/>
<g opacity="0.51">
<path d="M327.1 389.87H47.05C42.2451 389.87 38.35 393.765 38.35 398.57C38.35 403.375 42.2451 407.27 47.05 407.27H327.1C331.905 407.27 335.8 403.375 335.8 398.57C335.8 393.765 331.905 389.87 327.1 389.87Z" fill="#0D9E9E"/>
</g>
<path d="M339.56 377.83H34.59C19.25 377.83 6.81 365.39 6.81 350.05V353.89C6.81 369.23 19.25 381.67 34.59 381.67H339.56C354.9 381.67 367.34 369.23 367.34 353.89V350.05C367.34 365.39 354.9 377.83 339.56 377.83Z" fill="#5AFBFF"/>
<path d="M16.42 98.1601V125.36L92.88 16.5601H72.43L16.42 98.1601Z" fill="#C2FEFF"/>
<path d="M16.42 79.3101L66.94 16.5601H43.82C41.43 16.5601 39.11 16.8701 36.9 17.4401L16.43 42.4501V79.3101H16.42Z" fill="#C2FEFF"/>
<path d="M357.73 289.78V262.58L281.27 364.25H301.73L357.73 289.78Z" fill="#C2FEFF"/>
<path d="M357.73 297.07L307.21 364.25H330.33C332.72 364.25 335.04 363.94 337.25 363.37L357.72 336.14V297.07H357.73Z" fill="#C2FEFF"/>
<path d="M143.322 292.954V308.528H153.803V315.909H143.322V337.24H135.202V285.573H156.681V292.954H143.322ZM160.575 337.24V285.573H168.694V337.24H160.575ZM173.597 297.973C173.597 289.706 177.656 284.983 185.554 284.983C193.452 284.983 197.511 289.706 197.511 297.973V299.597H189.835V297.456C189.835 293.766 188.359 292.364 185.776 292.364C183.192 292.364 181.716 293.766 181.716 297.456C181.716 308.085 197.585 310.078 197.585 324.84C197.585 333.107 193.452 337.83 185.48 337.83C177.509 337.83 173.375 333.107 173.375 324.84V321.666H181.052V325.357C181.052 329.047 182.675 330.376 185.259 330.376C187.842 330.376 189.466 329.047 189.466 325.357C189.466 314.728 173.597 312.735 173.597 297.973ZM210.356 315.097V337.24H202.237V285.573H210.356V307.716H219.582V285.573H227.849V337.24H219.582V315.097H210.356Z" fill="#0E3535"/>
<path d="M327.41 47.9299H49.67C38.7679 47.9299 29.93 56.7678 29.93 67.6699V242.84C29.93 253.742 38.7679 262.58 49.67 262.58H327.41C338.312 262.58 347.15 253.742 347.15 242.84V67.6699C347.15 56.7678 338.312 47.9299 327.41 47.9299Z" fill="#C2FEFF"/>
<path d="M327.15 34.6001H49.93C38.8843 34.6001 29.93 43.5544 29.93 54.6001V234.95C29.93 245.996 38.8843 254.95 49.93 254.95H327.15C338.196 254.95 347.15 245.996 347.15 234.95V54.6001C347.15 43.5544 338.196 34.6001 327.15 34.6001Z" fill="#0E3535"/>
<path d="M327.15 34.6001H49.93C38.88 34.6001 29.93 43.5501 29.93 54.6001V60.8901C29.93 49.8401 38.88 40.8901 49.93 40.8901H327.15C338.2 40.8901 347.15 49.8401 347.15 60.8901V54.6001C347.15 43.5501 338.2 34.6001 327.15 34.6001Z" fill="#092611"/>
<path d="M212.37 95.3301C193.62 80.3501 168.63 73.7901 143.86 79.0801C153.26 87.3801 161.13 97.5901 166.84 109.33C155.64 117.06 145.89 127.34 135.44 137.24C115.62 155.98 103.86 119.19 72.08 123.78C84.71 133.89 79.12 157.9 106.79 163.02C83.67 181.57 101.94 192.15 95.29 206.89C127.68 196.9 119.79 162.22 143.83 172.17C166.33 180.69 185.87 188.33 204.58 182.45C195.61 189.08 187.79 190.48 180.79 190.22C179.93 199 178.02 204.52 174.39 212.26C193.39 208.43 209.04 196.45 218.03 180.45C263.98 165.09 279.32 142.19 290.28 118.92C268.26 102.62 240.84 93.8701 212.37 95.3301ZM255.67 124.21C252.47 124.98 249.25 123.01 248.48 119.81C247.71 116.61 249.68 113.39 252.88 112.62C256.08 111.85 259.3 113.82 260.07 117.02C260.84 120.22 258.87 123.44 255.67 124.21Z" fill="url(#paint0_linear_3_3266)"/>
<path d="M458.75 3.40991H763.72C780.93 3.40991 794.91 17.3799 794.91 34.5999V386.56C794.91 403.77 780.94 417.75 763.72 417.75H458.75C441.54 417.75 427.57 403.78 427.57 386.57V34.5899C427.57 17.3799 441.54 3.40991 458.75 3.40991Z" fill="#0C7E40"/>
<path d="M763.71 6.82C779.05 6.82 791.49 19.26 791.49 34.6V386.57C791.49 401.91 779.05 414.35 763.71 414.35H458.74C443.4 414.35 430.96 401.91 430.96 386.57V34.59C430.96 19.25 443.4 6.81 458.74 6.81H763.71M763.71 0H458.74C439.66 0 424.15 15.52 424.15 34.59V386.56C424.15 405.64 439.67 421.15 458.74 421.15H763.71C782.79 421.15 798.3 405.63 798.3 386.56V34.59C798.3 15.51 782.78 0 763.71 0Z" fill="#0E361B"/>
<path d="M791.49 353.89V34.6001C791.49 19.2576 779.052 6.82007 763.71 6.82007L458.75 6.82007C443.408 6.82007 430.97 19.2576 430.97 34.6001V353.89C430.97 369.233 443.408 381.67 458.75 381.67H763.71C779.052 381.67 791.49 369.233 791.49 353.89Z" fill="#6FD800"/>
<path d="M754.49 16.5601H467.98C452.847 16.5601 440.58 28.8275 440.58 43.9601V336.85C440.58 351.983 452.847 364.25 467.98 364.25H754.49C769.623 364.25 781.89 351.983 781.89 336.85V43.9601C781.89 28.8275 769.623 16.5601 754.49 16.5601Z" fill="#BDFA19"/>
<g opacity="0.51">
<path d="M751.25 389.87H471.2C466.395 389.87 462.5 393.765 462.5 398.57C462.5 403.375 466.395 407.27 471.2 407.27H751.25C756.055 407.27 759.95 403.375 759.95 398.57C759.95 393.765 756.055 389.87 751.25 389.87Z" fill="#0CA052"/>
</g>
<path d="M763.71 377.83H458.74C443.4 377.83 430.96 365.39 430.96 350.05V353.89C430.96 369.23 443.4 381.67 458.74 381.67H763.71C779.05 381.67 791.49 369.23 791.49 353.89V350.05C791.49 365.39 779.05 377.83 763.71 377.83Z" fill="#D6FF57"/>
<path d="M440.58 98.1601V125.36L517.04 16.5601H496.58L440.58 98.1601Z" fill="#DCFF48"/>
<path d="M440.58 79.3101L491.1 16.5601H467.98C465.59 16.5601 463.27 16.8701 461.06 17.4401L440.59 42.4501V79.3101H440.58Z" fill="#DCFF48"/>
<path d="M781.89 289.78V262.58L705.43 364.25H725.88L781.89 289.78Z" fill="#DCFF48"/>
<path d="M781.89 297.07L731.37 364.25H754.49C756.88 364.25 759.2 363.94 761.41 363.37L781.88 336.14V297.07H781.89Z" fill="#DCFF48"/>
<path d="M498.532 317.385H506.208V324.25C506.208 332.517 502.074 337.24 494.103 337.24C486.131 337.24 481.998 332.517 481.998 324.25V297.383C481.998 289.116 486.131 284.392 494.103 284.392C502.074 284.392 506.208 289.116 506.208 297.383V302.402H498.532V296.866C498.532 293.176 496.908 291.773 494.324 291.773C491.741 291.773 490.117 293.176 490.117 296.866V324.766C490.117 328.457 491.741 329.786 494.324 329.786C496.908 329.786 498.532 328.457 498.532 324.766V317.385ZM518.589 296.866V324.766C518.589 328.457 520.213 329.859 522.796 329.859C525.379 329.859 527.003 328.457 527.003 324.766V296.866C527.003 293.176 525.379 291.773 522.796 291.773C520.213 291.773 518.589 293.176 518.589 296.866ZM510.47 324.25V297.383C510.47 289.116 514.825 284.392 522.796 284.392C530.767 284.392 535.122 289.116 535.122 297.383V324.25C535.122 332.517 530.767 337.24 522.796 337.24C514.825 337.24 510.47 332.517 510.47 324.25ZM540.399 336.65V284.983H548.518V329.269H561.877V336.65H540.399ZM565.41 336.65V284.983H573.529V329.269H586.889V336.65H565.41ZM598.541 292.364V306.757H609.687V314.138H598.541V329.269H612.565V336.65H590.422V284.983H612.565V292.364H598.541ZM633.465 317.385H641.142V324.25C641.142 332.517 637.008 337.24 629.037 337.24C621.065 337.24 616.932 332.517 616.932 324.25V297.383C616.932 289.116 621.065 284.392 629.037 284.392C637.008 284.392 641.142 289.116 641.142 297.383V302.402H633.465V296.866C633.465 293.176 631.842 291.773 629.258 291.773C626.675 291.773 625.051 293.176 625.051 296.866V324.766C625.051 328.457 626.675 329.786 629.258 329.786C631.842 329.786 633.465 328.457 633.465 324.766V317.385ZM643.706 292.364V284.983H668.801V292.364H660.313V336.65H652.194V292.364H643.706ZM672.377 336.65V284.983H680.496V336.65H672.377ZM693.888 296.866V324.766C693.888 328.457 695.511 329.859 698.095 329.859C700.678 329.859 702.302 328.457 702.302 324.766V296.866C702.302 293.176 700.678 291.773 698.095 291.773C695.511 291.773 693.888 293.176 693.888 296.866ZM685.768 324.25V297.383C685.768 289.116 690.123 284.392 698.095 284.392C706.066 284.392 710.421 289.116 710.421 297.383V324.25C710.421 332.517 706.066 337.24 698.095 337.24C690.123 337.24 685.768 332.517 685.768 324.25ZM733.043 336.65L722.931 299.228V336.65H715.623V284.983H725.809L734.15 315.909V284.983H741.383V336.65H733.043Z" fill="#0E3318"/>
<path d="M749.98 47.9299H472.24C461.338 47.9299 452.5 56.7678 452.5 67.6699V242.84C452.5 253.742 461.338 262.58 472.24 262.58H749.98C760.882 262.58 769.72 253.742 769.72 242.84V67.6699C769.72 56.7678 760.882 47.9299 749.98 47.9299Z" fill="#DCFF48"/>
<path d="M749.72 34.6001H472.5C461.454 34.6001 452.5 43.5544 452.5 54.6001V234.95C452.5 245.996 461.454 254.95 472.5 254.95H749.72C760.766 254.95 769.72 245.996 769.72 234.95V54.6001C769.72 43.5544 760.766 34.6001 749.72 34.6001Z" fill="#0E3318"/>
<path d="M573.75 96.5001C571.88 87.0201 570.07 78.6401 568.7 70.1901C568.62 69.7101 568.65 69.2201 568.75 68.7201C569.21 66.2701 571.88 64.9201 574.19 65.8501C574.74 66.0701 575.28 66.2901 575.83 66.5001C579.81 68.0601 583.71 70.5801 587.79 70.9401C595.3 71.5901 602.79 71.3401 609.33 76.0401C610.16 76.6401 612.01 76.0001 613.34 75.7101C619.91 74.2401 626.52 72.9 633 71.09C637.69 69.78 642.19 67.7901 646.77 66.1201C647.25 65.9501 647.72 65.7701 648.2 65.6001C650.56 64.7601 653.24 66.2301 653.54 68.7201C653.57 69.0001 653.57 69.2801 653.53 69.5501C652.1 78.3901 650.28 87.1701 648.54 96.2801C654.56 97.9801 661.17 99.5501 667.58 101.74C677.44 105.12 679.29 108.07 678.66 118.2C678.47 121.22 678.49 123.27 682.17 124.78C691.28 128.5 693.16 132.77 691.53 142.55C687.78 165.02 672.72 177.06 652.37 182.89C623.93 191.03 595.11 191.05 566.85 181.93C547.55 175.7 533.87 163.41 530.63 142.08C529.2 132.62 531.04 128.57 539.88 124.87C543.34 123.42 543.77 121.51 543.58 118.34C542.94 107.78 544.43 105.52 554.46 101.72C557.75 100.48 561.2 99.6701 564.61 98.7501C567.74 97.9101 570.91 97.2001 573.76 96.5101L573.75 96.5001ZM673.22 112.99C663.87 106.07 654.11 104.79 644.35 103.58C643.65 103.49 642.73 104.18 642.08 104.7C637.37 108.52 632.69 112.4 627.09 117.01C629.16 118.96 631.46 122.93 633.61 122.86C646.8 122.41 659.86 120.65 673.21 113L673.22 112.99ZM594.27 116.38C589.42 112.41 585.04 108.81 580.65 105.24C579.82 104.57 578.81 103.4 578.02 103.5C568.25 104.77 558.42 105.95 549.32 112.8C552.15 114.42 554.04 116.11 556.21 116.66C565.16 118.92 574.21 120.83 583.21 122.88C589.12 124.23 593.09 122.39 594.28 116.38H594.27ZM543.09 131.13C538.95 131.61 536.1 134.56 537.67 139.47C539.96 146.66 542.85 153.73 546.26 160.45C547.72 163.33 551.15 165.2 553.68 167.53C554.15 160.35 554.26 154.01 552.39 148.32C550.51 142.59 546.65 137.52 543.08 131.13H543.09ZM678.12 130.99C677.06 134.19 676.98 137.81 675.14 139.42C666.38 147.07 669.88 157.63 666.57 167.43C676.61 163.06 682.72 152.9 684.57 140.44C685.38 134.97 683.82 131.99 678.11 130.99H678.12Z" fill="#BDFA19"/>
<path d="M558.05 188.06C593.39 199.62 628.21 199.73 663.01 188.38C666.45 205.67 660.83 215.99 644.54 220.62C621.75 227.1 598.84 226.71 576.02 220.26C565.82 217.38 559.45 211.61 559.46 200.23C559.46 196.33 558.58 192.43 558.04 188.06H558.05Z" fill="#BDFA19"/>
<path d="M646.64 212.08C622.42 218.96 598.09 218.55 573.84 211.7C567.51 209.91 562.58 207.06 559.57 202.61C560.4 212.43 566.56 217.6 576.03 220.27C598.85 226.72 621.75 227.11 644.55 220.63C656.45 217.25 662.64 210.83 663.78 200.88C660.49 206.07 654.84 209.76 646.64 212.09V212.08Z" fill="#DCFF48"/>
<path d="M611.69 180.15C583.02 180.15 557 173.08 537.88 161.6C544.36 171.4 554.44 177.91 566.84 181.92C595.1 191.05 623.92 191.02 652.36 182.88C665.45 179.13 676.34 172.81 683.45 162.8C664.54 173.57 639.35 180.15 611.69 180.15Z" fill="#DCFF48"/>
<path opacity="0.62" d="M612.63 80.7099V110.3C612.63 113 614.31 115.4 616.84 116.34C619.04 117.15 621.5 116.7 623.27 115.17L646.11 95.4099L648.17 74.8399C648.36 72.9499 646.6 71.4599 644.77 71.9599L612.63 80.7199V80.7099Z" fill="#6FD800"/>
<path d="M882.83 3.3999H1187.26C1204.44 3.3999 1218.39 17.3499 1218.39 34.5299V385.88C1218.39 403.06 1204.44 417.01 1187.26 417.01H882.83C865.65 417.01 851.7 403.06 851.7 385.88V34.5299C851.7 17.3499 865.65 3.3999 882.83 3.3999Z" fill="#FFAA17"/>
<path d="M1187.26 6.8C1202.57 6.8 1214.99 19.21 1214.99 34.53V385.88C1214.99 401.19 1202.58 413.61 1187.26 413.61H882.83C867.52 413.61 855.1 401.2 855.1 385.88V34.53C855.1 19.22 867.51 6.8 882.83 6.8H1187.26ZM1187.26 0H882.83C863.79 0 848.3 15.49 848.3 34.53V385.88C848.3 404.92 863.79 420.41 882.83 420.41H1187.26C1206.3 420.41 1221.79 404.92 1221.79 385.88V34.53C1221.79 15.49 1206.3 0 1187.26 0Z" fill="#0E361B"/>
<path d="M1214.98 353.27V34.54C1214.98 19.2252 1202.56 6.81006 1187.25 6.81006L882.82 6.81006C867.505 6.81006 855.09 19.2252 855.09 34.54V353.27C855.09 368.585 867.505 381 882.82 381H1187.25C1202.56 381 1214.98 368.585 1214.98 353.27Z" fill="#FFDA33"/>
<g style="mix-blend-mode:overlay" opacity="0.2">
<path d="M1178.05 16.52H892.04C876.935 16.52 864.69 28.765 864.69 43.87V336.25C864.69 351.355 876.935 363.6 892.04 363.6H1178.05C1193.16 363.6 1205.4 351.355 1205.4 336.25V43.87C1205.4 28.765 1193.16 16.52 1178.05 16.52Z" fill="white"/>
</g>
<g style="mix-blend-mode:overlay" opacity="0.2">
<path d="M1183.51 397.88V397.87C1183.51 393.076 1179.62 389.19 1174.83 389.19H895.26C890.466 389.19 886.58 393.076 886.58 397.87V397.88C886.58 402.674 890.466 406.56 895.26 406.56H1174.83C1179.62 406.56 1183.51 402.674 1183.51 397.88Z" fill="white"/>
</g>
<path d="M1187.26 377.16H882.83C867.52 377.16 855.1 364.75 855.1 349.43V353.26C855.1 368.57 867.51 380.99 882.83 380.99H1187.26C1202.57 380.99 1214.99 368.58 1214.99 353.26V349.43C1214.99 364.74 1202.58 377.16 1187.26 377.16Z" fill="#FBFF5A"/>
<path d="M864.69 97.99V125.14L941.01 16.52H920.59L864.69 97.99Z" fill="#FFFF4A"/>
<path d="M864.69 79.17L915.12 16.53H892.04C889.65 16.53 887.34 16.84 885.13 17.41L864.69 42.38V79.17Z" fill="#FFFF4A"/>
<path d="M1205.4 289.27V262.12L1129.07 363.61H1149.49L1205.4 289.27Z" fill="#FFFF4A"/>
<path d="M1205.4 296.55L1154.97 363.61H1178.05C1180.44 363.61 1182.75 363.3 1184.96 362.73L1205.4 335.55V296.55Z" fill="#FFFF4A"/>
<path d="M881.497 336.19V284.614H889.602V328.822H902.938V336.19H881.497ZM914.57 291.982V306.35H925.695V313.718H914.57V328.822H928.569V336.19H906.465V284.614H928.569V291.982H914.57ZM951.569 284.614L959.821 336.19H951.643L950.243 326.833H940.296L938.896 336.19H931.455L939.707 284.614H951.569ZM945.233 293.75L941.328 319.833H949.138L945.233 293.75ZM963.596 336.19V284.614H976.416C984.521 284.614 988.5 289.108 988.5 297.361V323.443C988.5 331.695 984.521 336.19 976.416 336.19H963.596ZM976.269 291.982H971.701V328.822H976.269C978.848 328.822 980.395 327.496 980.395 323.812V296.992C980.395 293.308 978.848 291.982 976.269 291.982ZM1001.78 291.982V306.35H1012.9V313.718H1001.78V328.822H1015.78V336.19H993.672V284.614H1015.78V291.982H1001.78ZM1046 336.19H1037.74C1037.3 334.864 1037.01 334.053 1037.01 329.853V321.749C1037.01 316.959 1035.39 315.191 1031.7 315.191H1028.9V336.19H1020.8V284.614H1033.03C1041.43 284.614 1045.04 288.519 1045.04 296.476V300.529C1045.04 305.834 1043.34 309.297 1039.73 310.991C1043.79 312.686 1045.11 316.591 1045.11 321.97V329.927C1045.11 332.432 1045.19 334.274 1046 336.19ZM1032.81 291.982H1028.9V307.823H1032.07C1035.09 307.823 1036.93 306.497 1036.93 302.371V297.287C1036.93 293.603 1035.68 291.982 1032.81 291.982ZM1062.67 284.614C1071.07 284.614 1074.68 288.519 1074.68 296.476V298.318C1074.68 303.623 1073.06 307.013 1069.45 308.707C1073.8 310.402 1075.49 314.307 1075.49 319.759V323.959C1075.49 331.917 1071.29 336.19 1063.19 336.19H1050.44V284.614H1062.67ZM1062.16 312.981H1058.55V328.822H1063.19C1065.92 328.822 1067.39 327.569 1067.39 323.738V319.244C1067.39 314.454 1065.84 312.981 1062.16 312.981ZM1062.45 291.982H1058.55V305.613H1061.72C1064.74 305.613 1066.58 304.286 1066.58 300.16V297.287C1066.58 293.603 1065.33 291.982 1062.45 291.982ZM1087.82 296.476V324.327C1087.82 328.011 1089.44 329.411 1092.02 329.411C1094.6 329.411 1096.22 328.011 1096.22 324.327V296.476C1096.22 292.792 1094.6 291.392 1092.02 291.392C1089.44 291.392 1087.82 292.792 1087.82 296.476ZM1079.71 323.812V296.992C1079.71 288.74 1084.06 284.025 1092.02 284.025C1099.97 284.025 1104.32 288.74 1104.32 296.992V323.812C1104.32 332.064 1099.97 336.779 1092.02 336.779C1084.06 336.779 1079.71 332.064 1079.71 323.812ZM1127.49 284.614L1135.75 336.19H1127.57L1126.17 326.833H1116.22L1114.82 336.19H1107.38L1115.63 284.614H1127.49ZM1121.16 293.75L1117.25 319.833H1125.06L1121.16 293.75ZM1164.72 336.19H1156.47C1156.03 334.864 1155.73 334.053 1155.73 329.853V321.749C1155.73 316.959 1154.11 315.191 1150.43 315.191H1147.63V336.19H1139.52V284.614H1151.75C1160.15 284.614 1163.76 288.519 1163.76 296.476V300.529C1163.76 305.834 1162.07 309.297 1158.46 310.991C1162.51 312.686 1163.84 316.591 1163.84 321.97V329.927C1163.84 332.432 1163.91 334.274 1164.72 336.19ZM1151.53 291.982H1147.63V307.823H1150.79C1153.82 307.823 1155.66 306.497 1155.66 302.371V297.287C1155.66 293.603 1154.4 291.982 1151.53 291.982ZM1169.17 336.19V284.614H1181.99C1190.09 284.614 1194.07 289.108 1194.07 297.361V323.443C1194.07 331.695 1190.09 336.19 1181.99 336.19H1169.17ZM1181.84 291.982H1177.27V328.822H1181.84C1184.42 328.822 1185.96 327.496 1185.96 323.812V296.992C1185.96 293.308 1184.42 291.982 1181.84 291.982Z" fill="#32330E"/>
<path d="M1173.79 47.8501H896.52C885.64 47.8501 876.82 56.6701 876.82 67.5501V242.42C876.82 253.3 885.64 262.12 896.52 262.12H1173.79C1184.67 262.12 1193.49 253.3 1193.49 242.42V67.5501C1193.49 56.6701 1184.67 47.8501 1173.79 47.8501Z" fill="#FFFF4A"/>
<path d="M1173.53 34.53H896.78C885.756 34.53 876.82 43.4664 876.82 54.49V234.53C876.82 245.554 885.756 254.49 896.78 254.49H1173.53C1184.55 254.49 1193.49 245.554 1193.49 234.53V54.49C1193.49 43.4664 1184.55 34.53 1173.53 34.53Z" fill="#32330E"/>
<path d="M1091.62 109.05V98.2599H1068.75L1059.57 95.7999C1059.57 95.7999 1053.09 85.7999 1053.08 85.7999L1044.99 73.3299C1041.42 67.8399 1035.59 67.8399 1032.02 73.3299L1023.93 85.7999L1017.45 95.7999L1008.27 98.2599H985.37V109.05H985.4C985.26 110.95 985.94 113.04 987.58 115.06L996.94 126.6L1004.44 135.85L1003.03 162.59C1002.69 169.13 1007.41 172.56 1013.52 170.22L1038.51 160.61L1063.5 170.22C1069.62 172.56 1074.33 169.13 1073.99 162.59L1072.58 135.85L1080.07 126.6L1089.43 115.06C1091.07 113.04 1091.75 110.95 1091.61 109.05H1091.62Z" fill="#FFAA17"/>
<path d="M1085.43 91.1L1059.57 84.18C1059.57 84.18 1053.09 74.18 1053.08 74.18L1044.99 61.72C1041.42 56.22 1035.59 56.22 1032.02 61.72L1023.93 74.18L1017.45 84.18L991.59 91.1C985.27 92.79 983.46 98.34 987.58 103.43L996.94 114.97L1004.44 124.22L1003.03 150.96C1002.69 157.5 1007.41 160.93 1013.52 158.59L1038.51 148.98L1063.5 158.59C1069.62 160.93 1074.33 157.5 1073.99 150.96L1072.58 124.22L1080.07 114.97L1089.43 103.43C1093.55 98.34 1091.75 92.79 1085.42 91.1H1085.43Z" fill="#FFDA33"/>
<g style="mix-blend-mode:overlay" opacity="0.2">
<path d="M1010.93 85.9199L991.59 91.0899C989.35 91.6899 987.69 92.7799 986.65 94.1499L1033.16 151.03L1038.51 148.97L1063.5 158.58C1066.15 159.59 1068.53 159.52 1070.36 158.58L1010.93 85.8999V85.9199Z" fill="white"/>
</g>
<g style="mix-blend-mode:overlay" opacity="0.2">
<path d="M1080.13 114.9L1034.46 59.05C1033.59 59.71 1032.76 60.59 1032.03 61.71L1024.2 73.7701L1073.08 133.54L1072.59 124.22L1080.08 114.97L1080.13 114.9Z" fill="white"/>
</g>
<path d="M986.31 120.77L984.14 113.93L969.65 118.53L963.34 118.82C963.34 118.82 957.22 113.79 957.21 113.79L949.58 107.52C946.21 104.76 942.52 105.93 941.36 110.13L938.74 119.66L936.64 127.3L931.32 130.7L916.8 135.31L918.97 142.15H918.99C919.28 143.37 920.14 144.56 921.58 145.51L929.83 150.94L936.44 155.3L940.92 172.53C942.02 176.74 945.7 177.97 949.11 175.25L963.02 164.13L980.79 165.19C985.14 165.44 987.44 162.32 985.9 158.24L979.63 141.57L982.52 134.2L986.13 125C986.76 123.39 986.78 121.93 986.3 120.75L986.31 120.77Z" fill="#FFAA17"/>
<path d="M978.78 110.63L961 111.44L954.88 106.41L947.24 100.13C943.87 97.37 940.18 98.54 939.02 102.74L936.4 112.27L934.3 119.91L919.3 129.5C915.63 131.84 915.6 135.72 919.24 138.12L927.5 143.55L934.11 147.91L938.6 165.14C939.7 169.35 943.38 170.58 946.79 167.87L960.7 156.75L978.47 157.81C982.82 158.06 985.12 154.94 983.58 150.86L977.31 134.2L980.2 126.83L983.81 117.63C985.4 113.57 983.14 110.42 978.79 110.62L978.78 110.63Z" fill="#FFDA33"/>
<g style="mix-blend-mode:overlay" opacity="0.2">
<path d="M930.52 122.34L919.3 129.51C918 130.34 917.17 131.36 916.78 132.44L957.71 159.13L960.69 156.75L978.46 157.81C980.34 157.92 981.84 157.39 982.81 156.44L930.52 122.33V122.34Z" fill="white"/>
</g>
<g style="mix-blend-mode:overlay" opacity="0.2">
<path d="M980.21 126.79L940.03 100.58C939.61 101.18 939.26 101.9 939.03 102.75L936.49 111.97L979.49 140.02L977.3 134.21L980.19 126.84L980.21 126.79Z" fill="white"/>
</g>
<path d="M1091.8 120.59L1093.97 113.75L1108.46 118.35L1114.77 118.64C1114.77 118.64 1120.89 113.61 1120.9 113.61L1128.53 107.33C1131.9 104.57 1135.59 105.74 1136.75 109.94L1139.37 119.47L1141.47 127.11L1146.8 130.51L1161.32 135.12L1159.15 141.96H1159.13C1158.84 143.18 1157.98 144.37 1156.54 145.32L1148.29 150.75L1141.68 155.11L1137.19 172.34C1136.09 176.55 1132.41 177.78 1129 175.06L1115.09 163.94L1097.32 165C1092.97 165.25 1090.67 162.13 1092.21 158.05L1098.48 141.38L1095.59 134.01L1091.98 124.81C1091.35 123.2 1091.33 121.74 1091.81 120.56L1091.8 120.59Z" fill="#FFAA17"/>
<path d="M1099.34 110.45L1117.12 111.26L1123.24 106.23L1130.88 99.9499C1134.25 97.1899 1137.94 98.3599 1139.1 102.56L1141.72 112.09L1143.82 119.73L1158.82 129.32C1162.49 131.66 1162.52 135.54 1158.88 137.94L1150.63 143.37L1144.02 147.73L1139.53 164.96C1138.43 169.17 1134.75 170.4 1131.34 167.69L1117.43 156.57L1099.66 157.63C1095.31 157.88 1093.01 154.76 1094.55 150.68L1100.82 134.01L1097.94 126.64L1094.33 117.44C1092.74 113.38 1095 110.23 1099.35 110.43L1099.34 110.45Z" fill="#FFDA33"/>
<g style="mix-blend-mode:overlay" opacity="0.2">
<path d="M1147.6 122.16L1158.82 129.33C1160.12 130.16 1160.95 131.18 1161.34 132.26L1120.41 158.95L1117.43 156.57L1099.66 157.63C1097.78 157.74 1096.28 157.21 1095.31 156.26L1147.6 122.15V122.16Z" fill="white"/>
</g>
<g style="mix-blend-mode:overlay" opacity="0.2">
<path d="M1097.91 126.61L1138.1 100.4C1138.52 101 1138.87 101.72 1139.1 102.57L1141.64 111.79L1098.64 139.84L1100.83 134.03L1097.95 126.66L1097.93 126.61H1097.91Z" fill="white"/>
</g>
<path d="M1127.37 153.85C1125.42 153.04 1123.17 153.97 1122.36 155.92L1103.31 201.67C1102.5 203.62 1103.43 205.87 1105.38 206.68L1142.18 222C1147.1 224.05 1150.44 221.42 1149.62 216.16L1148.52 209.14L1147.42 202.13L1145.92 192.56L1153.76 186.89L1159.51 182.73L1165.28 178.56C1169.59 175.44 1169.09 171.22 1164.18 169.17L1127.38 153.85H1127.37Z" fill="#B52020"/>
<path d="M949.64 153.85C951.59 153.04 953.84 153.97 954.65 155.92L973.7 201.67C974.51 203.62 973.58 205.87 971.63 206.68L934.83 222C929.92 224.05 926.57 221.42 927.39 216.16L928.49 209.14L929.59 202.13L931.1 192.56L923.25 186.89L917.5 182.73L911.73 178.56C907.42 175.44 907.92 171.22 912.83 169.17L949.63 153.85H949.64Z" fill="#B52020"/>
<path d="M1131.59 196.75C1129.35 201.59 1123.41 203.65 1118.3 201.63C1067.05 181.31 1009.96 181.31 958.72 201.63C953.6 203.65 947.66 201.59 945.43 196.75C940.24 185.25 935.04 173.75 929.85 162.25C927.62 157.42 931.06 151.03 937.63 148.43C1002.42 122.74 1074.61 122.74 1139.39 148.43C1145.95 151.03 1149.41 157.41 1147.17 162.25C1141.98 173.75 1136.78 185.25 1131.59 196.75Z" fill="#E63535"/>
<path d="M1306.38 3.40991H1611.35C1628.56 3.40991 1642.54 17.3799 1642.54 34.5999V386.56C1642.54 403.77 1628.57 417.75 1611.35 417.75H1306.38C1289.17 417.75 1275.2 403.78 1275.2 386.57V34.5899C1275.2 17.3799 1289.17 3.40991 1306.38 3.40991Z" fill="#531ED3"/>
<path d="M1611.35 6.82C1626.69 6.82 1639.13 19.26 1639.13 34.6V386.57C1639.13 401.91 1626.69 414.35 1611.35 414.35H1306.38C1291.04 414.35 1278.6 401.91 1278.6 386.57V34.59C1278.6 19.25 1291.04 6.81 1306.38 6.81H1611.35M1611.35 0H1306.38C1287.3 0 1271.79 15.52 1271.79 34.59V386.56C1271.79 405.64 1287.31 421.15 1306.38 421.15H1611.35C1630.43 421.15 1645.94 405.63 1645.94 386.56V34.59C1645.94 15.51 1630.42 0 1611.35 0Z" fill="#0E361B"/>
<path d="M1639.13 353.89V34.6C1639.13 19.2576 1626.69 6.82007 1611.35 6.82007L1306.39 6.82007C1291.05 6.82007 1278.61 19.2576 1278.61 34.6V353.89C1278.61 369.232 1291.05 381.67 1306.39 381.67H1611.35C1626.69 381.67 1639.13 369.232 1639.13 353.89Z" fill="#9046F9"/>
<path d="M1602.12 16.5601H1315.61C1300.48 16.5601 1288.21 28.8275 1288.21 43.9601V336.85C1288.21 351.983 1300.48 364.25 1315.61 364.25H1602.12C1617.25 364.25 1629.52 351.983 1629.52 336.85V43.9601C1629.52 28.8275 1617.25 16.5601 1602.12 16.5601Z" fill="#BB9FFF"/>
<path opacity="0.22" d="M1598.9 407.28C1603.7 407.28 1607.6 403.385 1607.6 398.58C1607.6 393.775 1603.7 389.88 1598.9 389.88H1318.85C1314.05 389.88 1310.15 393.775 1310.15 398.58C1310.15 403.385 1314.05 407.28 1318.85 407.28H1598.9Z" fill="#BB9FFF"/>
<path d="M1611.35 377.83H1306.38C1291.04 377.83 1278.6 365.39 1278.6 350.05V353.89C1278.6 369.23 1291.04 381.67 1306.38 381.67H1611.35C1626.69 381.67 1639.13 369.23 1639.13 353.89V350.05C1639.13 365.39 1626.69 377.83 1611.35 377.83Z" fill="#9A5AFF"/>
<path d="M1288.21 98.1601V125.36L1364.67 16.5601H1344.22L1288.21 98.1601Z" fill="#E8E1FF"/>
<path d="M1288.21 79.3101L1338.73 16.5601H1315.61C1313.22 16.5601 1310.9 16.8701 1308.69 17.4401L1288.22 42.4501V79.3101H1288.21Z" fill="#E8E1FF"/>
<path d="M1629.52 289.78V262.58L1553.06 364.25H1573.52L1629.52 289.78Z" fill="#E8E1FF"/>
<path d="M1629.52 297.07L1579 364.25H1602.12C1604.51 364.25 1606.83 363.94 1609.04 363.37L1629.51 336.14V297.07H1629.52Z" fill="#E8E1FF"/>
<path d="M1407.01 284.983L1415.28 336.65H1407.09L1405.68 327.276H1395.72L1394.32 336.65H1386.86L1395.13 284.983H1407.01ZM1400.66 294.135L1396.75 320.264H1404.58L1400.66 294.135ZM1419.06 336.65V284.983H1431.9C1440.02 284.983 1444.01 289.485 1444.01 297.752V323.881C1444.01 332.147 1440.02 336.65 1431.9 336.65H1419.06ZM1431.76 292.364H1427.18V329.269H1431.76C1434.34 329.269 1435.89 327.94 1435.89 324.25V297.383C1435.89 293.692 1434.34 292.364 1431.76 292.364ZM1460.41 284.983L1466.39 321.666L1471.92 284.983H1483.22V336.65H1475.54V299.597L1469.93 336.65H1462.25L1456.2 300.114V336.65H1449.12V284.983H1460.41ZM1489.12 336.65V284.983H1497.24V336.65H1489.12ZM1520.52 336.65L1510.41 299.228V336.65H1503.1V284.983H1513.29L1521.63 315.909V284.983H1528.86V336.65H1520.52Z" fill="#1D0E33"/>
<path d="M1597.73 47.9299H1319.99C1309.09 47.9299 1300.25 56.7678 1300.25 67.6699V242.84C1300.25 253.742 1309.09 262.58 1319.99 262.58H1597.73C1608.63 262.58 1617.47 253.742 1617.47 242.84V67.6699C1617.47 56.7678 1608.63 47.9299 1597.73 47.9299Z" fill="#E8E1FF"/>
<path d="M1597.47 34.6001H1320.25C1309.2 34.6001 1300.25 43.5544 1300.25 54.6001V234.95C1300.25 245.996 1309.2 254.95 1320.25 254.95H1597.47C1608.52 254.95 1617.47 245.996 1617.47 234.95V54.6001C1617.47 43.5544 1608.52 34.6001 1597.47 34.6001Z" fill="#1D0E33"/>
<path d="M1528.8 201.18C1528.8 222.5 1497.49 232.49 1458.87 232.49C1420.25 232.49 1388.94 221.21 1388.94 201.18C1388.94 162.56 1420.25 131.25 1458.87 131.25C1497.49 131.25 1528.8 162.56 1528.8 201.18Z" fill="#BB9FFF"/>
<path d="M1528.8 201.18C1528.8 222.5 1497.49 232.49 1458.87 232.49C1430.12 232.49 1405.42 226.24 1394.67 214.78C1407.25 219.87 1424.37 222.56 1443.24 222.56C1481.86 222.56 1513.17 212.56 1513.17 191.25C1513.17 169.94 1503.46 150.5 1488.18 137.67C1512.16 148.76 1528.8 173.03 1528.8 201.18Z" fill="#9046F9"/>
<path d="M1458.87 151.55C1484.97 151.55 1506.12 130.396 1506.12 104.3C1506.12 78.2046 1484.97 57.05 1458.87 57.05C1432.77 57.05 1411.62 78.2046 1411.62 104.3C1411.62 130.396 1432.77 151.55 1458.87 151.55Z" fill="#BB9FFF"/>
<path d="M1506.11 104.29C1506.11 130.38 1484.96 151.54 1458.86 151.54C1436.47 151.54 1417.71 135.96 1412.84 115.05C1419.97 129.6 1434.92 139.62 1452.22 139.62C1476.42 139.62 1496.04 120 1496.04 95.8C1496.04 82.31 1489.95 70.25 1480.37 62.21C1495.65 70.04 1506.11 85.94 1506.11 104.29Z" fill="#9046F9"/>
<path d="M1441.44 87.8C1433.75 95.49 1428.47 102.69 1423.47 97.69C1418.46 92.68 1420.64 82.38 1428.33 74.69C1436.02 67 1446.32 64.82 1451.33 69.83C1456.34 74.84 1449.14 80.11 1441.44 87.8Z" fill="#E8E1FF"/>
<path d="M1426.87 171.15C1419.18 178.84 1413.9 186.04 1408.9 181.04C1403.89 176.03 1406.07 165.73 1413.76 158.04C1421.45 150.35 1431.75 148.17 1436.76 153.18C1441.77 158.19 1434.57 163.46 1426.87 171.15Z" fill="#E8E1FF"/>
<defs>
<linearGradient id="paint0_linear_3_3266" x1="81.8039" y1="164.281" x2="289.192" y2="114.453" gradientUnits="userSpaceOnUse">
<stop stop-color="#00FFDD"/>
<stop offset="1" stop-color="#00D4FF"/>
</linearGradient>
</defs>
</svg>
