<svg width="1109" height="855" viewBox="0 0 1109 855" fill="none" xmlns="http://www.w3.org/2000/svg">
<g clip-path="url(#clip0_216_241)">
<path d="M557.7 112.43H1029.66C1072.96 112.43 1108.11 147.58 1108.11 190.88V699.46C1108.11 742.76 1072.96 777.91 1029.66 777.91H557.7V112.43Z" fill="#0A2A3F"/>
<path d="M683.05 170.08L676.1 146.68H681.85L686.05 162.63L690.25 146.68H695.5L688.55 170.08V181.68H683.05V170.08Z" fill="#34EBE6"/>
<path d="M696.5 155.07C696.5 149.47 699.45 146.27 704.85 146.27C710.25 146.27 713.2 149.47 713.2 155.07V173.27C713.2 178.87 710.25 182.07 704.85 182.07C699.45 182.07 696.5 178.87 696.5 173.27V155.07ZM702 173.63C702 176.13 703.1 177.08 704.85 177.08C706.6 177.08 707.7 176.13 707.7 173.63V154.73C707.7 152.23 706.6 151.28 704.85 151.28C703.1 151.28 702 152.23 702 154.73V173.63Z" fill="#34EBE6"/>
<path d="M722 146.67V173.67C722 176.17 723.1 177.07 724.85 177.07C726.6 177.07 727.7 176.17 727.7 173.67V146.67H732.9V173.32C732.9 178.92 730.1 182.12 724.7 182.12C719.3 182.12 716.5 178.92 716.5 173.32V146.67H722Z" fill="#34EBE6"/>
<path d="M760.35 168.63V173.28C760.35 178.88 757.55 182.08 752.15 182.08C746.75 182.08 743.95 178.88 743.95 173.28V155.08C743.95 149.48 746.75 146.28 752.15 146.28C757.55 146.28 760.35 149.48 760.35 155.08V158.48H755.15V154.73C755.15 152.23 754.05 151.28 752.3 151.28C750.55 151.28 749.45 152.23 749.45 154.73V173.63C749.45 176.13 750.55 177.03 752.3 177.03C754.05 177.03 755.15 176.13 755.15 173.63V168.63H760.35Z" fill="#34EBE6"/>
<path d="M781.5 181.68H775.95L775 175.33H768.25L767.3 181.68H762.25L767.85 146.68H775.9L781.5 181.68ZM768.95 170.58H774.25L771.6 152.88L768.95 170.58Z" fill="#34EBE6"/>
<path d="M789.3 146.67V173.67C789.3 176.17 790.4 177.07 792.15 177.07C793.9 177.07 795 176.17 795 173.67V146.67H800.2V173.32C800.2 178.92 797.4 182.12 792 182.12C786.6 182.12 783.8 178.92 783.8 173.32V146.67H789.3Z" fill="#34EBE6"/>
<path d="M812.2 162.18H819.9V173.28C819.9 178.88 817.1 182.08 811.7 182.08C806.3 182.08 803.5 178.88 803.5 173.28V155.08C803.5 149.48 806.3 146.28 811.7 146.28C817.1 146.28 819.9 149.48 819.9 155.08V158.48H814.7V154.73C814.7 152.23 813.6 151.28 811.85 151.28C810.1 151.28 809 152.23 809 154.73V173.63C809 176.13 810.1 177.03 811.85 177.03C813.6 177.03 814.7 176.13 814.7 173.63V167.18H812.2V162.18Z" fill="#34EBE6"/>
<path d="M828.95 181.68H823.45V146.68H828.95V161.68H835.2V146.68H840.8V181.68H835.2V166.68H828.95V181.68Z" fill="#34EBE6"/>
<path d="M843.2 146.67H860.2V151.67H854.45V181.67H848.95V151.67H843.2V146.67Z" fill="#34EBE6"/>
<path d="M888.15 181.68H882.6L881.65 175.33H874.9L873.95 181.68H868.9L874.5 146.68H882.55L888.15 181.68ZM875.6 170.58H880.9L878.25 152.88L875.6 170.58Z" fill="#34EBE6"/>
<path d="M898.44 146.67H907.14C912.64 146.67 915.34 149.72 915.34 155.32V173.02C915.34 178.62 912.64 181.67 907.14 181.67H898.44V146.67ZM903.94 151.67V176.67H907.04C908.79 176.67 909.84 175.77 909.84 173.27V155.07C909.84 152.57 908.79 151.67 907.04 151.67H903.94Z" fill="#34EBE6"/>
<path d="M918.39 155.07C918.39 149.47 921.34 146.27 926.74 146.27C932.14 146.27 935.09 149.47 935.09 155.07V173.27C935.09 178.87 932.14 182.07 926.74 182.07C921.34 182.07 918.39 178.87 918.39 173.27V155.07ZM923.9 173.63C923.9 176.13 925 177.08 926.75 177.08C928.5 177.08 929.6 176.13 929.6 173.63V154.73C929.6 152.23 928.5 151.28 926.75 151.28C925 151.28 923.9 152.23 923.9 154.73V173.63Z" fill="#34EBE6"/>
<path d="M938.64 146.67H944.14V176.67H953.19V181.67H938.64V146.67Z" fill="#34EBE6"/>
<path d="M971.89 155.32V159.87C971.89 165.47 969.19 168.52 963.69 168.52H961.09V181.67H955.59V146.67H963.69C969.19 146.67 971.89 149.72 971.89 155.32ZM961.09 151.67V163.52H963.69C965.44 163.52 966.39 162.72 966.39 160.22V154.97C966.39 152.47 965.44 151.67 963.69 151.67H961.09Z" fill="#34EBE6"/>
<path d="M979.94 181.68H974.44V146.68H979.94V161.68H986.19V146.68H991.79V181.68H986.19V166.68H979.94V181.68Z" fill="#34EBE6"/>
<path d="M995.79 146.67H1001.29V181.67H995.79V146.67Z" fill="#34EBE6"/>
<path d="M1010.19 156.32V181.67H1005.24V146.67H1012.14L1017.79 167.62V146.67H1022.69V181.67H1017.04L1010.19 156.32Z" fill="#34EBE6"/>
<path d="M689.94 392.15V394.88C689.94 398.24 688.32 400.07 685.02 400.07H683.46V407.96H680.16V386.96H685.02C688.32 386.96 689.94 388.79 689.94 392.15ZM683.46 389.96V397.07H685.02C686.07 397.07 686.64 396.59 686.64 395.09V391.94C686.64 390.44 686.07 389.96 685.02 389.96H683.46Z" fill="#D2F9F7"/>
<path d="M691.35 392C691.35 388.64 693.12 386.72 696.36 386.72C699.6 386.72 701.37 388.64 701.37 392V402.92C701.37 406.28 699.6 408.2 696.36 408.2C693.12 408.2 691.35 406.28 691.35 402.92V392ZM694.65 403.13C694.65 404.63 695.31 405.2 696.36 405.2C697.41 405.2 698.07 404.63 698.07 403.13V391.79C698.07 390.29 697.41 389.72 696.36 389.72C695.31 389.72 694.65 390.29 694.65 391.79V403.13Z" fill="#D2F9F7"/>
<path d="M707.94 386.72C711.15 386.72 712.8 388.64 712.8 392V392.66H709.68V391.79C709.68 390.29 709.08 389.72 708.03 389.72C706.98 389.72 706.38 390.29 706.38 391.79C706.38 396.11 712.83 396.92 712.83 402.92C712.83 406.28 711.15 408.2 707.91 408.2C704.67 408.2 702.99 406.28 702.99 402.92V401.63H706.11V403.13C706.11 404.63 706.77 405.17 707.82 405.17C708.87 405.17 709.53 404.63 709.53 403.13C709.53 398.81 703.08 398 703.08 392C703.08 388.64 704.73 386.72 707.94 386.72Z" fill="#D2F9F7"/>
<path d="M714.72 386.96H718.02V407.96H714.72V386.96Z" fill="#D2F9F7"/>
<path d="M719.46 386.96H729.66V389.96H726.21V407.96H722.91V389.96H719.46V386.96Z" fill="#D2F9F7"/>
<path d="M731.1 386.96H734.4V407.96H731.1V386.96Z" fill="#D2F9F7"/>
<path d="M736.53 392C736.53 388.64 738.3 386.72 741.54 386.72C744.78 386.72 746.55 388.64 746.55 392V402.92C746.55 406.28 744.78 408.2 741.54 408.2C738.3 408.2 736.53 406.28 736.53 402.92V392ZM739.83 403.13C739.83 404.63 740.49 405.2 741.54 405.2C742.59 405.2 743.25 404.63 743.25 403.13V391.79C743.25 390.29 742.59 389.72 741.54 389.72C740.49 389.72 739.83 390.29 739.83 391.79V403.13Z" fill="#D2F9F7"/>
<path d="M751.62 392.75V407.96H748.65V386.96H752.79L756.18 399.53V386.96H759.12V407.96H755.73L751.62 392.75Z" fill="#D2F9F7"/>
<path d="M765.87 392C765.87 388.64 767.64 386.72 770.88 386.72C774.12 386.72 775.89 388.64 775.89 392V402.92C775.89 406.28 774.12 408.2 770.88 408.2C767.64 408.2 765.87 406.28 765.87 402.92V392ZM769.17 403.13C769.17 404.63 769.83 405.2 770.88 405.2C771.93 405.2 772.59 404.63 772.59 403.13V391.79C772.59 390.29 771.93 389.72 770.88 389.72C769.83 389.72 769.17 390.29 769.17 391.79V403.13Z" fill="#D2F9F7"/>
<path d="M780.96 392.75V407.96H777.99V386.96H782.13L785.52 399.53V386.96H788.46V407.96H785.07L780.96 392.75Z" fill="#D2F9F7"/>
<path d="M795.48 386.96H798.78V404.96H804.21V407.96H795.48V386.96Z" fill="#D2F9F7"/>
<path d="M808.95 395.81H813.48V398.81H808.95V404.96H814.65V407.96H805.65V386.96H814.65V389.96H808.95V395.81Z" fill="#D2F9F7"/>
<path d="M827.37 407.96H824.04L823.47 404.15H819.42L818.85 407.96H815.82L819.18 386.96H824.01L827.37 407.96ZM819.84 401.3H823.02L821.43 390.68L819.84 401.3Z" fill="#D2F9F7"/>
<path d="M828.9 386.96H834.12C837.42 386.96 839.04 388.79 839.04 392.15V402.77C839.04 406.13 837.42 407.96 834.12 407.96H828.9V386.96ZM832.2 389.96V404.96H834.06C835.11 404.96 835.74 404.42 835.74 402.92V392C835.74 390.5 835.11 389.96 834.06 389.96H832.2Z" fill="#D2F9F7"/>
<path d="M844.44 395.81H848.97V398.81H844.44V404.96H850.14V407.96H841.14V386.96H850.14V389.96H844.44V395.81Z" fill="#D2F9F7"/>
<path d="M859.07 407.96C858.89 407.42 858.77 407.09 858.77 405.38V402.08C858.77 400.13 858.11 399.41 856.61 399.41H855.47V407.96H852.17V386.96H857.15C860.57 386.96 862.04 388.55 862.04 391.79V393.44C862.04 395.6 861.35 397.01 859.88 397.7C861.53 398.39 862.07 399.98 862.07 402.17V405.41C862.07 406.43 862.1 407.18 862.43 407.96H859.07ZM855.48 389.96V396.41H856.77C858 396.41 858.75 395.87 858.75 394.19V392.12C858.75 390.62 858.24 389.96 857.07 389.96H855.48Z" fill="#D2F9F7"/>
<path d="M874.1 391.79V392.54C874.1 394.7 873.44 396.08 871.97 396.77C873.74 397.46 874.43 399.05 874.43 401.27V402.98C874.43 406.22 872.72 407.96 869.42 407.96H864.23V386.96H869.21C872.63 386.96 874.1 388.55 874.1 391.79ZM867.53 389.96V395.51H868.82C870.05 395.51 870.8 394.97 870.8 393.29V392.12C870.8 390.62 870.29 389.96 869.12 389.96H867.53ZM867.53 398.51V404.96H869.42C870.53 404.96 871.13 404.45 871.13 402.89V401.06C871.13 399.11 870.5 398.51 869 398.51H867.53Z" fill="#D2F9F7"/>
<path d="M876.14 392C876.14 388.64 877.91 386.72 881.15 386.72C884.39 386.72 886.16 388.64 886.16 392V402.92C886.16 406.28 884.39 408.2 881.15 408.2C877.91 408.2 876.14 406.28 876.14 402.92V392ZM879.44 403.13C879.44 404.63 880.1 405.2 881.15 405.2C882.2 405.2 882.86 404.63 882.86 403.13V391.79C882.86 390.29 882.2 389.72 881.15 389.72C880.1 389.72 879.44 390.29 879.44 391.79V403.13Z" fill="#D2F9F7"/>
<path d="M898.94 407.96H895.61L895.04 404.15H890.99L890.42 407.96H887.39L890.75 386.96H895.58L898.94 407.96ZM891.41 401.3H894.59L893 390.68L891.41 401.3Z" fill="#D2F9F7"/>
<path d="M907.37 407.96C907.19 407.42 907.07 407.09 907.07 405.38V402.08C907.07 400.13 906.41 399.41 904.91 399.41H903.77V407.96H900.47V386.96H905.45C908.87 386.96 910.34 388.55 910.34 391.79V393.44C910.34 395.6 909.65 397.01 908.18 397.7C909.83 398.39 910.37 399.98 910.37 402.17V405.41C910.37 406.43 910.4 407.18 910.73 407.96H907.37ZM903.77 389.96V396.41H905.06C906.29 396.41 907.04 395.87 907.04 394.19V392.12C907.04 390.62 906.53 389.96 905.36 389.96H903.77Z" fill="#D2F9F7"/>
<path d="M912.53 386.96H917.75C921.05 386.96 922.67 388.79 922.67 392.15V402.77C922.67 406.13 921.05 407.96 917.75 407.96H912.53V386.96ZM915.83 389.96V404.96H917.69C918.74 404.96 919.37 404.42 919.37 402.92V392C919.37 390.5 918.74 389.96 917.69 389.96H915.83Z" fill="#D2F9F7"/>
<path d="M927.95 393.35V396.53H924.77V393.35H927.95ZM927.95 404.78V407.96H924.77V404.78H927.95Z" fill="#D2F9F7"/>
<path d="M943.39 383.64C941.99 383.64 941.11 384.4 941.11 386.4V389.4H936.95V386.68C936.95 382.2 939.19 379.64 943.51 379.64C947.83 379.64 950.07 382.2 950.07 386.68C950.07 395.48 941.31 398.76 941.31 403.36C941.31 403.56 941.31 403.76 941.35 403.96H949.67V407.96H936.95V404.52C936.95 396.28 945.67 394.92 945.67 386.84C945.67 384.32 944.79 383.64 943.39 383.64Z" fill="#34EBE6"/>
<path d="M952.51 386.92C952.51 382.2 954.67 379.64 959.23 379.64C963.55 379.64 965.79 382.2 965.79 386.68V387.4H961.63V386.4C961.63 384.4 960.75 383.64 959.35 383.64C957.79 383.64 956.91 384.4 956.91 387.08V392.2C957.67 390.6 959.03 389.72 960.99 389.72C964.23 389.72 965.87 392 965.87 396.12V401.24C965.87 405.72 963.51 408.28 959.19 408.28C954.87 408.28 952.51 405.72 952.51 401.24V386.92ZM956.91 396.48V401.52C956.91 403.52 957.79 404.24 959.19 404.24C960.59 404.24 961.47 403.52 961.47 401.52V396.48C961.47 394.48 960.59 393.72 959.19 393.72C957.79 393.72 956.91 394.48 956.91 396.48Z" fill="#34EBE6"/>
<path d="M977.11 386.84C977.11 384.32 976.23 383.64 974.83 383.64C973.43 383.64 972.55 384.4 972.55 386.4V388.2H968.39V386.68C968.39 382.2 970.63 379.64 974.95 379.64C979.27 379.64 981.51 382.2 981.51 386.68V387.4C981.51 390.4 980.55 392.28 978.43 393.16C980.63 394.12 981.51 396.2 981.51 399.04V401.24C981.51 405.72 979.27 408.28 974.95 408.28C970.63 408.28 968.39 405.72 968.39 401.24V398.92H972.55V401.52C972.55 403.52 973.43 404.28 974.83 404.28C976.23 404.28 977.11 403.6 977.11 401.12V398.92C977.11 396.32 976.23 395.36 974.23 395.36H972.75V391.36H974.47C976.11 391.36 977.11 390.64 977.11 388.4V386.84Z" fill="#34EBE6"/>
<path d="M990.79 408.28C986.35 408.28 983.91 405.72 983.91 401.24V399.04C983.91 396.36 984.71 394.28 986.63 393.2C984.79 392.2 983.91 390.32 983.91 387.56V386.68C983.91 382.2 986.35 379.64 990.79 379.64C995.23 379.64 997.67 382.2 997.67 386.68V387.56C997.67 390.32 996.75 392.2 994.95 393.2C996.87 394.28 997.67 396.36 997.67 399.04V401.24C997.67 405.72 995.23 408.28 990.79 408.28ZM988.31 388.4C988.31 390.64 989.35 391.36 990.79 391.36C992.23 391.36 993.27 390.64 993.27 388.4V386.84C993.27 384.32 992.19 383.64 990.79 383.64C989.39 383.64 988.31 384.32 988.31 386.84V388.4ZM990.79 404.28C992.19 404.28 993.23 403.6 993.27 401.12V398.52C993.27 396.32 992.35 395.36 990.79 395.36C989.23 395.36 988.31 396.32 988.31 398.52V401.12C988.31 403.6 989.39 404.28 990.79 404.28Z" fill="#34EBE6"/>
<path d="M999.03 379.96H1012.63V383.96H1008.03V407.96H1003.63V383.96H999.03V379.96Z" fill="#34EBE6"/>
<path d="M1018.95 407.96H1014.55V379.96H1018.95V391.96H1023.95V379.96H1028.43V407.96H1023.95V395.96H1018.95V407.96Z" fill="#34EBE6"/>
<path d="M1018.5 229.04H690.48C675.568 229.04 663.48 241.128 663.48 256.04V316.08C663.48 330.992 675.568 343.08 690.48 343.08H1018.5C1033.41 343.08 1045.5 330.992 1045.5 316.08V256.04C1045.5 241.128 1033.41 229.04 1018.5 229.04Z" fill="#043559"/>
<path d="M1018.51 231.19C1032.23 231.19 1043.36 242.31 1043.36 256.04V316.09C1043.36 329.81 1032.23 340.94 1018.51 340.94H690.48C676.76 340.94 665.63 329.82 665.63 316.09V256.04C665.63 242.32 676.75 231.19 690.48 231.19H1018.51ZM1018.51 226.89H690.48C674.41 226.89 661.33 239.96 661.33 256.04V316.09C661.33 332.16 674.4 345.24 690.48 345.24H1018.51C1034.58 345.24 1047.66 332.17 1047.66 316.09V256.04C1047.66 239.97 1034.59 226.89 1018.51 226.89Z" fill="#002C3A"/>
<path d="M1043.36 294.97V256.56C1043.36 242.548 1032 231.19 1017.99 231.19L691 231.19C676.989 231.19 665.63 242.548 665.63 256.56V294.97C665.63 308.981 676.989 320.34 691 320.34H1017.99C1032 320.34 1043.36 308.981 1043.36 294.97Z" fill="#1091FC"/>
<path d="M1019.19 236.1H689.8C679.119 236.1 670.46 244.759 670.46 255.44V293.84C670.46 304.521 679.119 313.18 689.8 313.18H1019.19C1029.87 313.18 1038.53 304.521 1038.53 293.84V255.44C1038.53 244.759 1029.87 236.1 1019.19 236.1Z" fill="#043E68"/>
<path d="M1019.19 237.33C1029.19 237.33 1037.3 245.44 1037.3 255.44V293.85C1037.3 303.85 1029.19 311.96 1019.19 311.96H689.79C679.79 311.96 671.68 303.85 671.68 293.85V255.44C671.68 245.44 679.79 237.33 689.79 237.33H1019.19ZM1019.19 234.87H689.79C678.45 234.87 669.22 244.1 669.22 255.43V293.84C669.22 305.18 678.45 314.41 689.79 314.41H1019.19C1030.53 314.41 1039.76 305.18 1039.76 293.84V255.43C1039.76 244.09 1030.53 234.87 1019.19 234.87Z" fill="#03ABFF"/>
<path d="M1015.97 242.17H850.96C842.239 242.17 835.17 249.239 835.17 257.96V290.72C835.17 299.441 842.239 306.51 850.96 306.51H1015.97C1024.69 306.51 1031.76 299.441 1031.76 290.72V257.96C1031.76 249.239 1024.69 242.17 1015.97 242.17Z" fill="#00263D"/>
<path d="M712.1 273.94L710.37 290.03H703.86L700.5 259.83H705.12L707.66 283.64L709.95 259.83H714.52L716.89 283.81L719.35 259.83H723.49L720.13 290.03H713.83L712.1 273.94Z" fill="white"/>
<path d="M730.61 272.56H737.12V276.87H730.61V285.71H738.81V290.02H725.87V259.82H738.81V264.13H730.61V272.54V272.56Z" fill="white"/>
<path d="M741.74 259.84H746.49V290.04H741.74V259.84Z" fill="white"/>
<path d="M757.06 273.21H763.7V282.79C763.7 287.62 761.28 290.38 756.63 290.38C751.98 290.38 749.55 287.62 749.55 282.79V267.09C749.55 262.26 751.97 259.5 756.63 259.5C761.29 259.5 763.7 262.26 763.7 267.09V270.02H759.21V266.78C759.21 264.62 758.26 263.8 756.75 263.8C755.24 263.8 754.29 264.62 754.29 266.78V283.09C754.29 285.25 755.24 286.02 756.75 286.02C758.26 286.02 759.21 285.24 759.21 283.09V277.53H757.05V273.22L757.06 273.21Z" fill="white"/>
<path d="M771.51 290.03H766.76V259.83H771.51V272.77H776.9V259.83H781.73V290.03H776.9V277.09H771.51V290.03Z" fill="white"/>
<path d="M783.81 259.84H798.48V264.15H793.52V290.03H788.77V264.15H783.81V259.84Z" fill="white"/>
<path d="M886.67 290.38C881.88 290.38 879.25 287.62 879.25 282.79V280.42C879.25 277.53 880.11 275.29 882.18 274.12C880.2 273.04 879.25 271.01 879.25 268.04V267.09C879.25 262.26 881.88 259.5 886.67 259.5C891.46 259.5 894.09 262.26 894.09 267.09V268.04C894.09 271.02 893.1 273.04 891.16 274.12C893.23 275.28 894.09 277.53 894.09 280.42V282.79C894.09 287.62 891.46 290.38 886.67 290.38ZM883.99 268.94C883.99 271.36 885.11 272.13 886.66 272.13C888.21 272.13 889.33 271.35 889.33 268.94V267.26C889.33 264.54 888.16 263.81 886.66 263.81C885.16 263.81 883.99 264.54 883.99 267.26V268.94ZM886.67 286.06C888.18 286.06 889.3 285.33 889.34 282.65V279.85C889.34 277.48 888.35 276.44 886.67 276.44C884.99 276.44 884 277.48 884 279.85V282.65C884 285.32 885.17 286.06 886.67 286.06Z" fill="#7BDAFF"/>
<path d="M896.94 290.03V285.46H901.51V289.56L899.44 294.35H897.5L898.75 290.04H896.94V290.03Z" fill="#7BDAFF"/>
<path d="M914.11 267.25C914.11 264.53 913.16 263.8 911.65 263.8C910.14 263.8 909.19 264.62 909.19 266.78V268.72H904.7V267.08C904.7 262.25 907.12 259.49 911.77 259.49C916.42 259.49 918.84 262.25 918.84 267.08V267.86C918.84 271.1 917.8 273.12 915.52 274.07C917.89 275.11 918.84 277.35 918.84 280.41V282.78C918.84 287.61 916.42 290.37 911.77 290.37C907.12 290.37 904.7 287.61 904.7 282.78V280.28H909.19V283.08C909.19 285.24 910.14 286.06 911.65 286.06C913.16 286.06 914.11 285.33 914.11 282.65V280.28C914.11 277.48 913.16 276.44 911 276.44H909.4V272.13H911.25C913.02 272.13 914.1 271.35 914.1 268.94V267.26L914.11 267.25Z" fill="#7BDAFF"/>
<path d="M921.74 267.34C921.74 262.25 924.07 259.49 928.99 259.49C933.65 259.49 936.06 262.25 936.06 267.08V267.86H931.57V266.78C931.57 264.62 930.62 263.8 929.11 263.8C927.43 263.8 926.48 264.62 926.48 267.51V273.03C927.3 271.3 928.77 270.36 930.88 270.36C934.37 270.36 936.14 272.82 936.14 277.26V282.78C936.14 287.61 933.6 290.37 928.94 290.37C924.28 290.37 921.74 287.61 921.74 282.78V267.34ZM926.49 277.65V283.08C926.49 285.24 927.44 286.01 928.95 286.01C930.46 286.01 931.41 285.23 931.41 283.08V277.65C931.41 275.49 930.46 274.67 928.95 274.67C927.44 274.67 926.49 275.49 926.49 277.65Z" fill="#7BDAFF"/>
<path d="M953.06 259.84V263.98L946.07 290.03H941.32L948.26 264.15H938.81V259.84H953.04H953.06Z" fill="#7BDAFF"/>
<path d="M969.11 278L967.64 280.76V290.03H962.89V259.83H967.64V272.99L973.85 259.83H978.59L971.99 273.29L978.59 290.03H973.72L969.1 277.99L969.11 278Z" fill="#7BDAFF"/>
<path d="M987.58 273.21H994.22V282.79C994.22 287.62 991.8 290.38 987.15 290.38C982.5 290.38 980.07 287.62 980.07 282.79V267.09C980.07 262.26 982.49 259.5 987.15 259.5C991.81 259.5 994.22 262.26 994.22 267.09V270.02H989.73V266.78C989.73 264.62 988.78 263.8 987.27 263.8C985.76 263.8 984.81 264.62 984.81 266.78V283.09C984.81 285.25 985.76 286.02 987.27 286.02C988.78 286.02 989.73 285.24 989.73 283.09V277.53H987.57V273.22L987.58 273.21Z" fill="#7BDAFF"/>
<path d="M677.41 697.55H694.41V702.55H688.66V732.55H683.16V702.55H677.41V697.55Z" fill="#34EBE6"/>
<path d="M708.31 732.55C708.01 731.65 707.81 731.1 707.81 728.25V722.75C707.81 719.5 706.71 718.3 704.21 718.3H702.31V732.55H696.81V697.55H705.11C710.81 697.55 713.26 700.2 713.26 705.6V708.35C713.26 711.95 712.11 714.3 709.66 715.45C712.41 716.6 713.31 719.25 713.31 722.9V728.3C713.31 730 713.36 731.25 713.91 732.55H708.31ZM702.31 702.55V713.3H704.46C706.51 713.3 707.76 712.4 707.76 709.6V706.15C707.76 703.65 706.91 702.55 704.96 702.55H702.31Z" fill="#34EBE6"/>
<path d="M721.56 720.95L714.61 697.55H720.36L724.56 713.5L728.76 697.55H734.01L727.06 720.95V732.55H721.56V720.95Z" fill="#34EBE6"/>
<path d="M761.76 732.55H756.21L755.26 726.2H748.51L747.56 732.55H742.51L748.11 697.55H756.16L761.76 732.55ZM749.21 721.45H754.51L751.86 703.75L749.21 721.45Z" fill="#34EBE6"/>
<path d="M772.51 713.05H780.21V724.15C780.21 729.75 777.41 732.95 772.01 732.95C766.61 732.95 763.81 729.75 763.81 724.15V705.95C763.81 700.35 766.61 697.15 772.01 697.15C777.41 697.15 780.21 700.35 780.21 705.95V709.35H775.01V705.6C775.01 703.1 773.91 702.15 772.16 702.15C770.41 702.15 769.31 703.1 769.31 705.6V724.5C769.31 727 770.41 727.9 772.16 727.9C773.91 727.9 775.01 727 775.01 724.5V718.05H772.51V713.05Z" fill="#34EBE6"/>
<path d="M801.51 732.55H795.96L795.01 726.2H788.26L787.31 732.55H782.26L787.86 697.55H795.91L801.51 732.55ZM788.96 721.45H794.26L791.61 703.75L788.96 721.45Z" fill="#34EBE6"/>
<path d="M804.06 697.55H809.56V732.55H804.06V697.55Z" fill="#34EBE6"/>
<path d="M818.46 707.2V732.55H813.51V697.55H820.41L826.06 718.5V697.55H830.96V732.55H825.31L818.46 707.2Z" fill="#34EBE6"/>
<path d="M842.65 697.55H848.15V732.55H842.65V697.55Z" fill="#34EBE6"/>
<path d="M857.05 707.2V732.55H852.1V697.55H859L864.65 718.5V697.55H869.55V732.55H863.9L857.05 707.2Z" fill="#34EBE6"/>
<path d="M889.3 702.15C887.55 702.15 886.45 703.1 886.45 705.6V709.35H881.25V705.95C881.25 700.35 884.05 697.15 889.45 697.15C894.85 697.15 897.65 700.35 897.65 705.95C897.65 716.95 886.7 721.05 886.7 726.8C886.7 727.05 886.7 727.3 886.75 727.55H897.15V732.55H881.25V728.25C881.25 717.95 892.15 716.25 892.15 706.15C892.15 703 891.05 702.15 889.3 702.15Z" fill="#34EBE6"/>
<path d="M914.3 732.55H908.8V697.55H914.3V712.55H920.55V697.55H926.15V732.55H920.55V717.55H914.3V732.55Z" fill="#34EBE6"/>
<path d="M929.7 705.95C929.7 700.35 932.65 697.15 938.05 697.15C943.45 697.15 946.4 700.35 946.4 705.95V724.15C946.4 729.75 943.45 732.95 938.05 732.95C932.65 732.95 929.7 729.75 929.7 724.15V705.95ZM935.2 724.5C935.2 727 936.3 727.95 938.05 727.95C939.8 727.95 940.9 727 940.9 724.5V705.6C940.9 703.1 939.8 702.15 938.05 702.15C936.3 702.15 935.2 703.1 935.2 705.6V724.5Z" fill="#34EBE6"/>
<path d="M955.2 697.55V724.55C955.2 727.05 956.3 727.95 958.05 727.95C959.8 727.95 960.9 727.05 960.9 724.55V697.55H966.1V724.2C966.1 729.8 963.3 733 957.9 733C952.5 733 949.7 729.8 949.7 724.2V697.55H955.2Z" fill="#34EBE6"/>
<path d="M981.35 732.55C981.05 731.65 980.85 731.1 980.85 728.25V722.75C980.85 719.5 979.75 718.3 977.25 718.3H975.35V732.55H969.85V697.55H978.15C983.85 697.55 986.3 700.2 986.3 705.6V708.35C986.3 711.95 985.15 714.3 982.7 715.45C985.45 716.6 986.35 719.25 986.35 722.9V728.3C986.35 730 986.4 731.25 986.95 732.55H981.35ZM975.35 702.55V713.3H977.5C979.55 713.3 980.8 712.4 980.8 709.6V706.15C980.8 703.65 979.95 702.55 978 702.55H975.35Z" fill="#34EBE6"/>
<path d="M997.35 697.15C1002.7 697.15 1005.45 700.35 1005.45 705.95V707.05H1000.25V705.6C1000.25 703.1 999.25 702.15 997.5 702.15C995.75 702.15 994.75 703.1 994.75 705.6C994.75 712.8 1005.5 714.15 1005.5 724.15C1005.5 729.75 1002.7 732.95 997.3 732.95C991.9 732.95 989.1 729.75 989.1 724.15V722H994.3V724.5C994.3 727 995.4 727.9 997.15 727.9C998.9 727.9 1000 727 1000 724.5C1000 717.3 989.25 715.95 989.25 705.95C989.25 700.35 992 697.15 997.35 697.15Z" fill="#34EBE6"/>
<path d="M1017.1 724.8L1016.4 712.15V697.55H1021.9V712.15L1021.2 724.8H1017.1ZM1021.8 727.25V732.55H1016.5V727.25H1021.8Z" fill="#34EBE6"/>
<path d="M695.05 586.37C699.67 586.37 702.04 589.13 702.04 593.96V594.91H697.55V593.66C697.55 591.5 696.69 590.68 695.18 590.68C693.67 590.68 692.81 591.5 692.81 593.66C692.81 599.87 702.08 601.04 702.08 609.66C702.08 614.49 699.66 617.25 695.01 617.25C690.36 617.25 687.94 614.49 687.94 609.66V607.8H692.43V609.96C692.43 612.12 693.38 612.89 694.89 612.89C696.4 612.89 697.35 612.11 697.35 609.96C697.35 603.75 688.08 602.58 688.08 593.96C688.08 589.13 690.45 586.37 695.07 586.37H695.05Z" fill="white"/>
<path d="M709.55 616.91H704.8V586.71H709.55V599.65H714.94V586.71H719.77V616.91H714.94V603.97H709.55V616.91Z" fill="white"/>
<path d="M738.58 616.91H733.79L732.97 611.43H727.15L726.33 616.91H721.97L726.8 586.71H733.75L738.58 616.91ZM727.75 607.34H732.32L730.03 592.07L727.74 607.34H727.75Z" fill="white"/>
<path d="M750.7 616.91C750.44 616.13 750.27 615.66 750.27 613.2V608.45C750.27 605.65 749.32 604.61 747.16 604.61H745.52V616.9H740.77V586.7H747.93C752.85 586.7 754.96 588.99 754.96 593.65V596.02C754.96 599.13 753.97 601.15 751.85 602.14C754.22 603.13 755 605.42 755 608.57V613.23C755 614.7 755.04 615.77 755.52 616.9H750.69L750.7 616.91ZM745.53 591.03V600.3H747.38C749.15 600.3 750.23 599.52 750.23 597.11V594.13C750.23 591.97 749.5 591.02 747.81 591.02H745.52L745.53 591.03Z" fill="white"/>
<path d="M762.87 599.44H769.38V603.75H762.87V612.59H771.07V616.9H758.13V586.7H771.07V591.01H762.87V599.42V599.44Z" fill="white"/>
<path d="M780.3 593.96C780.3 589.13 782.84 586.37 787.5 586.37C792.16 586.37 794.71 589.13 794.71 593.96V609.66C794.71 614.49 792.17 617.25 787.5 617.25C782.83 617.25 780.3 614.49 780.3 609.66V593.96ZM785.05 609.97C785.05 612.13 786 612.95 787.51 612.95C789.02 612.95 789.97 612.13 789.97 609.97V593.66C789.97 591.5 789.02 590.68 787.51 590.68C786 590.68 785.05 591.5 785.05 593.66V609.97Z" fill="white"/>
<path d="M802 595.04V616.91H797.73V586.71H803.68L808.56 604.78V586.71H812.79V616.91H807.91L802 595.04Z" fill="white"/>
<path d="M1013.6 439.2H704.49C695.571 439.2 688.34 446.431 688.34 455.35V506.96C688.34 515.88 695.571 523.11 704.49 523.11H1013.6C1022.52 523.11 1029.75 515.88 1029.75 506.96V455.35C1029.75 446.431 1022.52 439.2 1013.6 439.2Z" fill="#7C2701"/>
<path d="M1013.61 440.78C1021.65 440.78 1028.17 447.3 1028.17 455.34V506.95C1028.17 514.99 1021.65 521.51 1013.61 521.51H704.49C696.45 521.51 689.93 514.99 689.93 506.95V455.34C689.93 447.3 696.45 440.78 704.49 440.78H1013.61ZM1013.61 437.62H704.49C694.72 437.62 686.76 445.57 686.76 455.35V506.96C686.76 516.73 694.71 524.69 704.49 524.69H1013.61C1023.38 524.69 1031.34 516.74 1031.34 506.96V455.35C1031.34 445.58 1023.39 437.62 1013.61 437.62Z" fill="#002C3A"/>
<path d="M1028.18 491.42V455.73C1028.18 447.474 1021.49 440.78 1013.23 440.78H704.88C696.623 440.78 689.93 447.474 689.93 455.73V491.42C689.93 499.677 696.623 506.37 704.88 506.37H1013.23C1021.49 506.37 1028.18 499.677 1028.18 491.42Z" fill="#FFDA33"/>
<path d="M1014.11 445.3H703.99C698.682 445.3 694.38 449.603 694.38 454.91V490.59C694.38 495.898 698.682 500.2 703.99 500.2H1014.11C1019.42 500.2 1023.72 495.898 1023.72 490.59V454.91C1023.72 449.603 1019.42 445.3 1014.11 445.3Z" fill="#591E00"/>
<path d="M815.65 458.96H820.26V484.1H827.84V488.29H815.65V458.96Z" fill="#FFDA33"/>
<path d="M834.47 471.32H840.8V475.51H834.47V484.1H842.43V488.29H829.86V458.96H842.43V463.15H834.47V471.32Z" fill="#FFDA33"/>
<path d="M860.2 488.29H855.55L854.75 482.97H849.09L848.29 488.29H844.06L848.75 458.96H855.5L860.19 488.29H860.2ZM849.68 478.99H854.12L851.9 464.16L849.68 478.99Z" fill="#FFDA33"/>
<path d="M862.34 458.96H869.63C874.24 458.96 876.5 461.52 876.5 466.21V481.04C876.5 485.73 874.24 488.29 869.63 488.29H862.34V458.96ZM866.95 463.15V484.1H869.55C871.02 484.1 871.9 483.35 871.9 481.25V466C871.9 463.91 871.02 463.15 869.55 463.15H866.95Z" fill="#FFDA33"/>
<path d="M884.05 471.32H890.38V475.51H884.05V484.1H892.01V488.29H879.44V458.96H892.01V463.15H884.05V471.32Z" fill="#FFDA33"/>
<path d="M904.5 488.29C904.25 487.54 904.08 487.08 904.08 484.69V480.08C904.08 477.36 903.16 476.35 901.06 476.35H899.47V488.29H894.86V458.96H901.82C906.6 458.96 908.65 461.18 908.65 465.71V468.01C908.65 471.03 907.69 473 905.63 473.96C907.93 474.92 908.69 477.15 908.69 480.2V484.73C908.69 486.15 908.73 487.2 909.19 488.29H904.5ZM899.47 463.15V472.16H901.27C902.99 472.16 904.04 471.41 904.04 469.06V466.17C904.04 464.07 903.33 463.15 901.69 463.15H899.47Z" fill="#FFDA33"/>
<path d="M925.49 465.71V466.76C925.49 469.78 924.57 471.71 922.52 472.67C924.99 473.63 925.96 475.86 925.96 478.96V481.35C925.96 485.88 923.57 488.31 918.96 488.31H911.71V458.98H918.67C923.45 458.98 925.5 461.2 925.5 465.73L925.49 465.71ZM916.31 463.15V470.9H918.11C919.83 470.9 920.88 470.15 920.88 467.8V466.17C920.88 464.07 920.17 463.15 918.53 463.15H916.31ZM916.31 475.09V484.1H918.95C920.5 484.1 921.34 483.39 921.34 481.21V478.65C921.34 475.93 920.46 475.09 918.36 475.09H916.31Z" fill="#FFDA33"/>
<path d="M928.34 466C928.34 461.31 930.81 458.62 935.34 458.62C939.87 458.62 942.34 461.3 942.34 466V481.25C942.34 485.94 939.87 488.63 935.34 488.63C930.81 488.63 928.34 485.95 928.34 481.25V466ZM932.95 481.54C932.95 483.64 933.87 484.43 935.34 484.43C936.81 484.43 937.73 483.63 937.73 481.54V465.7C937.73 463.6 936.81 462.81 935.34 462.81C933.87 462.81 932.95 463.6 932.95 465.7V481.54Z" fill="#FFDA33"/>
<path d="M960.19 488.29H955.54L954.74 482.97H949.08L948.28 488.29H944.05L948.74 458.96H955.49L960.18 488.29H960.19ZM949.67 478.99H954.11L951.89 464.16L949.67 478.99Z" fill="#FFDA33"/>
<path d="M971.97 488.29C971.72 487.54 971.55 487.08 971.55 484.69V480.08C971.55 477.36 970.63 476.35 968.53 476.35H966.94V488.29H962.33V458.96H969.29C974.07 458.96 976.12 461.18 976.12 465.71V468.01C976.12 471.03 975.16 473 973.1 473.96C975.4 474.92 976.16 477.15 976.16 480.2V484.73C976.16 486.15 976.2 487.2 976.66 488.29H971.97ZM966.94 463.15V472.16H968.74C970.46 472.16 971.51 471.41 971.51 469.06V466.17C971.51 464.07 970.8 463.15 969.16 463.15H966.94Z" fill="#FFDA33"/>
<path d="M979.18 458.96H986.47C991.08 458.96 993.34 461.52 993.34 466.21V481.04C993.34 485.73 991.08 488.29 986.47 488.29H979.18V458.96ZM983.79 463.15V484.1H986.39C987.86 484.1 988.74 483.35 988.74 481.25V466C988.74 463.91 987.86 463.15 986.39 463.15H983.79Z" fill="#FFDA33"/>
<path d="M765.83 462.34V459.27H759.32L756.71 458.57L754.86 455.72L752.56 452.17C751.54 450.61 749.88 450.61 748.87 452.17L746.57 455.72L744.72 458.57L742.11 459.27H735.59V462.34C735.55 462.88 735.74 463.47 736.21 464.05L738.88 467.34L741.02 469.97L740.62 477.58C740.52 479.44 741.87 480.42 743.61 479.75L750.73 477.01L757.84 479.75C759.58 480.42 760.92 479.44 760.83 477.58L760.43 469.97L762.56 467.34L765.23 464.05C765.7 463.47 765.89 462.88 765.85 462.34H765.83Z" fill="#FFAA17"/>
<path d="M764.06 457.22L756.7 455.25L754.85 452.4L752.55 448.85C751.53 447.29 749.87 447.29 748.86 448.85L746.56 452.4L744.71 455.25L737.35 457.22C735.55 457.7 735.04 459.28 736.21 460.73L738.88 464.02L741.02 466.65L740.62 474.26C740.52 476.12 741.87 477.1 743.61 476.43L750.73 473.69L757.84 476.43C759.58 477.1 760.92 476.12 760.83 474.26L760.43 466.65L762.56 464.02L765.23 460.73C766.4 459.28 765.89 457.7 764.09 457.22H764.06Z" fill="#FFDA33"/>
<g style="mix-blend-mode:overlay" opacity="0.2">
<path d="M742.85 455.75L737.34 457.22C736.7 457.39 736.23 457.7 735.93 458.09L749.17 474.28L750.69 473.69L757.8 476.43C758.55 476.72 759.23 476.7 759.75 476.43L742.83 455.74L742.85 455.75Z" fill="white"/>
</g>
<g style="mix-blend-mode:overlay" opacity="0.2">
<path d="M762.55 464L749.55 448.1C749.3 448.29 749.07 448.54 748.86 448.86L746.63 452.29L760.55 469.31L760.41 466.66L762.54 464.03L762.56 464.01L762.55 464Z" fill="white"/>
</g>
<path d="M735.85 465.67L735.23 463.72L731.1 465.03L729.3 465.11L727.56 463.68L725.39 461.89C724.43 461.1 723.38 461.44 723.05 462.63L722.3 465.34L721.7 467.52L720.18 468.49L716.05 469.8L716.67 471.75C716.75 472.1 717 472.44 717.41 472.71L719.76 474.26L721.64 475.5L722.92 480.41C723.23 481.61 724.28 481.96 725.25 481.19L729.21 478.02L734.27 478.32C735.51 478.39 736.16 477.5 735.73 476.34L733.94 471.6L734.76 469.5L735.79 466.88C735.97 466.42 735.97 466 735.84 465.67H735.85Z" fill="#FFAA17"/>
<path d="M733.7 462.79L728.64 463.02L726.9 461.59L724.73 459.8C723.77 459.01 722.72 459.35 722.39 460.54L721.64 463.25L721.04 465.43L716.77 468.16C715.73 468.83 715.72 469.93 716.75 470.62L719.1 472.17L720.98 473.41L722.26 478.32C722.57 479.52 723.62 479.87 724.59 479.1L728.55 475.93L733.61 476.23C734.85 476.3 735.5 475.41 735.07 474.25L733.28 469.51L734.1 467.41L735.13 464.79C735.58 463.63 734.94 462.74 733.7 462.79Z" fill="#FFDA33"/>
<g style="mix-blend-mode:overlay" opacity="0.2">
<path d="M719.96 466.12L716.77 468.16C716.4 468.4 716.16 468.69 716.05 469L727.7 476.6L728.55 475.92L733.61 476.22C734.15 476.25 734.57 476.1 734.85 475.83L719.96 466.12Z" fill="white"/>
</g>
<g style="mix-blend-mode:overlay" opacity="0.2">
<path d="M734.11 467.39L722.67 459.93C722.55 460.1 722.45 460.31 722.38 460.55L721.66 463.17L733.9 471.16L733.28 469.51L734.1 467.41L734.11 467.39Z" fill="white"/>
</g>
<path d="M765.88 465.62L766.5 463.67L770.63 464.98L772.43 465.06L774.17 463.63L776.34 461.84C777.3 461.05 778.35 461.39 778.68 462.58L779.43 465.29L780.03 467.47L781.55 468.44L785.68 469.75L785.06 471.7C784.98 472.05 784.73 472.39 784.32 472.66L781.97 474.21L780.09 475.45L778.81 480.36C778.5 481.56 777.45 481.91 776.48 481.14L772.52 477.97L767.46 478.27C766.22 478.34 765.57 477.45 766 476.29L767.78 471.55L766.96 469.45L765.93 466.83C765.75 466.37 765.75 465.95 765.88 465.62Z" fill="#FFAA17"/>
<path d="M768.02 462.74L773.08 462.97L774.82 461.54L776.99 459.75C777.95 458.96 779 459.3 779.33 460.49L780.08 463.2L780.68 465.38L784.95 468.11C785.99 468.78 786 469.88 784.97 470.56L782.62 472.11L780.74 473.35L779.46 478.26C779.15 479.46 778.1 479.81 777.13 479.04L773.17 475.87L768.11 476.17C766.87 476.24 766.22 475.35 766.65 474.19L768.44 469.45L767.62 467.35L766.59 464.73C766.14 463.57 766.78 462.68 768.02 462.73V462.74Z" fill="#FFDA33"/>
<g style="mix-blend-mode:overlay" opacity="0.2">
<path d="M781.76 466.07L784.95 468.11C785.32 468.35 785.56 468.64 785.67 468.94L774.02 476.54L773.17 475.86L768.11 476.16C767.57 476.19 767.15 476.04 766.87 475.77L781.76 466.06V466.07Z" fill="white"/>
</g>
<g style="mix-blend-mode:overlay" opacity="0.2">
<path d="M767.62 467.34L779.06 459.88C779.18 460.05 779.28 460.26 779.35 460.5L780.07 463.12L767.83 471.11L768.45 469.46L767.63 467.36L767.62 467.34Z" fill="white"/>
</g>
<path d="M776.01 475.09C775.46 474.86 774.81 475.12 774.58 475.68L769.16 488.7C768.93 489.25 769.19 489.9 769.75 490.13L780.23 494.49C781.63 495.07 782.58 494.33 782.35 492.83L782.04 490.83L781.73 488.83L781.3 486.1L783.53 484.49L785.17 483.31L786.81 482.12C788.04 481.23 787.9 480.03 786.5 479.45L776.02 475.09H776.01Z" fill="#B52020"/>
<path d="M725.4 475.09C725.95 474.86 726.6 475.12 726.83 475.68L732.25 488.7C732.48 489.25 732.22 489.9 731.66 490.13L721.18 494.49C719.78 495.07 718.83 494.33 719.06 492.83L719.37 490.83L719.68 488.83L720.11 486.1L717.88 484.49L716.24 483.31L714.6 482.12C713.37 481.23 713.51 480.03 714.91 479.45L725.39 475.09H725.4Z" fill="#B52020"/>
<path d="M777.21 487.31C776.57 488.69 774.88 489.28 773.42 488.7C758.83 482.92 742.58 482.92 727.99 488.7C726.53 489.28 724.84 488.69 724.2 487.31C722.72 484.03 721.24 480.76 719.77 477.49C719.13 476.11 720.12 474.3 721.98 473.56C740.43 466.25 760.98 466.25 779.42 473.56C781.29 474.3 782.27 476.12 781.64 477.49C780.16 480.76 778.68 484.04 777.2 487.31H777.21Z" fill="#E63535"/>
<path d="M927.7 557.72H913.86C895.347 557.72 880.34 572.728 880.34 591.24V605.61C880.34 624.123 895.347 639.13 913.86 639.13H927.7C946.213 639.13 961.22 624.123 961.22 605.61V591.24C961.22 572.728 946.213 557.72 927.7 557.72Z" fill="#127B93"/>
<path d="M927.7 559.26C945.36 559.26 959.68 573.58 959.68 591.24V605.62C959.68 623.28 945.36 637.6 927.7 637.6H913.86C896.2 637.6 881.88 623.28 881.88 605.62V591.24C881.88 573.58 896.2 559.26 913.86 559.26H927.7ZM927.7 556.19H913.86C894.53 556.19 878.81 571.91 878.81 591.24V605.62C878.81 624.95 894.53 640.67 913.86 640.67H927.7C947.03 640.67 962.75 624.95 962.75 605.62V591.24C962.75 571.91 947.03 556.19 927.7 556.19Z" fill="#002C3A"/>
<path d="M927.87 622.9C945.444 622.9 959.69 608.654 959.69 591.08C959.69 573.507 945.444 559.26 927.87 559.26H913.7C896.126 559.26 881.88 573.507 881.88 591.08C881.88 608.654 896.126 622.9 913.7 622.9H927.87Z" fill="#06BADD"/>
<path d="M928.72 563.641H912.84C898.127 563.641 886.2 575.566 886.2 590.276C886.2 604.986 898.127 616.911 912.84 616.911H928.72C943.433 616.911 955.36 604.986 955.36 590.276C955.36 575.566 943.433 563.641 928.72 563.641Z" fill="#34EBE6"/>
<path d="M1016.78 557.72H1002.94C984.427 557.72 969.42 572.728 969.42 591.24V605.61C969.42 624.123 984.427 639.13 1002.94 639.13H1016.78C1035.29 639.13 1050.3 624.123 1050.3 605.61V591.24C1050.3 572.728 1035.29 557.72 1016.78 557.72Z" fill="#127B93"/>
<path d="M1016.78 559.26C1034.44 559.26 1048.76 573.58 1048.76 591.24V605.62C1048.76 623.28 1034.44 637.6 1016.78 637.6H1002.94C985.28 637.6 970.96 623.28 970.96 605.62V591.24C970.96 573.58 985.28 559.26 1002.94 559.26H1016.78ZM1016.78 556.19H1002.94C983.61 556.19 967.89 571.91 967.89 591.24V605.62C967.89 624.95 983.61 640.67 1002.94 640.67H1016.78C1036.11 640.67 1051.83 624.95 1051.83 605.62V591.24C1051.83 571.91 1036.11 556.19 1016.78 556.19Z" fill="#002C3A"/>
<path d="M1016.94 622.89C1034.51 622.89 1048.76 608.644 1048.76 591.07C1048.76 573.497 1034.51 559.25 1016.94 559.25H1002.77C985.196 559.25 970.95 573.497 970.95 591.07C970.95 608.644 985.196 622.89 1002.77 622.89H1016.94Z" fill="#06BADD"/>
<path d="M1017.79 563.641H1001.91C987.197 563.641 975.27 575.566 975.27 590.276C975.27 604.986 987.197 616.911 1001.91 616.911H1017.79C1032.5 616.911 1044.43 604.986 1044.43 590.276C1044.43 575.566 1032.5 563.641 1017.79 563.641Z" fill="#34EBE6"/>
<path d="M905.68 597.41C906.51 598.36 907.44 599.21 908.45 599.97C910.03 601.16 911.76 602.07 913.62 602.73C913.75 602.78 913.75 602.81 913.67 602.91C913.2 603.52 912.74 604.13 912.29 604.75C912.22 604.84 912.16 604.86 912.05 604.86C910.99 604.81 909.96 604.65 908.93 604.41C906.75 603.91 904.7 603.08 902.84 601.82C901.73 601.08 900.74 600.21 899.86 599.21C899.81 599.15 899.8 599.1 899.81 599.03C899.87 598.05 899.96 597.07 900.06 596.09C900.17 595.06 900.31 594.04 900.47 593.02C900.99 589.84 901.76 586.72 902.88 583.69C903.54 581.92 904.3 580.19 905.26 578.56C905.42 578.28 905.62 578.06 905.89 577.88C907.81 576.54 909.89 575.54 912.14 574.9C913.05 574.64 913.98 574.46 914.93 574.36C915.03 574.35 915.08 574.37 915.13 574.47C915.24 574.7 915.35 574.93 915.47 575.16C915.52 575.25 915.52 575.29 915.4 575.31C914.26 575.57 913.15 575.92 912.07 576.38C910.39 577.09 908.87 578.05 907.48 579.21C907.22 579.43 906.96 579.66 906.7 579.88C906.67 579.9 906.63 579.92 906.63 579.97C906.69 579.99 906.74 579.94 906.78 579.92C908.12 579.24 909.46 578.58 910.86 578.04C912.48 577.41 914.15 576.94 915.87 576.65C917.88 576.31 919.91 576.22 921.94 576.28C924.67 576.37 927.33 576.82 929.91 577.74C931.6 578.34 933.2 579.11 934.79 579.93C934.84 579.95 934.88 579.98 934.93 580C934.95 580 934.96 580.02 934.97 580C934.97 580 934.95 579.98 934.94 579.97C934.5 579.54 934.02 579.16 933.54 578.77C931.89 577.44 930.03 576.5 928.02 575.85C927.4 575.65 926.77 575.47 926.14 575.31C926.05 575.29 926.04 575.26 926.08 575.18C926.2 574.96 926.32 574.73 926.42 574.5C926.48 574.37 926.55 574.35 926.68 574.36C927.42 574.44 928.15 574.56 928.87 574.74C931.43 575.39 933.75 576.53 935.89 578.05C935.99 578.12 936.07 578.21 936.13 578.31C936.86 579.48 937.46 580.72 937.99 581.99C938.81 583.91 939.46 585.89 940 587.91C940.5 589.81 940.89 591.73 941.18 593.67C941.4 595.13 941.56 596.59 941.68 598.06C941.71 598.38 941.72 598.71 941.75 599.03C941.75 599.12 941.73 599.19 941.67 599.26C940.04 601.1 938.06 602.46 935.8 603.41C934.38 604.01 932.91 604.42 931.39 604.67C930.75 604.77 930.12 604.85 929.47 604.88C929.39 604.88 929.33 604.86 929.28 604.79C928.81 604.16 928.34 603.53 927.86 602.9C927.78 602.79 927.82 602.78 927.92 602.75C929.7 602.12 931.36 601.26 932.88 600.14C933.97 599.34 934.97 598.44 935.87 597.42C935.88 597.4 935.9 597.39 935.91 597.37C935.92 597.37 935.94 597.37 935.95 597.36C935.95 597.36 935.93 597.35 935.92 597.35C935.89 597.35 935.92 597.37 935.92 597.38C935.88 597.34 935.87 597.38 935.85 597.4C935.47 597.66 935.1 597.93 934.72 598.18C933.02 599.3 931.2 600.17 929.26 600.78C927.95 601.2 926.61 601.5 925.24 601.7C923.24 601.99 921.23 602.07 919.22 601.98C916.57 601.86 913.99 601.41 911.49 600.52C909.48 599.8 907.61 598.8 905.89 597.54C905.83 597.49 905.76 597.45 905.69 597.4C905.67 597.38 905.66 597.34 905.62 597.38C905.62 597.38 905.64 597.36 905.62 597.35C905.61 597.35 905.6 597.35 905.59 597.36C905.6 597.36 905.62 597.36 905.63 597.37L905.67 597.41H905.68ZM911.24 591.46C911.24 591.68 911.25 591.87 911.28 592.05C911.42 593.06 911.83 593.91 912.61 594.58C913.84 595.64 915.65 595.55 916.77 594.38C917.39 593.74 917.76 592.98 917.87 592.11C918.04 590.77 917.7 589.58 916.74 588.6C915.54 587.38 913.58 587.4 912.39 588.63C911.62 589.43 911.27 590.39 911.25 591.45L911.24 591.46ZM930.32 591.66C930.32 590.52 930.02 589.64 929.4 588.88C928.78 588.13 927.98 587.7 927 587.69C926.02 587.69 925.22 588.11 924.59 588.86C924.08 589.46 923.79 590.15 923.7 590.93C923.54 592.36 923.92 593.61 925.03 594.58C926.24 595.64 928.05 595.55 929.17 594.4C929.96 593.6 930.31 592.62 930.33 591.66H930.32ZM906.61 579.97C906.61 579.97 906.61 579.97 906.6 579.96C906.6 579.96 906.6 579.97 906.6 579.98C906.6 579.98 906.6 579.97 906.61 579.96V579.97Z" fill="#71FFF4"/>
<path d="M905.68 595.5C906.51 596.45 907.44 597.3 908.45 598.06C910.03 599.25 911.76 600.16 913.62 600.82C913.75 600.87 913.75 600.9 913.67 601C913.2 601.61 912.74 602.22 912.29 602.84C912.22 602.93 912.16 602.95 912.05 602.95C910.99 602.9 909.96 602.74 908.93 602.5C906.75 602 904.7 601.17 902.84 599.91C901.73 599.17 900.74 598.3 899.86 597.3C899.81 597.24 899.8 597.19 899.81 597.12C899.87 596.14 899.96 595.16 900.06 594.18C900.17 593.15 900.31 592.13 900.47 591.11C900.99 587.93 901.76 584.81 902.88 581.78C903.54 580.01 904.3 578.28 905.26 576.65C905.42 576.37 905.62 576.15 905.89 575.97C907.81 574.63 909.89 573.63 912.14 572.99C913.05 572.73 913.98 572.55 914.93 572.45C915.03 572.44 915.08 572.46 915.13 572.56C915.24 572.79 915.35 573.02 915.47 573.25C915.52 573.34 915.52 573.38 915.4 573.4C914.26 573.66 913.15 574.01 912.07 574.47C910.39 575.18 908.87 576.14 907.48 577.3C907.22 577.52 906.96 577.75 906.7 577.97C906.67 577.99 906.63 578.01 906.63 578.06C906.69 578.08 906.74 578.03 906.78 578.01C908.12 577.33 909.46 576.67 910.86 576.13C912.48 575.5 914.15 575.03 915.87 574.74C917.88 574.4 919.91 574.31 921.94 574.37C924.67 574.46 927.33 574.91 929.91 575.83C931.6 576.43 933.2 577.2 934.79 578.02C934.84 578.04 934.88 578.07 934.93 578.09C934.95 578.09 934.96 578.11 934.97 578.09C934.97 578.09 934.95 578.07 934.94 578.06C934.5 577.63 934.02 577.25 933.54 576.86C931.89 575.53 930.03 574.59 928.02 573.94C927.4 573.74 926.77 573.56 926.14 573.4C926.05 573.38 926.04 573.35 926.08 573.27C926.2 573.05 926.32 572.82 926.42 572.59C926.48 572.46 926.55 572.44 926.68 572.45C927.42 572.53 928.15 572.65 928.87 572.83C931.43 573.48 933.75 574.62 935.89 576.14C935.99 576.21 936.07 576.3 936.13 576.4C936.86 577.57 937.46 578.81 937.99 580.08C938.81 582 939.46 583.98 940 586C940.5 587.9 940.89 589.82 941.18 591.76C941.4 593.22 941.56 594.68 941.68 596.15C941.71 596.47 941.72 596.8 941.75 597.12C941.75 597.21 941.73 597.28 941.67 597.35C940.04 599.19 938.06 600.55 935.8 601.5C934.38 602.1 932.91 602.51 931.39 602.76C930.75 602.86 930.12 602.94 929.47 602.97C929.39 602.97 929.33 602.95 929.28 602.88C928.81 602.25 928.34 601.62 927.86 600.99C927.78 600.88 927.82 600.87 927.92 600.84C929.7 600.21 931.36 599.35 932.88 598.23C933.97 597.43 934.97 596.53 935.87 595.51C935.88 595.49 935.9 595.48 935.91 595.46C935.92 595.46 935.94 595.46 935.95 595.45C935.95 595.45 935.93 595.44 935.92 595.44C935.89 595.44 935.92 595.46 935.92 595.47C935.88 595.43 935.87 595.47 935.85 595.49C935.47 595.75 935.1 596.02 934.72 596.27C933.02 597.39 931.2 598.26 929.26 598.87C927.95 599.29 926.61 599.59 925.24 599.79C923.24 600.08 921.23 600.16 919.22 600.07C916.57 599.95 913.99 599.5 911.49 598.61C909.48 597.89 907.61 596.89 905.89 595.63C905.83 595.58 905.76 595.54 905.69 595.49C905.67 595.47 905.66 595.43 905.62 595.47C905.62 595.47 905.64 595.45 905.62 595.44C905.61 595.44 905.6 595.44 905.59 595.45C905.6 595.45 905.62 595.45 905.63 595.46L905.67 595.5H905.68ZM911.24 589.56C911.24 589.78 911.25 589.97 911.28 590.15C911.42 591.16 911.83 592.01 912.61 592.68C913.84 593.74 915.65 593.65 916.77 592.48C917.39 591.84 917.76 591.08 917.87 590.21C918.04 588.87 917.7 587.68 916.74 586.7C915.54 585.48 913.58 585.5 912.39 586.73C911.62 587.53 911.27 588.49 911.25 589.55L911.24 589.56ZM930.32 589.76C930.32 588.62 930.02 587.74 929.4 586.98C928.78 586.23 927.98 585.8 927 585.79C926.02 585.79 925.22 586.21 924.59 586.96C924.08 587.56 923.79 588.25 923.7 589.03C923.54 590.46 923.92 591.71 925.03 592.68C926.24 593.74 928.05 593.65 929.17 592.5C929.96 591.7 930.31 590.72 930.33 589.76H930.32ZM906.61 578.06C906.61 578.06 906.61 578.06 906.6 578.05C906.6 578.05 906.6 578.06 906.6 578.07C906.6 578.07 906.6 578.06 906.61 578.05V578.06Z" fill="#002C3A"/>
<path d="M1030.93 578.91C1029.53 579.52 1028.02 579.94 1026.44 580.12C1028.06 579.17 1029.3 577.66 1029.88 575.86C1028.37 576.74 1026.69 577.39 1024.91 577.73C1023.48 576.23 1021.45 575.3 1019.2 575.3C1014.88 575.3 1011.37 578.75 1011.37 583.01C1011.37 583.61 1011.44 584.2 1011.57 584.77C1005.07 584.45 999.3 581.38 995.44 576.72C994.77 577.86 994.38 579.18 994.38 580.59C994.38 583.26 995.77 585.62 997.86 587C996.58 586.96 995.37 586.61 994.31 586.04V586.14C994.31 587.13 994.5 588.07 994.85 588.93C995.81 591.35 997.96 593.17 1000.59 593.7C999.93 593.87 999.24 593.97 998.53 593.97C998.03 593.97 997.54 593.92 997.06 593.83C998.06 596.89 1000.95 599.12 1004.37 599.18C1001.69 601.25 998.32 602.48 994.65 602.48C994.02 602.48 993.4 602.44 992.78 602.37C996.25 604.56 1000.36 605.83 1004.78 605.83C1017.02 605.83 1024.53 597.35 1026.52 588.56C1026.87 587.01 1027.05 585.44 1027.05 583.91C1027.05 583.58 1027.05 583.24 1027.03 582.91C1028.56 581.82 1029.89 580.47 1030.93 578.92V578.91Z" fill="#71FFF4"/>
<path d="M1030.93 577.01C1029.53 577.62 1028.02 578.04 1026.44 578.22C1028.06 577.27 1029.3 575.76 1029.88 573.96C1028.37 574.84 1026.69 575.49 1024.91 575.83C1023.48 574.33 1021.45 573.4 1019.2 573.4C1014.88 573.4 1011.37 576.85 1011.37 581.11C1011.37 581.71 1011.44 582.3 1011.57 582.87C1005.07 582.55 999.3 579.48 995.44 574.82C994.77 575.96 994.38 577.28 994.38 578.69C994.38 581.36 995.77 583.72 997.86 585.1C996.58 585.06 995.37 584.71 994.31 584.14V584.24C994.31 585.23 994.5 586.17 994.85 587.03C995.81 589.45 997.96 591.27 1000.59 591.8C999.93 591.97 999.24 592.07 998.53 592.07C998.03 592.07 997.54 592.02 997.06 591.93C998.06 594.99 1000.95 597.22 1004.37 597.28C1001.69 599.35 998.32 600.58 994.65 600.58C994.02 600.58 993.4 600.54 992.78 600.47C996.25 602.66 1000.36 603.93 1004.78 603.93C1017.02 603.93 1024.53 595.45 1026.52 586.66C1026.87 585.11 1027.05 583.54 1027.05 582.01C1027.05 581.68 1027.05 581.34 1027.03 581.01C1028.56 579.92 1029.89 578.57 1030.93 577.02V577.01Z" fill="#002C3A"/>
</g>
<path d="M97.6259 72.894H504.374C555.519 72.894 597.037 114.471 597.037 165.689V709.341C597.037 760.559 555.519 802.137 504.374 802.137H97.6259C46.4805 802.137 4.96216 760.559 4.96216 709.341V165.689C4.96216 114.471 46.4805 72.894 97.6259 72.894Z" fill="#004AB5"/>
<path d="M504.374 77.8636C552.807 77.8636 592.075 117.188 592.075 165.689V709.342C592.075 757.843 552.807 797.167 504.374 797.167H97.6261C49.1935 797.167 9.92471 757.843 9.92471 709.342V165.689C9.92471 117.188 49.1935 77.8636 97.6261 77.8636H504.374ZM504.374 67.9248H97.6261C43.8011 67.9248 0 111.788 0 165.689V709.342C0 763.243 43.8011 807.106 97.6261 807.106H504.374C558.199 807.106 602 763.243 602 709.342V165.689C602 111.788 558.199 67.9248 504.374 67.9248Z" fill="#041521"/>
<path d="M504.407 77.8638H97.6259C49.1898 77.8638 9.92456 117.185 9.92456 165.69V646.363C9.92456 694.868 49.1898 734.189 97.6259 734.189H504.407C552.843 734.189 592.108 694.868 592.108 646.363V165.69C592.108 117.185 552.843 77.8638 504.407 77.8638Z" fill="#005EB1"/>
<path d="M566.734 612.438V199.647C566.734 151.142 527.469 111.821 479.033 111.821L123.034 111.821C74.5974 111.821 35.3322 151.142 35.3322 199.647V612.438C35.3322 660.943 74.5974 700.264 123.034 700.264H479.033C527.469 700.264 566.734 660.943 566.734 612.438Z" fill="#012947"/>
<g clip-path="url(#clip1_216_241)">
<path d="M164.245 702.902H185.448C213.79 702.902 236.791 725.903 236.791 754.245V776.274C236.791 804.616 213.79 827.617 185.448 827.617H164.245C135.903 827.63 112.888 804.616 112.888 776.274V754.245C112.888 725.916 135.903 702.902 164.245 702.902Z" fill="#127B93"/>
<path d="M185.448 705.259C212.511 705.259 234.447 727.195 234.447 754.258V776.287C234.447 803.35 212.511 825.286 185.448 825.286H164.245C137.181 825.286 115.246 803.35 115.246 776.287V754.258C115.246 727.195 137.181 705.259 164.245 705.259H185.448ZM185.448 700.558H164.245C134.638 700.558 110.544 724.651 110.544 754.258V776.287C110.544 805.894 134.638 829.988 164.245 829.988H185.448C215.055 829.988 239.148 805.894 239.148 776.287V754.258C239.135 724.651 215.055 700.558 185.448 700.558Z" fill="#002C3A"/>
<path d="M185.701 802.751C212.623 802.751 234.447 780.927 234.447 754.005C234.447 727.084 212.623 705.259 185.701 705.259H163.992C137.07 705.259 115.246 727.084 115.246 754.005C115.246 780.927 137.07 802.751 163.992 802.751H185.701Z" fill="#06BADD"/>
<path d="M187.006 711.972H162.673C140.135 711.972 121.865 730.242 121.865 752.78C121.865 775.318 140.135 793.588 162.673 793.588H187.006C209.544 793.588 227.814 775.318 227.814 752.78C227.814 730.242 209.544 711.972 187.006 711.972Z" fill="#34EBE6"/>
<path d="M183.477 778.777C181.825 778.777 180.174 778.324 178.709 777.485L152.844 762.555C149.847 760.824 148.062 757.734 148.062 754.271C148.062 750.808 149.847 747.718 152.844 745.987L178.709 731.057C180.174 730.217 181.825 729.765 183.477 729.765C188.751 729.765 193.053 734.053 193.053 739.341V769.214C193.053 771.851 192.014 774.289 190.136 776.1C188.351 777.805 185.927 778.79 183.49 778.79L183.477 778.777Z" fill="#127B93"/>
<path d="M183.477 732.109C187.246 732.109 190.695 735.119 190.695 739.327V769.201C190.695 773.41 187.246 776.42 183.477 776.42C182.278 776.42 181.039 776.113 179.881 775.447L154.016 760.517C149.208 757.747 149.208 750.808 154.016 748.025L179.881 733.094C181.039 732.428 182.278 732.122 183.477 732.122M183.477 727.407C181.412 727.407 179.348 727.967 177.537 729.019L151.672 743.949C147.943 746.107 145.719 749.956 145.719 754.258C145.719 758.56 147.943 762.422 151.672 764.566L177.537 779.496C179.361 780.549 181.412 781.108 183.477 781.108C190.043 781.108 195.397 775.767 195.397 769.188V739.314C195.397 732.748 190.056 727.394 183.477 727.394V727.407Z" fill="#002C3A"/>
</g>
<g clip-path="url(#clip2_216_241)">
<path d="M427.354 702.902H448.557C476.899 702.902 499.9 725.903 499.9 754.245V776.274C499.9 804.616 476.899 827.617 448.557 827.617H427.354C399.012 827.63 375.997 804.616 375.997 776.274V754.245C375.997 725.916 399.012 702.902 427.354 702.902Z" fill="#127B93"/>
<path d="M448.557 705.259C475.62 705.259 497.556 727.195 497.556 754.258V776.287C497.556 803.35 475.62 825.286 448.557 825.286H427.353C400.29 825.286 378.354 803.35 378.354 776.287V754.258C378.354 727.195 400.29 705.259 427.353 705.259H448.557ZM448.557 700.558H427.353C397.746 700.558 373.653 724.651 373.653 754.258V776.287C373.653 805.894 397.746 829.988 427.353 829.988H448.557C478.164 829.988 502.257 805.894 502.257 776.287V754.258C502.244 724.651 478.164 700.558 448.557 700.558Z" fill="#002C3A"/>
<path d="M448.81 802.751C475.731 802.751 497.556 780.927 497.556 754.005C497.556 727.084 475.731 705.259 448.81 705.259H427.1C400.179 705.259 378.354 727.084 378.354 754.005C378.354 780.927 400.179 802.751 427.1 802.751H448.81Z" fill="#06BADD"/>
<path d="M450.115 711.972H425.782C403.244 711.972 384.974 730.242 384.974 752.78C384.974 775.318 403.244 793.588 425.782 793.588H450.115C472.653 793.588 490.923 775.318 490.923 752.78C490.923 730.242 472.653 711.972 450.115 711.972Z" fill="#34EBE6"/>
<path d="M427.407 729.725C429.058 729.725 430.71 730.178 432.175 731.017L458.039 745.947C461.036 747.679 462.821 750.769 462.821 754.232C462.821 757.694 461.036 760.784 458.039 762.516L432.175 777.446C430.71 778.285 429.058 778.738 427.407 778.738C422.133 778.738 417.831 774.449 417.831 769.162L417.831 739.288C417.831 736.651 418.869 734.214 420.747 732.402C422.532 730.698 424.956 729.712 427.393 729.712L427.407 729.725Z" fill="#127B93"/>
<path d="M427.407 776.394C423.638 776.394 420.188 773.384 420.188 769.175L420.188 739.301C420.188 735.093 423.638 732.083 427.407 732.083C428.606 732.083 429.844 732.389 431.003 733.055L456.868 747.985C461.676 750.755 461.676 757.694 456.868 760.478L431.003 775.408C429.844 776.074 428.606 776.38 427.407 776.38M427.407 781.095C429.471 781.095 431.536 780.536 433.347 779.484L459.212 764.553C462.941 762.396 465.165 758.547 465.165 754.245C465.165 749.943 462.941 746.081 459.212 743.936L433.347 729.006C431.522 727.954 429.471 727.395 427.407 727.395C420.841 727.395 415.487 732.735 415.487 739.315L415.487 769.188C415.487 775.754 420.827 781.108 427.407 781.108L427.407 781.095Z" fill="#002C3A"/>
</g>
<path d="M223.22 657.982V620.69H232.489C238.35 620.69 241.226 623.94 241.226 629.907V648.766C241.226 654.733 238.35 657.982 232.489 657.982H223.22ZM232.383 626.018H229.08V652.655H232.383C234.247 652.655 235.366 651.696 235.366 649.032V629.64C235.366 626.977 234.247 626.018 232.383 626.018ZM257.913 620.69L263.88 657.982H257.967L256.954 651.217H249.762L248.75 657.982H243.369L249.336 620.69H257.913ZM253.332 627.296L250.508 646.156H256.155L253.332 627.296ZM266.343 620.69H272.203V649.459C272.203 652.122 273.375 653.081 275.239 653.081C277.104 653.081 278.276 652.122 278.276 649.459V620.69H283.817V649.086C283.817 655.052 280.833 658.462 275.08 658.462C269.326 658.462 266.343 655.052 266.343 649.086V620.69ZM287.836 657.982V620.69H293.696V652.655H303.338V657.982H287.836ZM314.519 620.69C320.379 620.69 323.256 623.94 323.256 629.907V634.755C323.256 640.722 320.379 643.971 314.519 643.971H311.749V657.982H305.888V620.69H314.519ZM314.519 626.018H311.749V638.644H314.519C316.384 638.644 317.396 637.791 317.396 635.128V629.534C317.396 626.87 316.384 626.018 314.519 626.018ZM331.831 642V657.982H325.97V620.69H331.831V636.673H338.49V620.69H344.457V657.982H338.49V642H331.831ZM348.706 657.982V620.69H354.566V657.982H348.706ZM371.37 657.982L364.072 630.972V657.982H358.797V620.69H366.149L372.169 643.012V620.69H377.39V657.982H371.37Z" fill="#34EBE6"/>
<path d="M368.649 62.1511V49.1122H341.026L329.945 46.1422C329.945 46.1422 322.113 34.0622 322.1 34.0622L312.324 18.9989C308.009 12.3663 300.977 12.3663 296.662 18.9989L286.886 34.0622L279.054 46.1422L267.96 49.1122H240.297V62.1511H240.337C240.164 64.4419 240.99 66.9591 242.961 69.4097L254.269 83.3543L263.325 94.5286L261.62 126.826C261.208 134.724 266.908 138.866 274.3 136.043L304.493 124.442L334.673 136.043C342.065 138.866 347.752 134.724 347.339 126.826L345.647 94.5286L354.691 83.3543L365.998 69.4097C367.969 66.9724 368.808 64.4419 368.635 62.1511H368.649Z" fill="#FBA91E"/>
<path d="M361.177 40.4685L329.945 32.1045C329.945 32.1045 322.113 20.0245 322.1 20.0245L312.324 4.97449C308.009 -1.65816 300.977 -1.65816 296.662 4.97449L286.886 20.0245L279.054 32.1045L247.809 40.4685C240.178 42.5063 237.993 49.2188 242.961 55.3587L254.269 69.3033L263.325 80.4776L261.62 112.775C261.208 120.673 266.908 124.815 274.3 121.992L304.493 110.391L334.673 121.992C342.065 124.815 347.752 120.673 347.339 112.775L345.647 80.4776L354.691 69.3033L365.998 55.3587C370.979 49.2055 368.795 42.5063 361.15 40.4685H361.177Z" fill="#FEDA34"/>
<g style="mix-blend-mode:overlay" opacity="0.2">
<path d="M271.183 34.2228L247.822 40.4692C245.119 41.1884 243.107 42.507 241.855 44.1718L298.033 112.882L304.506 110.392L334.686 121.992C337.882 123.218 340.759 123.138 342.97 121.992L271.183 34.2095V34.2228Z" fill="white"/>
</g>
<g style="mix-blend-mode:overlay" opacity="0.2">
<path d="M354.771 69.2238L299.605 1.76514C298.553 2.56425 297.554 3.62973 296.675 4.97491L287.219 19.5454L346.26 91.7455L345.674 80.4913L354.717 69.317L354.784 69.2371L354.771 69.2238Z" fill="white"/>
</g>
<path d="M241.456 76.3089L238.832 68.0514L221.332 73.6053L213.713 73.9516C213.713 73.9516 206.322 67.8783 206.308 67.8783L197.092 60.3C193.016 56.9571 188.568 58.3821 187.17 63.4565L184 74.9638L181.469 84.1936L175.036 88.309L157.509 93.8762L160.133 102.134H160.159C160.506 103.612 161.545 105.05 163.289 106.196L173.265 112.749L181.256 118.009L186.677 138.826C188.009 143.914 192.457 145.392 196.559 142.116L213.354 128.691L234.823 129.97C240.071 130.276 242.855 126.507 241.003 121.579L233.425 101.454L236.914 92.5576L241.283 81.4499C242.042 79.5054 242.069 77.734 241.496 76.3223L241.456 76.3089Z" fill="#FBA91E"/>
<path d="M232.346 64.0558L210.863 65.0414L203.472 58.9681L194.242 51.3899C190.166 48.0469 185.718 49.472 184.319 54.5464L181.15 66.0536L178.619 75.2834L160.506 86.8706C156.071 89.6941 156.044 94.3822 160.426 97.2857L170.402 103.838L178.393 109.099L183.813 129.916C185.145 135.004 189.594 136.482 193.696 133.206L210.49 119.781L231.96 121.059C237.208 121.366 239.991 117.597 238.14 112.669L230.562 92.5443L234.051 83.6341L238.42 72.5265C240.337 67.6252 237.607 63.8161 232.346 64.0558Z" fill="#FEDA34"/>
<g style="mix-blend-mode:overlay" opacity="0.2">
<path d="M174.051 78.2008L160.506 86.8579C158.934 87.8568 157.935 89.0954 157.469 90.4006L206.908 122.645L210.504 119.768L231.973 121.047C234.251 121.18 236.049 120.541 237.221 119.382L174.064 78.1875L174.051 78.2008Z" fill="white"/>
</g>
<g style="mix-blend-mode:overlay" opacity="0.2">
<path d="M234.077 83.5811L185.545 51.9229C185.038 52.6421 184.612 53.5211 184.333 54.5466L181.269 65.681L233.212 99.5634L230.575 92.5445L234.064 83.6344L234.091 83.5678L234.077 83.5811Z" fill="white"/>
</g>
<path d="M368.875 76.0824L371.498 67.8249L388.999 73.3787L396.617 73.725C396.617 73.725 404.009 67.6517 404.022 67.6517L413.239 60.0735C417.314 56.7305 421.776 58.1556 423.161 63.23L426.331 74.7372L428.862 83.967L435.294 88.0824L452.822 93.6496L450.198 101.907H450.171C449.825 103.385 448.786 104.824 447.041 105.969L437.066 112.522L429.075 117.783L423.654 138.6C422.322 143.688 417.874 145.166 413.772 141.89L396.977 128.464L375.507 129.743C370.26 130.049 367.476 126.28 369.327 121.352L376.906 101.228L373.416 92.3311L369.048 81.2234C368.289 79.2788 368.262 77.5075 368.835 76.0957L368.875 76.0824Z" fill="#FBA91E"/>
<path d="M377.971 63.8429L399.454 64.8285L406.846 58.7552L416.076 51.177C420.151 47.8473 424.6 49.2591 425.998 54.3335L429.168 65.8407L431.699 75.0705L449.812 86.6577C454.247 89.4812 454.274 94.1694 449.892 97.0728L439.916 103.639L431.925 108.9L426.504 129.717C425.172 134.804 420.724 136.283 416.622 133.006L399.827 119.581L378.358 120.86C373.11 121.166 370.327 117.397 372.178 112.469L379.756 92.3447L376.267 83.4346L371.898 72.3269C369.98 67.4256 372.711 63.6165 377.958 63.8563L377.971 63.8429Z" fill="#FEDA34"/>
<g style="mix-blend-mode:overlay" opacity="0.2">
<path d="M436.267 77.9875L449.812 86.6445C451.383 87.6434 452.382 88.8821 452.848 90.1873L403.41 122.432L399.814 119.555L378.344 120.833C376.067 120.967 374.269 120.327 373.097 119.169L436.253 77.9741L436.267 77.9875Z" fill="white"/>
</g>
<g style="mix-blend-mode:overlay" opacity="0.2">
<path d="M376.24 83.3546L424.786 51.6963C425.292 52.4155 425.705 53.2945 425.998 54.3201L429.062 65.4544L377.119 99.3369L379.756 92.318L376.267 83.4078L376.24 83.3412V83.3546Z" fill="white"/>
</g>
<path d="M210.54 177.182C216.4 177.182 219.277 180.431 219.277 186.398V191.246C219.277 197.213 216.4 200.462 210.54 200.462H207.77V214.474H201.91V177.182H210.54ZM210.54 182.509H207.77V195.135H210.54C212.405 195.135 213.417 194.283 213.417 191.619V186.025C213.417 183.361 212.405 182.509 210.54 182.509ZM222.252 214.474V177.182H228.112V209.146H237.754V214.474H222.252ZM253.303 177.182L259.27 214.474H253.357L252.345 207.708H245.152L244.14 214.474H238.76L244.726 177.182H253.303ZM248.722 183.788L245.898 202.647H251.545L248.722 183.788ZM264.885 214.474V202.114L257.48 177.182H263.607L268.082 194.176L272.557 177.182H278.151L270.745 202.114V214.474H264.885ZM286.381 182.509V192.898H294.425V198.225H286.381V209.146H296.503V214.474H280.52V177.182H296.503V182.509H286.381ZM318.354 214.474H312.387C312.068 213.515 311.854 212.929 311.854 209.892V204.032C311.854 200.569 310.682 199.29 308.019 199.29H305.994V214.474H300.134V177.182H308.978C315.051 177.182 317.661 180.005 317.661 185.759V188.689C317.661 192.525 316.436 195.028 313.826 196.254C316.756 197.479 317.715 200.303 317.715 204.192V209.945C317.715 211.757 317.768 213.089 318.354 214.474ZM308.818 182.509H305.994V193.963H308.285C310.469 193.963 311.801 193.004 311.801 190.021V186.345C311.801 183.681 310.896 182.509 308.818 182.509Z" fill="#34EBE6"/>
<path d="M344.285 202.434H349.825V205.896C349.825 208.56 350.997 209.519 352.862 209.519C354.727 209.519 355.899 208.56 355.899 205.896V197.692C355.899 195.028 354.727 194.016 352.862 194.016C350.997 194.016 349.825 195.028 349.825 197.692V198.811H344.285L345.35 177.182H360.8V182.509H350.624L350.145 191.406C351.21 189.648 352.915 188.689 355.259 188.689C359.575 188.689 361.759 191.725 361.759 197.213V205.524C361.759 211.49 358.775 214.9 353.022 214.9C347.268 214.9 344.285 211.49 344.285 205.524V202.434ZM371.054 185.759V205.896C371.054 208.56 372.226 209.572 374.091 209.572C375.956 209.572 377.128 208.56 377.128 205.896V185.759C377.128 183.095 375.956 182.083 374.091 182.083C372.226 182.083 371.054 183.095 371.054 185.759ZM365.194 205.524V186.132C365.194 180.165 368.337 176.755 374.091 176.755C379.845 176.755 382.988 180.165 382.988 186.132V205.524C382.988 211.49 379.845 214.9 374.091 214.9C368.337 214.9 365.194 211.49 365.194 205.524ZM395.586 199.024V193.697H403.791V205.524C403.791 211.49 400.807 214.9 395.054 214.9C389.3 214.9 386.317 211.49 386.317 205.524V186.132C386.317 180.165 389.3 176.755 395.054 176.755C400.807 176.755 403.791 180.165 403.791 186.132V189.754H398.25V185.759C398.25 183.095 397.078 182.083 395.213 182.083C393.349 182.083 392.177 183.095 392.177 185.759V205.896C392.177 208.56 393.349 209.519 395.213 209.519C397.078 209.519 398.25 208.56 398.25 205.896V199.024H395.586Z" fill="#34EBE6"/>
<defs>
<clipPath id="clip0_216_241">
<rect width="966.11" height="797.44" fill="white" transform="translate(142 57)"/>
</clipPath>
<clipPath id="clip1_216_241">
<rect width="128.591" height="129.417" fill="white" transform="translate(110.544 700.558)"/>
</clipPath>
<clipPath id="clip2_216_241">
<rect width="128.591" height="129.417" fill="white" transform="translate(373.653 700.558)"/>
</clipPath>
</defs>
</svg>
