<svg width="219" height="111" viewBox="0 0 219 111" fill="none" xmlns="http://www.w3.org/2000/svg">
<path d="M44.91 2.3432H62.29C85.52 2.3432 104.38 21.8762 104.38 45.9352V64.6396C104.38 88.6986 85.52 108.232 62.29 108.232H44.91C21.68 108.232 2.81995 88.6986 2.81995 64.6396V45.9352C2.81995 21.8762 21.68 2.3432 44.91 2.3432Z" fill="#127B93"/>
<path d="M62.3 4.34206C84.48 4.34206 102.47 22.9637 102.47 45.9455V64.65C102.47 87.6214 84.49 106.253 62.3 106.253H44.92C22.74 106.253 4.75 87.6318 4.75 64.65V45.9455C4.75 22.974 22.73 4.34206 44.92 4.34206H62.3ZM62.3 0.354675H44.92C20.65 0.354675 0.900024 20.8094 0.900024 45.9455V64.65C0.900024 89.786 20.65 110.241 44.92 110.241H62.3C86.57 110.241 106.32 89.786 106.32 64.65V45.9455C106.32 20.8094 86.57 0.354675 62.3 0.354675Z" fill="#002C3A"/>
<path d="M102.47 45.7384V45.728C102.47 22.8712 84.5793 4.3421 62.51 4.3421L44.72 4.3421C22.6507 4.3421 4.75997 22.8712 4.75997 45.728V45.7384C4.75997 68.5952 22.6507 87.1243 44.72 87.1243H62.51C84.5793 87.1243 102.47 68.5952 102.47 45.7384Z" fill="#06BADD"/>
<path d="M63.59 10.0383H43.63C25.1561 10.0383 10.1801 25.5488 10.1801 44.682C10.1801 63.8151 25.1561 79.3256 43.63 79.3256H63.59C82.0639 79.3256 97.04 63.8151 97.04 44.682C97.04 25.5488 82.0639 10.0383 63.59 10.0383Z" fill="#34EBE6"/>
<path d="M156.78 2.3432H174.16C197.39 2.3432 216.25 21.8762 216.25 45.9352V64.6396C216.25 88.6986 197.39 108.232 174.16 108.232H156.78C133.55 108.232 114.69 88.6986 114.69 64.6396V45.9352C114.69 21.8762 133.55 2.3432 156.78 2.3432Z" fill="#127B93"/>
<path d="M174.16 4.34206C196.34 4.34206 214.33 22.9637 214.33 45.9455V64.65C214.33 87.6214 196.35 106.253 174.16 106.253H156.78C134.6 106.253 116.61 87.6318 116.61 64.65V45.9455C116.61 22.974 134.59 4.34206 156.78 4.34206H174.16ZM174.16 0.354675H156.78C132.51 0.354675 112.76 20.8094 112.76 45.9455V64.65C112.76 89.786 132.51 110.241 156.78 110.241H174.16C198.43 110.241 218.18 89.786 218.18 64.65V45.9455C218.18 20.8094 198.43 0.354675 174.16 0.354675Z" fill="#002C3A"/>
<path d="M214.33 45.728V45.7176C214.33 22.8608 196.439 4.33173 174.37 4.33173L156.58 4.33173C134.511 4.33173 116.62 22.8608 116.62 45.7176V45.728C116.62 68.5848 134.511 87.114 156.58 87.114H174.37C196.439 87.114 214.33 68.5848 214.33 45.728Z" fill="#06BADD"/>
<path d="M175.45 10.0383H155.49C137.016 10.0383 122.04 25.5488 122.04 44.682C122.04 63.8151 137.016 79.3256 155.49 79.3256H175.45C193.924 79.3256 208.9 63.8151 208.9 44.682C208.9 25.5488 193.924 10.0383 175.45 10.0383Z" fill="#34EBE6"/>
<path d="M34.63 53.9617C35.67 55.2045 36.84 56.3023 38.11 57.2862C40.09 58.8398 42.26 60.0205 44.6 60.8801C44.76 60.9422 44.77 60.9836 44.67 61.1183C44.09 61.9158 43.5099 62.7132 42.9399 63.5107C42.8599 63.6246 42.78 63.6557 42.64 63.6557C41.31 63.5936 40.01 63.3761 38.72 63.0757C35.98 62.4232 33.4099 61.3358 31.0699 59.7098C29.6799 58.7466 28.4299 57.6073 27.3199 56.3127C27.2599 56.2402 27.25 56.1677 27.25 56.0745C27.33 54.8006 27.4299 53.5267 27.5699 52.2528C27.7099 50.9168 27.88 49.5808 28.09 48.2551C28.74 44.1123 29.7 40.0525 31.12 36.1169C31.95 33.8073 32.9 31.5598 34.11 29.4367C34.32 29.0742 34.57 28.7842 34.9 28.546C37.31 26.8061 39.92 25.5011 42.74 24.6622C43.89 24.3204 45.05 24.0926 46.24 23.9579C46.36 23.9476 46.43 23.9683 46.49 24.1029C46.62 24.4033 46.77 24.7036 46.92 25.004C46.98 25.1282 46.99 25.1697 46.84 25.2007C45.41 25.5425 44.01 25.9982 42.66 26.5886C40.56 27.5103 38.65 28.7635 36.89 30.2756C36.56 30.5656 36.23 30.8556 35.91 31.1456C35.88 31.1766 35.8299 31.1974 35.8199 31.2595C35.8999 31.2802 35.95 31.2284 36.01 31.1974C37.69 30.317 39.38 29.4574 41.14 28.7531C43.18 27.935 45.2799 27.3239 47.4399 26.9511C49.9699 26.5161 52.5099 26.3918 55.0699 26.4746C58.4899 26.5886 61.8399 27.1789 65.0699 28.3699C67.1899 29.1467 69.2 30.1617 71.2 31.2077C71.26 31.2388 71.32 31.2699 71.38 31.2906C71.4 31.2906 71.4199 31.3216 71.4399 31.2906C71.4399 31.2906 71.42 31.2699 71.41 31.2595C70.85 30.7106 70.25 30.2031 69.65 29.706C67.57 27.9764 65.24 26.7543 62.71 25.905C61.93 25.6461 61.14 25.4182 60.35 25.2111C60.23 25.18 60.22 25.149 60.27 25.0454C60.42 24.7554 60.5699 24.4654 60.6899 24.1651C60.7599 23.9994 60.86 23.9683 61.02 23.9786C61.95 24.0822 62.87 24.2376 63.78 24.4758C66.99 25.3147 69.91 26.8061 72.6 28.7842C72.72 28.8774 72.82 28.981 72.9 29.1156C73.82 30.6381 74.57 32.2538 75.24 33.9005C76.26 36.3965 77.09 38.965 77.76 41.5956C78.39 44.0606 78.88 46.5669 79.24 49.094C79.52 50.9893 79.72 52.8949 79.87 54.8006C79.9 55.2252 79.92 55.6395 79.96 56.0641C79.96 56.1884 79.93 56.2713 79.86 56.3645C77.81 58.7569 75.33 60.5176 72.49 61.7604C70.71 62.5372 68.86 63.0757 66.95 63.4071C66.15 63.5418 65.35 63.6454 64.54 63.6764C64.43 63.6764 64.37 63.6557 64.3 63.5625C63.71 62.7443 63.12 61.9261 62.52 61.1079C62.42 60.9733 62.48 60.9526 62.59 60.9111C64.82 60.093 66.9099 58.9744 68.8199 57.5245C70.1899 56.4888 71.4499 55.3081 72.5699 53.9824C72.5899 53.9617 72.6 53.941 72.62 53.9203C72.64 53.9203 72.65 53.9099 72.67 53.8996C72.67 53.8996 72.64 53.8788 72.63 53.8892C72.6 53.8892 72.63 53.9099 72.63 53.9203C72.59 53.8685 72.57 53.9203 72.55 53.941C72.08 54.2828 71.61 54.6245 71.13 54.956C69 56.4163 66.71 57.5348 64.27 58.3426C62.62 58.8916 60.94 59.2748 59.22 59.544C56.71 59.9272 54.19 60.0205 51.66 59.9065C48.34 59.7512 45.09 59.1712 41.95 58.0009C39.43 57.0584 37.08 55.7638 34.91 54.1171C34.83 54.0549 34.74 54.0031 34.66 53.941C34.64 53.9099 34.6199 53.8685 34.5699 53.9203C34.5699 53.9099 34.5999 53.8892 34.5699 53.8892C34.5599 53.8892 34.54 53.8892 34.53 53.8996C34.55 53.8996 34.56 53.9099 34.58 53.9203L34.63 53.9824V53.9617ZM41.62 46.2251C41.63 46.5151 41.63 46.7533 41.66 47.0019C41.83 48.3069 42.35 49.4254 43.33 50.2954C44.87 51.6728 47.1501 51.5486 48.5601 50.0365C49.3401 49.2079 49.7999 48.224 49.9399 47.0848C50.1599 45.3344 49.73 43.7913 48.52 42.5174C47.01 40.9328 44.55 40.9535 43.05 42.5588C42.08 43.5945 41.64 44.8477 41.62 46.2251ZM65.58 46.4944C65.58 45.0134 65.2 43.8638 64.42 42.8799C63.64 41.9063 62.64 41.3471 61.4 41.3367C60.16 41.3367 59.16 41.8856 58.37 42.8592C57.73 43.6359 57.36 44.537 57.25 45.5519C57.04 47.4162 57.53 49.0422 58.92 50.3057C60.44 51.6832 62.71 51.5589 64.12 50.0675C65.11 49.0215 65.56 47.7476 65.58 46.4944ZM35.8101 31.2802C35.8101 31.2802 35.81 31.2802 35.8 31.2699C35.8 31.2699 35.8 31.2906 35.79 31.2906C35.79 31.2906 35.79 31.2906 35.8 31.3009C35.8 31.3009 35.8001 31.2802 35.8101 31.2802Z" fill="#71FFF4"/>
<path d="M34.63 51.4864C35.67 52.7292 36.84 53.8271 38.11 54.811C40.09 56.3645 42.26 57.5452 44.6 58.4048C44.76 58.4669 44.77 58.5084 44.67 58.643C44.09 59.4405 43.5099 60.238 42.9399 61.0354C42.8599 61.1494 42.78 61.1804 42.64 61.1804C41.31 61.1183 40.01 60.9008 38.72 60.6004C35.98 59.948 33.4099 58.8605 31.0699 57.2345C29.6799 56.2713 28.4299 55.132 27.3199 53.8374C27.2599 53.7649 27.25 53.6924 27.25 53.5992C27.33 52.3253 27.4299 51.0514 27.5699 49.7775C27.7099 48.4415 27.88 47.1055 28.09 45.7798C28.74 41.6371 29.7 37.5772 31.12 33.6416C31.95 31.332 32.9 29.0846 34.11 26.9614C34.32 26.5989 34.57 26.3089 34.9 26.0707C37.31 24.3308 39.92 23.0258 42.74 22.1869C43.89 21.8451 45.05 21.6173 46.24 21.4826C46.36 21.4723 46.43 21.493 46.49 21.6276C46.62 21.928 46.77 22.2283 46.92 22.5287C46.98 22.653 46.99 22.6944 46.84 22.7255C45.41 23.0672 44.01 23.5229 42.66 24.1133C40.56 25.035 38.65 26.2882 36.89 27.8003C36.56 28.0903 36.23 28.3803 35.91 28.6703C35.88 28.7014 35.8299 28.7221 35.8199 28.7842C35.8999 28.8049 35.95 28.7531 36.01 28.7221C37.69 27.8417 39.38 26.9821 41.14 26.2779C43.18 25.4597 45.2799 24.8486 47.4399 24.4758C49.9699 24.0408 52.5099 23.9165 55.0699 23.9994C58.4899 24.1133 61.8399 24.7036 65.0699 25.8947C67.1899 26.6714 69.2 27.6864 71.2 28.7324C71.26 28.7635 71.32 28.7946 71.38 28.8153C71.4 28.8153 71.4199 28.8464 71.4399 28.8153C71.4399 28.8153 71.42 28.7946 71.41 28.7842C70.85 28.2353 70.25 27.7278 69.65 27.2307C67.57 25.5011 65.24 24.279 62.71 23.4297C61.93 23.1708 61.14 22.943 60.35 22.7358C60.23 22.7047 60.22 22.6737 60.27 22.5701C60.42 22.2801 60.5699 21.9901 60.6899 21.6898C60.7599 21.5241 60.86 21.493 61.02 21.5034C61.95 21.6069 62.87 21.7623 63.78 22.0005C66.99 22.8394 69.91 24.3308 72.6 26.3089C72.72 26.4021 72.82 26.5057 72.9 26.6404C73.82 28.1628 74.57 29.7785 75.24 31.4252C76.26 33.9212 77.09 36.4897 77.76 39.1203C78.39 41.5853 78.88 44.0916 79.24 46.6187C79.52 48.514 79.72 50.4197 79.87 52.3253C79.9 52.75 79.92 53.1642 79.96 53.5889C79.96 53.7131 79.93 53.796 79.86 53.8892C77.81 56.2816 75.33 58.0423 72.49 59.2851C70.71 60.0619 68.86 60.6004 66.95 60.9319C66.15 61.0665 65.35 61.1701 64.54 61.2011C64.43 61.2011 64.37 61.1804 64.3 61.0872C63.71 60.269 63.12 59.4508 62.52 58.6326C62.42 58.498 62.48 58.4773 62.59 58.4359C64.82 57.6177 66.9099 56.4991 68.8199 55.0492C70.1899 54.0135 71.4499 52.8328 72.5699 51.5071C72.5899 51.4864 72.6 51.4657 72.62 51.445C72.64 51.445 72.65 51.4346 72.67 51.4243C72.67 51.4243 72.64 51.4036 72.63 51.4139C72.6 51.4139 72.63 51.4346 72.63 51.445C72.59 51.3932 72.57 51.445 72.55 51.4657C72.08 51.8075 71.61 52.1493 71.13 52.4807C69 53.941 66.71 55.0595 64.27 55.8674C62.62 56.4163 60.94 56.7995 59.22 57.0688C56.71 57.452 54.19 57.5452 51.66 57.4312C48.34 57.2759 45.09 56.6959 41.95 55.5256C39.43 54.5831 37.08 53.2885 34.91 51.6418C34.83 51.5796 34.74 51.5278 34.66 51.4657C34.64 51.4346 34.6199 51.3932 34.5699 51.445C34.5699 51.4346 34.5999 51.4139 34.5699 51.4139C34.5599 51.4139 34.54 51.4139 34.53 51.4243C34.55 51.4243 34.56 51.4346 34.58 51.445L34.63 51.5071V51.4864ZM41.62 43.7499C41.63 44.0398 41.63 44.2781 41.66 44.5266C41.83 45.8316 42.35 46.9501 43.33 47.8201C44.87 49.1976 47.1501 49.0733 48.5601 47.5612C49.3401 46.7326 49.7999 45.7487 49.9399 44.6095C50.1599 42.8592 49.73 41.316 48.52 40.0421C47.01 38.4575 44.55 38.4782 43.05 40.0835C42.08 41.1192 41.64 42.3724 41.62 43.7499ZM65.58 44.0088C65.58 42.5278 65.2 41.3781 64.42 40.3942C63.64 39.4207 62.64 38.8614 61.4 38.8511C60.16 38.8511 59.16 39.4 58.37 40.3735C57.73 41.1503 57.36 42.0513 57.25 43.0663C57.04 44.9305 57.53 46.5566 58.92 47.8201C60.44 49.1976 62.71 49.0733 64.12 47.5819C65.11 46.5359 65.56 45.262 65.58 44.0088ZM35.8101 28.8049C35.8101 28.8049 35.81 28.8049 35.8 28.7946C35.8 28.7946 35.8 28.8153 35.79 28.8153C35.79 28.8153 35.79 28.8153 35.8 28.8256C35.8 28.8256 35.8001 28.8049 35.8101 28.8049Z" fill="#002C3A"/>
<path d="M191.93 29.9131C190.17 30.7106 188.28 31.2492 186.29 31.4874C188.32 30.2445 189.88 28.2871 190.61 25.9465C188.71 27.0961 186.6 27.935 184.37 28.3803C182.58 26.4332 180.02 25.2111 177.2 25.2111C171.77 25.2111 167.37 29.6956 167.37 35.2365C167.37 36.0237 167.46 36.7797 167.62 37.5151C159.45 37.1008 152.21 33.103 147.36 27.0443C146.52 28.5253 146.03 30.2445 146.03 32.0777C146.03 35.5576 147.77 38.6232 150.4 40.415C148.79 40.3632 147.27 39.9075 145.95 39.1618V39.2861C145.95 40.5703 146.19 41.7924 146.62 42.9213C147.82 46.0595 150.52 48.4415 153.83 49.1147C153 49.3426 152.14 49.4669 151.24 49.4669C150.61 49.4669 149.99 49.4047 149.39 49.2804C150.64 53.2575 154.27 56.1574 158.57 56.2402C155.2 58.933 150.97 60.528 146.36 60.528C145.57 60.528 144.78 60.4762 144.01 60.383C148.36 63.2207 153.53 64.8882 159.08 64.8882C174.45 64.8882 183.89 53.8582 186.38 42.4242C186.82 40.4046 187.05 38.3643 187.05 36.3758C187.05 35.9408 187.05 35.5058 187.02 35.0812C188.94 33.6727 190.61 31.9016 191.92 29.8924L191.93 29.9131Z" fill="#71FFF4"/>
<path d="M191.93 27.4378C190.17 28.2353 188.28 28.7739 186.29 29.0121C188.32 27.7693 189.88 25.8118 190.61 23.4712C188.71 24.6208 186.6 25.4597 184.37 25.905C182.58 23.9579 180.02 22.7358 177.2 22.7358C171.77 22.7358 167.37 27.2204 167.37 32.7613C167.37 33.5484 167.46 34.3044 167.62 35.0398C159.45 34.6255 152.21 30.6278 147.36 24.569C146.52 26.05 146.03 27.7693 146.03 29.6024C146.03 33.0823 147.77 36.148 150.4 37.9397C148.79 37.8879 147.27 37.4322 145.95 36.6865V36.8108C145.95 38.095 146.19 39.3171 146.62 40.446C147.82 43.5842 150.52 45.9662 153.83 46.6394C153 46.8673 152.14 46.9916 151.24 46.9916C150.61 46.9916 149.99 46.9294 149.39 46.8051C150.64 50.7822 154.27 53.6821 158.57 53.7649C155.2 56.4577 150.97 58.0527 146.36 58.0527C145.57 58.0527 144.78 58.0009 144.01 57.9077C148.36 60.7455 153.53 62.4129 159.08 62.4129C174.45 62.4129 183.89 51.3829 186.38 39.9489C186.82 37.9293 187.05 35.889 187.05 33.9005C187.05 33.4655 187.05 33.0305 187.02 32.6059C188.94 31.1974 190.61 29.4264 191.92 27.4171L191.93 27.4378Z" fill="#002C3A"/>
</svg>
