<svg width="351" height="119" viewBox="0 0 351 119" fill="none" xmlns="http://www.w3.org/2000/svg">
<path d="M18.0586 2.15002H332.941C342.019 2.15002 349.388 11.98 349.388 24.09V94.22C349.388 106.33 342.019 116.16 332.941 116.16H18.0586C8.98058 116.16 1.6117 106.33 1.6117 94.22V24.09C1.6117 11.98 8.98058 2.15002 18.0586 2.15002Z" fill="#7C2701"/>
<path d="M332.934 4.3C341.127 4.3 347.769 13.16 347.769 24.09V94.22C347.769 105.15 341.127 114.01 332.934 114.01H18.0586C9.86515 114.01 3.22341 105.15 3.22341 94.22V24.09C3.22341 13.16 9.86515 4.3 18.0586 4.3H332.941M332.934 0H18.0586C8.10352 0 0 10.81 0 24.09V94.22C0 107.5 8.10352 118.31 18.0586 118.31H332.941C342.896 118.31 351 107.5 351 94.22V24.09C351 10.81 342.896 0 332.941 0H332.934Z" fill="#002C3A"/>
<path d="M348 72.7096V24.2904C348 13.0843 341.171 4 332.748 4L18.2523 4C9.82867 4 3 13.0843 3 24.2904V72.7096C3 83.9157 9.82867 93 18.2523 93L332.748 93C341.171 93 348 83.9157 348 72.7096Z" fill="#FFDA33"/>
<path d="M333.231 10H17.7688C12.3737 10 8 15.8732 8 23.1182V71.8818C8 79.1268 12.3737 85 17.7688 85H333.231C338.626 85 343 79.1268 343 71.8818V23.1182C343 15.8732 338.626 10 333.231 10Z" fill="#591E00"/>
<path d="M86.6 68V62C87.32 62.06 88.16 62.06 88.88 62.06C90.98 62.06 92.66 61.28 92.66 58.04V26H99.26V57.56C99.26 65.96 94.76 68.12 89.78 68.12C88.58 68.12 87.68 68.12 86.6 68ZM118.392 26L125.112 68H118.452L117.312 60.38H109.212L108.072 68H102.012L108.732 26H118.392ZM113.232 33.44L110.052 54.68H116.412L113.232 33.44ZM141.027 52.34H147.267V57.92C147.267 64.64 143.907 68.48 137.427 68.48C130.947 68.48 127.587 64.64 127.587 57.92V36.08C127.587 29.36 130.947 25.52 137.427 25.52C143.907 25.52 147.267 29.36 147.267 36.08V40.16H141.027V35.66C141.027 32.66 139.707 31.52 137.607 31.52C135.507 31.52 134.187 32.66 134.187 35.66V58.34C134.187 61.34 135.507 62.42 137.607 62.42C139.707 62.42 141.027 61.34 141.027 58.34V52.34ZM166.331 68L159.911 51.26L157.871 55.1V68H151.271V26H157.871V44.3L166.511 26H173.111L163.931 44.72L173.111 68H166.331ZM185.835 26C192.435 26 195.675 29.66 195.675 36.38V41.84C195.675 48.56 192.435 52.22 185.835 52.22H182.715V68H176.115V26H185.835ZM185.835 32H182.715V46.22H185.835C187.935 46.22 189.075 45.26 189.075 42.26V35.96C189.075 32.96 187.935 32 185.835 32ZM204.792 35.66V58.34C204.792 61.34 206.112 62.48 208.212 62.48C210.312 62.48 211.632 61.34 211.632 58.34V35.66C211.632 32.66 210.312 31.52 208.212 31.52C206.112 31.52 204.792 32.66 204.792 35.66ZM198.192 57.92V36.08C198.192 29.36 201.732 25.52 208.212 25.52C214.692 25.52 218.232 29.36 218.232 36.08V57.92C218.232 64.64 214.692 68.48 208.212 68.48C201.732 68.48 198.192 64.64 198.192 57.92ZM220.601 32V26H241.001V32H234.101V68H227.501V32H220.601Z" fill="#FFDA33"/>
</svg>
