<svg width="1847" height="877" viewBox="0 0 1847 877" fill="none" xmlns="http://www.w3.org/2000/svg">
<path d="M1808.32 20.8H37.79C16.9192 20.8 0 37.7192 0 58.59V838.22C0 859.091 16.9192 876.01 37.79 876.01H1808.32C1829.19 876.01 1846.11 859.091 1846.11 838.22V58.59C1846.11 37.7192 1829.19 20.8 1808.32 20.8Z" fill="#08263A"/>
<path d="M51.71 0H1794.39C1822.93 0 1846.1 23.17 1846.1 51.71V833.09C1846.1 844.85 1836.55 854.4 1824.79 854.4H21.31C9.55 854.4 0 844.85 0 833.09V51.71C0 23.17 23.17 0 51.71 0Z" fill="#133754"/>
<path d="M26.6 0H1819.51C1834.19 0 1846.11 11.92 1846.11 26.6V114.04H0V26.6C0 11.92 11.92 0 26.6 0Z" fill="#0F4A72"/>
<path d="M1846.11 106.55H0V114.04H1846.11V106.55Z" fill="#155D84"/>
<g clip-path="url(#clip0_215_238)">
<path d="M470.41 31.2251H49.55C39.029 31.2251 30.5 39.7541 30.5 50.2751V98.7551C30.5 109.276 39.029 117.805 49.55 117.805H470.41C480.931 117.805 489.46 109.276 489.46 98.7551V50.2751C489.46 39.7541 480.931 31.2251 470.41 31.2251Z" fill="#D95000"/>
<path d="M470.41 32.7251C480.1 32.7251 487.96 40.5851 487.96 50.2751V98.7551C487.96 108.445 480.1 116.305 470.41 116.305H49.55C39.86 116.305 32 108.445 32 98.7551V50.2751C32 40.5851 39.86 32.7251 49.55 32.7251H470.41ZM470.41 29.7251H49.55C38.22 29.7251 29 38.9451 29 50.2751V98.7551C29 110.085 38.22 119.305 49.55 119.305H470.41C481.74 119.305 490.96 110.085 490.96 98.7551V50.2751C490.96 38.9451 481.74 29.7251 470.41 29.7251Z" fill="#471800"/>
<path d="M468.18 39.175H51.77C44.6179 39.175 38.82 44.973 38.82 52.125V89.975C38.82 97.1271 44.6179 102.925 51.77 102.925H468.18C475.332 102.925 481.13 97.1271 481.13 89.975V52.125C481.13 44.973 475.332 39.175 468.18 39.175Z" fill="#FF8F00"/>
<path d="M77.2 84.955C77.77 85.0049 78.44 85.0049 79.01 85.0049C80.68 85.0049 82.02 84.385 82.02 81.805V56.325H87.27V81.425C87.27 88.105 83.69 89.825 79.73 89.825C78.78 89.825 78.06 89.825 77.2 89.725V84.955Z" fill="white"/>
<path d="M107.83 89.725H102.53L101.62 83.6649H95.18L94.27 89.725H89.45L94.79 56.325H102.47L107.81 89.725H107.83ZM95.85 79.135H100.91L98.38 62.245L95.85 79.135Z" fill="white"/>
<path d="M125.44 77.2751V81.7151C125.44 87.0551 122.77 90.1151 117.61 90.1151C112.45 90.1151 109.78 87.0651 109.78 81.7151V64.3451C109.78 59.0051 112.45 55.9451 117.61 55.9451C122.77 55.9451 125.44 58.9951 125.44 64.3451V67.5851H120.48V64.0051C120.48 61.6151 119.43 60.7151 117.76 60.7151C116.09 60.7151 115.04 61.6251 115.04 64.0051V82.0451C115.04 84.4351 116.09 85.2851 117.76 85.2851C119.43 85.2851 120.48 84.4251 120.48 82.0451V77.2751H125.44Z" fill="white"/>
<path d="M135.5 76.4149L133.88 79.465V89.725H128.63V56.325H133.88V70.875L140.75 56.325H146L138.7 71.215L146 89.725H140.61L135.5 76.4149Z" fill="white"/>
<path d="M163.94 64.585V68.925C163.94 74.265 161.36 77.175 156.11 77.175H153.63V89.725H148.38V56.325H156.11C161.36 56.325 163.94 59.2349 163.94 64.5749V64.585ZM153.63 61.095V72.405H156.11C157.78 72.405 158.69 71.6449 158.69 69.2549V64.245C158.69 61.855 157.78 61.095 156.11 61.095H153.63Z" fill="white"/>
<path d="M165.94 64.3451C165.94 59.0051 168.76 55.9451 173.91 55.9451C179.06 55.9451 181.88 58.9951 181.88 64.3451V81.7151C181.88 87.0551 179.07 90.1151 173.91 90.1151C168.75 90.1151 165.94 87.0651 165.94 81.7151V64.3451ZM171.19 82.0451C171.19 84.4351 172.24 85.3351 173.91 85.3351C175.58 85.3351 176.63 84.4251 176.63 82.0451V64.0051C176.63 61.6151 175.58 60.7151 173.91 60.7151C172.24 60.7151 171.19 61.6251 171.19 64.0051V82.0451Z" fill="white"/>
<path d="M183.74 56.325H199.96V61.095H194.47V89.725H189.22V61.095H183.73V56.325H183.74Z" fill="white"/>
<path d="M464.77 45.7852H256.04C250.39 45.7852 245.81 50.3653 245.81 56.0152V86.8352C245.81 92.485 250.39 97.0652 256.04 97.0652H464.77C470.42 97.0652 475 92.485 475 86.8352V56.0152C475 50.3653 470.42 45.7852 464.77 45.7852Z" fill="#891F11"/>
<path d="M255.68 68.9084H263.415V72.7757H255.68V68.9084Z" fill="white"/>
<path d="M272.529 60.8673C271.182 60.8673 270.327 61.6013 270.327 63.5294V66.4326H266.307V63.8033C266.307 59.4759 268.476 57 272.65 57C276.824 57 278.993 59.4759 278.993 63.8033C278.993 72.3047 270.525 75.4708 270.525 79.9187C270.525 80.1159 270.525 80.3022 270.568 80.4994H278.61V84.3666H266.318V81.0471C266.318 73.0826 274.742 71.7679 274.742 63.9676C274.742 61.5355 273.888 60.8782 272.54 60.8782L272.529 60.8673Z" fill="white"/>
<path d="M281.611 57.3069H288.338C292.589 57.3069 294.681 59.6623 294.681 63.9897V77.673C294.681 82.0004 292.589 84.3558 288.338 84.3558H281.611V57.3069ZM285.862 61.1741V80.4995H288.261C289.62 80.4995 290.431 79.8093 290.431 77.8702V63.8034C290.431 61.8753 289.62 61.1741 288.261 61.1741H285.862Z" fill="white"/>
<path d="M311.103 84.3668H306.809L306.075 79.4588H300.86L300.126 84.3668H296.226L300.553 57.3179H306.776L311.103 84.3668ZM301.408 75.7887H305.505L303.457 62.1054L301.408 75.7887Z" fill="white"/>
<path d="M315.168 75.3943L309.8 57.3069H314.248L317.49 69.6317L320.733 57.3069H324.787L319.419 75.3943V84.3558H315.168V75.3943Z" fill="white"/>
<path d="M344.704 60.8673C343.356 60.8673 342.502 61.6013 342.502 63.5294V66.4326H338.481V63.8033C338.481 59.4759 340.65 57 344.824 57C348.998 57 351.167 59.4759 351.167 63.8033C351.167 72.3047 342.699 75.4708 342.699 79.9187C342.699 80.1159 342.699 80.3022 342.743 80.4994H350.784V84.3666H338.492V81.0471C338.492 73.0826 346.917 71.7679 346.917 63.9676C346.917 61.5355 346.062 60.8782 344.715 60.8782L344.704 60.8673Z" fill="white"/>
<path d="M353.435 63.8033C353.435 59.4759 355.714 57 359.888 57C364.062 57 366.341 59.4759 366.341 63.8033V77.8701C366.341 82.1975 364.062 84.6734 359.888 84.6734C355.714 84.6734 353.435 82.1975 353.435 77.8701V63.8033ZM357.686 78.144C357.686 80.0721 358.54 80.8061 359.888 80.8061C361.236 80.8061 362.09 80.0721 362.09 78.144V63.5404C362.09 61.6122 361.236 60.8782 359.888 60.8782C358.54 60.8782 357.686 61.6122 357.686 63.5404V78.144Z" fill="white"/>
<path d="M373.341 84.3668H369.091V57.3179H373.341V68.9087H378.173V57.3179H382.5V84.3668H378.173V72.776H373.341V84.3668Z" fill="white"/>
<path d="M394.222 60.7141C397.509 60.7141 398.243 59.1255 398.9 57.3179H401.76V84.3668H397.509V63.7268H394.222V60.7141Z" fill="white"/>
<path d="M406.547 63.8033C406.547 59.4759 408.826 57 413 57C417.174 57 419.453 59.4759 419.453 63.8033V77.8701C419.453 82.1975 417.174 84.6734 413 84.6734C408.826 84.6734 406.547 82.1975 406.547 77.8701V63.8033ZM410.798 78.144C410.798 80.0721 411.652 80.8061 413 80.8061C414.347 80.8061 415.202 80.0721 415.202 78.144V63.5404C415.202 61.6122 414.347 60.8782 413 60.8782C411.652 60.8782 410.798 61.6122 410.798 63.5404V78.144Z" fill="white"/>
<path d="M431.208 76.5227L434.111 57.3179H440.027V84.3668H436.006V64.9648L433.07 84.3668H429.05L425.883 65.2386V84.3668H422.17V57.3179H428.086L431.219 76.5227H431.208Z" fill="white"/>
<path d="M443.116 57.3069H447.367V84.3558H443.116V57.3069Z" fill="white"/>
<path d="M454.247 64.7676V84.3668H450.424V57.3179H455.759L460.13 73.51V57.3179H463.921V84.3668H459.549L454.258 64.7676H454.247Z" fill="white"/>
</g>
<path d="M560.44 31.04H777.82C788.55 31.04 797.26 39.75 797.26 50.48V98.55C797.26 109.28 788.55 117.99 777.82 117.99H560.44C549.71 117.99 541 109.28 541 98.55V50.48C541 39.75 549.71 31.04 560.44 31.04Z" fill="#127B93"/>
<path d="M777.82 33.08C787.43 33.08 795.22 40.87 795.22 50.48V98.55C795.22 108.16 787.43 115.95 777.82 115.95H560.44C550.83 115.95 543.04 108.16 543.04 98.55V50.48C543.04 40.87 550.83 33.08 560.44 33.08H777.82ZM777.82 29H560.44C548.6 29 538.96 38.64 538.96 50.48V98.55C538.96 110.4 548.6 120.03 560.44 120.03H777.82C789.67 120.03 799.3 110.39 799.3 98.55V50.48C799.3 38.63 789.66 29 777.82 29Z" fill="#002C3A"/>
<path d="M775.63 39.48H562.65C555.559 39.48 549.81 45.2286 549.81 52.32V89.85C549.81 96.9413 555.559 102.69 562.65 102.69H775.63C782.721 102.69 788.47 96.9413 788.47 89.85V52.32C788.47 45.2286 782.721 39.48 775.63 39.48Z" fill="#34EBE6"/>
<path d="M583.96 62V70.44H589.64V74.44H583.96V86H579.56V58H591.2V62H583.96ZM593.31 86V58H597.71V86H593.31ZM600.367 64.72C600.367 60.24 602.567 57.68 606.847 57.68C611.127 57.68 613.327 60.24 613.327 64.72V65.6H609.167V64.44C609.167 62.44 608.367 61.68 606.967 61.68C605.567 61.68 604.767 62.44 604.767 64.44C604.767 70.2 613.367 71.28 613.367 79.28C613.367 83.76 611.127 86.32 606.807 86.32C602.487 86.32 600.247 83.76 600.247 79.28V77.56H604.407V79.56C604.407 81.56 605.287 82.28 606.687 82.28C608.087 82.28 608.967 81.56 608.967 79.56C608.967 73.8 600.367 72.72 600.367 64.72ZM620.288 74V86H615.888V58H620.288V70H625.288V58H629.768V86H625.288V74H620.288ZM637.889 62V58H651.489V62H646.889V86H642.489V62H637.889ZM657.467 64.44V79.56C657.467 81.56 658.347 82.32 659.747 82.32C661.147 82.32 662.027 81.56 662.027 79.56V64.44C662.027 62.44 661.147 61.68 659.747 61.68C658.347 61.68 657.467 62.44 657.467 64.44ZM653.067 79.28V64.72C653.067 60.24 655.427 57.68 659.747 57.68C664.067 57.68 666.427 60.24 666.427 64.72V79.28C666.427 83.76 664.067 86.32 659.747 86.32C655.427 86.32 653.067 83.76 653.067 79.28ZM668.007 62V58H681.607V62H677.007V86H672.607V62H668.007ZM691.781 58L696.261 86H691.821L691.061 80.92H685.661L684.901 86H680.861L685.341 58H691.781ZM688.341 62.96L686.221 77.12H690.461L688.341 62.96ZM698.31 86V58H702.71V82H709.95V86H698.31Z" fill="#002C3A"/>
<path d="M1045.98 29.5525H839.7C830.09 29.5525 822.3 38.0049 822.3 48.4315V100.598C822.3 111.025 830.09 119.477 839.7 119.477H1045.98C1055.59 119.477 1063.38 111.025 1063.38 100.598V48.4315C1063.38 38.0049 1055.59 29.5525 1045.98 29.5525Z" fill="#00263D"/>
<path d="M841.9 34.6843H1043.76C1051.77 34.6843 1058.27 41.7368 1058.27 50.4277V91.1477C1058.27 99.8386 1051.77 106.891 1043.76 106.891H841.9C833.89 106.891 827.39 99.8386 827.39 91.1477V50.4277C827.39 41.7368 833.89 34.6843 841.9 34.6843Z" fill="#00354F"/>
<path d="M1043.77 36.4965C1050.86 36.4965 1056.61 42.7352 1056.61 50.4279V91.1479C1056.61 98.8406 1050.86 105.079 1043.77 105.079H841.91C834.82 105.079 829.07 98.8406 829.07 91.1479V50.4279C829.07 42.7352 834.82 36.4965 841.91 36.4965H1043.77ZM1043.77 32.8726H841.91C832.99 32.8726 825.73 40.7497 825.73 50.4279V91.1479C825.73 100.826 832.99 108.703 841.91 108.703H1043.77C1052.69 108.703 1059.95 100.826 1059.95 91.1479V50.4279C1059.95 40.7497 1052.69 32.8726 1043.77 32.8726Z" fill="#17536B"/>
<path d="M872.6 50.863C877.16 50.863 879.12 52.983 879.12 57.303V58.303C879.12 61.183 878.24 63.023 876.28 63.943C878.64 64.863 879.56 66.983 879.56 69.943V72.223C879.56 76.543 877.28 78.863 872.88 78.863H865.96V50.863H872.6ZM872.32 66.263H870.36V74.863H872.88C874.36 74.863 875.16 74.183 875.16 72.103V69.663C875.16 67.063 874.32 66.263 872.32 66.263ZM872.48 54.863H870.36V62.263H872.08C873.72 62.263 874.72 61.543 874.72 59.303V57.743C874.72 55.743 874.04 54.863 872.48 54.863ZM882.21 78.863V50.863H886.61V78.863H882.21ZM896.427 67.263V63.263H902.587V72.143C902.587 76.623 900.347 79.183 896.027 79.183C891.707 79.183 889.467 76.623 889.467 72.143V57.583C889.467 53.103 891.707 50.543 896.027 50.543C900.347 50.543 902.587 53.103 902.587 57.583V60.303H898.427V57.303C898.427 55.303 897.547 54.543 896.147 54.543C894.747 54.543 893.867 55.303 893.867 57.303V72.423C893.867 74.423 894.747 75.143 896.147 75.143C897.547 75.143 898.427 74.423 898.427 72.423V67.263H896.427ZM912.013 67.263V63.263H918.173V72.143C918.173 76.623 915.933 79.183 911.613 79.183C907.293 79.183 905.053 76.623 905.053 72.143V57.583C905.053 53.103 907.293 50.543 911.613 50.543C915.933 50.543 918.173 53.103 918.173 57.583V60.303H914.013V57.303C914.013 55.303 913.133 54.543 911.733 54.543C910.333 54.543 909.453 55.303 909.453 57.303V72.423C909.453 74.423 910.333 75.143 911.733 75.143C913.133 75.143 914.013 74.423 914.013 72.423V67.263H912.013ZM925.399 54.863V62.663H931.439V66.663H925.399V74.863H932.999V78.863H920.999V50.863H932.999V54.863H925.399ZM949.406 78.863H944.926C944.686 78.143 944.526 77.703 944.526 75.423V71.023C944.526 68.423 943.646 67.463 941.646 67.463H940.126V78.863H935.726V50.863H942.366C946.926 50.863 948.886 52.983 948.886 57.303V59.503C948.886 62.383 947.966 64.263 946.006 65.183C948.206 66.103 948.926 68.223 948.926 71.143V75.463C948.926 76.823 948.966 77.823 949.406 78.863ZM942.246 54.863H940.126V63.463H941.846C943.486 63.463 944.486 62.743 944.486 60.503V57.743C944.486 55.743 943.806 54.863 942.246 54.863ZM962.43 54.863V63.303H968.11V67.303H962.43V78.863H958.03V50.863H969.67V54.863H962.43ZM971.78 78.863V50.863H976.18V78.863H971.78ZM978.837 57.583C978.837 53.103 981.037 50.543 985.317 50.543C989.597 50.543 991.797 53.103 991.797 57.583V58.463H987.637V57.303C987.637 55.303 986.837 54.543 985.437 54.543C984.037 54.543 983.237 55.303 983.237 57.303C983.237 63.063 991.837 64.143 991.837 72.143C991.837 76.623 989.597 79.183 985.277 79.183C980.957 79.183 978.717 76.623 978.717 72.143V70.423H982.877V72.423C982.877 74.423 983.757 75.143 985.157 75.143C986.557 75.143 987.437 74.423 987.437 72.423C987.437 66.663 978.837 65.583 978.837 57.583ZM998.758 66.863V78.863H994.358V50.863H998.758V62.863H1003.76V50.863H1008.24V78.863H1003.76V66.863H998.758Z" fill="#3B687A"/>
<path opacity="0.07" d="M841.9 105.32H1043.76C1050.85 105.32 1056.6 99.5698 1056.6 92.4798V87.9998C1056.6 95.0898 1050.85 100.84 1043.76 100.84H841.9C834.81 100.84 829.06 95.0898 829.06 87.9998V92.4798C829.06 99.5698 834.81 105.32 841.9 105.32Z" fill="#C2FEFF"/>
<path d="M1296.76 37.2051H1171.05C1162.4 37.2051 1155.38 44.2208 1155.38 52.8751V96.1551C1155.38 104.809 1162.4 111.825 1171.05 111.825H1296.76C1305.41 111.825 1312.43 104.809 1312.43 96.1551V52.8751C1312.43 44.2208 1305.41 37.2051 1296.76 37.2051Z" fill="#00263D"/>
<path d="M1294.78 41.3953H1173.03C1165.78 41.3953 1159.9 47.2738 1159.9 54.5253V88.3153C1159.9 95.5668 1165.78 101.445 1173.03 101.445H1294.78C1302.03 101.445 1307.91 95.5668 1307.91 88.3153V54.5253C1307.91 47.2738 1302.03 41.3953 1294.78 41.3953Z" fill="#0E6EAF"/>
<path d="M1294.78 42.9652C1301.17 42.9652 1306.34 48.1452 1306.34 54.5252V88.3152C1306.34 94.7052 1301.16 99.8752 1294.78 99.8752H1173.03C1166.64 99.8752 1161.47 94.6952 1161.47 88.3152V54.5252C1161.47 48.1352 1166.65 42.9652 1173.03 42.9652H1294.77M1294.78 39.8252H1173.03C1164.92 39.8252 1158.33 46.4152 1158.33 54.5252V88.3152C1158.33 96.4252 1164.92 103.015 1173.03 103.015H1294.77C1302.88 103.015 1309.47 96.4252 1309.47 88.3152V54.5252C1309.47 46.4152 1302.88 39.8252 1294.77 39.8252H1294.78Z" fill="#2BAAE2"/>
<path d="M1195.34 86.2051L1193.74 71.2851L1192.14 86.2051H1186.1L1182.98 58.2051H1187.26L1189.62 80.2851L1191.74 58.2051H1195.98L1198.18 80.4451L1200.46 58.2051H1204.3L1201.18 86.2051H1195.34ZM1210.92 62.2051V70.0051H1216.96V74.0051H1210.92V82.2051H1218.52V86.2051H1206.52V58.2051H1218.52V62.2051H1210.92ZM1225.65 62.2051V70.0051H1231.69V74.0051H1225.65V82.2051H1233.25V86.2051H1221.25V58.2051H1233.25V62.2051H1225.65ZM1246.01 86.2051L1241.73 75.0451L1240.37 77.6051V86.2051H1235.97V58.2051H1240.37V70.4051L1246.13 58.2051H1250.53L1244.41 70.6851L1250.53 86.2051H1246.01ZM1252.53 86.2051V58.2051H1256.93V82.2051H1264.17V86.2051H1252.53ZM1267.75 86.2051V76.9251L1262.19 58.2051H1266.79L1270.15 70.9651L1273.51 58.2051H1277.71L1272.15 76.9251V86.2051H1267.75Z" fill="white"/>
<path opacity="0.07" d="M1173.03 99.8751H1294.77C1301.16 99.8751 1306.33 94.6951 1306.33 88.3151V84.2751C1306.33 90.6651 1301.15 95.8351 1294.77 95.8351H1173.03C1166.64 95.8351 1161.47 90.6551 1161.47 84.2751V88.3151C1161.47 94.7051 1166.65 99.8751 1173.03 99.8751Z" fill="#C2FEFF"/>
<path d="M1463.81 37.2051H1338.1C1329.45 37.2051 1322.43 44.2208 1322.43 52.8751V96.1551C1322.43 104.809 1329.45 111.825 1338.1 111.825H1463.81C1472.46 111.825 1479.48 104.809 1479.48 96.1551V52.8751C1479.48 44.2208 1472.46 37.2051 1463.81 37.2051Z" fill="#00263D"/>
<path d="M1461.83 41.4651H1340.08C1332.87 41.4651 1327.02 47.3122 1327.02 54.5251V88.3151C1327.02 95.5279 1332.87 101.375 1340.08 101.375H1461.83C1469.04 101.375 1474.89 95.5279 1474.89 88.3151V54.5251C1474.89 47.3122 1469.04 41.4651 1461.83 41.4651Z" fill="#00354F"/>
<path d="M1461.83 42.9651C1468.22 42.9651 1473.39 48.1451 1473.39 54.5251V88.3151C1473.39 94.7051 1468.21 99.8751 1461.83 99.8751H1340.09C1333.7 99.8751 1328.53 94.6951 1328.53 88.3151V54.5251C1328.53 48.1351 1333.71 42.9651 1340.09 42.9651H1461.83ZM1461.83 39.9651H1340.09C1332.06 39.9651 1325.53 46.4951 1325.53 54.5251V88.3151C1325.53 96.3451 1332.06 102.875 1340.09 102.875H1461.83C1469.86 102.875 1476.39 96.3451 1476.39 88.3151V54.5251C1476.39 46.4951 1469.86 39.9651 1461.83 39.9651Z" fill="#17536B"/>
<path d="M1348.42 58.2051L1351.66 78.0851L1354.66 58.2051H1360.78V86.2051H1356.62V66.1251L1353.58 86.2051H1349.42L1346.14 66.4051V86.2051H1342.3V58.2051H1348.42ZM1368.02 64.6451V79.7651C1368.02 81.7651 1368.9 82.5251 1370.3 82.5251C1371.7 82.5251 1372.58 81.7651 1372.58 79.7651V64.6451C1372.58 62.6451 1371.7 61.8851 1370.3 61.8851C1368.9 61.8851 1368.02 62.6451 1368.02 64.6451ZM1363.62 79.4851V64.9251C1363.62 60.4451 1365.98 57.8851 1370.3 57.8851C1374.62 57.8851 1376.98 60.4451 1376.98 64.9251V79.4851C1376.98 83.9651 1374.62 86.5251 1370.3 86.5251C1365.98 86.5251 1363.62 83.9651 1363.62 79.4851ZM1389.24 86.2051L1383.76 65.9251V86.2051H1379.8V58.2051H1385.32L1389.84 74.9651V58.2051H1393.76V86.2051H1389.24ZM1395.63 62.2051V58.2051H1409.23V62.2051H1404.63V86.2051H1400.23V62.2051H1395.63ZM1415.57 74.2051V86.2051H1411.17V58.2051H1415.57V70.2051H1420.57V58.2051H1425.05V86.2051H1420.57V74.2051H1415.57ZM1428.24 86.2051V58.2051H1432.64V82.2051H1439.88V86.2051H1428.24ZM1443.45 86.2051V76.9251L1437.89 58.2051H1442.49L1445.85 70.9651L1449.21 58.2051H1453.41L1447.85 76.9251V86.2051H1443.45Z" fill="#3B687A"/>
<path opacity="0.07" d="M1340.08 99.8751H1461.82C1468.21 99.8751 1473.38 94.6951 1473.38 88.3151V84.2751C1473.38 90.6651 1468.2 95.8351 1461.82 95.8351H1340.08C1333.69 95.8351 1328.52 90.6551 1328.52 84.2751V88.3151C1328.52 94.7051 1333.7 99.8751 1340.08 99.8751Z" fill="#C2FEFF"/>
<path d="M1630.86 37.2051H1505.15C1496.5 37.2051 1489.48 44.2208 1489.48 52.8751V96.1551C1489.48 104.809 1496.5 111.825 1505.15 111.825H1630.86C1639.51 111.825 1646.53 104.809 1646.53 96.1551V52.8751C1646.53 44.2208 1639.51 37.2051 1630.86 37.2051Z" fill="#00263D"/>
<path d="M1628.88 41.4651H1507.13C1499.92 41.4651 1494.07 47.3122 1494.07 54.5251V88.3151C1494.07 95.5279 1499.92 101.375 1507.13 101.375H1628.88C1636.09 101.375 1641.94 95.5279 1641.94 88.3151V54.5251C1641.94 47.3122 1636.09 41.4651 1628.88 41.4651Z" fill="#00354F"/>
<path d="M1628.88 42.9651C1635.27 42.9651 1640.44 48.1451 1640.44 54.5251V88.3151C1640.44 94.7051 1635.26 99.8751 1628.88 99.8751H1507.14C1500.75 99.8751 1495.58 94.6951 1495.58 88.3151V54.5251C1495.58 48.1351 1500.76 42.9651 1507.14 42.9651H1628.88ZM1628.88 39.9651H1507.14C1499.11 39.9651 1492.58 46.4951 1492.58 54.5251V88.3151C1492.58 96.3451 1499.11 102.875 1507.14 102.875H1628.88C1636.91 102.875 1643.44 96.3451 1643.44 88.3151V54.5251C1643.44 46.4951 1636.91 39.9651 1628.88 39.9651Z" fill="#17536B"/>
<path d="M1515.47 58.2051L1518.71 78.0851L1521.71 58.2051H1527.83V86.2051H1523.67V66.1251L1520.63 86.2051H1516.47L1513.19 66.4051V86.2051H1509.35V58.2051H1515.47ZM1535.07 64.6451V79.7651C1535.07 81.7651 1535.95 82.5251 1537.35 82.5251C1538.75 82.5251 1539.63 81.7651 1539.63 79.7651V64.6451C1539.63 62.6451 1538.75 61.8851 1537.35 61.8851C1535.95 61.8851 1535.07 62.6451 1535.07 64.6451ZM1530.67 79.4851V64.9251C1530.67 60.4451 1533.03 57.8851 1537.35 57.8851C1541.67 57.8851 1544.03 60.4451 1544.03 64.9251V79.4851C1544.03 83.9651 1541.67 86.5251 1537.35 86.5251C1533.03 86.5251 1530.67 83.9651 1530.67 79.4851ZM1556.29 86.2051L1550.81 65.9251V86.2051H1546.85V58.2051H1552.37L1556.89 74.9651V58.2051H1560.81V86.2051H1556.29ZM1562.68 62.2051V58.2051H1576.28V62.2051H1571.68V86.2051H1567.28V62.2051H1562.68ZM1582.62 74.2051V86.2051H1578.22V58.2051H1582.62V70.2051H1587.62V58.2051H1592.1V86.2051H1587.62V74.2051H1582.62ZM1595.29 86.2051V58.2051H1599.69V82.2051H1606.93V86.2051H1595.29ZM1610.5 86.2051V76.9251L1604.94 58.2051H1609.54L1612.9 70.9651L1616.26 58.2051H1620.46L1614.9 76.9251V86.2051H1610.5Z" fill="#3B687A"/>
<path opacity="0.07" d="M1507.13 99.8751H1628.87C1635.26 99.8751 1640.43 94.6951 1640.43 88.3151V84.2751C1640.43 90.6651 1635.25 95.8351 1628.87 95.8351H1507.13C1500.74 95.8351 1495.57 90.6551 1495.57 84.2751V88.3151C1495.57 94.7051 1500.75 99.8751 1507.13 99.8751Z" fill="#C2FEFF"/>
<path d="M1797.91 37.2051H1672.2C1663.55 37.2051 1656.53 44.2208 1656.53 52.8751V96.1551C1656.53 104.809 1663.55 111.825 1672.2 111.825H1797.91C1806.56 111.825 1813.58 104.809 1813.58 96.1551V52.8751C1813.58 44.2208 1806.56 37.2051 1797.91 37.2051Z" fill="#00263D"/>
<path d="M1795.93 41.4651H1674.18C1666.97 41.4651 1661.12 47.3122 1661.12 54.5251V88.3151C1661.12 95.5279 1666.97 101.375 1674.18 101.375H1795.93C1803.14 101.375 1808.99 95.5279 1808.99 88.3151V54.5251C1808.99 47.3122 1803.14 41.4651 1795.93 41.4651Z" fill="#00354F"/>
<path d="M1795.93 42.9651C1802.32 42.9651 1807.49 48.1451 1807.49 54.5251V88.3151C1807.49 94.7051 1802.31 99.8751 1795.93 99.8751H1674.19C1667.8 99.8751 1662.63 94.6951 1662.63 88.3151V54.5251C1662.63 48.1351 1667.81 42.9651 1674.19 42.9651H1795.93ZM1795.93 39.9651H1674.19C1666.16 39.9651 1659.63 46.4951 1659.63 54.5251V88.3151C1659.63 96.3451 1666.16 102.875 1674.19 102.875H1795.93C1803.96 102.875 1810.49 96.3451 1810.49 88.3151V54.5251C1810.49 46.4951 1803.96 39.9651 1795.93 39.9651Z" fill="#17536B"/>
<path d="M1679.78 86.2051V82.2051C1680.26 82.2451 1680.82 82.2451 1681.3 82.2451C1682.7 82.2451 1683.82 81.7251 1683.82 79.5651V58.2051H1688.22V79.2451C1688.22 84.8451 1685.22 86.2851 1681.9 86.2851C1681.1 86.2851 1680.5 86.2851 1679.78 86.2051ZM1700.97 58.2051L1705.45 86.2051H1701.01L1700.25 81.1251H1694.85L1694.09 86.2051H1690.05L1694.53 58.2051H1700.97ZM1697.53 63.1651L1695.41 77.3251H1699.65L1697.53 63.1651ZM1716.06 75.7651H1720.22V79.4851C1720.22 83.9651 1717.98 86.5251 1713.66 86.5251C1709.34 86.5251 1707.1 83.9651 1707.1 79.4851V64.9251C1707.1 60.4451 1709.34 57.8851 1713.66 57.8851C1717.98 57.8851 1720.22 60.4451 1720.22 64.9251V67.6451H1716.06V64.6451C1716.06 62.6451 1715.18 61.8851 1713.78 61.8851C1712.38 61.8851 1711.5 62.6451 1711.5 64.6451V79.7651C1711.5 81.7651 1712.38 82.4851 1713.78 82.4851C1715.18 82.4851 1716.06 81.7651 1716.06 79.7651V75.7651ZM1732.93 86.2051L1728.65 75.0451L1727.29 77.6051V86.2051H1722.89V58.2051H1727.29V70.4051L1733.05 58.2051H1737.45L1731.33 70.6851L1737.45 86.2051H1732.93ZM1745.94 58.2051C1750.34 58.2051 1752.5 60.6451 1752.5 65.1251V68.7651C1752.5 73.2451 1750.34 75.6851 1745.94 75.6851H1743.86V86.2051H1739.46V58.2051H1745.94ZM1745.94 62.2051H1743.86V71.6851H1745.94C1747.34 71.6851 1748.1 71.0451 1748.1 69.0451V64.8451C1748.1 62.8451 1747.34 62.2051 1745.94 62.2051ZM1758.57 64.6451V79.7651C1758.57 81.7651 1759.45 82.5251 1760.85 82.5251C1762.25 82.5251 1763.13 81.7651 1763.13 79.7651V64.6451C1763.13 62.6451 1762.25 61.8851 1760.85 61.8851C1759.45 61.8851 1758.57 62.6451 1758.57 64.6451ZM1754.17 79.4851V64.9251C1754.17 60.4451 1756.53 57.8851 1760.85 57.8851C1765.17 57.8851 1767.53 60.4451 1767.53 64.9251V79.4851C1767.53 83.9651 1765.17 86.5251 1760.85 86.5251C1756.53 86.5251 1754.17 83.9651 1754.17 79.4851ZM1769.11 62.2051V58.2051H1782.71V62.2051H1778.11V86.2051H1773.71V62.2051H1769.11Z" fill="#3B687A"/>
<path opacity="0.07" d="M1674.18 99.8751H1795.92C1802.31 99.8751 1807.48 94.6951 1807.48 88.3151V84.2751C1807.48 90.6651 1802.3 95.8351 1795.92 95.8351H1674.18C1667.79 95.8351 1662.62 90.6551 1662.62 84.2751V88.3151C1662.62 94.7051 1667.8 99.8751 1674.18 99.8751Z" fill="#C2FEFF"/>
<rect x="535" y="153" width="1295.34" height="713" rx="26" fill="#041E34"/>
<path d="M1796.17 183.31H579.1C574.036 183.31 569.93 187.415 569.93 192.48V237.32C569.93 242.384 574.036 246.49 579.1 246.49H1796.17C1801.23 246.49 1805.34 242.384 1805.34 237.32V192.48C1805.34 187.415 1801.23 183.31 1796.17 183.31Z" fill="url(#paint0_linear_215_238)"/>
<path d="M690.81 195.71C696.31 195.71 699.01 198.76 699.01 204.36V208.91C699.01 214.51 696.31 217.56 690.81 217.56H688.21V230.71H682.71V195.71H690.81ZM690.81 200.71H688.21V212.56H690.81C692.56 212.56 693.51 211.76 693.51 209.26V204.01C693.51 201.51 692.56 200.71 690.81 200.71ZM701.802 230.71V195.71H707.302V225.71H716.352V230.71H701.802ZM730.945 195.71L736.545 230.71H730.995L730.045 224.36H723.295L722.345 230.71H717.295L722.895 195.71H730.945ZM726.645 201.91L723.995 219.61H729.295L726.645 201.91ZM741.815 230.71V219.11L734.865 195.71H740.615L744.815 211.66L749.015 195.71H754.265L747.315 219.11V230.71H741.815ZM761.989 200.71V210.46H769.539V215.46H761.989V225.71H771.489V230.71H756.489V195.71H771.489V200.71H761.989ZM791.998 230.71H786.398C786.098 229.81 785.898 229.26 785.898 226.41V220.91C785.898 217.66 784.798 216.46 782.298 216.46H780.398V230.71H774.898V195.71H783.198C788.898 195.71 791.348 198.36 791.348 203.76V206.51C791.348 210.11 790.198 212.46 787.748 213.61C790.498 214.76 791.398 217.41 791.398 221.06V226.46C791.398 228.16 791.448 229.41 791.998 230.71ZM783.048 200.71H780.398V211.46H782.548C784.598 211.46 785.848 210.56 785.848 207.76V204.31C785.848 201.81 784.998 200.71 783.048 200.71ZM814.528 230.71L807.678 205.36V230.71H802.728V195.71H809.628L815.278 216.66V195.71H820.178V230.71H814.528ZM836.316 195.71L841.916 230.71H836.366L835.416 224.36H828.666L827.716 230.71H822.666L828.266 195.71H836.316ZM832.016 201.91L829.366 219.61H834.666L832.016 201.91ZM852.078 195.71L856.128 220.56L859.878 195.71H867.528V230.71H862.328V205.61L858.528 230.71H853.328L849.228 205.96V230.71H844.428V195.71H852.078ZM877.028 200.71V210.46H884.578V215.46H877.028V225.71H886.528V230.71H871.528V195.71H886.528V200.71H877.028Z" fill="white"/>
<path d="M600.52 255.04C622.899 255.04 641.04 236.899 641.04 214.52C641.04 192.141 622.899 174 600.52 174C578.141 174 560 192.141 560 214.52C560 236.899 578.141 255.04 600.52 255.04Z" fill="url(#paint1_linear_215_238)"/>
<path d="M600.477 249.475C619.807 249.475 635.477 233.805 635.477 214.475C635.477 195.145 619.807 179.475 600.477 179.475C581.147 179.475 565.477 195.145 565.477 214.475C565.477 233.805 581.147 249.475 600.477 249.475Z" fill="#7C2701"/>
<path d="M593.656 203.206V198.169H603.729V233.475H598.16V203.206H593.656Z" fill="white"/>
<path d="M1759.2 191.32H1617.69C1604.67 191.32 1594.11 201.875 1594.11 214.895C1594.11 227.915 1604.67 238.47 1617.69 238.47H1759.2C1772.22 238.47 1782.78 227.915 1782.78 214.895C1782.78 201.875 1772.22 191.32 1759.2 191.32Z" fill="#7A1329"/>
<path d="M1672.27 203.544V199.395H1680.57V228.475H1675.98V203.544H1672.27ZM1689.33 222.292C1691.88 220.085 1693.89 218.276 1695.35 216.867C1696.84 215.431 1698.08 213.942 1699.06 212.399C1700.05 210.857 1700.54 209.314 1700.54 207.772C1700.54 206.176 1700.15 204.926 1699.38 204.022C1698.64 203.118 1697.45 202.666 1695.83 202.666C1694.26 202.666 1693.04 203.171 1692.16 204.182C1691.31 205.166 1690.86 206.495 1690.81 208.171H1686.42C1686.5 205.139 1687.4 202.826 1689.13 201.23C1690.88 199.608 1693.11 198.797 1695.79 198.797C1698.69 198.797 1700.95 199.594 1702.57 201.19C1704.22 202.786 1705.05 204.913 1705.05 207.572C1705.05 209.487 1704.55 211.335 1703.57 213.117C1702.61 214.872 1701.46 216.455 1700.1 217.864C1698.77 219.247 1697.07 220.856 1694.99 222.691L1693.2 224.286H1705.84V228.076H1686.46V224.765L1689.33 222.292ZM1709.84 213.556C1709.84 208.955 1710.61 205.365 1712.15 202.786C1713.72 200.18 1716.41 198.876 1720.21 198.876C1724.01 198.876 1726.69 200.18 1728.23 202.786C1729.8 205.365 1730.58 208.955 1730.58 213.556C1730.58 218.21 1729.8 221.853 1728.23 224.486C1726.69 227.092 1724.01 228.395 1720.21 228.395C1716.41 228.395 1713.72 227.092 1712.15 224.486C1710.61 221.853 1709.84 218.21 1709.84 213.556ZM1726.11 213.556C1726.11 211.402 1725.97 209.58 1725.67 208.091C1725.41 206.602 1724.85 205.392 1724 204.461C1723.15 203.504 1721.89 203.025 1720.21 203.025C1718.53 203.025 1717.27 203.504 1716.42 204.461C1715.57 205.392 1715 206.602 1714.71 208.091C1714.44 209.58 1714.31 211.402 1714.31 213.556C1714.31 215.79 1714.44 217.665 1714.71 219.18C1714.97 220.696 1715.53 221.92 1716.38 222.85C1717.26 223.781 1718.53 224.247 1720.21 224.247C1721.89 224.247 1723.15 223.781 1724 222.85C1724.88 221.92 1725.45 220.696 1725.71 219.18C1725.98 217.665 1726.11 215.79 1726.11 213.556Z" fill="#FAFFFF"/>
<path d="M1632.05 211.85C1632.55 211.73 1632.86 211.22 1632.74 210.72C1632.62 210.22 1632.11 209.91 1631.61 210.03C1631.11 210.15 1630.8 210.66 1630.92 211.16C1631.04 211.66 1631.55 211.97 1632.05 211.85Z" fill="#00D6EE"/>
<path d="M1622.57 194.34H1619.55C1608.2 194.34 1599 203.54 1599 214.89C1599 226.24 1608.2 235.44 1619.55 235.44H1622.57C1633.92 235.44 1643.12 226.24 1643.12 214.89C1643.12 203.54 1633.92 194.34 1622.57 194.34ZM1626.14 220.67C1624.73 223.18 1622.27 225.06 1619.29 225.66C1619.86 224.45 1620.16 223.58 1620.29 222.2C1621.39 222.24 1622.62 222.02 1624.02 220.98C1621.08 221.9 1618.02 220.7 1614.48 219.37C1610.71 217.81 1611.94 223.25 1606.86 224.82C1607.9 222.51 1605.04 220.85 1608.66 217.93C1604.32 217.13 1605.19 213.36 1603.21 211.77C1608.2 211.05 1610.04 216.83 1613.16 213.88C1614.8 212.33 1616.33 210.71 1618.09 209.5C1617.19 207.66 1615.96 206.05 1614.48 204.75C1618.37 203.92 1622.29 204.95 1625.23 207.3C1629.7 207.07 1634 208.44 1637.46 211C1635.74 214.65 1633.33 218.25 1626.12 220.66L1626.14 220.67Z" fill="#FCB200"/>
<g clip-path="url(#clip1_215_238)">
<path d="M1796.17 269.04H579.1C574.036 269.04 569.93 273.146 569.93 278.21V323.05C569.93 328.114 574.036 332.22 579.1 332.22H1796.17C1801.23 332.22 1805.34 328.114 1805.34 323.05V278.21C1805.34 273.146 1801.23 269.04 1796.17 269.04Z" fill="#89C4CE"/>
<path d="M625.28 271.89H580.96C576.52 271.89 572.92 275.49 572.92 279.93V321.33C572.92 325.771 576.52 329.37 580.96 329.37H625.28C629.72 329.37 633.32 325.771 633.32 321.33V279.93C633.32 275.49 629.72 271.89 625.28 271.89Z" fill="#0A2A3F"/>
<path d="M594.516 312.086C596.813 310.099 598.62 308.472 599.937 307.203C601.277 305.911 602.39 304.571 603.275 303.182C604.161 301.794 604.604 300.406 604.604 299.018C604.604 297.582 604.257 296.457 603.563 295.643C602.892 294.83 601.827 294.423 600.367 294.423C598.955 294.423 597.854 294.878 597.065 295.787C596.299 296.673 595.892 297.869 595.844 299.377H591.895C591.967 296.649 592.781 294.566 594.336 293.13C595.916 291.671 597.914 290.941 600.332 290.941C602.94 290.941 604.975 291.659 606.435 293.095C607.918 294.531 608.66 296.445 608.66 298.839C608.66 300.562 608.218 302.225 607.332 303.829C606.47 305.408 605.429 306.832 604.209 308.101C603.012 309.345 601.48 310.793 599.614 312.445L597.998 313.881H609.378V317.291H591.931V314.311L594.516 312.086Z" fill="#B8F8FF"/>
<path d="M1759.2 277.05H1617.69C1604.67 277.05 1594.11 287.605 1594.11 300.625C1594.11 313.645 1604.67 324.2 1617.69 324.2H1759.2C1772.22 324.2 1782.78 313.645 1782.78 300.625C1782.78 287.605 1772.22 277.05 1759.2 277.05Z" fill="#0A2A3F"/>
<path d="M1672.14 290.279V286.13H1680.43V315.21H1675.84V290.279H1672.14ZM1689.19 309.027C1691.75 306.82 1693.75 305.011 1695.22 303.602C1696.71 302.166 1697.94 300.677 1698.93 299.134C1699.91 297.592 1700.4 296.049 1700.4 294.507C1700.4 292.911 1700.02 291.662 1699.24 290.757C1698.5 289.853 1697.32 289.401 1695.69 289.401C1694.13 289.401 1692.9 289.906 1692.02 290.917C1691.17 291.901 1690.72 293.231 1690.67 294.906H1686.28C1686.36 291.874 1687.26 289.561 1688.99 287.965C1690.75 286.343 1692.97 285.532 1695.65 285.532C1698.55 285.532 1700.81 286.33 1702.44 287.925C1704.08 289.521 1704.91 291.648 1704.91 294.308C1704.91 296.222 1704.42 298.071 1703.43 299.852C1702.48 301.607 1701.32 303.19 1699.96 304.599C1698.63 305.982 1696.93 307.591 1694.86 309.426L1693.06 311.022H1705.71V314.811H1686.32V311.5L1689.19 309.027ZM1709.7 300.291C1709.7 295.69 1710.47 292.1 1712.02 289.521C1713.58 286.915 1716.27 285.612 1720.07 285.612C1723.88 285.612 1726.55 286.915 1728.09 289.521C1729.66 292.1 1730.44 295.69 1730.44 300.291C1730.44 304.945 1729.66 308.588 1728.09 311.221C1726.55 313.827 1723.88 315.13 1720.07 315.13C1716.27 315.13 1713.58 313.827 1712.02 311.221C1710.47 308.588 1709.7 304.945 1709.7 300.291ZM1725.98 300.291C1725.98 298.137 1725.83 296.315 1725.54 294.826C1725.27 293.337 1724.71 292.127 1723.86 291.196C1723.01 290.239 1721.75 289.76 1720.07 289.76C1718.4 289.76 1717.13 290.239 1716.28 291.196C1715.43 292.127 1714.86 293.337 1714.57 294.826C1714.3 296.315 1714.17 298.137 1714.17 300.291C1714.17 302.525 1714.3 304.4 1714.57 305.916C1714.83 307.431 1715.39 308.655 1716.24 309.585C1717.12 310.516 1718.4 310.982 1720.07 310.982C1721.75 310.982 1723.01 310.516 1723.86 309.585C1724.74 308.655 1725.31 307.431 1725.58 305.916C1725.84 304.4 1725.98 302.525 1725.98 300.291Z" fill="#FAFFFF"/>
<path d="M1632.05 297.58C1632.55 297.46 1632.86 296.95 1632.74 296.45C1632.62 295.95 1632.11 295.64 1631.61 295.76C1631.11 295.88 1630.8 296.39 1630.92 296.89C1631.04 297.39 1631.55 297.7 1632.05 297.58Z" fill="#00D6EE"/>
<path d="M1622.57 280.08H1619.55C1608.2 280.08 1599 289.28 1599 300.63C1599 311.98 1608.2 321.18 1619.55 321.18H1622.57C1633.92 321.18 1643.12 311.98 1643.12 300.63C1643.12 289.28 1633.92 280.08 1622.57 280.08ZM1626.14 306.41C1624.73 308.92 1622.27 310.8 1619.29 311.4C1619.86 310.19 1620.16 309.32 1620.29 307.94C1621.39 307.98 1622.62 307.76 1624.02 306.72C1621.08 307.64 1618.02 306.44 1614.48 305.11C1610.71 303.55 1611.94 308.99 1606.86 310.56C1607.9 308.25 1605.04 306.59 1608.66 303.67C1604.32 302.87 1605.19 299.1 1603.21 297.51C1608.2 296.79 1610.04 302.57 1613.16 299.62C1614.8 298.07 1616.33 296.45 1618.09 295.24C1617.19 293.4 1615.96 291.79 1614.48 290.49C1618.37 289.66 1622.29 290.69 1625.23 293.04C1629.7 292.81 1634 294.18 1637.46 296.74C1635.74 300.39 1633.33 303.99 1626.12 306.4L1626.14 306.41Z" fill="#00D6EE"/>
<path d="M684.57 285.04C690.07 285.04 692.77 288.09 692.77 293.69V298.24C692.77 303.84 690.07 306.89 684.57 306.89H681.97V320.04H676.47V285.04H684.57ZM684.57 290.04H681.97V301.89H684.57C686.32 301.89 687.27 301.09 687.27 298.59V293.34C687.27 290.84 686.32 290.04 684.57 290.04ZM695.562 320.04V285.04H701.062V315.04H710.112V320.04H695.562ZM724.705 285.04L730.305 320.04H724.755L723.805 313.69H717.055L716.105 320.04H711.055L716.655 285.04H724.705ZM720.405 291.24L717.755 308.94H723.055L720.405 291.24ZM735.575 320.04V308.44L728.625 285.04H734.375L738.575 300.99L742.775 285.04H748.025L741.075 308.44V320.04H735.575ZM755.749 290.04V299.79H763.299V304.79H755.749V315.04H765.249V320.04H750.249V285.04H765.249V290.04H755.749ZM785.758 320.04H780.158C779.858 319.14 779.658 318.59 779.658 315.74V310.24C779.658 306.99 778.558 305.79 776.058 305.79H774.158V320.04H768.658V285.04H776.958C782.658 285.04 785.108 287.69 785.108 293.09V295.84C785.108 299.44 783.958 301.79 781.508 302.94C784.258 304.09 785.158 306.74 785.158 310.39V315.79C785.158 317.49 785.208 318.74 785.758 320.04ZM776.808 290.04H774.158V300.79H776.308C778.358 300.79 779.608 299.89 779.608 297.09V293.64C779.608 291.14 778.758 290.04 776.808 290.04ZM808.288 320.04L801.438 294.69V320.04H796.488V285.04H803.388L809.038 305.99V285.04H813.938V320.04H808.288ZM830.076 285.04L835.676 320.04H830.126L829.176 313.69H822.426L821.476 320.04H816.426L822.026 285.04H830.076ZM825.776 291.24L823.126 308.94H828.426L825.776 291.24ZM845.838 285.04L849.888 309.89L853.638 285.04H861.288V320.04H856.088V294.94L852.288 320.04H847.088L842.988 295.29V320.04H838.188V285.04H845.838ZM870.788 290.04V299.79H878.338V304.79H870.788V315.04H880.288V320.04H865.288V285.04H880.288V290.04H870.788Z" fill="#0A2A3F"/>
</g>
<g clip-path="url(#clip2_215_238)">
<path d="M1796.17 353.32H579.1C574.036 353.32 569.93 357.426 569.93 362.49V407.33C569.93 412.395 574.036 416.5 579.1 416.5H1796.17C1801.23 416.5 1805.34 412.395 1805.34 407.33V362.49C1805.34 357.426 1801.23 353.32 1796.17 353.32Z" fill="#89C4CE"/>
<path d="M625.28 356.17H580.96C576.52 356.17 572.92 359.77 572.92 364.21V405.61C572.92 410.051 576.52 413.65 580.96 413.65H625.28C629.72 413.65 633.32 410.051 633.32 405.61V364.21C633.32 359.77 629.72 356.17 625.28 356.17Z" fill="#0A2A3F"/>
<path d="M594.516 396.366C596.813 394.379 598.62 392.752 599.937 391.483C601.277 390.191 602.39 388.851 603.275 387.462C604.161 386.074 604.604 384.686 604.604 383.298C604.604 381.862 604.257 380.737 603.563 379.923C602.892 379.11 601.827 378.703 600.367 378.703C598.955 378.703 597.854 379.158 597.065 380.067C596.299 380.953 595.892 382.149 595.844 383.657H591.895C591.967 380.929 592.781 378.846 594.336 377.41C595.916 375.951 597.914 375.221 600.332 375.221C602.94 375.221 604.975 375.939 606.435 377.375C607.918 378.811 608.66 380.725 608.66 383.119C608.66 384.842 608.218 386.505 607.332 388.109C606.47 389.688 605.429 391.112 604.209 392.381C603.012 393.625 601.48 395.073 599.614 396.725L597.998 398.161H609.378V401.571H591.931V398.591L594.516 396.366Z" fill="#B8F8FF"/>
<path d="M1759.2 361.33H1617.69C1604.67 361.33 1594.11 371.885 1594.11 384.905C1594.11 397.925 1604.67 408.48 1617.69 408.48H1759.2C1772.22 408.48 1782.78 397.925 1782.78 384.905C1782.78 371.885 1772.22 361.33 1759.2 361.33Z" fill="#0A2A3F"/>
<path d="M1672.14 374.559V370.41H1680.43V399.49H1675.84V374.559H1672.14ZM1689.19 393.307C1691.75 391.1 1693.75 389.291 1695.22 387.882C1696.71 386.446 1697.94 384.957 1698.93 383.414C1699.91 381.872 1700.4 380.329 1700.4 378.787C1700.4 377.191 1700.02 375.942 1699.24 375.037C1698.5 374.133 1697.32 373.681 1695.69 373.681C1694.13 373.681 1692.9 374.186 1692.02 375.197C1691.17 376.181 1690.72 377.511 1690.67 379.186H1686.28C1686.36 376.154 1687.26 373.841 1688.99 372.245C1690.75 370.623 1692.97 369.812 1695.65 369.812C1698.55 369.812 1700.81 370.61 1702.44 372.205C1704.08 373.801 1704.91 375.928 1704.91 378.588C1704.91 380.502 1704.42 382.351 1703.43 384.132C1702.48 385.888 1701.32 387.47 1699.96 388.879C1698.63 390.262 1696.93 391.871 1694.86 393.706L1693.06 395.302H1705.71V399.091H1686.32V395.78L1689.19 393.307ZM1709.7 384.571C1709.7 379.97 1710.47 376.38 1712.02 373.801C1713.58 371.195 1716.27 369.892 1720.07 369.892C1723.88 369.892 1726.55 371.195 1728.09 373.801C1729.66 376.38 1730.44 379.97 1730.44 384.571C1730.44 389.225 1729.66 392.868 1728.09 395.501C1726.55 398.107 1723.88 399.41 1720.07 399.41C1716.27 399.41 1713.58 398.107 1712.02 395.501C1710.47 392.868 1709.7 389.225 1709.7 384.571ZM1725.98 384.571C1725.98 382.417 1725.83 380.595 1725.54 379.106C1725.27 377.617 1724.71 376.407 1723.86 375.476C1723.01 374.519 1721.75 374.04 1720.07 374.04C1718.4 374.04 1717.13 374.519 1716.28 375.476C1715.43 376.407 1714.86 377.617 1714.57 379.106C1714.3 380.595 1714.17 382.417 1714.17 384.571C1714.17 386.805 1714.3 388.68 1714.57 390.196C1714.83 391.711 1715.39 392.935 1716.24 393.866C1717.12 394.796 1718.4 395.262 1720.07 395.262C1721.75 395.262 1723.01 394.796 1723.86 393.866C1724.74 392.935 1725.31 391.711 1725.58 390.196C1725.84 388.68 1725.98 386.805 1725.98 384.571Z" fill="#FAFFFF"/>
<path d="M1632.05 381.86C1632.55 381.74 1632.86 381.23 1632.74 380.73C1632.62 380.23 1632.11 379.92 1631.61 380.04C1631.11 380.16 1630.8 380.67 1630.92 381.17C1631.04 381.67 1631.55 381.98 1632.05 381.86Z" fill="#00D6EE"/>
<path d="M1622.57 364.36H1619.55C1608.2 364.36 1599 373.56 1599 384.91C1599 396.26 1608.2 405.46 1619.55 405.46H1622.57C1633.92 405.46 1643.12 396.26 1643.12 384.91C1643.12 373.56 1633.92 364.36 1622.57 364.36ZM1626.14 390.69C1624.73 393.2 1622.27 395.08 1619.29 395.68C1619.86 394.47 1620.16 393.6 1620.29 392.22C1621.39 392.26 1622.62 392.04 1624.02 391C1621.08 391.92 1618.02 390.72 1614.48 389.39C1610.71 387.83 1611.94 393.27 1606.86 394.84C1607.9 392.53 1605.04 390.87 1608.66 387.95C1604.32 387.15 1605.19 383.38 1603.21 381.79C1608.2 381.07 1610.04 386.85 1613.16 383.9C1614.8 382.35 1616.33 380.73 1618.09 379.52C1617.19 377.68 1615.96 376.07 1614.48 374.77C1618.37 373.94 1622.29 374.97 1625.23 377.32C1629.7 377.09 1634 378.46 1637.46 381.02C1635.74 384.67 1633.33 388.27 1626.12 390.68L1626.14 390.69Z" fill="#00D6EE"/>
<path d="M684.57 369.32C690.07 369.32 692.77 372.37 692.77 377.97V382.52C692.77 388.12 690.07 391.17 684.57 391.17H681.97V404.32H676.47V369.32H684.57ZM684.57 374.32H681.97V386.17H684.57C686.32 386.17 687.27 385.37 687.27 382.87V377.62C687.27 375.12 686.32 374.32 684.57 374.32ZM695.562 404.32V369.32H701.062V399.32H710.112V404.32H695.562ZM724.705 369.32L730.305 404.32H724.755L723.805 397.97H717.055L716.105 404.32H711.055L716.655 369.32H724.705ZM720.405 375.52L717.755 393.22H723.055L720.405 375.52ZM735.575 404.32V392.72L728.625 369.32H734.375L738.575 385.27L742.775 369.32H748.025L741.075 392.72V404.32H735.575ZM755.749 374.32V384.07H763.299V389.07H755.749V399.32H765.249V404.32H750.249V369.32H765.249V374.32H755.749ZM785.758 404.32H780.158C779.858 403.42 779.658 402.87 779.658 400.02V394.52C779.658 391.27 778.558 390.07 776.058 390.07H774.158V404.32H768.658V369.32H776.958C782.658 369.32 785.108 371.97 785.108 377.37V380.12C785.108 383.72 783.958 386.07 781.508 387.22C784.258 388.37 785.158 391.02 785.158 394.67V400.07C785.158 401.77 785.208 403.02 785.758 404.32ZM776.808 374.32H774.158V385.07H776.308C778.358 385.07 779.608 384.17 779.608 381.37V377.92C779.608 375.42 778.758 374.32 776.808 374.32ZM808.288 404.32L801.438 378.97V404.32H796.488V369.32H803.388L809.038 390.27V369.32H813.938V404.32H808.288ZM830.076 369.32L835.676 404.32H830.126L829.176 397.97H822.426L821.476 404.32H816.426L822.026 369.32H830.076ZM825.776 375.52L823.126 393.22H828.426L825.776 375.52ZM845.838 369.32L849.888 394.17L853.638 369.32H861.288V404.32H856.088V379.22L852.288 404.32H847.088L842.988 379.57V404.32H838.188V369.32H845.838ZM870.788 374.32V384.07H878.338V389.07H870.788V399.32H880.288V404.32H865.288V369.32H880.288V374.32H870.788Z" fill="#0A2A3F"/>
</g>
<g clip-path="url(#clip3_215_238)">
<path d="M1796.17 437.6H579.1C574.036 437.6 569.93 441.706 569.93 446.77V491.61C569.93 496.675 574.036 500.78 579.1 500.78H1796.17C1801.23 500.78 1805.34 496.675 1805.34 491.61V446.77C1805.34 441.706 1801.23 437.6 1796.17 437.6Z" fill="#89C4CE"/>
<path d="M625.28 440.45H580.96C576.52 440.45 572.92 444.05 572.92 448.49V489.89C572.92 494.331 576.52 497.93 580.96 497.93H625.28C629.72 497.93 633.32 494.331 633.32 489.89V448.49C633.32 444.05 629.72 440.45 625.28 440.45Z" fill="#0A2A3F"/>
<path d="M594.516 480.646C596.813 478.659 598.62 477.032 599.937 475.763C601.277 474.471 602.39 473.131 603.275 471.743C604.161 470.354 604.604 468.966 604.604 467.578C604.604 466.142 604.257 465.017 603.563 464.204C602.892 463.39 601.827 462.983 600.367 462.983C598.955 462.983 597.854 463.438 597.065 464.347C596.299 465.233 595.892 466.429 595.844 467.937H591.895C591.967 465.209 592.781 463.127 594.336 461.691C595.916 460.231 597.914 459.501 600.332 459.501C602.94 459.501 604.975 460.219 606.435 461.655C607.918 463.091 608.66 465.005 608.66 467.399C608.66 469.122 608.218 470.785 607.332 472.389C606.47 473.968 605.429 475.392 604.209 476.661C603.012 477.905 601.48 479.353 599.614 481.005L597.998 482.441H609.378V485.851H591.931V482.872L594.516 480.646Z" fill="#B8F8FF"/>
<path d="M1759.2 445.61H1617.69C1604.67 445.61 1594.11 456.165 1594.11 469.185C1594.11 482.205 1604.67 492.76 1617.69 492.76H1759.2C1772.22 492.76 1782.78 482.205 1782.78 469.185C1782.78 456.165 1772.22 445.61 1759.2 445.61Z" fill="#0A2A3F"/>
<path d="M1672.14 458.839V454.69H1680.43V483.77H1675.84V458.839H1672.14ZM1689.19 477.587C1691.75 475.38 1693.75 473.571 1695.22 472.162C1696.71 470.726 1697.94 469.237 1698.93 467.694C1699.91 466.152 1700.4 464.61 1700.4 463.067C1700.4 461.472 1700.02 460.222 1699.24 459.317C1698.5 458.413 1697.32 457.961 1695.69 457.961C1694.13 457.961 1692.9 458.466 1692.02 459.477C1691.17 460.461 1690.72 461.791 1690.67 463.466H1686.28C1686.36 460.434 1687.26 458.121 1688.99 456.525C1690.75 454.903 1692.97 454.092 1695.65 454.092C1698.55 454.092 1700.81 454.89 1702.44 456.485C1704.08 458.081 1704.91 460.208 1704.91 462.868C1704.91 464.782 1704.42 466.631 1703.43 468.412C1702.48 470.168 1701.32 471.75 1699.96 473.159C1698.63 474.542 1696.93 476.151 1694.86 477.986L1693.06 479.582H1705.71V483.371H1686.32V480.06L1689.19 477.587ZM1709.7 468.851C1709.7 464.251 1710.47 460.66 1712.02 458.081C1713.58 455.475 1716.27 454.172 1720.07 454.172C1723.88 454.172 1726.55 455.475 1728.09 458.081C1729.66 460.66 1730.44 464.251 1730.44 468.851C1730.44 473.505 1729.66 477.148 1728.09 479.781C1726.55 482.387 1723.88 483.69 1720.07 483.69C1716.27 483.69 1713.58 482.387 1712.02 479.781C1710.47 477.148 1709.7 473.505 1709.7 468.851ZM1725.98 468.851C1725.98 466.697 1725.83 464.875 1725.54 463.386C1725.27 461.897 1724.71 460.687 1723.86 459.756C1723.01 458.799 1721.75 458.32 1720.07 458.32C1718.4 458.32 1717.13 458.799 1716.28 459.756C1715.43 460.687 1714.86 461.897 1714.57 463.386C1714.3 464.875 1714.17 466.697 1714.17 468.851C1714.17 471.085 1714.3 472.96 1714.57 474.476C1714.83 475.991 1715.39 477.215 1716.24 478.146C1717.12 479.076 1718.4 479.542 1720.07 479.542C1721.75 479.542 1723.01 479.076 1723.86 478.146C1724.74 477.215 1725.31 475.991 1725.58 474.476C1725.84 472.96 1725.98 471.085 1725.98 468.851Z" fill="#FAFFFF"/>
<path d="M1632.05 466.14C1632.55 466.02 1632.86 465.51 1632.74 465.01C1632.62 464.51 1632.11 464.2 1631.61 464.32C1631.11 464.44 1630.8 464.95 1630.92 465.45C1631.04 465.95 1631.55 466.26 1632.05 466.14Z" fill="#00D6EE"/>
<path d="M1622.57 448.64H1619.55C1608.2 448.64 1599 457.84 1599 469.19C1599 480.54 1608.2 489.74 1619.55 489.74H1622.57C1633.92 489.74 1643.12 480.54 1643.12 469.19C1643.12 457.84 1633.92 448.64 1622.57 448.64ZM1626.14 474.97C1624.73 477.48 1622.27 479.36 1619.29 479.96C1619.86 478.75 1620.16 477.88 1620.29 476.5C1621.39 476.54 1622.62 476.32 1624.02 475.28C1621.08 476.2 1618.02 475 1614.48 473.67C1610.71 472.11 1611.94 477.55 1606.86 479.12C1607.9 476.81 1605.04 475.15 1608.66 472.23C1604.32 471.43 1605.19 467.66 1603.21 466.07C1608.2 465.35 1610.04 471.13 1613.16 468.18C1614.8 466.63 1616.33 465.01 1618.09 463.8C1617.19 461.96 1615.96 460.35 1614.48 459.05C1618.37 458.22 1622.29 459.25 1625.23 461.6C1629.7 461.37 1634 462.74 1637.46 465.3C1635.74 468.95 1633.33 472.55 1626.12 474.96L1626.14 474.97Z" fill="#00D6EE"/>
<path d="M684.57 453.6C690.07 453.6 692.77 456.65 692.77 462.25V466.8C692.77 472.4 690.07 475.45 684.57 475.45H681.97V488.6H676.47V453.6H684.57ZM684.57 458.6H681.97V470.45H684.57C686.32 470.45 687.27 469.65 687.27 467.15V461.9C687.27 459.4 686.32 458.6 684.57 458.6ZM695.562 488.6V453.6H701.062V483.6H710.112V488.6H695.562ZM724.705 453.6L730.305 488.6H724.755L723.805 482.25H717.055L716.105 488.6H711.055L716.655 453.6H724.705ZM720.405 459.8L717.755 477.5H723.055L720.405 459.8ZM735.575 488.6V477L728.625 453.6H734.375L738.575 469.55L742.775 453.6H748.025L741.075 477V488.6H735.575ZM755.749 458.6V468.35H763.299V473.35H755.749V483.6H765.249V488.6H750.249V453.6H765.249V458.6H755.749ZM785.758 488.6H780.158C779.858 487.7 779.658 487.15 779.658 484.3V478.8C779.658 475.55 778.558 474.35 776.058 474.35H774.158V488.6H768.658V453.6H776.958C782.658 453.6 785.108 456.25 785.108 461.65V464.4C785.108 468 783.958 470.35 781.508 471.5C784.258 472.65 785.158 475.3 785.158 478.95V484.35C785.158 486.05 785.208 487.3 785.758 488.6ZM776.808 458.6H774.158V469.35H776.308C778.358 469.35 779.608 468.45 779.608 465.65V462.2C779.608 459.7 778.758 458.6 776.808 458.6ZM808.288 488.6L801.438 463.25V488.6H796.488V453.6H803.388L809.038 474.55V453.6H813.938V488.6H808.288ZM830.076 453.6L835.676 488.6H830.126L829.176 482.25H822.426L821.476 488.6H816.426L822.026 453.6H830.076ZM825.776 459.8L823.126 477.5H828.426L825.776 459.8ZM845.838 453.6L849.888 478.45L853.638 453.6H861.288V488.6H856.088V463.5L852.288 488.6H847.088L842.988 463.85V488.6H838.188V453.6H845.838ZM870.788 458.6V468.35H878.338V473.35H870.788V483.6H880.288V488.6H865.288V453.6H880.288V458.6H870.788Z" fill="#0A2A3F"/>
</g>
<g clip-path="url(#clip4_215_238)">
<path d="M1796.17 521.88H579.1C574.036 521.88 569.93 525.985 569.93 531.05V575.89C569.93 580.954 574.036 585.06 579.1 585.06H1796.17C1801.23 585.06 1805.34 580.954 1805.34 575.89V531.05C1805.34 525.985 1801.23 521.88 1796.17 521.88Z" fill="#89C4CE"/>
<path d="M625.28 524.73H580.96C576.52 524.73 572.92 528.33 572.92 532.77V574.17C572.92 578.61 576.52 582.21 580.96 582.21H625.28C629.72 582.21 633.32 578.61 633.32 574.17V532.77C633.32 528.33 629.72 524.73 625.28 524.73Z" fill="#0A2A3F"/>
<path d="M594.516 564.925C596.813 562.939 598.62 561.312 599.937 560.043C601.277 558.751 602.39 557.41 603.275 556.022C604.161 554.634 604.604 553.246 604.604 551.858C604.604 550.422 604.257 549.297 603.563 548.483C602.892 547.67 601.827 547.263 600.367 547.263C598.955 547.263 597.854 547.717 597.065 548.627C596.299 549.512 595.892 550.709 595.844 552.217H591.895C591.967 549.488 592.781 547.406 594.336 545.97C595.916 544.51 597.914 543.78 600.332 543.78C602.94 543.78 604.975 544.498 606.435 545.934C607.918 547.37 608.66 549.285 608.66 551.678C608.66 553.402 608.218 555.065 607.332 556.668C606.47 558.248 605.429 559.672 604.209 560.941C603.012 562.185 601.48 563.633 599.614 565.284L597.998 566.72H609.378V570.131H591.931V567.151L594.516 564.925Z" fill="#B8F8FF"/>
<path d="M1759.2 529.89H1617.69C1604.67 529.89 1594.11 540.445 1594.11 553.465C1594.11 566.485 1604.67 577.04 1617.69 577.04H1759.2C1772.22 577.04 1782.78 566.485 1782.78 553.465C1782.78 540.445 1772.22 529.89 1759.2 529.89Z" fill="#0A2A3F"/>
<path d="M1672.14 543.119V538.97H1680.43V568.05H1675.84V543.119H1672.14ZM1689.19 561.867C1691.75 559.66 1693.75 557.851 1695.22 556.442C1696.71 555.006 1697.94 553.517 1698.93 551.974C1699.91 550.432 1700.4 548.889 1700.4 547.347C1700.4 545.751 1700.02 544.501 1699.24 543.597C1698.5 542.693 1697.32 542.241 1695.69 542.241C1694.13 542.241 1692.9 542.746 1692.02 543.757C1691.17 544.741 1690.72 546.07 1690.67 547.746H1686.28C1686.36 544.714 1687.26 542.401 1688.99 540.805C1690.75 539.183 1692.97 538.372 1695.65 538.372C1698.55 538.372 1700.81 539.169 1702.44 540.765C1704.08 542.361 1704.91 544.488 1704.91 547.147C1704.91 549.062 1704.42 550.91 1703.43 552.692C1702.48 554.447 1701.32 556.03 1699.96 557.439C1698.63 558.822 1696.93 560.431 1694.86 562.266L1693.06 563.861H1705.71V567.651H1686.32V564.34L1689.19 561.867ZM1709.7 553.131C1709.7 548.53 1710.47 544.94 1712.02 542.361C1713.58 539.754 1716.27 538.451 1720.07 538.451C1723.88 538.451 1726.55 539.754 1728.09 542.361C1729.66 544.94 1730.44 548.53 1730.44 553.131C1730.44 557.785 1729.66 561.428 1728.09 564.061C1726.55 566.667 1723.88 567.97 1720.07 567.97C1716.27 567.97 1713.58 566.667 1712.02 564.061C1710.47 561.428 1709.7 557.785 1709.7 553.131ZM1725.98 553.131C1725.98 550.977 1725.83 549.155 1725.54 547.666C1725.27 546.177 1724.71 544.967 1723.86 544.036C1723.01 543.079 1721.75 542.6 1720.07 542.6C1718.4 542.6 1717.13 543.079 1716.28 544.036C1715.43 544.967 1714.86 546.177 1714.57 547.666C1714.3 549.155 1714.17 550.977 1714.17 553.131C1714.17 555.365 1714.3 557.24 1714.57 558.755C1714.83 560.271 1715.39 561.495 1716.24 562.425C1717.12 563.356 1718.4 563.821 1720.07 563.821C1721.75 563.821 1723.01 563.356 1723.86 562.425C1724.74 561.495 1725.31 560.271 1725.58 558.755C1725.84 557.24 1725.98 555.365 1725.98 553.131Z" fill="#FAFFFF"/>
<path d="M1632.05 550.42C1632.55 550.3 1632.86 549.79 1632.74 549.29C1632.62 548.79 1632.11 548.48 1631.61 548.6C1631.11 548.72 1630.8 549.23 1630.92 549.73C1631.04 550.23 1631.55 550.54 1632.05 550.42Z" fill="#00D6EE"/>
<path d="M1622.57 532.92H1619.55C1608.2 532.92 1599 542.12 1599 553.47C1599 564.82 1608.2 574.02 1619.55 574.02H1622.57C1633.92 574.02 1643.12 564.82 1643.12 553.47C1643.12 542.12 1633.92 532.92 1622.57 532.92ZM1626.14 559.25C1624.73 561.76 1622.27 563.64 1619.29 564.24C1619.86 563.03 1620.16 562.16 1620.29 560.78C1621.39 560.82 1622.62 560.6 1624.02 559.56C1621.08 560.48 1618.02 559.28 1614.48 557.95C1610.71 556.39 1611.94 561.83 1606.86 563.4C1607.9 561.09 1605.04 559.43 1608.66 556.51C1604.32 555.71 1605.19 551.94 1603.21 550.35C1608.2 549.63 1610.04 555.41 1613.16 552.46C1614.8 550.91 1616.33 549.29 1618.09 548.08C1617.19 546.24 1615.96 544.63 1614.48 543.33C1618.37 542.5 1622.29 543.53 1625.23 545.88C1629.7 545.65 1634 547.02 1637.46 549.58C1635.74 553.23 1633.33 556.83 1626.12 559.24L1626.14 559.25Z" fill="#00D6EE"/>
<path d="M684.57 537.88C690.07 537.88 692.77 540.93 692.77 546.53V551.08C692.77 556.68 690.07 559.73 684.57 559.73H681.97V572.88H676.47V537.88H684.57ZM684.57 542.88H681.97V554.73H684.57C686.32 554.73 687.27 553.93 687.27 551.43V546.18C687.27 543.68 686.32 542.88 684.57 542.88ZM695.562 572.88V537.88H701.062V567.88H710.112V572.88H695.562ZM724.705 537.88L730.305 572.88H724.755L723.805 566.53H717.055L716.105 572.88H711.055L716.655 537.88H724.705ZM720.405 544.08L717.755 561.78H723.055L720.405 544.08ZM735.575 572.88V561.28L728.625 537.88H734.375L738.575 553.83L742.775 537.88H748.025L741.075 561.28V572.88H735.575ZM755.749 542.88V552.63H763.299V557.63H755.749V567.88H765.249V572.88H750.249V537.88H765.249V542.88H755.749ZM785.758 572.88H780.158C779.858 571.98 779.658 571.43 779.658 568.58V563.08C779.658 559.83 778.558 558.63 776.058 558.63H774.158V572.88H768.658V537.88H776.958C782.658 537.88 785.108 540.53 785.108 545.93V548.68C785.108 552.28 783.958 554.63 781.508 555.78C784.258 556.93 785.158 559.58 785.158 563.23V568.63C785.158 570.33 785.208 571.58 785.758 572.88ZM776.808 542.88H774.158V553.63H776.308C778.358 553.63 779.608 552.73 779.608 549.93V546.48C779.608 543.98 778.758 542.88 776.808 542.88ZM808.288 572.88L801.438 547.53V572.88H796.488V537.88H803.388L809.038 558.83V537.88H813.938V572.88H808.288ZM830.076 537.88L835.676 572.88H830.126L829.176 566.53H822.426L821.476 572.88H816.426L822.026 537.88H830.076ZM825.776 544.08L823.126 561.78H828.426L825.776 544.08ZM845.838 537.88L849.888 562.73L853.638 537.88H861.288V572.88H856.088V547.78L852.288 572.88H847.088L842.988 548.13V572.88H838.188V537.88H845.838ZM870.788 542.88V552.63H878.338V557.63H870.788V567.88H880.288V572.88H865.288V537.88H880.288V542.88H870.788Z" fill="#0A2A3F"/>
</g>
<g clip-path="url(#clip5_215_238)">
<path d="M1796.17 606.16H579.1C574.036 606.16 569.93 610.265 569.93 615.33V660.17C569.93 665.234 574.036 669.34 579.1 669.34H1796.17C1801.23 669.34 1805.34 665.234 1805.34 660.17V615.33C1805.34 610.265 1801.23 606.16 1796.17 606.16Z" fill="#89C4CE"/>
<path d="M625.28 609.01H580.96C576.52 609.01 572.92 612.61 572.92 617.05V658.45C572.92 662.89 576.52 666.49 580.96 666.49H625.28C629.72 666.49 633.32 662.89 633.32 658.45V617.05C633.32 612.61 629.72 609.01 625.28 609.01Z" fill="#0A2A3F"/>
<path d="M594.516 649.206C596.813 647.219 598.62 645.592 599.937 644.323C601.277 643.031 602.39 641.69 603.275 640.302C604.161 638.914 604.604 637.526 604.604 636.138C604.604 634.702 604.257 633.577 603.563 632.763C602.892 631.95 601.827 631.543 600.367 631.543C598.955 631.543 597.854 631.997 597.065 632.907C596.299 633.792 595.892 634.989 595.844 636.497H591.895C591.967 633.769 592.781 631.686 594.336 630.25C595.916 628.79 597.914 628.06 600.332 628.06C602.94 628.06 604.975 628.778 606.435 630.214C607.918 631.65 608.66 633.565 608.66 635.958C608.66 637.682 608.218 639.345 607.332 640.949C606.47 642.528 605.429 643.952 604.209 645.221C603.012 646.465 601.48 647.913 599.614 649.565L597.998 651.001H609.378V654.411H591.931V651.431L594.516 649.206Z" fill="#B8F8FF"/>
<path d="M1759.2 614.17H1617.69C1604.67 614.17 1594.11 624.725 1594.11 637.745C1594.11 650.765 1604.67 661.32 1617.69 661.32H1759.2C1772.22 661.32 1782.78 650.765 1782.78 637.745C1782.78 624.725 1772.22 614.17 1759.2 614.17Z" fill="#0A2A3F"/>
<path d="M1672.14 627.399V623.25H1680.43V652.33H1675.84V627.399H1672.14ZM1689.19 646.147C1691.75 643.94 1693.75 642.131 1695.22 640.722C1696.71 639.286 1697.94 637.797 1698.93 636.254C1699.91 634.712 1700.4 633.169 1700.4 631.627C1700.4 630.031 1700.02 628.781 1699.24 627.877C1698.5 626.973 1697.32 626.521 1695.69 626.521C1694.13 626.521 1692.9 627.026 1692.02 628.037C1691.17 629.021 1690.72 630.35 1690.67 632.026H1686.28C1686.36 628.994 1687.26 626.681 1688.99 625.085C1690.75 623.463 1692.97 622.652 1695.65 622.652C1698.55 622.652 1700.81 623.449 1702.44 625.045C1704.08 626.641 1704.91 628.768 1704.91 631.427C1704.91 633.342 1704.42 635.19 1703.43 636.972C1702.48 638.727 1701.32 640.31 1699.96 641.719C1698.63 643.102 1696.93 644.711 1694.86 646.546L1693.06 648.141H1705.71V651.931H1686.32V648.62L1689.19 646.147ZM1709.7 637.411C1709.7 632.81 1710.47 629.22 1712.02 626.641C1713.58 624.035 1716.27 622.731 1720.07 622.731C1723.88 622.731 1726.55 624.035 1728.09 626.641C1729.66 629.22 1730.44 632.81 1730.44 637.411C1730.44 642.065 1729.66 645.708 1728.09 648.341C1726.55 650.947 1723.88 652.25 1720.07 652.25C1716.27 652.25 1713.58 650.947 1712.02 648.341C1710.47 645.708 1709.7 642.065 1709.7 637.411ZM1725.98 637.411C1725.98 635.257 1725.83 633.435 1725.54 631.946C1725.27 630.457 1724.71 629.247 1723.86 628.316C1723.01 627.359 1721.75 626.88 1720.07 626.88C1718.4 626.88 1717.13 627.359 1716.28 628.316C1715.43 629.247 1714.86 630.457 1714.57 631.946C1714.3 633.435 1714.17 635.257 1714.17 637.411C1714.17 639.645 1714.3 641.52 1714.57 643.035C1714.83 644.551 1715.39 645.775 1716.24 646.705C1717.12 647.636 1718.4 648.101 1720.07 648.101C1721.75 648.101 1723.01 647.636 1723.86 646.705C1724.74 645.775 1725.31 644.551 1725.58 643.035C1725.84 641.52 1725.98 639.645 1725.98 637.411Z" fill="#FAFFFF"/>
<path d="M1632.05 634.7C1632.55 634.58 1632.86 634.07 1632.74 633.57C1632.62 633.07 1632.11 632.76 1631.61 632.88C1631.11 633 1630.8 633.51 1630.92 634.01C1631.04 634.51 1631.55 634.82 1632.05 634.7Z" fill="#00D6EE"/>
<path d="M1622.57 617.2H1619.55C1608.2 617.2 1599 626.4 1599 637.75C1599 649.1 1608.2 658.3 1619.55 658.3H1622.57C1633.92 658.3 1643.12 649.1 1643.12 637.75C1643.12 626.4 1633.92 617.2 1622.57 617.2ZM1626.14 643.53C1624.73 646.04 1622.27 647.92 1619.29 648.52C1619.86 647.31 1620.16 646.44 1620.29 645.06C1621.39 645.1 1622.62 644.88 1624.02 643.84C1621.08 644.76 1618.02 643.56 1614.48 642.23C1610.71 640.67 1611.94 646.11 1606.86 647.68C1607.9 645.37 1605.04 643.71 1608.66 640.79C1604.32 639.99 1605.19 636.22 1603.21 634.63C1608.2 633.91 1610.04 639.69 1613.16 636.74C1614.8 635.19 1616.33 633.57 1618.09 632.36C1617.19 630.52 1615.96 628.91 1614.48 627.61C1618.37 626.78 1622.29 627.81 1625.23 630.16C1629.7 629.93 1634 631.3 1637.46 633.86C1635.74 637.51 1633.33 641.11 1626.12 643.52L1626.14 643.53Z" fill="#00D6EE"/>
<path d="M684.57 622.16C690.07 622.16 692.77 625.21 692.77 630.81V635.36C692.77 640.96 690.07 644.01 684.57 644.01H681.97V657.16H676.47V622.16H684.57ZM684.57 627.16H681.97V639.01H684.57C686.32 639.01 687.27 638.21 687.27 635.71V630.46C687.27 627.96 686.32 627.16 684.57 627.16ZM695.562 657.16V622.16H701.062V652.16H710.112V657.16H695.562ZM724.705 622.16L730.305 657.16H724.755L723.805 650.81H717.055L716.105 657.16H711.055L716.655 622.16H724.705ZM720.405 628.36L717.755 646.06H723.055L720.405 628.36ZM735.575 657.16V645.56L728.625 622.16H734.375L738.575 638.11L742.775 622.16H748.025L741.075 645.56V657.16H735.575ZM755.749 627.16V636.91H763.299V641.91H755.749V652.16H765.249V657.16H750.249V622.16H765.249V627.16H755.749ZM785.758 657.16H780.158C779.858 656.26 779.658 655.71 779.658 652.86V647.36C779.658 644.11 778.558 642.91 776.058 642.91H774.158V657.16H768.658V622.16H776.958C782.658 622.16 785.108 624.81 785.108 630.21V632.96C785.108 636.56 783.958 638.91 781.508 640.06C784.258 641.21 785.158 643.86 785.158 647.51V652.91C785.158 654.61 785.208 655.86 785.758 657.16ZM776.808 627.16H774.158V637.91H776.308C778.358 637.91 779.608 637.01 779.608 634.21V630.76C779.608 628.26 778.758 627.16 776.808 627.16ZM808.288 657.16L801.438 631.81V657.16H796.488V622.16H803.388L809.038 643.11V622.16H813.938V657.16H808.288ZM830.076 622.16L835.676 657.16H830.126L829.176 650.81H822.426L821.476 657.16H816.426L822.026 622.16H830.076ZM825.776 628.36L823.126 646.06H828.426L825.776 628.36ZM845.838 622.16L849.888 647.01L853.638 622.16H861.288V657.16H856.088V632.06L852.288 657.16H847.088L842.988 632.41V657.16H838.188V622.16H845.838ZM870.788 627.16V636.91H878.338V641.91H870.788V652.16H880.288V657.16H865.288V622.16H880.288V627.16H870.788Z" fill="#0A2A3F"/>
</g>
<g clip-path="url(#clip6_215_238)">
<path d="M1796.17 690.44H579.1C574.036 690.44 569.93 694.545 569.93 699.61V744.45C569.93 749.514 574.036 753.62 579.1 753.62H1796.17C1801.23 753.62 1805.34 749.514 1805.34 744.45V699.61C1805.34 694.545 1801.23 690.44 1796.17 690.44Z" fill="#FFDA33"/>
<path d="M625.28 693.29H580.96C576.52 693.29 572.92 696.89 572.92 701.33V742.73C572.92 747.17 576.52 750.77 580.96 750.77H625.28C629.72 750.77 633.32 747.17 633.32 742.73V701.33C633.32 696.89 629.72 693.29 625.28 693.29Z" fill="#591E00"/>
<path d="M606.327 717.946C606.064 716.845 605.585 716.019 604.891 715.469C604.197 714.918 603.228 714.643 601.983 714.643C600.092 714.643 598.68 715.373 597.747 716.833C596.813 718.269 596.323 720.662 596.275 724.013C596.897 722.96 597.807 722.146 599.003 721.572C600.2 720.998 601.492 720.71 602.88 720.71C604.46 720.71 605.848 721.057 607.045 721.751C608.265 722.422 609.211 723.403 609.881 724.695C610.575 725.988 610.922 727.531 610.922 729.326C610.922 731.002 610.587 732.498 609.917 733.814C609.271 735.13 608.301 736.171 607.009 736.937C605.717 737.679 604.161 738.05 602.342 738.05C599.877 738.05 597.938 737.512 596.526 736.435C595.138 735.334 594.157 733.79 593.582 731.803C593.032 729.817 592.757 727.34 592.757 724.372C592.757 715.613 595.844 711.233 602.019 711.233C604.412 711.233 606.291 711.879 607.655 713.171C609.043 714.464 609.857 716.055 610.096 717.946H606.327ZM601.983 724.157C600.523 724.157 599.279 724.6 598.249 725.485C597.244 726.347 596.742 727.603 596.742 729.255C596.742 730.906 597.208 732.222 598.142 733.204C599.099 734.161 600.427 734.64 602.127 734.64C603.634 734.64 604.819 734.173 605.681 733.239C606.566 732.306 607.009 731.062 607.009 729.506C607.009 727.878 606.578 726.586 605.717 725.629C604.879 724.647 603.634 724.157 601.983 724.157Z" fill="#FFDA33"/>
<path d="M1759.2 698.45H1617.69C1604.67 698.45 1594.11 709.005 1594.11 722.025C1594.11 735.045 1604.67 745.6 1617.69 745.6H1759.2C1772.22 745.6 1782.78 735.045 1782.78 722.025C1782.78 709.005 1772.22 698.45 1759.2 698.45Z" fill="#591E00"/>
<path d="M1672.14 711.679V707.53H1680.43V736.61H1675.84V711.679H1672.14ZM1689.19 730.427C1691.75 728.22 1693.75 726.411 1695.22 725.002C1696.71 723.566 1697.94 722.077 1698.93 720.534C1699.91 718.992 1700.4 717.449 1700.4 715.907C1700.4 714.311 1700.02 713.061 1699.24 712.157C1698.5 711.253 1697.32 710.801 1695.69 710.801C1694.13 710.801 1692.9 711.306 1692.02 712.317C1691.17 713.301 1690.72 714.63 1690.67 716.306H1686.28C1686.36 713.274 1687.26 710.961 1688.99 709.365C1690.75 707.743 1692.97 706.932 1695.65 706.932C1698.55 706.932 1700.81 707.73 1702.44 709.325C1704.08 710.921 1704.91 713.048 1704.91 715.708C1704.91 717.622 1704.42 719.47 1703.43 721.252C1702.48 723.007 1701.32 724.59 1699.96 725.999C1698.63 727.382 1696.93 728.991 1694.86 730.826L1693.06 732.421H1705.71V736.211H1686.32V732.9L1689.19 730.427ZM1709.7 721.691C1709.7 717.09 1710.47 713.5 1712.02 710.921C1713.58 708.315 1716.27 707.011 1720.07 707.011C1723.88 707.011 1726.55 708.315 1728.09 710.921C1729.66 713.5 1730.44 717.09 1730.44 721.691C1730.44 726.345 1729.66 729.988 1728.09 732.621C1726.55 735.227 1723.88 736.53 1720.07 736.53C1716.27 736.53 1713.58 735.227 1712.02 732.621C1710.47 729.988 1709.7 726.345 1709.7 721.691ZM1725.98 721.691C1725.98 719.537 1725.83 717.715 1725.54 716.226C1725.27 714.737 1724.71 713.527 1723.86 712.596C1723.01 711.639 1721.75 711.16 1720.07 711.16C1718.4 711.16 1717.13 711.639 1716.28 712.596C1715.43 713.527 1714.86 714.737 1714.57 716.226C1714.3 717.715 1714.17 719.537 1714.17 721.691C1714.17 723.925 1714.3 725.8 1714.57 727.315C1714.83 728.831 1715.39 730.055 1716.24 730.985C1717.12 731.916 1718.4 732.382 1720.07 732.382C1721.75 732.382 1723.01 731.916 1723.86 730.985C1724.74 730.055 1725.31 728.831 1725.58 727.315C1725.84 725.8 1725.98 723.925 1725.98 721.691Z" fill="#FAFFFF"/>
<path d="M1632.05 718.98C1632.55 718.86 1632.86 718.35 1632.74 717.85C1632.62 717.35 1632.11 717.04 1631.61 717.16C1631.11 717.28 1630.8 717.79 1630.92 718.29C1631.04 718.79 1631.55 719.1 1632.05 718.98Z" fill="#FFDA33"/>
<path d="M1622.57 701.48H1619.55C1608.2 701.48 1599 710.68 1599 722.03C1599 733.38 1608.2 742.58 1619.55 742.58H1622.57C1633.92 742.58 1643.12 733.38 1643.12 722.03C1643.12 710.68 1633.92 701.48 1622.57 701.48ZM1626.14 727.81C1624.73 730.32 1622.27 732.2 1619.29 732.8C1619.86 731.59 1620.16 730.72 1620.29 729.34C1621.39 729.38 1622.62 729.16 1624.02 728.12C1621.08 729.04 1618.02 727.84 1614.48 726.51C1610.71 724.95 1611.94 730.39 1606.86 731.96C1607.9 729.65 1605.04 727.99 1608.66 725.07C1604.32 724.27 1605.19 720.5 1603.21 718.91C1608.2 718.19 1610.04 723.97 1613.16 721.02C1614.8 719.47 1616.33 717.85 1618.09 716.64C1617.19 714.8 1615.96 713.19 1614.48 711.89C1618.37 711.06 1622.29 712.09 1625.23 714.44C1629.7 714.21 1634 715.58 1637.46 718.14C1635.74 721.79 1633.33 725.39 1626.12 727.8L1626.14 727.81Z" fill="#FFDA33"/>
<path d="M684.57 706.44C690.07 706.44 692.77 709.49 692.77 715.09V719.64C692.77 725.24 690.07 728.29 684.57 728.29H681.97V741.44H676.47V706.44H684.57ZM684.57 711.44H681.97V723.29H684.57C686.32 723.29 687.27 722.49 687.27 719.99V714.74C687.27 712.24 686.32 711.44 684.57 711.44ZM695.562 741.44V706.44H701.062V736.44H710.112V741.44H695.562ZM724.705 706.44L730.305 741.44H724.755L723.805 735.09H717.055L716.105 741.44H711.055L716.655 706.44H724.705ZM720.405 712.64L717.755 730.34H723.055L720.405 712.64ZM735.575 741.44V729.84L728.625 706.44H734.375L738.575 722.39L742.775 706.44H748.025L741.075 729.84V741.44H735.575ZM755.749 711.44V721.19H763.299V726.19H755.749V736.44H765.249V741.44H750.249V706.44H765.249V711.44H755.749ZM785.758 741.44H780.158C779.858 740.54 779.658 739.99 779.658 737.14V731.64C779.658 728.39 778.558 727.19 776.058 727.19H774.158V741.44H768.658V706.44H776.958C782.658 706.44 785.108 709.09 785.108 714.49V717.24C785.108 720.84 783.958 723.19 781.508 724.34C784.258 725.49 785.158 728.14 785.158 731.79V737.19C785.158 738.89 785.208 740.14 785.758 741.44ZM776.808 711.44H774.158V722.19H776.308C778.358 722.19 779.608 721.29 779.608 718.49V715.04C779.608 712.54 778.758 711.44 776.808 711.44ZM808.288 741.44L801.438 716.09V741.44H796.488V706.44H803.388L809.038 727.39V706.44H813.938V741.44H808.288ZM830.076 706.44L835.676 741.44H830.126L829.176 735.09H822.426L821.476 741.44H816.426L822.026 706.44H830.076ZM825.776 712.64L823.126 730.34H828.426L825.776 712.64ZM845.838 706.44L849.888 731.29L853.638 706.44H861.288V741.44H856.088V716.34L852.288 741.44H847.088L842.988 716.69V741.44H838.188V706.44H845.838ZM870.788 711.44V721.19H878.338V726.19H870.788V736.44H880.288V741.44H865.288V706.44H880.288V711.44H870.788Z" fill="#0A2A3F"/>
</g>
<g clip-path="url(#clip7_215_238)">
<path d="M1796.17 774.72H579.1C574.036 774.72 569.93 778.826 569.93 783.89V828.73C569.93 833.794 574.036 837.9 579.1 837.9H1796.17C1801.23 837.9 1805.34 833.794 1805.34 828.73V783.89C1805.34 778.826 1801.23 774.72 1796.17 774.72Z" fill="#89C4CE"/>
<path d="M625.28 777.57H580.96C576.52 777.57 572.92 781.17 572.92 785.61V827.01C572.92 831.45 576.52 835.05 580.96 835.05H625.28C629.72 835.05 633.32 831.45 633.32 827.01V785.61C633.32 781.17 629.72 777.57 625.28 777.57Z" fill="#0A2A3F"/>
<path d="M594.516 817.766C596.813 815.779 598.62 814.152 599.937 812.883C601.277 811.591 602.39 810.251 603.275 808.862C604.161 807.474 604.604 806.086 604.604 804.698C604.604 803.262 604.257 802.137 603.563 801.323C602.892 800.51 601.827 800.103 600.367 800.103C598.955 800.103 597.854 800.558 597.065 801.467C596.299 802.353 595.892 803.549 595.844 805.057H591.895C591.967 802.329 592.781 800.246 594.336 798.81C595.916 797.35 597.914 796.62 600.332 796.62C602.94 796.62 604.975 797.338 606.435 798.774C607.918 800.21 608.66 802.125 608.66 804.518C608.66 806.242 608.218 807.905 607.332 809.509C606.47 811.088 605.429 812.512 604.209 813.781C603.012 815.025 601.48 816.473 599.614 818.125L597.998 819.561H609.378V822.971H591.931V819.991L594.516 817.766Z" fill="#B8F8FF"/>
<path d="M1759.2 782.73H1617.69C1604.67 782.73 1594.11 793.285 1594.11 806.305C1594.11 819.325 1604.67 829.88 1617.69 829.88H1759.2C1772.22 829.88 1782.78 819.325 1782.78 806.305C1782.78 793.285 1772.22 782.73 1759.2 782.73Z" fill="#0A2A3F"/>
<path d="M1672.14 795.959V791.81H1680.43V820.89H1675.84V795.959H1672.14ZM1689.19 814.707C1691.75 812.5 1693.75 810.691 1695.22 809.282C1696.71 807.846 1697.94 806.357 1698.93 804.814C1699.91 803.272 1700.4 801.729 1700.4 800.187C1700.4 798.591 1700.02 797.341 1699.24 796.437C1698.5 795.533 1697.32 795.081 1695.69 795.081C1694.13 795.081 1692.9 795.586 1692.02 796.597C1691.17 797.581 1690.72 798.911 1690.67 800.586H1686.28C1686.36 797.554 1687.26 795.241 1688.99 793.645C1690.75 792.023 1692.97 791.212 1695.65 791.212C1698.55 791.212 1700.81 792.01 1702.44 793.605C1704.08 795.201 1704.91 797.328 1704.91 799.988C1704.91 801.902 1704.42 803.75 1703.43 805.532C1702.48 807.287 1701.32 808.87 1699.96 810.279C1698.63 811.662 1696.93 813.271 1694.86 815.106L1693.06 816.701H1705.71V820.491H1686.32V817.18L1689.19 814.707ZM1709.7 805.971C1709.7 801.37 1710.47 797.78 1712.02 795.201C1713.58 792.595 1716.27 791.292 1720.07 791.292C1723.88 791.292 1726.55 792.595 1728.09 795.201C1729.66 797.78 1730.44 801.37 1730.44 805.971C1730.44 810.625 1729.66 814.268 1728.09 816.901C1726.55 819.507 1723.88 820.81 1720.07 820.81C1716.27 820.81 1713.58 819.507 1712.02 816.901C1710.47 814.268 1709.7 810.625 1709.7 805.971ZM1725.98 805.971C1725.98 803.817 1725.83 801.995 1725.54 800.506C1725.27 799.017 1724.71 797.807 1723.86 796.876C1723.01 795.919 1721.75 795.44 1720.07 795.44C1718.4 795.44 1717.13 795.919 1716.28 796.876C1715.43 797.807 1714.86 799.017 1714.57 800.506C1714.3 801.995 1714.17 803.817 1714.17 805.971C1714.17 808.205 1714.3 810.08 1714.57 811.596C1714.83 813.111 1715.39 814.335 1716.24 815.265C1717.12 816.196 1718.4 816.662 1720.07 816.662C1721.75 816.662 1723.01 816.196 1723.86 815.265C1724.74 814.335 1725.31 813.111 1725.58 811.596C1725.84 810.08 1725.98 808.205 1725.98 805.971Z" fill="#FAFFFF"/>
<path d="M1632.05 803.26C1632.55 803.14 1632.86 802.63 1632.74 802.13C1632.62 801.63 1632.11 801.32 1631.61 801.44C1631.11 801.56 1630.8 802.07 1630.92 802.57C1631.04 803.07 1631.55 803.38 1632.05 803.26Z" fill="#00D6EE"/>
<path d="M1622.57 785.76H1619.55C1608.2 785.76 1599 794.96 1599 806.31C1599 817.66 1608.2 826.86 1619.55 826.86H1622.57C1633.92 826.86 1643.12 817.66 1643.12 806.31C1643.12 794.96 1633.92 785.76 1622.57 785.76ZM1626.14 812.09C1624.73 814.6 1622.27 816.48 1619.29 817.08C1619.86 815.87 1620.16 815 1620.29 813.62C1621.39 813.66 1622.62 813.44 1624.02 812.4C1621.08 813.32 1618.02 812.12 1614.48 810.79C1610.71 809.23 1611.94 814.67 1606.86 816.24C1607.9 813.93 1605.04 812.27 1608.66 809.35C1604.32 808.55 1605.19 804.78 1603.21 803.19C1608.2 802.47 1610.04 808.25 1613.16 805.3C1614.8 803.75 1616.33 802.13 1618.09 800.92C1617.19 799.08 1615.96 797.47 1614.48 796.17C1618.37 795.34 1622.29 796.37 1625.23 798.72C1629.7 798.49 1634 799.86 1637.46 802.42C1635.74 806.07 1633.33 809.67 1626.12 812.08L1626.14 812.09Z" fill="#00D6EE"/>
<path d="M684.57 790.72C690.07 790.72 692.77 793.77 692.77 799.37V803.92C692.77 809.52 690.07 812.57 684.57 812.57H681.97V825.72H676.47V790.72H684.57ZM684.57 795.72H681.97V807.57H684.57C686.32 807.57 687.27 806.77 687.27 804.27V799.02C687.27 796.52 686.32 795.72 684.57 795.72ZM695.562 825.72V790.72H701.062V820.72H710.112V825.72H695.562ZM724.705 790.72L730.305 825.72H724.755L723.805 819.37H717.055L716.105 825.72H711.055L716.655 790.72H724.705ZM720.405 796.92L717.755 814.62H723.055L720.405 796.92ZM735.575 825.72V814.12L728.625 790.72H734.375L738.575 806.67L742.775 790.72H748.025L741.075 814.12V825.72H735.575ZM755.749 795.72V805.47H763.299V810.47H755.749V820.72H765.249V825.72H750.249V790.72H765.249V795.72H755.749ZM785.758 825.72H780.158C779.858 824.82 779.658 824.27 779.658 821.42V815.92C779.658 812.67 778.558 811.47 776.058 811.47H774.158V825.72H768.658V790.72H776.958C782.658 790.72 785.108 793.37 785.108 798.77V801.52C785.108 805.12 783.958 807.47 781.508 808.62C784.258 809.77 785.158 812.42 785.158 816.07V821.47C785.158 823.17 785.208 824.42 785.758 825.72ZM776.808 795.72H774.158V806.47H776.308C778.358 806.47 779.608 805.57 779.608 802.77V799.32C779.608 796.82 778.758 795.72 776.808 795.72ZM808.288 825.72L801.438 800.37V825.72H796.488V790.72H803.388L809.038 811.67V790.72H813.938V825.72H808.288ZM830.076 790.72L835.676 825.72H830.126L829.176 819.37H822.426L821.476 825.72H816.426L822.026 790.72H830.076ZM825.776 796.92L823.126 814.62H828.426L825.776 796.92ZM845.838 790.72L849.888 815.57L853.638 790.72H861.288V825.72H856.088V800.62L852.288 825.72H847.088L842.988 800.97V825.72H838.188V790.72H845.838ZM870.788 795.72V805.47H878.338V810.47H870.788V820.72H880.288V825.72H865.288V790.72H880.288V795.72H870.788Z" fill="#0A2A3F"/>
</g>
<path d="M118.301 285.731H423.699C462.101 285.731 493.274 316.949 493.274 355.405V763.595C493.274 802.051 462.101 833.269 423.699 833.269H118.301C79.8992 833.269 48.7259 802.051 48.7259 763.595V355.405C48.7259 316.949 79.8992 285.731 118.301 285.731Z" fill="#004AB5"/>
<path d="M423.699 289.462C460.064 289.462 489.548 318.988 489.548 355.405V763.595C489.548 800.012 460.064 829.538 423.699 829.538H118.301C81.936 829.538 52.4518 800.012 52.4518 763.595V355.405C52.4518 318.988 81.936 289.462 118.301 289.462H423.699ZM423.699 282H118.301C77.8872 282 45 314.934 45 355.405V763.595C45 804.066 77.8872 837 118.301 837H423.699C464.113 837 497 804.066 497 763.595V355.405C497 314.934 464.113 282 423.699 282Z" fill="#041521"/>
<path d="M423.724 289.462H118.301C81.9333 289.462 52.4518 318.986 52.4518 355.405V716.309C52.4518 752.728 81.9333 782.251 118.301 782.251H423.724C460.092 782.251 489.573 752.728 489.573 716.309V355.405C489.573 318.986 460.092 289.462 423.724 289.462Z" fill="#005EB1"/>
<path d="M470.521 690.837V380.901C470.521 344.482 441.04 314.959 404.673 314.959H137.377C101.01 314.959 71.5285 344.482 71.5285 380.901V690.837C71.5285 727.256 101.01 756.78 137.377 756.78H404.673C441.04 756.78 470.521 727.256 470.521 690.837Z" fill="#012947"/>
<g clip-path="url(#clip8_215_238)">
<path d="M168.32 758.76H184.24C205.52 758.76 222.79 776.03 222.79 797.31V813.85C222.79 835.13 205.52 852.4 184.24 852.4H168.32C147.04 852.41 129.76 835.13 129.76 813.85V797.31C129.76 776.04 147.04 758.76 168.32 758.76Z" fill="#127B93"/>
<path d="M184.24 760.53C204.56 760.53 221.03 777 221.03 797.32V813.86C221.03 834.18 204.56 850.65 184.24 850.65H168.32C148 850.65 131.53 834.18 131.53 813.86V797.32C131.53 777 148 760.53 168.32 760.53H184.24ZM184.24 757H168.32C146.09 757 128 775.09 128 797.32V813.86C128 836.09 146.09 854.18 168.32 854.18H184.24C206.47 854.18 224.56 836.09 224.56 813.86V797.32C224.55 775.09 206.47 757 184.24 757Z" fill="#002C3A"/>
<path d="M184.43 833.73C204.644 833.73 221.03 817.344 221.03 797.13C221.03 776.916 204.644 760.53 184.43 760.53H168.13C147.916 760.53 131.53 776.916 131.53 797.13C131.53 817.344 147.916 833.73 168.13 833.73H184.43Z" fill="#06BADD"/>
<path d="M185.41 765.57H167.14C150.218 765.57 136.5 779.288 136.5 796.21C136.5 813.132 150.218 826.85 167.14 826.85H185.41C202.332 826.85 216.05 813.132 216.05 796.21C216.05 779.288 202.332 765.57 185.41 765.57Z" fill="#34EBE6"/>
<path d="M182.76 815.73C181.52 815.73 180.28 815.39 179.18 814.76L159.76 803.55C157.51 802.25 156.17 799.93 156.17 797.33C156.17 794.73 157.51 792.41 159.76 791.11L179.18 779.9C180.28 779.27 181.52 778.93 182.76 778.93C186.72 778.93 189.95 782.15 189.95 786.12V808.55C189.95 810.53 189.17 812.36 187.76 813.72C186.42 815 184.6 815.74 182.77 815.74L182.76 815.73Z" fill="#127B93"/>
<path d="M182.76 780.69C185.59 780.69 188.18 782.95 188.18 786.11V808.54C188.18 811.7 185.59 813.96 182.76 813.96C181.86 813.96 180.93 813.73 180.06 813.23L160.64 802.02C157.03 799.94 157.03 794.73 160.64 792.64L180.06 781.43C180.93 780.93 181.86 780.7 182.76 780.7M182.76 777.16C181.21 777.16 179.66 777.58 178.3 778.37L158.88 789.58C156.08 791.2 154.41 794.09 154.41 797.32C154.41 800.55 156.08 803.45 158.88 805.06L178.3 816.27C179.67 817.06 181.21 817.48 182.76 817.48C187.69 817.48 191.71 813.47 191.71 808.53V786.1C191.71 781.17 187.7 777.15 182.76 777.15V777.16Z" fill="#002C3A"/>
</g>
<g clip-path="url(#clip9_215_238)">
<path d="M365.87 758.76H381.79C403.07 758.76 420.34 776.03 420.34 797.31V813.85C420.34 835.13 403.07 852.4 381.79 852.4H365.87C344.59 852.41 327.31 835.13 327.31 813.85V797.31C327.31 776.04 344.59 758.76 365.87 758.76Z" fill="#127B93"/>
<path d="M381.79 760.53C402.11 760.53 418.58 777 418.58 797.32V813.86C418.58 834.18 402.11 850.65 381.79 850.65H365.87C345.55 850.65 329.08 834.18 329.08 813.86V797.32C329.08 777 345.55 760.53 365.87 760.53H381.79ZM381.79 757H365.87C343.64 757 325.55 775.09 325.55 797.32V813.86C325.55 836.09 343.64 854.18 365.87 854.18H381.79C404.02 854.18 422.11 836.09 422.11 813.86V797.32C422.1 775.09 404.02 757 381.79 757Z" fill="#002C3A"/>
<path d="M381.98 833.73C402.194 833.73 418.58 817.344 418.58 797.13C418.58 776.916 402.194 760.53 381.98 760.53H365.68C345.466 760.53 329.08 776.916 329.08 797.13C329.08 817.344 345.466 833.73 365.68 833.73H381.98Z" fill="#06BADD"/>
<path d="M382.96 765.57H364.69C347.768 765.57 334.05 779.288 334.05 796.21C334.05 813.132 347.768 826.85 364.69 826.85H382.96C399.882 826.85 413.6 813.132 413.6 796.21C413.6 779.288 399.882 765.57 382.96 765.57Z" fill="#34EBE6"/>
<path d="M365.91 778.9C367.15 778.9 368.39 779.24 369.49 779.87L388.91 791.08C391.16 792.38 392.5 794.7 392.5 797.3C392.5 799.9 391.16 802.22 388.91 803.52L369.49 814.73C368.39 815.36 367.15 815.7 365.91 815.7C361.95 815.7 358.72 812.48 358.72 808.51L358.72 786.08C358.72 784.1 359.5 782.27 360.91 780.91C362.25 779.63 364.07 778.89 365.9 778.89L365.91 778.9Z" fill="#127B93"/>
<path d="M365.91 813.94C363.08 813.94 360.49 811.68 360.49 808.52L360.49 786.09C360.49 782.93 363.08 780.67 365.91 780.67C366.81 780.67 367.74 780.9 368.61 781.4L388.03 792.61C391.64 794.69 391.64 799.9 388.03 801.99L368.61 813.2C367.74 813.7 366.81 813.93 365.91 813.93M365.91 817.47C367.46 817.47 369.01 817.05 370.37 816.26L389.79 805.05C392.59 803.43 394.26 800.54 394.26 797.31C394.26 794.08 392.59 791.18 389.79 789.57L370.37 778.36C369 777.57 367.46 777.15 365.91 777.15C360.98 777.15 356.96 781.16 356.96 786.1L356.96 808.53C356.96 813.46 360.97 817.48 365.91 817.48L365.91 817.47Z" fill="#002C3A"/>
</g>
<path d="M212.6 725V697H219.56C223.96 697 226.12 699.44 226.12 703.92V718.08C226.12 722.56 223.96 725 219.56 725H212.6ZM219.48 701H217V721H219.48C220.88 721 221.72 720.28 221.72 718.28V703.72C221.72 701.72 220.88 701 219.48 701ZM238.649 697L243.129 725H238.689L237.929 719.92H232.529L231.769 725H227.729L232.209 697H238.649ZM235.209 701.96L233.089 716.12H237.329L235.209 701.96ZM244.978 697H249.378V718.6C249.378 720.6 250.258 721.32 251.658 721.32C253.058 721.32 253.938 720.6 253.938 718.6V697H258.098V718.32C258.098 722.8 255.858 725.36 251.538 725.36C247.218 725.36 244.978 722.8 244.978 718.32V697ZM261.116 725V697H265.516V721H272.756V725H261.116ZM281.15 697C285.55 697 287.71 699.44 287.71 703.92V707.56C287.71 712.04 285.55 714.48 281.15 714.48H279.07V725H274.67V697H281.15ZM281.15 701H279.07V710.48H281.15C282.55 710.48 283.31 709.84 283.31 707.84V703.64C283.31 701.64 282.55 701 281.15 701ZM294.148 713V725H289.748V697H294.148V709H299.148V697H303.628V725H299.148V713H294.148ZM306.819 725V697H311.219V725H306.819ZM323.836 725L318.356 704.72V725H314.396V697H319.916L324.436 713.76V697H328.356V725H323.836Z" fill="#34EBE6"/>
<path d="M321.793 277.665V267.875H301.053L292.733 265.645C292.733 265.645 286.853 256.575 286.843 256.575L279.503 245.265C276.263 240.285 270.983 240.285 267.743 245.265L260.403 256.575L254.523 265.645L246.193 267.875H225.423V277.665H225.453C225.323 279.385 225.943 281.275 227.423 283.115L235.913 293.585L242.713 301.975L241.433 326.225C241.123 332.155 245.403 335.265 250.953 333.145L273.623 324.435L296.283 333.145C301.833 335.265 306.103 332.155 305.793 326.225L304.523 301.975L311.313 293.585L319.803 283.115C321.283 281.285 321.913 279.385 321.783 277.665H321.793Z" fill="#FBA91E"/>
<path d="M316.183 261.385L292.733 255.105C292.733 255.105 286.853 246.035 286.843 246.035L279.503 234.735C276.263 229.755 270.983 229.755 267.743 234.735L260.403 246.035L254.523 255.105L231.063 261.385C225.333 262.915 223.693 267.955 227.423 272.565L235.913 283.035L242.713 291.425L241.433 315.675C241.123 321.605 245.403 324.715 250.953 322.595L273.623 313.885L296.283 322.595C301.833 324.715 306.103 321.605 305.793 315.675L304.523 291.425L311.313 283.035L319.803 272.565C323.543 267.945 321.903 262.915 316.163 261.385H316.183Z" fill="#FEDA34"/>
<g style="mix-blend-mode:overlay" opacity="0.2">
<path d="M248.613 256.695L231.073 261.385C229.043 261.925 227.533 262.915 226.593 264.165L268.773 315.755L273.633 313.885L296.293 322.595C298.693 323.515 300.853 323.455 302.513 322.595L248.613 256.685V256.695Z" fill="white"/>
</g>
<g style="mix-blend-mode:overlay" opacity="0.2">
<path d="M311.373 282.975L269.953 232.325C269.163 232.925 268.413 233.725 267.753 234.735L260.653 245.675L304.983 299.885L304.543 291.435L311.333 283.045L311.383 282.985L311.373 282.975Z" fill="white"/>
</g>
<path d="M226.293 288.295L224.323 282.095L211.183 286.265L205.463 286.525C205.463 286.525 199.913 281.965 199.903 281.965L192.983 276.275C189.923 273.765 186.583 274.835 185.533 278.645L183.153 287.285L181.253 294.215L176.423 297.305L163.263 301.485L165.233 307.685H165.253C165.513 308.795 166.293 309.875 167.603 310.735L175.093 315.655L181.093 319.605L185.163 335.235C186.163 339.055 189.503 340.165 192.583 337.705L205.193 327.625L221.313 328.585C225.253 328.815 227.343 325.985 225.953 322.285L220.263 307.175L222.883 300.495L226.163 292.155C226.733 290.695 226.753 289.365 226.323 288.305L226.293 288.295Z" fill="#FBA91E"/>
<path d="M219.453 279.095L203.323 279.835L197.773 275.275L190.843 269.585C187.783 267.075 184.443 268.145 183.393 271.955L181.013 280.595L179.113 287.525L165.513 296.225C162.183 298.345 162.163 301.865 165.453 304.045L172.943 308.965L178.943 312.915L183.013 328.545C184.013 332.365 187.353 333.475 190.433 331.015L203.043 320.935L219.163 321.895C223.103 322.125 225.193 319.295 223.803 315.595L218.113 300.485L220.733 293.795L224.013 285.455C225.453 281.775 223.403 278.915 219.453 279.095Z" fill="#FEDA34"/>
<g style="mix-blend-mode:overlay" opacity="0.2">
<path d="M175.683 289.715L165.513 296.215C164.333 296.965 163.583 297.895 163.233 298.875L200.353 323.085L203.053 320.925L219.173 321.885C220.883 321.985 222.233 321.505 223.113 320.635L175.693 289.705L175.683 289.715Z" fill="white"/>
</g>
<g style="mix-blend-mode:overlay" opacity="0.2">
<path d="M220.753 293.755L184.313 269.985C183.933 270.525 183.613 271.185 183.403 271.955L181.103 280.315L220.103 305.755L218.123 300.485L220.743 293.795L220.763 293.745L220.753 293.755Z" fill="white"/>
</g>
<path d="M321.963 288.125L323.933 281.925L337.073 286.095L342.793 286.355C342.793 286.355 348.343 281.795 348.353 281.795L355.273 276.105C358.333 273.595 361.683 274.665 362.723 278.475L365.103 287.115L367.003 294.045L371.833 297.135L384.993 301.315L383.023 307.515H383.003C382.743 308.625 381.963 309.705 380.653 310.565L373.163 315.485L367.163 319.435L363.093 335.065C362.093 338.885 358.753 339.995 355.673 337.535L343.063 327.455L326.943 328.415C323.003 328.645 320.913 325.815 322.303 322.115L327.993 307.005L325.373 300.325L322.093 291.985C321.523 290.525 321.503 289.195 321.933 288.135L321.963 288.125Z" fill="#FBA91E"/>
<path d="M328.793 278.935L344.923 279.675L350.473 275.115L357.403 269.425C360.463 266.925 363.803 267.985 364.853 271.795L367.233 280.435L369.133 287.365L382.733 296.065C386.063 298.185 386.083 301.705 382.793 303.885L375.303 308.815L369.303 312.765L365.233 328.395C364.233 332.215 360.893 333.325 357.813 330.865L345.203 320.785L329.083 321.745C325.143 321.975 323.053 319.145 324.443 315.445L330.133 300.335L327.513 293.645L324.233 285.305C322.793 281.625 324.843 278.765 328.783 278.945L328.793 278.935Z" fill="#FEDA34"/>
<g style="mix-blend-mode:overlay" opacity="0.2">
<path d="M372.563 289.555L382.733 296.055C383.913 296.805 384.663 297.735 385.013 298.715L347.893 322.925L345.193 320.765L329.073 321.725C327.363 321.825 326.013 321.345 325.133 320.475L372.553 289.545L372.563 289.555Z" fill="white"/>
</g>
<g style="mix-blend-mode:overlay" opacity="0.2">
<path d="M327.493 293.585L363.943 269.815C364.323 270.355 364.633 271.015 364.853 271.785L367.153 280.145L328.153 305.585L330.133 300.315L327.513 293.625L327.493 293.575V293.585Z" fill="white"/>
</g>
<path d="M203.08 364C207.48 364 209.64 366.44 209.64 370.92V374.56C209.64 379.04 207.48 381.48 203.08 381.48H201V392H196.6V364H203.08ZM203.08 368H201V377.48H203.08C204.48 377.48 205.24 376.84 205.24 374.84V370.64C205.24 368.64 204.48 368 203.08 368ZM211.873 392V364H216.273V388H223.513V392H211.873ZM235.188 364L239.668 392H235.228L234.468 386.92H229.068L228.308 392H224.268L228.748 364H235.188ZM231.748 368.96L229.628 383.12H233.868L231.748 368.96ZM243.884 392V382.72L238.324 364H242.924L246.284 376.76L249.644 364H253.844L248.284 382.72V392H243.884ZM260.023 368V375.8H266.063V379.8H260.023V388H267.623V392H255.623V364H267.623V368H260.023ZM284.03 392H279.55C279.31 391.28 279.15 390.84 279.15 388.56V384.16C279.15 381.56 278.27 380.6 276.27 380.6H274.75V392H270.35V364H276.99C281.55 364 283.51 366.12 283.51 370.44V372.64C283.51 375.52 282.59 377.4 280.63 378.32C282.83 379.24 283.55 381.36 283.55 384.28V388.6C283.55 389.96 283.59 390.96 284.03 392ZM276.87 368H274.75V376.6H276.47C278.11 376.6 279.11 375.88 279.11 373.64V370.88C279.11 368.88 278.43 368 276.87 368Z" fill="#34EBE6"/>
<path d="M303.4 382.96H307.56V385.56C307.56 387.56 308.44 388.28 309.84 388.28C311.24 388.28 312.12 387.56 312.12 385.56V379.4C312.12 377.4 311.24 376.64 309.84 376.64C308.44 376.64 307.56 377.4 307.56 379.4V380.24H303.4L304.2 364H315.8V368H308.16L307.8 374.68C308.6 373.36 309.88 372.64 311.64 372.64C314.88 372.64 316.52 374.92 316.52 379.04V385.28C316.52 389.76 314.28 392.32 309.96 392.32C305.64 392.32 303.4 389.76 303.4 385.28V382.96ZM323.499 370.44V385.56C323.499 387.56 324.379 388.32 325.779 388.32C327.179 388.32 328.059 387.56 328.059 385.56V370.44C328.059 368.44 327.179 367.68 325.779 367.68C324.379 367.68 323.499 368.44 323.499 370.44ZM319.099 385.28V370.72C319.099 366.24 321.459 363.68 325.779 363.68C330.099 363.68 332.459 366.24 332.459 370.72V385.28C332.459 389.76 330.099 392.32 325.779 392.32C321.459 392.32 319.099 389.76 319.099 385.28ZM341.919 380.4V376.4H348.079V385.28C348.079 389.76 345.839 392.32 341.519 392.32C337.199 392.32 334.959 389.76 334.959 385.28V370.72C334.959 366.24 337.199 363.68 341.519 363.68C345.839 363.68 348.079 366.24 348.079 370.72V373.44H343.919V370.44C343.919 368.44 343.039 367.68 341.639 367.68C340.239 367.68 339.359 368.44 339.359 370.44V385.56C339.359 387.56 340.239 388.28 341.639 388.28C343.039 388.28 343.919 387.56 343.919 385.56V380.4H341.919Z" fill="#34EBE6"/>
<defs>
<linearGradient id="paint0_linear_215_238" x1="569.93" y1="214.9" x2="1805.34" y2="214.9" gradientUnits="userSpaceOnUse">
<stop offset="0.07" stop-color="#FF3052"/>
<stop offset="1" stop-color="#C4253F"/>
</linearGradient>
<linearGradient id="paint1_linear_215_238" x1="600.52" y1="174" x2="600.52" y2="255.03" gradientUnits="userSpaceOnUse">
<stop stop-color="#FFD846"/>
<stop offset="1" stop-color="#FF9900"/>
</linearGradient>
<clipPath id="clip0_215_238">
<rect width="461.96" height="89.58" fill="white" transform="translate(29 29.7251)"/>
</clipPath>
<clipPath id="clip1_215_238">
<rect width="1235.41" height="70.28" fill="white" transform="translate(569.93 269.04)"/>
</clipPath>
<clipPath id="clip2_215_238">
<rect width="1235.41" height="70.28" fill="white" transform="translate(569.93 353.32)"/>
</clipPath>
<clipPath id="clip3_215_238">
<rect width="1235.41" height="70.28" fill="white" transform="translate(569.93 437.6)"/>
</clipPath>
<clipPath id="clip4_215_238">
<rect width="1235.41" height="70.28" fill="white" transform="translate(569.93 521.88)"/>
</clipPath>
<clipPath id="clip5_215_238">
<rect width="1235.41" height="70.28" fill="white" transform="translate(569.93 606.16)"/>
</clipPath>
<clipPath id="clip6_215_238">
<rect width="1235.41" height="70.28" fill="white" transform="translate(569.93 690.44)"/>
</clipPath>
<clipPath id="clip7_215_238">
<rect width="1235.41" height="70.28" fill="white" transform="translate(569.93 774.72)"/>
</clipPath>
<clipPath id="clip8_215_238">
<rect width="96.55" height="97.17" fill="white" transform="translate(128 757)"/>
</clipPath>
<clipPath id="clip9_215_238">
<rect width="96.55" height="97.17" fill="white" transform="translate(325.55 757)"/>
</clipPath>
</defs>
</svg>
