<svg width="617" height="119" viewBox="0 0 617 119" fill="none" xmlns="http://www.w3.org/2000/svg">
<path d="M172.3 2.1499H592.35C604.46 2.1499 614.29 11.9799 614.29 24.0899V94.2199C614.29 106.33 604.46 116.16 592.35 116.16H172.3C160.19 116.16 150.36 106.33 150.36 94.2199V24.0899C150.36 11.9799 160.19 2.1499 172.3 2.1499Z" fill="#7C2701"/>
<path d="M592.34 4.3C603.27 4.3 612.13 13.16 612.13 24.09V94.22C612.13 105.15 603.27 114.01 592.34 114.01H172.3C161.37 114.01 152.51 105.15 152.51 94.22V24.09C152.51 13.16 161.37 4.3 172.3 4.3H592.35M592.34 0H172.3C159.02 0 148.21 10.81 148.21 24.09V94.22C148.21 107.5 159.02 118.31 172.3 118.31H592.35C605.63 118.31 616.44 107.5 616.44 94.22V24.09C616.44 10.81 605.63 0 592.35 0H592.34Z" fill="#002C3A"/>
<path d="M612.13 73.1V24.61C612.13 13.3876 603.032 4.29004 591.81 4.29004L172.82 4.29004C161.598 4.29004 152.5 13.3876 152.5 24.61V73.1C152.5 84.3225 161.598 93.42 172.82 93.42L591.81 93.42C603.032 93.42 612.13 84.3225 612.13 73.1Z" fill="#FFDA33"/>
<path d="M593.03 10.4299H171.61C164.403 10.4299 158.56 16.2726 158.56 23.4799V71.9899C158.56 79.1972 164.403 85.0399 171.61 85.0399H593.03C600.237 85.0399 606.08 79.1972 606.08 71.9899V23.4799C606.08 16.2726 600.237 10.4299 593.03 10.4299Z" fill="#591E00"/>
<path d="M321.4 68V26H328V62H338.86V68H321.4ZM348.332 32V43.7H357.392V49.7H348.332V62H359.732V68H341.732V26H359.732V32H348.332ZM378.462 26L385.182 68H378.522L377.382 60.38H369.282L368.142 68H362.082L368.802 26H378.462ZM373.302 33.44L370.122 54.68H376.482L373.302 33.44ZM388.255 68V26H398.695C405.295 26 408.535 29.66 408.535 36.38V57.62C408.535 64.34 405.295 68 398.695 68H388.255ZM398.575 32H394.855V62H398.575C400.675 62 401.935 60.92 401.935 57.92V36.08C401.935 33.08 400.675 32 398.575 32ZM419.348 32V43.7H428.408V49.7H419.348V62H430.748V68H412.748V26H430.748V32H419.348ZM455.358 68H448.638C448.277 66.92 448.038 66.26 448.038 62.84V56.24C448.038 52.34 446.718 50.9 443.718 50.9H441.438V68H434.838V26H444.798C451.638 26 454.578 29.18 454.578 35.66V38.96C454.578 43.28 453.198 46.1 450.258 47.48C453.558 48.86 454.638 52.04 454.638 56.42V62.9C454.638 64.94 454.698 66.44 455.358 68ZM444.618 32H441.438V44.9H444.018C446.478 44.9 447.978 43.82 447.978 40.46V36.32C447.978 33.32 446.958 32 444.618 32ZM468.938 26C475.778 26 478.718 29.18 478.718 35.66V37.16C478.718 41.48 477.398 44.24 474.458 45.62C477.998 47 479.378 50.18 479.378 54.62V58.04C479.378 64.52 475.958 68 469.358 68H458.978V26H468.938ZM468.518 49.1H465.578V62H469.358C471.578 62 472.778 60.98 472.778 57.86V54.2C472.778 50.3 471.518 49.1 468.518 49.1ZM468.758 32H465.578V43.1H468.158C470.618 43.1 472.118 42.02 472.118 38.66V36.32C472.118 33.32 471.098 32 468.758 32ZM489.413 35.66V58.34C489.413 61.34 490.733 62.48 492.833 62.48C494.933 62.48 496.253 61.34 496.253 58.34V35.66C496.253 32.66 494.933 31.52 492.833 31.52C490.733 31.52 489.413 32.66 489.413 35.66ZM482.813 57.92V36.08C482.813 29.36 486.353 25.52 492.833 25.52C499.313 25.52 502.853 29.36 502.853 36.08V57.92C502.853 64.64 499.313 68.48 492.833 68.48C486.353 68.48 482.813 64.64 482.813 57.92ZM521.724 26L528.444 68H521.784L520.644 60.38H512.544L511.404 68H505.344L512.064 26H521.724ZM516.564 33.44L513.384 54.68H519.744L516.564 33.44ZM552.037 68H545.317C544.957 66.92 544.717 66.26 544.717 62.84V56.24C544.717 52.34 543.397 50.9 540.397 50.9H538.117V68H531.517V26H541.477C548.317 26 551.257 29.18 551.257 35.66V38.96C551.257 43.28 549.877 46.1 546.937 47.48C550.237 48.86 551.317 52.04 551.317 56.42V62.9C551.317 64.94 551.377 66.44 552.037 68ZM541.297 32H538.117V44.9H540.697C543.157 44.9 544.657 43.82 544.657 40.46V36.32C544.657 33.32 543.637 32 541.297 32ZM555.658 68V26H566.098C572.698 26 575.938 29.66 575.938 36.38V57.62C575.938 64.34 572.698 68 566.098 68H555.658ZM565.978 32H562.258V62H565.978C568.078 62 569.338 60.92 569.338 57.92V36.08C569.338 33.08 568.078 32 565.978 32Z" fill="#FFDA33"/>
<path d="M255.64 33.5901V29.4201H246.79L243.24 28.4701L240.73 24.6001L237.6 19.7801C236.22 17.6501 233.96 17.6501 232.58 19.7801L229.45 24.6001L226.94 28.4701L223.39 29.4201H214.53V33.5901H214.54C214.48 34.3201 214.75 35.1301 215.38 35.9101L219 40.3701L221.9 43.9501L221.35 54.2901C221.22 56.8201 223.05 58.1501 225.41 57.2401L235.08 53.5201L244.75 57.2401C247.12 58.1501 248.94 56.8201 248.81 54.2901L248.27 43.9501L251.17 40.3701L254.79 35.9101C255.42 35.1301 255.69 34.3201 255.63 33.5901H255.64Z" fill="#FFAA17"/>
<path d="M253.25 26.6401L243.25 23.9601L240.74 20.0901L237.61 15.2701C236.23 13.1401 233.97 13.1401 232.59 15.2701L229.46 20.0901L226.95 23.9601L216.94 26.6401C214.49 27.2901 213.8 29.4401 215.39 31.4101L219.01 35.8801L221.91 39.4601L221.36 49.8001C221.23 52.3301 223.06 53.6601 225.42 52.7501L235.09 49.0301L244.76 52.7501C247.13 53.6601 248.95 52.3301 248.82 49.8001L248.28 39.4601L251.18 35.8801L254.8 31.4101C256.39 29.4401 255.7 27.2901 253.25 26.6401Z" fill="#FFDA33"/>
<g style="mix-blend-mode:overlay" opacity="0.2">
<path d="M224.43 24.6401L216.95 26.6401C216.08 26.8701 215.44 27.2901 215.04 27.8301L233.03 49.8401L235.1 49.0401L244.77 52.7601C245.79 53.1501 246.72 53.1201 247.42 52.7601L224.43 24.6401Z" fill="white"/>
</g>
<g style="mix-blend-mode:overlay" opacity="0.2">
<path d="M251.2 35.85L233.53 14.24C233.19 14.5 232.87 14.84 232.59 15.27L229.56 19.93L248.47 43.05L248.28 39.44L251.18 35.86L251.2 35.83V35.85Z" fill="white"/>
</g>
<path d="M214.91 38.1201L214.07 35.4701L208.46 37.2501L206.02 37.3601L203.65 35.4101L200.7 32.9801C199.4 31.9101 197.97 32.3601 197.52 33.9901L196.51 37.6801L195.7 40.6401L193.64 41.9601L188.02 43.7401L188.86 46.3901C188.97 46.8601 189.3 47.3201 189.86 47.6901L193.05 49.7901L195.61 51.4801L197.35 58.1501C197.78 59.7801 199.2 60.2501 200.52 59.2001L205.9 54.9001L212.78 55.3101C214.46 55.4101 215.35 54.2001 214.76 52.6201L212.33 46.1701L213.45 43.3201L214.85 39.7601C215.09 39.1401 215.1 38.5701 214.92 38.1201H214.91Z" fill="#FFAA17"/>
<path d="M211.99 34.2001L205.11 34.5101L202.74 32.5601L199.79 30.1301C198.49 29.0601 197.06 29.5201 196.61 31.1401L195.6 34.8301L194.79 37.7901L188.99 41.5001C187.57 42.4101 187.56 43.9101 188.97 44.8401L192.16 46.9401L194.72 48.6301L196.46 55.3001C196.89 56.9301 198.31 57.4001 199.63 56.3501L205.01 52.0501L211.89 52.4601C213.57 52.5601 214.46 51.3501 213.87 49.7701L211.44 43.3201L212.56 40.4701L213.96 36.9101C214.57 35.3401 213.7 34.1201 212.02 34.2001H211.99Z" fill="#FFDA33"/>
<g style="mix-blend-mode:overlay" opacity="0.2">
<path d="M193.32 38.7302L188.98 41.5002C188.48 41.8202 188.16 42.2202 188.01 42.6402L203.84 52.9702L204.99 52.0502L211.87 52.4602C212.6 52.5002 213.18 52.3002 213.55 51.9302L193.32 38.7402V38.7302Z" fill="white"/>
</g>
<g style="mix-blend-mode:overlay" opacity="0.2">
<path d="M212.54 40.4501L196.99 30.3101C196.83 30.5401 196.69 30.8201 196.6 31.1501L195.62 34.7201L212.26 45.5701L211.41 43.3201L212.53 40.4701V40.4501H212.54Z" fill="white"/>
</g>
<path d="M255.71 38.05L256.55 35.4L262.16 37.18L264.6 37.29L266.97 35.34L269.92 32.91C271.22 31.84 272.65 32.29 273.1 33.92L274.11 37.61L274.92 40.57L276.98 41.89L282.6 43.67L281.76 46.32C281.65 46.79 281.32 47.25 280.76 47.62L277.57 49.72L275.01 51.41L273.27 58.08C272.84 59.71 271.42 60.18 270.1 59.13L264.72 54.83L257.84 55.24C256.16 55.34 255.27 54.13 255.86 52.55L258.29 46.1L257.17 43.25L255.77 39.69C255.53 39.07 255.52 38.5 255.7 38.05H255.71Z" fill="#FFAA17"/>
<path d="M258.63 34.1301L265.51 34.4401L267.88 32.4901L270.83 30.0601C272.13 28.9901 273.56 29.4501 274.01 31.0701L275.02 34.7601L275.83 37.7201L281.63 41.4301C283.05 42.3401 283.06 43.8401 281.65 44.7701L278.46 46.8701L275.9 48.5601L274.16 55.2301C273.73 56.8601 272.31 57.3301 270.99 56.2801L265.61 51.9801L258.73 52.3901C257.05 52.4901 256.16 51.2801 256.75 49.7001L259.18 43.2501L258.06 40.4001L256.66 36.8401C256.05 35.2701 256.92 34.0501 258.6 34.1301H258.63Z" fill="#FFDA33"/>
<g style="mix-blend-mode:overlay" opacity="0.2">
<path d="M277.3 38.6601L281.64 41.4301C282.14 41.7501 282.47 42.1501 282.61 42.5601L266.78 52.8901L265.63 51.9701L258.75 52.3801C258.02 52.4201 257.44 52.2201 257.07 51.8501L277.3 38.6501V38.6601Z" fill="white"/>
</g>
<g style="mix-blend-mode:overlay" opacity="0.2">
<path d="M258.08 40.38L273.63 30.24C273.79 30.47 273.93 30.75 274.02 31.08L275 34.65L258.36 45.5L259.21 43.25L258.09 40.4V40.38H258.08Z" fill="white"/>
</g>
<path d="M269.48 50.9202C268.73 50.6102 267.85 50.9702 267.54 51.7202L260.17 69.4202C259.86 70.1702 260.22 71.0502 260.97 71.3602L275.21 77.2902C277.11 78.0802 278.41 77.0702 278.09 75.0302L277.66 72.3102L277.23 69.6002L276.65 65.9002L279.68 63.7102L281.91 62.1002L284.14 60.4902C285.81 59.2802 285.62 57.6502 283.71 56.8602L269.47 50.9302L269.48 50.9202Z" fill="#B52020"/>
<path d="M200.72 50.9202C201.47 50.6102 202.35 50.9702 202.66 51.7202L210.03 69.4202C210.34 70.1702 209.98 71.0502 209.23 71.3602L194.99 77.2902C193.09 78.0802 191.79 77.0702 192.11 75.0302L192.54 72.3102L192.97 69.6002L193.55 65.9002L190.52 63.7102L188.3 62.1002L186.07 60.4902C184.4 59.2802 184.59 57.6502 186.5 56.8602L200.74 50.9302L200.72 50.9202Z" fill="#B52020"/>
<path d="M271.11 67.5102C270.24 69.3802 267.95 70.1802 265.97 69.4002C246.14 61.5402 224.06 61.5402 204.23 69.4002C202.25 70.1802 199.95 69.3802 199.09 67.5102C197.08 63.0602 195.07 58.6102 193.06 54.1602C192.2 52.2902 193.53 49.8202 196.07 48.8102C221.14 38.8702 249.06 38.8702 274.13 48.8102C276.67 49.8202 278.01 52.2902 277.14 54.1602C275.13 58.6102 273.12 63.0602 271.11 67.5102Z" fill="#E63535"/>
<path d="M65.05 4.68994H46.64C22.0081 4.68994 2.03999 24.658 2.03999 49.2899V68.4099C2.03999 93.0418 22.0081 113.01 46.64 113.01H65.05C89.6819 113.01 109.65 93.0418 109.65 68.4099V49.2899C109.65 24.658 89.6819 4.68994 65.05 4.68994Z" fill="#127B93"/>
<path d="M65.05 6.72989C88.55 6.72989 107.61 25.7799 107.61 49.2899V68.4199C107.61 91.9199 88.56 110.98 65.05 110.98H46.63C23.13 110.98 4.07 91.9299 4.07 68.4199V49.2899C4.08 25.7799 23.13 6.72989 46.64 6.72989H65.06M65.05 2.64989H46.63C20.92 2.64989 0 23.5699 0 49.2799V68.4099C0 94.1299 20.92 115.05 46.64 115.05H65.06C90.78 115.05 111.7 94.1299 111.7 68.4099V49.2799C111.7 23.5599 90.78 2.63989 65.06 2.63989L65.05 2.64989Z" fill="#002C3A"/>
<path d="M65.27 91.41C88.6537 91.41 107.61 72.4537 107.61 49.07C107.61 25.6862 88.6537 6.72998 65.27 6.72998L46.42 6.72998C23.0363 6.72998 4.08 25.6862 4.08 49.07C4.08 72.4537 23.0363 91.41 46.42 91.41H65.27Z" fill="#06BADD"/>
<path d="M66.41 12.5598H45.27C25.697 12.5598 9.83 28.4268 9.83 47.9998C9.83 67.5728 25.697 83.4398 45.27 83.4398H66.41C85.983 83.4398 101.85 67.5728 101.85 47.9998C101.85 28.4268 85.983 12.5598 66.41 12.5598Z" fill="#34EBE6"/>
<path d="M36.63 56.1101C36.2 56.0401 35.81 55.9501 35.43 55.9201C31.94 55.6301 28.37 52.0301 28.91 47.5801C29.1 45.9701 29.75 44.5501 30.88 43.3901C33.09 41.1301 35.33 38.9001 37.56 36.6601C41.44 32.7701 45.32 28.8901 49.2 25.0101C49.67 24.5401 50.16 24.0901 50.63 23.6201C53.21 21.0301 58.15 20.7801 61.01 23.5801C63.51 26.0201 65.96 28.5101 68.44 30.9701C72.31 34.8301 76.16 38.7001 80.04 42.5301C81.4 43.8701 82.43 45.3701 82.74 47.2901C83.16 49.9501 82.27 52.1701 80.37 54.0101C79.08 55.2601 77.52 55.9001 75.72 55.9901C75.58 55.9901 75.45 56.0101 75.31 56.0301C75.25 56.0301 75.2 56.0701 75.11 56.1101V56.6001C75.11 59.9601 75.15 63.3201 75.1 66.6701C75.03 70.7701 71.88 73.3501 69.2 73.7401C68.54 73.8301 67.88 73.9001 67.21 73.9001C59.59 73.9101 51.97 73.9001 44.34 73.9201C41.67 73.9201 39.51 72.9401 37.93 70.7901C37.06 69.6101 36.66 68.2401 36.64 66.8001C36.59 63.4401 36.63 60.0901 36.63 56.7301C36.63 56.5501 36.63 56.3701 36.63 56.1401V56.1101ZM60.36 62.6601C60.36 62.6601 60.33 62.6601 60.32 62.6601C60.32 61.7201 60.34 60.7801 60.32 59.8501C60.3 59.0201 59.97 58.3001 59.39 57.7001C57.78 56.0301 55.75 55.7601 53.69 56.6901C52.31 57.3101 51.41 58.4201 51.35 59.9901C51.29 61.7701 51.33 63.5601 51.35 65.3401C51.35 65.9801 51.53 66.5901 51.91 67.1301C53.2 68.9301 55.54 69.6701 57.59 68.8501C59.26 68.1901 60.48 66.9601 60.36 64.7901C60.32 64.0801 60.36 63.3701 60.36 62.6601Z" fill="#9FFFFA"/>
<path d="M36.63 53.0801C36.2 53.0101 35.81 52.9201 35.43 52.8901C31.94 52.6001 28.37 49.0001 28.91 44.5501C29.1 42.9401 29.75 41.5201 30.88 40.3601C33.09 38.1001 35.33 35.8701 37.56 33.6301C41.44 29.7401 45.32 25.8601 49.2 21.9801C49.67 21.5101 50.16 21.0601 50.63 20.5901C53.21 18.0001 58.15 17.7501 61.01 20.5501C63.51 22.9901 65.96 25.4801 68.44 27.9401C72.31 31.8001 76.16 35.6701 80.04 39.5001C81.4 40.8401 82.43 42.3401 82.74 44.2601C83.16 46.9201 82.27 49.1401 80.37 50.9801C79.08 52.2301 77.52 52.8701 75.72 52.9601C75.58 52.9601 75.45 52.9801 75.31 53.0001C75.25 53.0001 75.2 53.0401 75.11 53.0801V53.5701C75.11 56.9301 75.15 60.2901 75.1 63.6401C75.03 67.7401 71.88 70.3201 69.2 70.7101C68.54 70.8001 67.88 70.8701 67.21 70.8701C59.59 70.8801 51.97 70.8701 44.34 70.8901C41.67 70.8901 39.51 69.9101 37.93 67.7601C37.06 66.5801 36.66 65.2101 36.64 63.7701C36.59 60.4101 36.63 57.0601 36.63 53.7001C36.63 53.5201 36.63 53.3401 36.63 53.1101V53.0801ZM60.36 59.6301C60.36 59.6301 60.33 59.6301 60.32 59.6301C60.32 58.6901 60.34 57.7501 60.32 56.8201C60.3 55.9901 59.97 55.2701 59.39 54.6701C57.78 53.0001 55.75 52.7301 53.69 53.6601C52.31 54.2801 51.41 55.3901 51.35 56.9601C51.29 58.7401 51.33 60.5301 51.35 62.3101C51.35 62.9501 51.53 63.5601 51.91 64.1001C53.2 65.9001 55.54 66.6401 57.59 65.8201C59.26 65.1601 60.48 63.9301 60.36 61.7601C60.32 61.0501 60.36 60.3401 60.36 59.6301Z" fill="#002C3A"/>
</svg>
