<svg width="374" height="421" viewBox="0 0 374 421" fill="none" xmlns="http://www.w3.org/2000/svg">
<path d="M34.8301 3.3999H339.26C356.44 3.3999 370.39 17.3499 370.39 34.5299V385.88C370.39 403.06 356.44 417.01 339.26 417.01H34.8301C17.6501 417.01 3.70007 403.06 3.70007 385.88V34.5299C3.70007 17.3499 17.6501 3.3999 34.8301 3.3999Z" fill="#FFAA17"/>
<path d="M339.26 6.8C354.57 6.8 366.99 19.21 366.99 34.53V385.88C366.99 401.19 354.58 413.61 339.26 413.61H34.8301C19.5201 413.61 7.09998 401.2 7.09998 385.88V34.53C7.09998 19.22 19.5101 6.8 34.8301 6.8H339.26ZM339.26 0H34.8301C15.7901 0 0.300049 15.49 0.300049 34.53V385.88C0.300049 404.92 15.7901 420.41 34.8301 420.41H339.26C358.3 420.41 373.79 404.92 373.79 385.88V34.53C373.79 15.49 358.3 0 339.26 0Z" fill="#0E361B"/>
<path d="M366.98 353.27V34.54C366.98 19.2252 354.565 6.81006 339.25 6.81006L34.82 6.81006C19.5051 6.81006 7.09 19.2252 7.09 34.54V353.27C7.09 368.585 19.5051 381 34.82 381H339.25C354.565 381 366.98 368.585 366.98 353.27Z" fill="#FFDA33"/>
<g style="mix-blend-mode:overlay" opacity="0.2">
<path d="M330.05 16.52H44.04C28.9351 16.52 16.6901 28.765 16.6901 43.87V336.25C16.6901 351.355 28.9351 363.6 44.04 363.6H330.05C345.155 363.6 357.4 351.355 357.4 336.25V43.87C357.4 28.765 345.155 16.52 330.05 16.52Z" fill="white"/>
</g>
<g style="mix-blend-mode:overlay" opacity="0.2">
<path d="M335.51 397.88V397.87C335.51 393.076 331.624 389.19 326.83 389.19H47.26C42.4662 389.19 38.58 393.076 38.58 397.87V397.88C38.58 402.674 42.4662 406.56 47.26 406.56H326.83C331.624 406.56 335.51 402.674 335.51 397.88Z" fill="white"/>
</g>
<path d="M339.26 377.16H34.8301C19.5201 377.16 7.09998 364.75 7.09998 349.43V353.26C7.09998 368.57 19.5101 380.99 34.8301 380.99H339.26C354.57 380.99 366.99 368.58 366.99 353.26V349.43C366.99 364.74 354.58 377.16 339.26 377.16Z" fill="#FBFF5A"/>
<path d="M16.6901 97.99V125.14L93.01 16.52H72.59L16.6901 97.99Z" fill="#FFFF4A"/>
<path d="M16.6901 79.17L67.12 16.53H44.04C41.65 16.53 39.34 16.84 37.13 17.41L16.6901 42.38V79.17Z" fill="#FFFF4A"/>
<path d="M357.4 289.27V262.12L281.07 363.61H301.49L357.4 289.27Z" fill="#FFFF4A"/>
<path d="M357.4 296.55L306.97 363.61H330.05C332.44 363.61 334.75 363.3 336.96 362.73L357.4 335.55V296.55Z" fill="#FFFF4A"/>
<path d="M33.4972 336.19V284.614H41.602V328.822H54.9381V336.19H33.4972ZM66.5698 291.982V306.35H77.6955V313.718H66.5698V328.822H80.569V336.19H58.465V284.614H80.569V291.982H66.5698ZM103.569 284.614L111.821 336.19H103.643L102.243 326.833H92.2962L90.8963 336.19H83.4546L91.7068 284.614H103.569ZM97.2328 293.75L93.3277 319.833H101.138L97.2328 293.75ZM115.596 336.19V284.614H128.416C136.521 284.614 140.5 289.108 140.5 297.361V323.443C140.5 331.695 136.521 336.19 128.416 336.19H115.596ZM128.269 291.982H123.701V328.822H128.269C130.848 328.822 132.395 327.496 132.395 323.812V296.992C132.395 293.308 130.848 291.982 128.269 291.982ZM153.777 291.982V306.35H164.903V313.718H153.777V328.822H167.776V336.19H145.672V284.614H167.776V291.982H153.777ZM197.997 336.19H189.745C189.303 334.864 189.008 334.053 189.008 329.853V321.749C189.008 316.959 187.387 315.191 183.703 315.191H180.903V336.19H172.799V284.614H185.029C193.429 284.614 197.039 288.519 197.039 296.476V300.529C197.039 305.834 195.345 309.297 191.734 310.991C195.787 312.686 197.113 316.591 197.113 321.97V329.927C197.113 332.432 197.187 334.274 197.997 336.19ZM184.808 291.982H180.903V307.823H184.072C187.092 307.823 188.934 306.497 188.934 302.371V297.287C188.934 293.603 187.682 291.982 184.808 291.982ZM214.674 284.614C223.074 284.614 226.684 288.519 226.684 296.476V298.318C226.684 303.623 225.063 307.013 221.453 308.707C225.8 310.402 227.494 314.307 227.494 319.759V323.959C227.494 331.917 223.295 336.19 215.19 336.19H202.443V284.614H214.674ZM214.158 312.981H210.548V328.822H215.19C217.916 328.822 219.39 327.569 219.39 323.738V319.244C219.39 314.454 217.842 312.981 214.158 312.981ZM214.453 291.982H210.548V305.613H213.716C216.737 305.613 218.579 304.286 218.579 300.16V297.287C218.579 293.603 217.327 291.982 214.453 291.982ZM239.817 296.476V324.327C239.817 328.011 241.438 329.411 244.017 329.411C246.596 329.411 248.217 328.011 248.217 324.327V296.476C248.217 292.792 246.596 291.392 244.017 291.392C241.438 291.392 239.817 292.792 239.817 296.476ZM231.713 323.812V296.992C231.713 288.74 236.06 284.025 244.017 284.025C251.975 284.025 256.322 288.74 256.322 296.992V323.812C256.322 332.064 251.975 336.779 244.017 336.779C236.06 336.779 231.713 332.064 231.713 323.812ZM279.495 284.614L287.747 336.19H279.568L278.168 326.833H268.222L266.822 336.19H259.38L267.632 284.614H279.495ZM273.158 293.75L269.253 319.833H277.063L273.158 293.75ZM316.72 336.19H308.468C308.025 334.864 307.731 334.053 307.731 329.853V321.749C307.731 316.959 306.11 315.191 302.426 315.191H299.626V336.19H291.521V284.614H303.752C312.152 284.614 315.762 288.519 315.762 296.476V300.529C315.762 305.834 314.067 309.297 310.457 310.991C314.509 312.686 315.836 316.591 315.836 321.97V329.927C315.836 332.432 315.909 334.274 316.72 336.19ZM303.531 291.982H299.626V307.823H302.794C305.815 307.823 307.657 306.497 307.657 302.371V297.287C307.657 293.603 306.405 291.982 303.531 291.982ZM321.166 336.19V284.614H333.986C342.091 284.614 346.07 289.108 346.07 297.361V323.443C346.07 331.695 342.091 336.19 333.986 336.19H321.166ZM333.839 291.982H329.271V328.822H333.839C336.418 328.822 337.965 327.496 337.965 323.812V296.992C337.965 293.308 336.418 291.982 333.839 291.982Z" fill="#32330E"/>
<path d="M325.79 47.8501H48.52C37.64 47.8501 28.8201 56.6701 28.8201 67.5501V242.42C28.8201 253.3 37.64 262.12 48.52 262.12H325.79C336.67 262.12 345.49 253.3 345.49 242.42V67.5501C345.49 56.6701 336.67 47.8501 325.79 47.8501Z" fill="#FFFF4A"/>
<path d="M325.53 34.53H48.78C37.7564 34.53 28.8201 43.4664 28.8201 54.49V234.53C28.8201 245.554 37.7564 254.49 48.78 254.49H325.53C336.554 254.49 345.49 245.554 345.49 234.53V54.49C345.49 43.4664 336.554 34.53 325.53 34.53Z" fill="#32330E"/>
<path d="M243.62 109.05V98.2599H220.75L211.57 95.7999C211.57 95.7999 205.09 85.7999 205.08 85.7999L196.99 73.3299C193.42 67.8399 187.59 67.8399 184.02 73.3299L175.93 85.7999L169.45 95.7999L160.27 98.2599H137.37V109.05H137.4C137.26 110.95 137.94 113.04 139.58 115.06L148.94 126.6L156.44 135.85L155.03 162.59C154.69 169.13 159.41 172.56 165.52 170.22L190.51 160.61L215.5 170.22C221.62 172.56 226.33 169.13 225.99 162.59L224.58 135.85L232.07 126.6L241.43 115.06C243.07 113.04 243.75 110.95 243.61 109.05H243.62Z" fill="#FFAA17"/>
<path d="M237.43 91.1L211.57 84.18C211.57 84.18 205.09 74.18 205.08 74.18L196.99 61.72C193.42 56.22 187.59 56.22 184.02 61.72L175.93 74.18L169.45 84.18L143.59 91.1C137.27 92.79 135.46 98.34 139.58 103.43L148.94 114.97L156.44 124.22L155.03 150.96C154.69 157.5 159.41 160.93 165.52 158.59L190.51 148.98L215.5 158.59C221.62 160.93 226.33 157.5 225.99 150.96L224.58 124.22L232.07 114.97L241.43 103.43C245.55 98.34 243.75 92.79 237.42 91.1H237.43Z" fill="#FFDA33"/>
<g style="mix-blend-mode:overlay" opacity="0.2">
<path d="M162.93 85.9199L143.59 91.0899C141.35 91.6899 139.69 92.7799 138.65 94.1499L185.16 151.03L190.51 148.97L215.5 158.58C218.15 159.59 220.53 159.52 222.36 158.58L162.93 85.8999V85.9199Z" fill="white"/>
</g>
<g style="mix-blend-mode:overlay" opacity="0.2">
<path d="M232.13 114.9L186.46 59.05C185.59 59.71 184.76 60.59 184.03 61.71L176.2 73.7701L225.08 133.54L224.59 124.22L232.08 114.97L232.13 114.9Z" fill="white"/>
</g>
<path d="M138.31 120.77L136.14 113.93L121.65 118.53L115.34 118.82C115.34 118.82 109.22 113.79 109.21 113.79L101.58 107.52C98.2101 104.76 94.52 105.93 93.36 110.13L90.74 119.66L88.64 127.3L83.3201 130.7L68.8 135.31L70.97 142.15H70.99C71.28 143.37 72.1401 144.56 73.5801 145.51L81.8301 150.94L88.4401 155.3L92.92 172.53C94.02 176.74 97.7 177.97 101.11 175.25L115.02 164.13L132.79 165.19C137.14 165.44 139.44 162.32 137.9 158.24L131.63 141.57L134.52 134.2L138.13 125C138.76 123.39 138.78 121.93 138.3 120.75L138.31 120.77Z" fill="#FFAA17"/>
<path d="M130.78 110.63L113 111.44L106.88 106.41L99.24 100.13C95.87 97.37 92.18 98.54 91.02 102.74L88.4 112.27L86.3001 119.91L71.3001 129.5C67.6301 131.84 67.6 135.72 71.24 138.12L79.5 143.55L86.11 147.91L90.6 165.14C91.7 169.35 95.3801 170.58 98.7901 167.87L112.7 156.75L130.47 157.81C134.82 158.06 137.12 154.94 135.58 150.86L129.31 134.2L132.2 126.83L135.81 117.63C137.4 113.57 135.14 110.42 130.79 110.62L130.78 110.63Z" fill="#FFDA33"/>
<g style="mix-blend-mode:overlay" opacity="0.2">
<path d="M82.52 122.34L71.3 129.51C70 130.34 69.17 131.36 68.78 132.44L109.71 159.13L112.69 156.75L130.46 157.81C132.34 157.92 133.84 157.39 134.81 156.44L82.52 122.33V122.34Z" fill="white"/>
</g>
<g style="mix-blend-mode:overlay" opacity="0.2">
<path d="M132.21 126.79L92.03 100.58C91.61 101.18 91.26 101.9 91.03 102.75L88.49 111.97L131.49 140.02L129.3 134.21L132.19 126.84L132.21 126.79Z" fill="white"/>
</g>
<path d="M243.8 120.59L245.97 113.75L260.46 118.35L266.77 118.64C266.77 118.64 272.89 113.61 272.9 113.61L280.53 107.33C283.9 104.57 287.59 105.74 288.75 109.94L291.37 119.47L293.47 127.11L298.8 130.51L313.32 135.12L311.15 141.96H311.13C310.84 143.18 309.98 144.37 308.54 145.32L300.29 150.75L293.68 155.11L289.19 172.34C288.09 176.55 284.41 177.78 281 175.06L267.09 163.94L249.32 165C244.97 165.25 242.67 162.13 244.21 158.05L250.48 141.38L247.59 134.01L243.98 124.81C243.35 123.2 243.33 121.74 243.81 120.56L243.8 120.59Z" fill="#FFAA17"/>
<path d="M251.34 110.45L269.12 111.26L275.24 106.23L282.88 99.9499C286.25 97.1899 289.94 98.3599 291.1 102.56L293.72 112.09L295.82 119.73L310.82 129.32C314.49 131.66 314.52 135.54 310.88 137.94L302.63 143.37L296.02 147.73L291.53 164.96C290.43 169.17 286.75 170.4 283.34 167.69L269.43 156.57L251.66 157.63C247.31 157.88 245.01 154.76 246.55 150.68L252.82 134.01L249.94 126.64L246.33 117.44C244.74 113.38 247 110.23 251.35 110.43L251.34 110.45Z" fill="#FFDA33"/>
<g style="mix-blend-mode:overlay" opacity="0.2">
<path d="M299.6 122.16L310.82 129.33C312.12 130.16 312.95 131.18 313.34 132.26L272.41 158.95L269.43 156.57L251.66 157.63C249.78 157.74 248.28 157.21 247.31 156.26L299.6 122.15V122.16Z" fill="white"/>
</g>
<g style="mix-blend-mode:overlay" opacity="0.2">
<path d="M249.91 126.61L290.1 100.4C290.52 101 290.87 101.72 291.1 102.57L293.64 111.79L250.64 139.84L252.83 134.03L249.95 126.66L249.93 126.61H249.91Z" fill="white"/>
</g>
<path d="M279.37 153.85C277.42 153.04 275.17 153.97 274.36 155.92L255.31 201.67C254.5 203.62 255.43 205.87 257.38 206.68L294.18 222C299.1 224.05 302.44 221.42 301.62 216.16L300.52 209.14L299.42 202.13L297.92 192.56L305.76 186.89L311.51 182.73L317.28 178.56C321.59 175.44 321.09 171.22 316.18 169.17L279.38 153.85H279.37Z" fill="#B52020"/>
<path d="M101.64 153.85C103.59 153.04 105.84 153.97 106.65 155.92L125.7 201.67C126.51 203.62 125.58 205.87 123.63 206.68L86.8301 222C81.9201 224.05 78.57 221.42 79.39 216.16L80.49 209.14L81.5899 202.13L83.1 192.56L75.25 186.89L69.5 182.73L63.73 178.56C59.42 175.44 59.9201 171.22 64.8301 169.17L101.63 153.85H101.64Z" fill="#B52020"/>
<path d="M283.59 196.75C281.35 201.59 275.41 203.65 270.3 201.63C219.05 181.31 161.96 181.31 110.72 201.63C105.6 203.65 99.6601 201.59 97.4301 196.75C92.2401 185.25 87.04 173.75 81.85 162.25C79.62 157.42 83.06 151.03 89.63 148.43C154.42 122.74 226.61 122.74 291.39 148.43C297.95 151.03 301.41 157.41 299.17 162.25C293.98 173.75 288.78 185.25 283.59 196.75Z" fill="#E63535"/>
</svg>
