<svg width="1920" height="204" viewBox="0 0 1920 204" fill="none" xmlns="http://www.w3.org/2000/svg">
<g clip-path="url(#clip0_1_166)">
<path opacity="0.9" d="M1920 0H0V203.73H505.76C537.48 203.73 568.69 195.73 596.5 180.48C628.48 162.94 664.37 153.75 700.84 153.75H1920V0Z" fill="url(#paint0_linear_1_166)"/>
<g clip-path="url(#clip1_1_166)">
<path d="M662.73 21.9H956.07C968.12 21.9 977.9 31.68 977.9 43.73V100.67C977.9 112.72 968.12 122.5 956.07 122.5H662.72C650.67 122.5 640.89 112.72 640.89 100.67V43.73C640.9 31.68 650.68 21.9 662.73 21.9Z" fill="#043559"/>
<path d="M956.06 23.79C967.07 23.79 975.99 32.71 975.99 43.72V100.66C975.99 111.67 967.07 120.59 956.06 120.59H662.73C651.72 120.59 642.8 111.67 642.8 100.66V43.73C642.79 32.72 651.72 23.79 662.73 23.79H956.07M956.06 20H662.73C649.64 20 639 30.64 639 43.73V100.67C639 113.75 649.64 124.4 662.73 124.4H956.07C969.15 124.4 979.8 113.76 979.8 100.67V43.73C979.8 30.65 969.16 20 956.07 20H956.06Z" fill="#002C3A"/>
<path d="M976 82.03V44.19C976 32.9234 966.867 23.79 955.6 23.79L663.2 23.79C651.933 23.79 642.8 32.9234 642.8 44.19V82.03C642.8 93.2966 651.933 102.43 663.2 102.43L955.6 102.43C966.867 102.43 976 93.2966 976 82.03Z" fill="#1091FC"/>
<path d="M662.12 28.12H956.66C964.98 28.12 971.73 34.87 971.73 43.19V81.04C971.73 89.36 964.98 96.11 956.66 96.11H662.12C653.8 96.11 647.05 89.36 647.05 81.04V43.2C647.05 34.88 653.8 28.13 662.12 28.13V28.12Z" fill="#043E68"/>
<path d="M956.66 29.21C964.39 29.21 970.65 35.47 970.65 43.2V81.05C970.65 88.78 964.39 95.04 956.66 95.04H662.12C654.39 95.04 648.13 88.78 648.13 81.05V43.2C648.13 35.47 654.39 29.21 662.12 29.21H956.66ZM956.66 27.04H662.12C653.21 27.04 645.96 34.29 645.96 43.2V81.05C645.96 89.96 653.21 97.21 662.12 97.21H956.66C965.57 97.21 972.82 89.96 972.82 81.05V43.2C972.82 34.29 965.57 27.04 956.66 27.04Z" fill="#03ABFF"/>
<path d="M953.07 33.48H805.05C798.036 33.48 792.35 39.166 792.35 46.18V77.53C792.35 84.544 798.036 90.23 805.05 90.23H953.07C960.084 90.23 965.77 84.544 965.77 77.53V46.18C965.77 39.166 960.084 33.48 953.07 33.48Z" fill="#00263D"/>
<path d="M676.4 78V74C676.88 74.04 677.44 74.04 677.92 74.04C679.32 74.04 680.44 73.52 680.44 71.36V50H684.84V71.04C684.84 76.64 681.84 78.08 678.52 78.08C677.72 78.08 677.12 78.08 676.4 78ZM697.594 50L702.074 78H697.634L696.874 72.92H691.474L690.714 78H686.674L691.154 50H697.594ZM694.154 54.96L692.034 69.12H696.274L694.154 54.96ZM712.684 67.56H716.844V71.28C716.844 75.76 714.604 78.32 710.284 78.32C705.964 78.32 703.724 75.76 703.724 71.28V56.72C703.724 52.24 705.964 49.68 710.284 49.68C714.604 49.68 716.844 52.24 716.844 56.72V59.44H712.684V56.44C712.684 54.44 711.804 53.68 710.404 53.68C709.004 53.68 708.124 54.44 708.124 56.44V71.56C708.124 73.56 709.004 74.28 710.404 74.28C711.804 74.28 712.684 73.56 712.684 71.56V67.56ZM729.554 78L725.274 66.84L723.914 69.4V78H719.514V50H723.914V62.2L729.674 50H734.074L727.954 62.48L734.074 78H729.554ZM742.557 50C746.957 50 749.117 52.44 749.117 56.92V60.56C749.117 65.04 746.957 67.48 742.557 67.48H740.477V78H736.077V50H742.557ZM742.557 54H740.477V63.48H742.557C743.957 63.48 744.717 62.84 744.717 60.84V56.64C744.717 54.64 743.957 54 742.557 54ZM755.195 56.44V71.56C755.195 73.56 756.075 74.32 757.475 74.32C758.875 74.32 759.755 73.56 759.755 71.56V56.44C759.755 54.44 758.875 53.68 757.475 53.68C756.075 53.68 755.195 54.44 755.195 56.44ZM750.795 71.28V56.72C750.795 52.24 753.155 49.68 757.475 49.68C761.795 49.68 764.155 52.24 764.155 56.72V71.28C764.155 75.76 761.795 78.32 757.475 78.32C753.155 78.32 750.795 75.76 750.795 71.28ZM765.734 54V50H779.334V54H774.734V78H770.334V54H765.734Z" fill="white"/>
<path d="M824.64 56.64V53.52C828.04 53.52 828.8 51.88 829.48 50H832.44V78H828.04V56.64H824.64ZM846.259 58.44V56.88C846.259 54.36 845.379 53.68 843.979 53.68C842.579 53.68 841.699 54.44 841.699 56.44V58.24H837.539V56.72C837.539 52.24 839.779 49.68 844.099 49.68C848.419 49.68 850.659 52.24 850.659 56.72V57.44C850.659 60.44 849.699 62.32 847.579 63.2C849.779 64.16 850.659 66.24 850.659 69.08V71.28C850.659 75.76 848.419 78.32 844.099 78.32C839.779 78.32 837.539 75.76 837.539 71.28V68.96H841.699V71.56C841.699 73.56 842.579 74.32 843.979 74.32C845.379 74.32 846.259 73.64 846.259 71.16V68.96C846.259 66.36 845.379 65.4 843.379 65.4H841.899V61.4H843.619C845.259 61.4 846.259 60.68 846.259 58.44ZM853.639 73.76H857.879V78H853.639V73.76ZM860.861 68.96H865.021V71.56C865.021 73.56 865.901 74.28 867.301 74.28C868.701 74.28 869.581 73.56 869.581 71.56V65.4C869.581 63.4 868.701 62.64 867.301 62.64C865.901 62.64 865.021 63.4 865.021 65.4V66.24H860.861L861.661 50H873.261V54H865.621L865.261 60.68C866.061 59.36 867.341 58.64 869.101 58.64C872.341 58.64 873.981 60.92 873.981 65.04V71.28C873.981 75.76 871.741 78.32 867.421 78.32C863.101 78.32 860.861 75.76 860.861 71.28V68.96ZM885.64 56.88C885.64 54.36 884.76 53.68 883.36 53.68C881.96 53.68 881.08 54.44 881.08 56.44V59.44H876.92V56.72C876.92 52.24 879.16 49.68 883.48 49.68C887.8 49.68 890.04 52.24 890.04 56.72C890.04 65.52 881.28 68.8 881.28 73.4C881.28 73.6 881.28 73.8 881.32 74H889.64V78H876.92V74.56C876.92 66.32 885.64 64.96 885.64 56.88ZM898.43 56.72C898.43 52.24 900.63 49.68 904.91 49.68C909.19 49.68 911.39 52.24 911.39 56.72V57.6H907.23V56.44C907.23 54.44 906.43 53.68 905.03 53.68C903.63 53.68 902.83 54.44 902.83 56.44C902.83 62.2 911.43 63.28 911.43 71.28C911.43 75.76 909.19 78.32 904.87 78.32C900.55 78.32 898.31 75.76 898.31 71.28V69.56H902.47V71.56C902.47 73.56 903.35 74.28 904.75 74.28C906.15 74.28 907.03 73.56 907.03 71.56C907.03 65.8 898.43 64.72 898.43 56.72ZM917.991 56.44V71.56C917.991 73.56 918.871 74.32 920.271 74.32C921.671 74.32 922.551 73.56 922.551 71.56V56.44C922.551 54.44 921.671 53.68 920.271 53.68C918.871 53.68 917.991 54.44 917.991 56.44ZM913.591 71.28V56.72C913.591 52.24 915.951 49.68 920.271 49.68C924.591 49.68 926.951 52.24 926.951 56.72V71.28C926.951 75.76 924.591 78.32 920.271 78.32C915.951 78.32 913.591 75.76 913.591 71.28ZM929.811 78V50H934.211V74H941.451V78H929.811Z" fill="#7BDAFF"/>
<path d="M1317.45 21.9H1028.09C1014.93 21.9 1004.27 32.5646 1004.27 45.72V98.68C1004.27 111.835 1014.93 122.5 1028.09 122.5H1317.45C1330.61 122.5 1341.27 111.835 1341.27 98.68V45.72C1341.27 32.5646 1330.61 21.9 1317.45 21.9Z" fill="#043559"/>
<path d="M1317.45 23.79C1329.56 23.79 1339.37 33.6 1339.37 45.71V98.68C1339.37 110.79 1329.56 120.6 1317.45 120.6H1028.09C1015.98 120.6 1006.17 110.79 1006.17 98.68V45.71C1006.17 33.6 1015.98 23.79 1028.09 23.79H1317.45ZM1317.45 20H1028.09C1013.91 20 1002.38 31.53 1002.38 45.71V98.68C1002.38 112.86 1013.91 124.39 1028.09 124.39H1317.45C1331.63 124.39 1343.16 112.86 1343.16 98.68V45.71C1343.16 31.53 1331.63 20 1317.45 20Z" fill="#002C3A"/>
<path d="M1339.37 80.05V46.17C1339.37 33.8099 1329.35 23.79 1316.99 23.79L1028.55 23.79C1016.19 23.79 1006.17 33.8099 1006.17 46.17V80.05C1006.17 92.4102 1016.19 102.43 1028.55 102.43L1316.99 102.43C1329.35 102.43 1339.37 92.4102 1339.37 80.05Z" fill="#1091FC"/>
<path d="M1318.06 28.12H1027.49C1018.07 28.12 1010.43 35.758 1010.43 45.18V79.06C1010.43 88.482 1018.07 96.12 1027.49 96.12H1318.06C1327.48 96.12 1335.12 88.482 1335.12 79.06V45.18C1335.12 35.758 1327.48 28.12 1318.06 28.12Z" fill="#043E68"/>
<path d="M1318.05 29.21C1326.87 29.21 1334.03 36.36 1334.03 45.19V79.07C1334.03 87.89 1326.88 95.05 1318.05 95.05H1027.48C1018.66 95.05 1011.5 87.9 1011.5 79.07V45.18C1011.5 36.36 1018.65 29.2 1027.48 29.2H1318.05M1318.05 27.04H1027.48C1017.48 27.04 1009.34 35.18 1009.34 45.18V79.06C1009.34 89.06 1017.48 97.2 1027.48 97.2H1318.05C1328.05 97.2 1336.19 89.06 1336.19 79.06V45.18C1336.19 35.18 1328.05 27.04 1318.05 27.04Z" fill="#03ABFF"/>
<path d="M1315.22 33.48H1169.64C1161.95 33.48 1155.72 39.7122 1155.72 47.4V76.31C1155.72 83.9978 1161.95 90.23 1169.64 90.23H1315.22C1322.91 90.23 1329.14 83.9978 1329.14 76.31V47.4C1329.14 39.7122 1322.91 33.48 1315.22 33.48Z" fill="#00263D"/>
<path d="M1051.04 54.72C1051.04 50.24 1053.24 47.68 1057.52 47.68C1061.8 47.68 1064 50.24 1064 54.72V55.6H1059.84V54.44C1059.84 52.44 1059.04 51.68 1057.64 51.68C1056.24 51.68 1055.44 52.44 1055.44 54.44C1055.44 60.2 1064.04 61.28 1064.04 69.28C1064.04 73.76 1061.8 76.32 1057.48 76.32C1053.16 76.32 1050.92 73.76 1050.92 69.28V67.56H1055.08V69.56C1055.08 71.56 1055.96 72.28 1057.36 72.28C1058.76 72.28 1059.64 71.56 1059.64 69.56C1059.64 63.8 1051.04 62.72 1051.04 54.72ZM1070.6 54.44V69.56C1070.6 71.56 1071.48 72.32 1072.88 72.32C1074.28 72.32 1075.16 71.56 1075.16 69.56V54.44C1075.16 52.44 1074.28 51.68 1072.88 51.68C1071.48 51.68 1070.6 52.44 1070.6 54.44ZM1066.2 69.28V54.72C1066.2 50.24 1068.56 47.68 1072.88 47.68C1077.2 47.68 1079.56 50.24 1079.56 54.72V69.28C1079.56 73.76 1077.2 76.32 1072.88 76.32C1068.56 76.32 1066.2 73.76 1066.2 69.28ZM1082.42 76V48H1086.82V72H1094.06V76H1082.42ZM1094.58 76L1105.62 48H1109.42L1098.38 76H1094.58ZM1111.09 55.12C1111.09 51.36 1112.65 48.96 1115.73 48.28V46.2H1119.33V48.28C1122.45 48.92 1124.05 51.32 1124.05 55.12V56H1119.89V54.84C1119.89 52.84 1119.09 52.08 1117.69 52.08C1116.29 52.08 1115.49 52.84 1115.49 54.84C1115.49 60.6 1124.09 60.88 1124.09 68.88C1124.09 72.68 1122.45 75.12 1119.33 75.76V77.8H1115.73V75.76C1112.57 75.12 1110.97 72.68 1110.97 68.88V66.96H1115.13V69.16C1115.13 71.16 1116.01 71.88 1117.41 71.88C1118.81 71.88 1119.69 71.16 1119.69 69.16C1119.69 63.4 1111.09 63.12 1111.09 55.12Z" fill="white"/>
<path d="M1207.77 66.96H1211.93V69.56C1211.93 71.56 1212.81 72.28 1214.21 72.28C1215.61 72.28 1216.49 71.56 1216.49 69.56V63.4C1216.49 61.4 1215.61 60.64 1214.21 60.64C1212.81 60.64 1211.93 61.4 1211.93 63.4V64.24H1207.77L1208.57 48H1220.17V52H1212.53L1212.17 58.68C1212.97 57.36 1214.25 56.64 1216.01 56.64C1219.25 56.64 1220.89 58.92 1220.89 63.04V69.28C1220.89 73.76 1218.65 76.32 1214.33 76.32C1210.01 76.32 1207.77 73.76 1207.77 69.28V66.96ZM1236.75 54.72V69.04C1236.75 73.76 1234.59 76.32 1230.03 76.32C1225.71 76.32 1223.47 73.76 1223.47 69.28V68.56H1227.63V69.56C1227.63 71.56 1228.51 72.32 1229.91 72.32C1231.47 72.32 1232.35 71.56 1232.35 68.88V63.76C1231.59 65.36 1230.23 66.24 1228.27 66.24C1225.03 66.24 1223.39 63.96 1223.39 59.84V54.72C1223.39 50.24 1225.75 47.68 1230.07 47.68C1234.39 47.68 1236.75 50.24 1236.75 54.72ZM1230.07 62.24C1231.47 62.24 1232.35 61.48 1232.35 59.48V54.44C1232.35 52.44 1231.47 51.72 1230.07 51.72C1228.67 51.72 1227.79 52.44 1227.79 54.44V59.48C1227.79 61.48 1228.67 62.24 1230.07 62.24ZM1239.69 71.76H1243.93V76H1239.69V71.76ZM1255.83 54.88C1255.83 52.36 1254.95 51.68 1253.55 51.68C1252.15 51.68 1251.27 52.44 1251.27 54.44V57.44H1247.11V54.72C1247.11 50.24 1249.35 47.68 1253.67 47.68C1257.99 47.68 1260.23 50.24 1260.23 54.72C1260.23 63.52 1251.47 66.8 1251.47 71.4C1251.47 71.6 1251.47 71.8 1251.51 72H1259.83V76H1247.11V72.56C1247.11 64.32 1255.83 62.96 1255.83 54.88ZM1271.45 56.44V54.88C1271.45 52.36 1270.57 51.68 1269.17 51.68C1267.77 51.68 1266.89 52.44 1266.89 54.44V56.24H1262.73V54.72C1262.73 50.24 1264.97 47.68 1269.29 47.68C1273.61 47.68 1275.85 50.24 1275.85 54.72V55.44C1275.85 58.44 1274.89 60.32 1272.77 61.2C1274.97 62.16 1275.85 64.24 1275.85 67.08V69.28C1275.85 73.76 1273.61 76.32 1269.29 76.32C1264.97 76.32 1262.73 73.76 1262.73 69.28V66.96H1266.89V69.56C1266.89 71.56 1267.77 72.32 1269.17 72.32C1270.57 72.32 1271.45 71.64 1271.45 69.16V66.96C1271.45 64.36 1270.57 63.4 1268.57 63.4H1267.09V59.4H1268.81C1270.45 59.4 1271.45 58.68 1271.45 56.44Z" fill="#7BDAFF"/>
<path d="M1621.52 21.9H1383.24C1372.55 21.9 1363.88 30.5678 1363.88 41.26V103.14C1363.88 113.832 1372.55 122.5 1383.24 122.5H1621.52C1632.21 122.5 1640.88 113.832 1640.88 103.14V41.26C1640.88 30.5678 1632.21 21.9 1621.52 21.9Z" fill="#AE4E0C"/>
<path d="M1621.52 23.79C1631.16 23.79 1638.98 31.61 1638.98 41.25V103.13C1638.98 112.77 1631.16 120.59 1621.52 120.59H1383.24C1373.6 120.59 1365.78 112.77 1365.78 103.13V41.25C1365.78 31.61 1373.6 23.79 1383.24 23.79H1621.52ZM1621.52 20H1383.24C1371.52 20 1361.99 29.53 1361.99 41.25V103.13C1361.99 114.85 1371.52 124.38 1383.24 124.38H1621.52C1633.24 124.38 1642.77 114.85 1642.77 103.13V41.25C1642.77 29.53 1633.24 20 1621.52 20Z" fill="#002C3A"/>
<path d="M1638.98 84.5001V41.72C1638.98 31.8176 1630.95 23.79 1621.05 23.79L1383.71 23.79C1373.81 23.79 1365.78 31.8176 1365.78 41.72V84.5001C1365.78 94.4025 1373.81 102.43 1383.71 102.43L1621.05 102.43C1630.95 102.43 1638.98 94.4025 1638.98 84.5001Z" fill="#F1DB9F"/>
<path d="M1382.64 28.12H1622.12C1629.07 28.12 1634.72 33.77 1634.72 40.72V83.51C1634.72 90.46 1629.07 96.11 1622.12 96.11H1382.64C1375.69 96.11 1370.04 90.46 1370.04 83.51V40.73C1370.04 33.78 1375.69 28.13 1382.64 28.13V28.12Z" fill="#F6C014"/>
<path d="M1622.12 29.21C1628.48 29.21 1633.64 34.37 1633.64 40.73V83.52C1633.64 89.88 1628.48 95.04 1622.12 95.04H1382.64C1376.28 95.04 1371.12 89.88 1371.12 83.52V40.72C1371.12 34.36 1376.28 29.2 1382.64 29.2H1622.12M1622.12 27.04H1382.64C1375.09 27.04 1368.96 33.18 1368.96 40.72V83.51C1368.96 91.06 1375.1 97.19 1382.64 97.19H1622.12C1629.67 97.19 1635.8 91.05 1635.8 83.51V40.72C1635.8 33.17 1629.66 27.04 1622.12 27.04Z" fill="#FFFF64"/>
<path d="M1397.22 67.516H1401.8V71.608C1401.8 76.536 1399.33 79.352 1394.58 79.352C1389.83 79.352 1387.36 76.536 1387.36 71.608V55.592C1387.36 50.664 1389.83 47.848 1394.58 47.848C1399.33 47.848 1401.8 50.664 1401.8 55.592V58.584H1397.22V55.284C1397.22 53.084 1396.25 52.248 1394.71 52.248C1393.17 52.248 1392.2 53.084 1392.2 55.284V71.916C1392.2 74.116 1393.17 74.908 1394.71 74.908C1396.25 74.908 1397.22 74.116 1397.22 71.916V67.516ZM1409.18 55.284V71.916C1409.18 74.116 1410.14 74.952 1411.68 74.952C1413.22 74.952 1414.19 74.116 1414.19 71.916V55.284C1414.19 53.084 1413.22 52.248 1411.68 52.248C1410.14 52.248 1409.18 53.084 1409.18 55.284ZM1404.34 71.608V55.592C1404.34 50.664 1406.93 47.848 1411.68 47.848C1416.44 47.848 1419.03 50.664 1419.03 55.592V71.608C1419.03 76.536 1416.44 79.352 1411.68 79.352C1406.93 79.352 1404.34 76.536 1404.34 71.608ZM1432.52 79L1426.49 56.692V79H1422.13V48.2H1428.21L1433.18 66.636V48.2H1437.49V79H1432.52ZM1451.3 79L1445.27 56.692V79H1440.91V48.2H1446.98L1451.96 66.636V48.2H1456.27V79H1451.3ZM1464.57 52.6V61.18H1471.22V65.58H1464.57V74.6H1472.93V79H1459.73V48.2H1472.93V52.6H1464.57ZM1485.39 67.516H1489.97V71.608C1489.97 76.536 1487.5 79.352 1482.75 79.352C1478 79.352 1475.54 76.536 1475.54 71.608V55.592C1475.54 50.664 1478 47.848 1482.75 47.848C1487.5 47.848 1489.97 50.664 1489.97 55.592V58.584H1485.39V55.284C1485.39 53.084 1484.42 52.248 1482.88 52.248C1481.34 52.248 1480.38 53.084 1480.38 55.284V71.916C1480.38 74.116 1481.34 74.908 1482.88 74.908C1484.42 74.908 1485.39 74.116 1485.39 71.916V67.516ZM1491.5 52.6V48.2H1506.46V52.6H1501.4V79H1496.56V52.6H1491.5ZM1527.92 79L1526.16 62.588L1524.4 79H1517.75L1514.32 48.2H1519.03L1521.62 72.488L1523.96 48.2H1528.62L1531.04 72.664L1533.55 48.2H1537.77L1534.34 79H1527.92ZM1550.3 48.2L1555.23 79H1550.35L1549.51 73.412H1543.57L1542.74 79H1538.29L1543.22 48.2H1550.3ZM1546.52 53.656L1544.19 69.232H1548.85L1546.52 53.656ZM1557.49 79V48.2H1562.33V74.6H1570.29V79H1557.49ZM1572.4 79V48.2H1577.24V74.6H1585.2V79H1572.4ZM1592.15 52.6V61.18H1598.79V65.58H1592.15V74.6H1600.51V79H1587.31V48.2H1600.51V52.6H1592.15ZM1602.1 52.6V48.2H1617.06V52.6H1612V79H1607.16V52.6H1602.1Z" fill="#261500"/>
<path d="M1708.91 24.4701H1726.29C1749.52 24.4701 1768.38 43.3301 1768.38 66.5601V84.6201C1768.38 107.85 1749.52 126.71 1726.29 126.71H1708.91C1685.68 126.71 1666.82 107.85 1666.82 84.6201V66.5601C1666.82 43.3301 1685.68 24.4701 1708.91 24.4701Z" fill="#127B93"/>
<path d="M1726.3 26.4C1748.48 26.4 1766.47 44.38 1766.47 66.57V84.63C1766.47 106.81 1748.49 124.8 1726.3 124.8H1708.92C1686.74 124.8 1668.75 106.82 1668.75 84.63V66.57C1668.75 44.39 1686.73 26.4 1708.92 26.4H1726.3ZM1726.3 22.55H1708.92C1684.65 22.55 1664.9 42.3 1664.9 66.57V84.63C1664.9 108.9 1684.65 128.65 1708.92 128.65H1726.3C1750.57 128.65 1770.32 108.9 1770.32 84.63V66.57C1770.32 42.3 1750.57 22.55 1726.3 22.55Z" fill="#002C3A"/>
<path d="M1766.47 66.37V66.36C1766.47 44.2907 1748.58 26.4 1726.51 26.4H1708.72C1686.65 26.4 1668.76 44.2907 1668.76 66.36V66.37C1668.76 88.4393 1686.65 106.33 1708.72 106.33H1726.51C1748.58 106.33 1766.47 88.4393 1766.47 66.37Z" fill="#06BADD"/>
<path d="M1727.59 31.9H1707.63C1689.16 31.9 1674.18 46.8761 1674.18 65.35C1674.18 83.8239 1689.16 98.8 1707.63 98.8H1727.59C1746.06 98.8 1761.04 83.8239 1761.04 65.35C1761.04 46.8761 1746.06 31.9 1727.59 31.9Z" fill="#34EBE6"/>
<path d="M1820.78 24.4701H1838.16C1861.39 24.4701 1880.25 43.3301 1880.25 66.5601V84.6201C1880.25 107.85 1861.39 126.71 1838.16 126.71H1820.78C1797.55 126.71 1778.69 107.85 1778.69 84.6201V66.5601C1778.69 43.3301 1797.55 24.4701 1820.78 24.4701Z" fill="#127B93"/>
<path d="M1838.16 26.4C1860.34 26.4 1878.33 44.38 1878.33 66.57V84.63C1878.33 106.81 1860.35 124.8 1838.16 124.8H1820.78C1798.6 124.8 1780.61 106.82 1780.61 84.63V66.57C1780.61 44.39 1798.59 26.4 1820.78 26.4H1838.16ZM1838.16 22.55H1820.78C1796.51 22.55 1776.76 42.3 1776.76 66.57V84.63C1776.76 108.9 1796.51 128.65 1820.78 128.65H1838.16C1862.43 128.65 1882.18 108.9 1882.18 84.63V66.57C1882.18 42.3 1862.43 22.55 1838.16 22.55Z" fill="#002C3A"/>
<path d="M1878.33 66.36V66.35C1878.33 44.2807 1860.44 26.39 1838.37 26.39H1820.58C1798.51 26.39 1780.62 44.2807 1780.62 66.35V66.36C1780.62 88.4293 1798.51 106.32 1820.58 106.32H1838.37C1860.44 106.32 1878.33 88.4293 1878.33 66.36Z" fill="#06BADD"/>
<path d="M1839.45 31.9H1819.49C1801.02 31.9 1786.04 46.8761 1786.04 65.35C1786.04 83.8239 1801.02 98.8 1819.49 98.8H1839.45C1857.92 98.8 1872.9 83.8239 1872.9 65.35C1872.9 46.8761 1857.92 31.9 1839.45 31.9Z" fill="#34EBE6"/>
<path d="M1698.63 74.31C1699.67 75.51 1700.84 76.57 1702.11 77.52C1704.09 79.02 1706.26 80.16 1708.6 80.99C1708.76 81.05 1708.77 81.09 1708.67 81.22C1708.09 81.99 1707.51 82.76 1706.94 83.53C1706.86 83.64 1706.78 83.67 1706.64 83.67C1705.31 83.61 1704.01 83.4 1702.72 83.11C1699.98 82.48 1697.41 81.43 1695.07 79.86C1693.68 78.93 1692.43 77.83 1691.32 76.58C1691.26 76.51 1691.25 76.44 1691.25 76.35C1691.33 75.12 1691.43 73.89 1691.57 72.66C1691.71 71.37 1691.88 70.08 1692.09 68.8C1692.74 64.8 1693.7 60.88 1695.12 57.08C1695.95 54.85 1696.9 52.68 1698.11 50.63C1698.32 50.28 1698.57 50 1698.9 49.77C1701.31 48.09 1703.92 46.83 1706.74 46.02C1707.89 45.69 1709.05 45.47 1710.24 45.34C1710.36 45.33 1710.43 45.35 1710.49 45.48C1710.62 45.77 1710.77 46.06 1710.92 46.35C1710.98 46.47 1710.99 46.51 1710.84 46.54C1709.41 46.87 1708.01 47.31 1706.66 47.88C1704.56 48.77 1702.65 49.98 1700.89 51.44C1700.56 51.72 1700.23 52 1699.91 52.28C1699.88 52.31 1699.83 52.33 1699.82 52.39C1699.9 52.41 1699.95 52.36 1700.01 52.33C1701.69 51.48 1703.38 50.65 1705.14 49.97C1707.18 49.18 1709.28 48.59 1711.44 48.23C1713.97 47.81 1716.51 47.69 1719.07 47.77C1722.49 47.88 1725.84 48.45 1729.07 49.6C1731.19 50.35 1733.2 51.33 1735.2 52.34C1735.26 52.37 1735.32 52.4 1735.38 52.42C1735.4 52.42 1735.42 52.45 1735.44 52.42C1735.44 52.42 1735.42 52.4 1735.41 52.39C1734.85 51.86 1734.25 51.37 1733.65 50.89C1731.57 49.22 1729.24 48.04 1726.71 47.22C1725.93 46.97 1725.14 46.75 1724.35 46.55C1724.23 46.52 1724.22 46.49 1724.27 46.39C1724.42 46.11 1724.57 45.83 1724.69 45.54C1724.76 45.38 1724.86 45.35 1725.02 45.36C1725.95 45.46 1726.87 45.61 1727.78 45.84C1730.99 46.65 1733.91 48.09 1736.6 50C1736.72 50.09 1736.82 50.19 1736.9 50.32C1737.82 51.79 1738.57 53.35 1739.24 54.94C1740.26 57.35 1741.09 59.83 1741.76 62.37C1742.39 64.75 1742.88 67.17 1743.24 69.61C1743.52 71.44 1743.72 73.28 1743.87 75.12C1743.9 75.53 1743.92 75.93 1743.96 76.34C1743.96 76.46 1743.93 76.54 1743.86 76.63C1741.81 78.94 1739.33 80.64 1736.49 81.84C1734.71 82.59 1732.86 83.11 1730.95 83.43C1730.15 83.56 1729.35 83.66 1728.54 83.69C1728.43 83.69 1728.37 83.67 1728.3 83.58C1727.71 82.79 1727.12 82 1726.52 81.21C1726.42 81.08 1726.48 81.06 1726.59 81.02C1728.82 80.23 1730.91 79.15 1732.82 77.75C1734.19 76.75 1735.45 75.61 1736.57 74.33C1736.59 74.31 1736.6 74.29 1736.62 74.27C1736.64 74.27 1736.65 74.26 1736.67 74.25C1736.67 74.25 1736.64 74.23 1736.63 74.24C1736.6 74.24 1736.63 74.26 1736.63 74.27C1736.59 74.22 1736.57 74.27 1736.55 74.29C1736.08 74.62 1735.61 74.95 1735.13 75.27C1733 76.68 1730.71 77.76 1728.27 78.54C1726.62 79.07 1724.94 79.44 1723.22 79.7C1720.71 80.07 1718.19 80.16 1715.66 80.05C1712.34 79.9 1709.09 79.34 1705.95 78.21C1703.43 77.3 1701.08 76.05 1698.91 74.46C1698.83 74.4 1698.74 74.35 1698.66 74.29C1698.64 74.26 1698.62 74.22 1698.57 74.27C1698.57 74.26 1698.6 74.24 1698.57 74.24C1698.56 74.24 1698.54 74.24 1698.53 74.25C1698.55 74.25 1698.56 74.26 1698.58 74.27L1698.63 74.33V74.31ZM1705.62 66.84C1705.63 67.12 1705.63 67.35 1705.66 67.59C1705.83 68.85 1706.35 69.93 1707.33 70.77C1708.87 72.1 1711.15 71.98 1712.56 70.52C1713.34 69.72 1713.8 68.77 1713.94 67.67C1714.16 65.98 1713.73 64.49 1712.52 63.26C1711.01 61.73 1708.55 61.75 1707.05 63.3C1706.08 64.3 1705.64 65.51 1705.62 66.84ZM1729.58 67.1C1729.58 65.67 1729.2 64.56 1728.42 63.61C1727.64 62.67 1726.64 62.13 1725.4 62.12C1724.16 62.12 1723.16 62.65 1722.37 63.59C1721.73 64.34 1721.36 65.21 1721.25 66.19C1721.04 67.99 1721.53 69.56 1722.92 70.78C1724.44 72.11 1726.71 71.99 1728.12 70.55C1729.11 69.54 1729.56 68.31 1729.58 67.1ZM1699.81 52.41C1699.81 52.41 1699.81 52.41 1699.8 52.4C1699.8 52.4 1699.8 52.42 1699.79 52.42C1699.79 52.42 1699.79 52.42 1699.8 52.43C1699.8 52.43 1699.8 52.41 1699.81 52.41Z" fill="#71FFF4"/>
<path d="M1698.63 71.92C1699.67 73.12 1700.84 74.18 1702.11 75.13C1704.09 76.63 1706.26 77.77 1708.6 78.6C1708.76 78.66 1708.77 78.7 1708.67 78.83C1708.09 79.6 1707.51 80.37 1706.94 81.14C1706.86 81.25 1706.78 81.28 1706.64 81.28C1705.31 81.22 1704.01 81.01 1702.72 80.72C1699.98 80.09 1697.41 79.04 1695.07 77.47C1693.68 76.54 1692.43 75.44 1691.32 74.19C1691.26 74.12 1691.25 74.05 1691.25 73.96C1691.33 72.73 1691.43 71.5 1691.57 70.27C1691.71 68.98 1691.88 67.69 1692.09 66.41C1692.74 62.41 1693.7 58.49 1695.12 54.69C1695.95 52.46 1696.9 50.29 1698.11 48.24C1698.32 47.89 1698.57 47.61 1698.9 47.38C1701.31 45.7 1703.92 44.44 1706.74 43.63C1707.89 43.3 1709.05 43.08 1710.24 42.95C1710.36 42.94 1710.43 42.96 1710.49 43.09C1710.62 43.38 1710.77 43.67 1710.92 43.96C1710.98 44.08 1710.99 44.12 1710.84 44.15C1709.41 44.48 1708.01 44.92 1706.66 45.49C1704.56 46.38 1702.65 47.59 1700.89 49.05C1700.56 49.33 1700.23 49.61 1699.91 49.89C1699.88 49.92 1699.83 49.94 1699.82 50C1699.9 50.02 1699.95 49.97 1700.01 49.94C1701.69 49.09 1703.38 48.26 1705.14 47.58C1707.18 46.79 1709.28 46.2 1711.44 45.84C1713.97 45.42 1716.51 45.3 1719.07 45.38C1722.49 45.49 1725.84 46.06 1729.07 47.21C1731.19 47.96 1733.2 48.94 1735.2 49.95C1735.26 49.98 1735.32 50.01 1735.38 50.03C1735.4 50.03 1735.42 50.06 1735.44 50.03C1735.44 50.03 1735.42 50.01 1735.41 50C1734.85 49.47 1734.25 48.98 1733.65 48.5C1731.57 46.83 1729.24 45.65 1726.71 44.83C1725.93 44.58 1725.14 44.36 1724.35 44.16C1724.23 44.13 1724.22 44.1 1724.27 44C1724.42 43.72 1724.57 43.44 1724.69 43.15C1724.76 42.99 1724.86 42.96 1725.02 42.97C1725.95 43.07 1726.87 43.22 1727.78 43.45C1730.99 44.26 1733.91 45.7 1736.6 47.61C1736.72 47.7 1736.82 47.8 1736.9 47.93C1737.82 49.4 1738.57 50.96 1739.24 52.55C1740.26 54.96 1741.09 57.44 1741.76 59.98C1742.39 62.36 1742.88 64.78 1743.24 67.22C1743.52 69.05 1743.72 70.89 1743.87 72.73C1743.9 73.14 1743.92 73.54 1743.96 73.95C1743.96 74.07 1743.93 74.15 1743.86 74.24C1741.81 76.55 1739.33 78.25 1736.49 79.45C1734.71 80.2 1732.86 80.72 1730.95 81.04C1730.15 81.17 1729.35 81.27 1728.54 81.3C1728.43 81.3 1728.37 81.28 1728.3 81.19C1727.71 80.4 1727.12 79.61 1726.52 78.82C1726.42 78.69 1726.48 78.67 1726.59 78.63C1728.82 77.84 1730.91 76.76 1732.82 75.36C1734.19 74.36 1735.45 73.22 1736.57 71.94C1736.59 71.92 1736.6 71.9 1736.62 71.88C1736.64 71.88 1736.65 71.87 1736.67 71.86C1736.67 71.86 1736.64 71.84 1736.63 71.85C1736.6 71.85 1736.63 71.87 1736.63 71.88C1736.59 71.83 1736.57 71.88 1736.55 71.9C1736.08 72.23 1735.61 72.56 1735.13 72.88C1733 74.29 1730.71 75.37 1728.27 76.15C1726.62 76.68 1724.94 77.05 1723.22 77.31C1720.71 77.68 1718.19 77.77 1715.66 77.66C1712.34 77.51 1709.09 76.95 1705.95 75.82C1703.43 74.91 1701.08 73.66 1698.91 72.07C1698.83 72.01 1698.74 71.96 1698.66 71.9C1698.64 71.87 1698.62 71.83 1698.57 71.88C1698.57 71.87 1698.6 71.85 1698.57 71.85C1698.56 71.85 1698.54 71.85 1698.53 71.86C1698.55 71.86 1698.56 71.87 1698.58 71.88L1698.63 71.94V71.92ZM1705.62 64.45C1705.63 64.73 1705.63 64.96 1705.66 65.2C1705.83 66.46 1706.35 67.54 1707.33 68.38C1708.87 69.71 1711.15 69.59 1712.56 68.13C1713.34 67.33 1713.8 66.38 1713.94 65.28C1714.16 63.59 1713.73 62.1 1712.52 60.87C1711.01 59.34 1708.55 59.36 1707.05 60.91C1706.08 61.91 1705.64 63.12 1705.62 64.45ZM1729.58 64.7C1729.58 63.27 1729.2 62.16 1728.42 61.21C1727.64 60.27 1726.64 59.73 1725.4 59.72C1724.16 59.72 1723.16 60.25 1722.37 61.19C1721.73 61.94 1721.36 62.81 1721.25 63.79C1721.04 65.59 1721.53 67.16 1722.92 68.38C1724.44 69.71 1726.71 69.59 1728.12 68.15C1729.11 67.14 1729.56 65.91 1729.58 64.7ZM1699.81 50.02C1699.81 50.02 1699.81 50.02 1699.8 50.01C1699.8 50.01 1699.8 50.03 1699.79 50.03C1699.79 50.03 1699.79 50.03 1699.8 50.04C1699.8 50.04 1699.8 50.02 1699.81 50.02Z" fill="#002C3A"/>
<path d="M1855.93 51.09C1854.17 51.86 1852.28 52.3801 1850.29 52.6101C1852.32 51.4101 1853.88 49.52 1854.61 47.26C1852.71 48.37 1850.6 49.1801 1848.37 49.6101C1846.58 47.7301 1844.02 46.55 1841.2 46.55C1835.77 46.55 1831.37 50.88 1831.37 56.23C1831.37 56.99 1831.46 57.72 1831.62 58.43C1823.45 58.0301 1816.21 54.17 1811.36 48.32C1810.52 49.75 1810.03 51.41 1810.03 53.18C1810.03 56.54 1811.77 59.5 1814.4 61.23C1812.79 61.18 1811.27 60.7401 1809.95 60.0201V60.14C1809.95 61.38 1810.19 62.5601 1810.62 63.6501C1811.82 66.6801 1814.52 68.9801 1817.83 69.6301C1817 69.85 1816.14 69.9701 1815.24 69.9701C1814.61 69.9701 1813.99 69.9101 1813.39 69.7901C1814.64 73.6301 1818.27 76.43 1822.57 76.51C1819.2 79.11 1814.97 80.6501 1810.36 80.6501C1809.57 80.6501 1808.78 80.6 1808.01 80.51C1812.36 83.25 1817.53 84.8601 1823.08 84.8601C1838.45 84.8601 1847.89 74.21 1850.38 63.17C1850.82 61.22 1851.05 59.2501 1851.05 57.3301C1851.05 56.9101 1851.05 56.4901 1851.02 56.0801C1852.94 54.7201 1854.61 53.01 1855.92 51.07L1855.93 51.09Z" fill="#71FFF4"/>
<path d="M1855.93 48.7C1854.17 49.47 1852.28 49.99 1850.29 50.22C1852.32 49.02 1853.88 47.13 1854.61 44.87C1852.71 45.98 1850.6 46.79 1848.37 47.22C1846.58 45.34 1844.02 44.16 1841.2 44.16C1835.77 44.16 1831.37 48.49 1831.37 53.84C1831.37 54.6 1831.46 55.33 1831.62 56.04C1823.45 55.64 1816.21 51.78 1811.36 45.93C1810.52 47.36 1810.03 49.02 1810.03 50.79C1810.03 54.15 1811.77 57.11 1814.4 58.84C1812.79 58.79 1811.27 58.35 1809.95 57.63V57.75C1809.95 58.99 1810.19 60.17 1810.62 61.26C1811.82 64.29 1814.52 66.59 1817.83 67.24C1817 67.46 1816.14 67.58 1815.24 67.58C1814.61 67.58 1813.99 67.52 1813.39 67.4C1814.64 71.24 1818.27 74.04 1822.57 74.12C1819.2 76.72 1814.97 78.26 1810.36 78.26C1809.57 78.26 1808.78 78.21 1808.01 78.12C1812.36 80.86 1817.53 82.47 1823.08 82.47C1838.45 82.47 1847.89 71.82 1850.38 60.78C1850.82 58.83 1851.05 56.86 1851.05 54.94C1851.05 54.52 1851.05 54.1 1851.02 53.69C1852.94 52.33 1854.61 50.62 1855.92 48.68L1855.93 48.7Z" fill="#002C3A"/>
</g>
<path d="M236.059 15.15H550.941C560.019 15.15 567.388 24.98 567.388 37.09V107.22C567.388 119.33 560.019 129.16 550.941 129.16H236.059C226.981 129.16 219.612 119.33 219.612 107.22V37.09C219.612 24.98 226.981 15.15 236.059 15.15Z" fill="#7C2701"/>
<path d="M550.934 17.3C559.127 17.3 565.769 26.16 565.769 37.09V107.22C565.769 118.15 559.127 127.01 550.934 127.01H236.059C227.865 127.01 221.223 118.15 221.223 107.22V37.09C221.223 26.16 227.865 17.3 236.059 17.3H550.941M550.934 13H236.059C226.104 13 218 23.81 218 37.09V107.22C218 120.5 226.104 131.31 236.059 131.31H550.941C560.896 131.31 569 120.5 569 107.22V37.09C569 23.81 560.896 13 550.941 13H550.934Z" fill="#002C3A"/>
<path d="M566 85.7096V37.2904C566 26.0843 559.171 17 550.748 17L236.252 17C227.829 17 221 26.0843 221 37.2904V85.7096C221 96.9157 227.829 106 236.252 106L550.748 106C559.171 106 566 96.9157 566 85.7096Z" fill="#FFDA33"/>
<path d="M551.231 23H235.769C230.374 23 226 28.8732 226 36.1182V84.8818C226 92.1268 230.374 98 235.769 98H551.231C556.626 98 561 92.1268 561 84.8818V36.1182C561 28.8732 556.626 23 551.231 23Z" fill="#591E00"/>
<path d="M304.6 81V75C305.32 75.06 306.16 75.06 306.88 75.06C308.98 75.06 310.66 74.28 310.66 71.04V39H317.26V70.56C317.26 78.96 312.76 81.12 307.78 81.12C306.58 81.12 305.68 81.12 304.6 81ZM336.392 39L343.112 81H336.452L335.312 73.38H327.212L326.072 81H320.012L326.732 39H336.392ZM331.232 46.44L328.052 67.68H334.412L331.232 46.44ZM359.027 65.34H365.267V70.92C365.267 77.64 361.907 81.48 355.427 81.48C348.947 81.48 345.587 77.64 345.587 70.92V49.08C345.587 42.36 348.947 38.52 355.427 38.52C361.907 38.52 365.267 42.36 365.267 49.08V53.16H359.027V48.66C359.027 45.66 357.707 44.52 355.607 44.52C353.507 44.52 352.187 45.66 352.187 48.66V71.34C352.187 74.34 353.507 75.42 355.607 75.42C357.707 75.42 359.027 74.34 359.027 71.34V65.34ZM384.331 81L377.911 64.26L375.871 68.1V81H369.271V39H375.871V57.3L384.511 39H391.111L381.931 57.72L391.111 81H384.331ZM403.835 39C410.435 39 413.675 42.66 413.675 49.38V54.84C413.675 61.56 410.435 65.22 403.835 65.22H400.715V81H394.115V39H403.835ZM403.835 45H400.715V59.22H403.835C405.935 59.22 407.075 58.26 407.075 55.26V48.96C407.075 45.96 405.935 45 403.835 45ZM422.792 48.66V71.34C422.792 74.34 424.112 75.48 426.212 75.48C428.312 75.48 429.632 74.34 429.632 71.34V48.66C429.632 45.66 428.312 44.52 426.212 44.52C424.112 44.52 422.792 45.66 422.792 48.66ZM416.192 70.92V49.08C416.192 42.36 419.732 38.52 426.212 38.52C432.692 38.52 436.232 42.36 436.232 49.08V70.92C436.232 77.64 432.692 81.48 426.212 81.48C419.732 81.48 416.192 77.64 416.192 70.92ZM438.601 45V39H459.001V45H452.101V81H445.501V45H438.601Z" fill="#FFDA33"/>
</g>
<defs>
<linearGradient id="paint0_linear_1_166" x1="960" y1="-84.1" x2="960" y2="332.5" gradientUnits="userSpaceOnUse">
<stop offset="0.33" stop-color="#0D5C7C"/>
<stop offset="0.6" stop-color="#094259"/>
</linearGradient>
<clipPath id="clip0_1_166">
<rect width="1920" height="203.73" fill="white"/>
</clipPath>
<clipPath id="clip1_1_166">
<rect width="1243.18" height="108.64" fill="white" transform="translate(639 20)"/>
</clipPath>
</defs>
</svg>
