<svg width="1919" height="153" viewBox="0 0 1919 153" fill="none" xmlns="http://www.w3.org/2000/svg">
<path opacity="0.9" d="M0 152.75V37.16V-1H1920V152.75H700.84H0Z" fill="url(#paint0_linear_214_237)"/>
<g clip-path="url(#clip0_214_237)">
<path d="M212.3 20.1499H632.35C644.46 20.1499 654.29 29.9799 654.29 42.0899V112.22C654.29 124.33 644.46 134.16 632.35 134.16H212.3C200.19 134.16 190.36 124.33 190.36 112.22V42.0899C190.36 29.9799 200.19 20.1499 212.3 20.1499Z" fill="#7C2701"/>
<path d="M632.34 22.3C643.27 22.3 652.13 31.16 652.13 42.09V112.22C652.13 123.15 643.27 132.01 632.34 132.01H212.3C201.37 132.01 192.51 123.15 192.51 112.22V42.09C192.51 31.16 201.37 22.3 212.3 22.3H632.35M632.34 18H212.3C199.02 18 188.21 28.81 188.21 42.09V112.22C188.21 125.5 199.02 136.31 212.3 136.31H632.35C645.63 136.31 656.44 125.5 656.44 112.22V42.09C656.44 28.81 645.63 18 632.35 18H632.34Z" fill="#002C3A"/>
<path d="M652.13 91.1V42.61C652.13 31.3876 643.032 22.29 631.81 22.29L212.82 22.29C201.598 22.29 192.5 31.3876 192.5 42.61V91.1C192.5 102.322 201.598 111.42 212.82 111.42L631.81 111.42C643.032 111.42 652.13 102.322 652.13 91.1Z" fill="#FFDA33"/>
<path d="M633.03 28.4299H211.61C204.403 28.4299 198.56 34.2726 198.56 41.4799V89.9899C198.56 97.1972 204.403 103.04 211.61 103.04H633.03C640.237 103.04 646.08 97.1972 646.08 89.9899V41.4799C646.08 34.2726 640.237 28.4299 633.03 28.4299Z" fill="#591E00"/>
<path d="M361.4 86V44H368V80H378.86V86H361.4ZM388.332 50V61.7H397.392V67.7H388.332V80H399.732V86H381.732V44H399.732V50H388.332ZM418.462 44L425.182 86H418.522L417.382 78.38H409.282L408.142 86H402.082L408.802 44H418.462ZM413.302 51.44L410.122 72.68H416.482L413.302 51.44ZM428.255 86V44H438.695C445.295 44 448.535 47.66 448.535 54.38V75.62C448.535 82.34 445.295 86 438.695 86H428.255ZM438.575 50H434.855V80H438.575C440.675 80 441.935 78.92 441.935 75.92V54.08C441.935 51.08 440.675 50 438.575 50ZM459.348 50V61.7H468.408V67.7H459.348V80H470.748V86H452.748V44H470.748V50H459.348ZM495.358 86H488.638C488.277 84.92 488.038 84.26 488.038 80.84V74.24C488.038 70.34 486.718 68.9 483.718 68.9H481.438V86H474.838V44H484.798C491.638 44 494.578 47.18 494.578 53.66V56.96C494.578 61.28 493.198 64.1 490.258 65.48C493.558 66.86 494.638 70.04 494.638 74.42V80.9C494.638 82.94 494.698 84.44 495.358 86ZM484.618 50H481.438V62.9H484.018C486.478 62.9 487.978 61.82 487.978 58.46V54.32C487.978 51.32 486.958 50 484.618 50ZM508.938 44C515.778 44 518.718 47.18 518.718 53.66V55.16C518.718 59.48 517.398 62.24 514.458 63.62C517.998 65 519.378 68.18 519.378 72.62V76.04C519.378 82.52 515.958 86 509.358 86H498.978V44H508.938ZM508.518 67.1H505.578V80H509.358C511.578 80 512.778 78.98 512.778 75.86V72.2C512.778 68.3 511.518 67.1 508.518 67.1ZM508.758 50H505.578V61.1H508.158C510.618 61.1 512.118 60.02 512.118 56.66V54.32C512.118 51.32 511.098 50 508.758 50ZM529.413 53.66V76.34C529.413 79.34 530.733 80.48 532.833 80.48C534.933 80.48 536.253 79.34 536.253 76.34V53.66C536.253 50.66 534.933 49.52 532.833 49.52C530.733 49.52 529.413 50.66 529.413 53.66ZM522.813 75.92V54.08C522.813 47.36 526.353 43.52 532.833 43.52C539.313 43.52 542.853 47.36 542.853 54.08V75.92C542.853 82.64 539.313 86.48 532.833 86.48C526.353 86.48 522.813 82.64 522.813 75.92ZM561.724 44L568.444 86H561.784L560.644 78.38H552.544L551.404 86H545.344L552.064 44H561.724ZM556.564 51.44L553.384 72.68H559.744L556.564 51.44ZM592.037 86H585.317C584.957 84.92 584.717 84.26 584.717 80.84V74.24C584.717 70.34 583.397 68.9 580.397 68.9H578.117V86H571.517V44H581.477C588.317 44 591.257 47.18 591.257 53.66V56.96C591.257 61.28 589.877 64.1 586.937 65.48C590.237 66.86 591.317 70.04 591.317 74.42V80.9C591.317 82.94 591.377 84.44 592.037 86ZM581.297 50H578.117V62.9H580.697C583.157 62.9 584.657 61.82 584.657 58.46V54.32C584.657 51.32 583.637 50 581.297 50ZM595.658 86V44H606.098C612.698 44 615.938 47.66 615.938 54.38V75.62C615.938 82.34 612.698 86 606.098 86H595.658ZM605.978 50H602.258V80H605.978C608.078 80 609.338 78.92 609.338 75.92V54.08C609.338 51.08 608.078 50 605.978 50Z" fill="#FFDA33"/>
<path d="M295.64 51.5901V47.4201H286.79L283.24 46.4701L280.73 42.6001L277.6 37.7801C276.22 35.6501 273.96 35.6501 272.58 37.7801L269.45 42.6001L266.94 46.4701L263.39 47.4201H254.53V51.5901H254.54C254.48 52.3201 254.75 53.1301 255.38 53.9101L259 58.3701L261.9 61.9501L261.35 72.2901C261.22 74.8201 263.05 76.1501 265.41 75.2401L275.08 71.5201L284.75 75.2401C287.12 76.1501 288.94 74.8201 288.81 72.2901L288.27 61.9501L291.17 58.3701L294.79 53.9101C295.42 53.1301 295.69 52.3201 295.63 51.5901H295.64Z" fill="#FFAA17"/>
<path d="M293.25 44.6401L283.25 41.9601L280.74 38.0901L277.61 33.2701C276.23 31.1401 273.97 31.1401 272.59 33.2701L269.46 38.0901L266.95 41.9601L256.94 44.6401C254.49 45.2901 253.8 47.4401 255.39 49.4101L259.01 53.8801L261.91 57.4601L261.36 67.8001C261.23 70.3301 263.06 71.6601 265.42 70.7501L275.09 67.0301L284.76 70.7501C287.13 71.6601 288.95 70.3301 288.82 67.8001L288.28 57.4601L291.18 53.8801L294.8 49.4101C296.39 47.4401 295.7 45.2901 293.25 44.6401Z" fill="#FFDA33"/>
<g style="mix-blend-mode:overlay" opacity="0.2">
<path d="M264.43 42.6401L256.95 44.6401C256.08 44.8701 255.44 45.2901 255.04 45.8301L273.03 67.8401L275.1 67.0401L284.77 70.7601C285.79 71.1501 286.72 71.1201 287.42 70.7601L264.43 42.6401Z" fill="white"/>
</g>
<g style="mix-blend-mode:overlay" opacity="0.2">
<path d="M291.2 53.85L273.53 32.24C273.19 32.5 272.87 32.84 272.59 33.27L269.56 37.93L288.47 61.05L288.28 57.44L291.18 53.86L291.2 53.83V53.85Z" fill="white"/>
</g>
<path d="M254.91 56.1201L254.07 53.4701L248.46 55.2501L246.02 55.3601L243.65 53.4101L240.7 50.9801C239.4 49.9101 237.97 50.3601 237.52 51.9901L236.51 55.6801L235.7 58.6401L233.64 59.9601L228.02 61.7401L228.86 64.3901C228.97 64.8601 229.3 65.3201 229.86 65.6901L233.05 67.7901L235.61 69.4801L237.35 76.1501C237.78 77.7801 239.2 78.2501 240.52 77.2001L245.9 72.9001L252.78 73.3101C254.46 73.4101 255.35 72.2001 254.76 70.6201L252.33 64.1701L253.45 61.3201L254.85 57.7601C255.09 57.1401 255.1 56.5701 254.92 56.1201H254.91Z" fill="#FFAA17"/>
<path d="M251.99 52.2001L245.11 52.5101L242.74 50.5601L239.79 48.1301C238.49 47.0601 237.06 47.5201 236.61 49.1401L235.6 52.8301L234.79 55.7901L228.99 59.5001C227.57 60.4101 227.56 61.9101 228.97 62.8401L232.16 64.9401L234.72 66.6301L236.46 73.3001C236.89 74.9301 238.31 75.4001 239.63 74.3501L245.01 70.0501L251.89 70.4601C253.57 70.5601 254.46 69.3501 253.87 67.7701L251.44 61.3201L252.56 58.4701L253.96 54.9101C254.57 53.3401 253.7 52.1201 252.02 52.2001H251.99Z" fill="#FFDA33"/>
<g style="mix-blend-mode:overlay" opacity="0.2">
<path d="M233.32 56.7302L228.98 59.5002C228.48 59.8202 228.16 60.2202 228.01 60.6402L243.84 70.9702L244.99 70.0502L251.87 70.4602C252.6 70.5002 253.18 70.3002 253.55 69.9302L233.32 56.7402V56.7302Z" fill="white"/>
</g>
<g style="mix-blend-mode:overlay" opacity="0.2">
<path d="M252.54 58.4501L236.99 48.3101C236.83 48.5401 236.69 48.8201 236.6 49.1501L235.62 52.7201L252.26 63.5701L251.41 61.3201L252.53 58.4701V58.4501H252.54Z" fill="white"/>
</g>
<path d="M295.71 56.05L296.55 53.4L302.16 55.18L304.6 55.29L306.97 53.34L309.92 50.91C311.22 49.84 312.65 50.29 313.1 51.92L314.11 55.61L314.92 58.57L316.98 59.89L322.6 61.67L321.76 64.32C321.65 64.79 321.32 65.25 320.76 65.62L317.57 67.72L315.01 69.41L313.27 76.08C312.84 77.71 311.42 78.18 310.1 77.13L304.72 72.83L297.84 73.24C296.16 73.34 295.27 72.13 295.86 70.55L298.29 64.1L297.17 61.25L295.77 57.69C295.53 57.07 295.52 56.5 295.7 56.05H295.71Z" fill="#FFAA17"/>
<path d="M298.63 52.1301L305.51 52.4401L307.88 50.4901L310.83 48.0601C312.13 46.9901 313.56 47.4501 314.01 49.0701L315.02 52.7601L315.83 55.7201L321.63 59.4301C323.05 60.3401 323.06 61.8401 321.65 62.7701L318.46 64.8701L315.9 66.5601L314.16 73.2301C313.73 74.8601 312.31 75.3301 310.99 74.2801L305.61 69.9801L298.73 70.3901C297.05 70.4901 296.16 69.2801 296.75 67.7001L299.18 61.2501L298.06 58.4001L296.66 54.8401C296.05 53.2701 296.92 52.0501 298.6 52.1301H298.63Z" fill="#FFDA33"/>
<g style="mix-blend-mode:overlay" opacity="0.2">
<path d="M317.3 56.6601L321.64 59.4301C322.14 59.7501 322.47 60.1501 322.61 60.5601L306.78 70.8901L305.63 69.9701L298.75 70.3801C298.02 70.4201 297.44 70.2201 297.07 69.8501L317.3 56.6501V56.6601Z" fill="white"/>
</g>
<g style="mix-blend-mode:overlay" opacity="0.2">
<path d="M298.08 58.38L313.63 48.24C313.79 48.47 313.93 48.75 314.02 49.08L315 52.65L298.36 63.5L299.21 61.25L298.09 58.4V58.38H298.08Z" fill="white"/>
</g>
<path d="M309.48 68.9202C308.73 68.6102 307.85 68.9702 307.54 69.7202L300.17 87.4202C299.86 88.1702 300.22 89.0502 300.97 89.3602L315.21 95.2902C317.11 96.0802 318.41 95.0702 318.09 93.0302L317.66 90.3102L317.23 87.6002L316.65 83.9002L319.68 81.7102L321.91 80.1002L324.14 78.4902C325.81 77.2802 325.62 75.6502 323.71 74.8602L309.47 68.9302L309.48 68.9202Z" fill="#B52020"/>
<path d="M240.72 68.9202C241.47 68.6102 242.35 68.9702 242.66 69.7202L250.03 87.4202C250.34 88.1702 249.98 89.0502 249.23 89.3602L234.99 95.2902C233.09 96.0802 231.79 95.0702 232.11 93.0302L232.54 90.3102L232.97 87.6002L233.55 83.9002L230.52 81.7102L228.3 80.1002L226.07 78.4902C224.4 77.2802 224.59 75.6502 226.5 74.8602L240.74 68.9302L240.72 68.9202Z" fill="#B52020"/>
<path d="M311.11 85.5102C310.24 87.3802 307.95 88.1802 305.97 87.4002C286.14 79.5402 264.06 79.5402 244.23 87.4002C242.25 88.1802 239.95 87.3802 239.09 85.5102C237.08 81.0602 235.07 76.6102 233.06 72.1602C232.2 70.2902 233.53 67.8202 236.07 66.8102C261.14 56.8702 289.06 56.8702 314.13 66.8102C316.67 67.8202 318.01 70.2902 317.14 72.1602C315.13 76.6102 313.12 81.0602 311.11 85.5102Z" fill="#E63535"/>
<path d="M105.05 22.6899H86.64C62.0081 22.6899 42.04 42.658 42.04 67.2899V86.4099C42.04 111.042 62.0081 131.01 86.64 131.01H105.05C129.682 131.01 149.65 111.042 149.65 86.4099V67.2899C149.65 42.658 129.682 22.6899 105.05 22.6899Z" fill="#127B93"/>
<path d="M105.05 24.7299C128.55 24.7299 147.61 43.7799 147.61 67.2899V86.4199C147.61 109.92 128.56 128.98 105.05 128.98H86.63C63.13 128.98 44.07 109.93 44.07 86.4199V67.2899C44.08 43.7799 63.13 24.7299 86.64 24.7299H105.06M105.05 20.6499H86.63C60.92 20.6499 40 41.5699 40 67.2799V86.4099C40 112.13 60.92 133.05 86.64 133.05H105.06C130.78 133.05 151.7 112.13 151.7 86.4099V67.2799C151.7 41.5599 130.78 20.6399 105.06 20.6399L105.05 20.6499Z" fill="#002C3A"/>
<path d="M105.27 109.41C128.654 109.41 147.61 90.4537 147.61 67.07C147.61 43.6862 128.654 24.73 105.27 24.73H86.42C63.0363 24.73 44.08 43.6862 44.08 67.07C44.08 90.4537 63.0363 109.41 86.42 109.41H105.27Z" fill="#06BADD"/>
<path d="M106.41 30.5598H85.27C65.697 30.5598 49.83 46.4268 49.83 65.9998C49.83 85.5728 65.697 101.44 85.27 101.44H106.41C125.983 101.44 141.85 85.5728 141.85 65.9998C141.85 46.4268 125.983 30.5598 106.41 30.5598Z" fill="#34EBE6"/>
<path d="M76.63 74.1101C76.2 74.0401 75.81 73.9501 75.43 73.9201C71.94 73.6301 68.37 70.0301 68.91 65.5801C69.1 63.9701 69.75 62.5501 70.88 61.3901C73.09 59.1301 75.33 56.9001 77.56 54.6601C81.44 50.7701 85.32 46.8901 89.2 43.0101C89.67 42.5401 90.16 42.0901 90.63 41.6201C93.21 39.0301 98.15 38.7801 101.01 41.5801C103.51 44.0201 105.96 46.5101 108.44 48.9701C112.31 52.8301 116.16 56.7001 120.04 60.5301C121.4 61.8701 122.43 63.3701 122.74 65.2901C123.16 67.9501 122.27 70.1701 120.37 72.0101C119.08 73.2601 117.52 73.9001 115.72 73.9901C115.58 73.9901 115.45 74.0101 115.31 74.0301C115.25 74.0301 115.2 74.0701 115.11 74.1101V74.6001C115.11 77.9601 115.15 81.3201 115.1 84.6701C115.03 88.7701 111.88 91.3501 109.2 91.7401C108.54 91.8301 107.88 91.9001 107.21 91.9001C99.59 91.9101 91.97 91.9001 84.34 91.9201C81.67 91.9201 79.51 90.9401 77.93 88.7901C77.06 87.6101 76.66 86.2401 76.64 84.8001C76.59 81.4401 76.63 78.0901 76.63 74.7301C76.63 74.5501 76.63 74.3701 76.63 74.1401V74.1101ZM100.36 80.6601C100.36 80.6601 100.33 80.6601 100.32 80.6601C100.32 79.7201 100.34 78.7801 100.32 77.8501C100.3 77.0201 99.97 76.3001 99.39 75.7001C97.78 74.0301 95.75 73.7601 93.69 74.6901C92.31 75.3101 91.41 76.4201 91.35 77.9901C91.29 79.7701 91.33 81.5601 91.35 83.3401C91.35 83.9801 91.53 84.5901 91.91 85.1301C93.2 86.9301 95.54 87.6701 97.59 86.8501C99.26 86.1901 100.48 84.9601 100.36 82.7901C100.32 82.0801 100.36 81.3701 100.36 80.6601Z" fill="#9FFFFA"/>
<path d="M76.63 71.0801C76.2 71.0101 75.81 70.9201 75.43 70.8901C71.94 70.6001 68.37 67.0001 68.91 62.5501C69.1 60.9401 69.75 59.5201 70.88 58.3601C73.09 56.1001 75.33 53.8701 77.56 51.6301C81.44 47.7401 85.32 43.8601 89.2 39.9801C89.67 39.5101 90.16 39.0601 90.63 38.5901C93.21 36.0001 98.15 35.7501 101.01 38.5501C103.51 40.9901 105.96 43.4801 108.44 45.9401C112.31 49.8001 116.16 53.6701 120.04 57.5001C121.4 58.8401 122.43 60.3401 122.74 62.2601C123.16 64.9201 122.27 67.1401 120.37 68.9801C119.08 70.2301 117.52 70.8701 115.72 70.9601C115.58 70.9601 115.45 70.9801 115.31 71.0001C115.25 71.0001 115.2 71.0401 115.11 71.0801V71.5701C115.11 74.9301 115.15 78.2901 115.1 81.6401C115.03 85.7401 111.88 88.3201 109.2 88.7101C108.54 88.8001 107.88 88.8701 107.21 88.8701C99.59 88.8801 91.97 88.8701 84.34 88.8901C81.67 88.8901 79.51 87.9101 77.93 85.7601C77.06 84.5801 76.66 83.2101 76.64 81.7701C76.59 78.4101 76.63 75.0601 76.63 71.7001C76.63 71.5201 76.63 71.3401 76.63 71.1101V71.0801ZM100.36 77.6301C100.36 77.6301 100.33 77.6301 100.32 77.6301C100.32 76.6901 100.34 75.7501 100.32 74.8201C100.3 73.9901 99.97 73.2701 99.39 72.6701C97.78 71.0001 95.75 70.7301 93.69 71.6601C92.31 72.2801 91.41 73.3901 91.35 74.9601C91.29 76.7401 91.33 78.5301 91.35 80.3101C91.35 80.9501 91.53 81.5601 91.91 82.1001C93.2 83.9001 95.54 84.6401 97.59 83.8201C99.26 83.1601 100.48 81.9301 100.36 79.7601C100.32 79.0501 100.36 78.3401 100.36 77.6301Z" fill="#002C3A"/>
</g>
<path d="M928.16 26.0049H1221.5C1233.55 26.0049 1243.33 35.7849 1243.33 47.8349V104.775C1243.33 116.825 1233.55 126.605 1221.5 126.605H928.15C916.1 126.605 906.32 116.825 906.32 104.775V47.8349C906.33 35.7849 916.11 26.0049 928.16 26.0049Z" fill="#043559"/>
<path d="M1221.49 27.895C1232.5 27.895 1241.42 36.815 1241.42 47.825V104.765C1241.42 115.775 1232.5 124.695 1221.49 124.695H928.16C917.15 124.695 908.23 115.775 908.23 104.765V47.835C908.22 36.825 917.15 27.895 928.16 27.895H1221.5M1221.49 24.105H928.16C915.07 24.105 904.43 34.745 904.43 47.835V104.775C904.43 117.855 915.07 128.505 928.16 128.505H1221.5C1234.58 128.505 1245.23 117.865 1245.23 104.775V47.835C1245.23 34.755 1234.59 24.105 1221.5 24.105H1221.49Z" fill="#002C3A"/>
<path d="M1241.43 86.135V48.295C1241.43 37.0284 1232.3 27.895 1221.03 27.895L928.63 27.895C917.363 27.895 908.23 37.0284 908.23 48.295V86.135C908.23 97.4016 917.363 106.535 928.63 106.535L1221.03 106.535C1232.3 106.535 1241.43 97.4016 1241.43 86.135Z" fill="#1091FC"/>
<path d="M927.55 32.2251H1222.09C1230.41 32.2251 1237.16 38.9751 1237.16 47.2951V85.1451C1237.16 93.4651 1230.41 100.215 1222.09 100.215H927.55C919.23 100.215 912.48 93.4651 912.48 85.1451V47.3051C912.48 38.9851 919.23 32.2351 927.55 32.2351V32.2251Z" fill="#043E68"/>
<path d="M1222.09 33.315C1229.82 33.315 1236.08 39.575 1236.08 47.305V85.155C1236.08 92.885 1229.82 99.145 1222.09 99.145H927.55C919.82 99.145 913.56 92.885 913.56 85.155V47.305C913.56 39.575 919.82 33.315 927.55 33.315H1222.09ZM1222.09 31.145H927.55C918.64 31.145 911.39 38.395 911.39 47.305V85.155C911.39 94.065 918.64 101.315 927.55 101.315H1222.09C1231 101.315 1238.25 94.065 1238.25 85.155V47.305C1238.25 38.395 1231 31.145 1222.09 31.145Z" fill="#03ABFF"/>
<path d="M1218.5 37.585H1070.48C1063.47 37.585 1057.78 43.2709 1057.78 50.285V81.635C1057.78 88.649 1063.47 94.335 1070.48 94.335H1218.5C1225.51 94.335 1231.2 88.649 1231.2 81.635V50.285C1231.2 43.2709 1225.51 37.585 1218.5 37.585Z" fill="#00263D"/>
<path d="M941.83 82.105V78.105C942.31 78.145 942.87 78.145 943.35 78.145C944.75 78.145 945.87 77.625 945.87 75.465V54.105H950.27V75.145C950.27 80.745 947.27 82.185 943.95 82.185C943.15 82.185 942.55 82.185 941.83 82.105ZM963.024 54.105L967.504 82.105H963.064L962.304 77.025H956.904L956.144 82.105H952.104L956.584 54.105H963.024ZM959.584 59.065L957.464 73.225H961.704L959.584 59.065ZM978.114 71.665H982.274V75.385C982.274 79.865 980.034 82.425 975.714 82.425C971.394 82.425 969.154 79.865 969.154 75.385V60.825C969.154 56.345 971.394 53.785 975.714 53.785C980.034 53.785 982.274 56.345 982.274 60.825V63.545H978.114V60.545C978.114 58.545 977.234 57.785 975.834 57.785C974.434 57.785 973.554 58.545 973.554 60.545V75.665C973.554 77.665 974.434 78.385 975.834 78.385C977.234 78.385 978.114 77.665 978.114 75.665V71.665ZM994.984 82.105L990.704 70.945L989.344 73.505V82.105H984.944V54.105H989.344V66.305L995.104 54.105H999.504L993.384 66.585L999.504 82.105H994.984ZM1007.99 54.105C1012.39 54.105 1014.55 56.545 1014.55 61.025V64.665C1014.55 69.145 1012.39 71.585 1007.99 71.585H1005.91V82.105H1001.51V54.105H1007.99ZM1007.99 58.105H1005.91V67.585H1007.99C1009.39 67.585 1010.15 66.945 1010.15 64.945V60.745C1010.15 58.745 1009.39 58.105 1007.99 58.105ZM1020.62 60.545V75.665C1020.62 77.665 1021.5 78.425 1022.9 78.425C1024.3 78.425 1025.18 77.665 1025.18 75.665V60.545C1025.18 58.545 1024.3 57.785 1022.9 57.785C1021.5 57.785 1020.62 58.545 1020.62 60.545ZM1016.22 75.385V60.825C1016.22 56.345 1018.58 53.785 1022.9 53.785C1027.22 53.785 1029.58 56.345 1029.58 60.825V75.385C1029.58 79.865 1027.22 82.425 1022.9 82.425C1018.58 82.425 1016.22 79.865 1016.22 75.385ZM1031.16 58.105V54.105H1044.76V58.105H1040.16V82.105H1035.76V58.105H1031.16Z" fill="white"/>
<path d="M1090.07 60.745V57.625C1093.47 57.625 1094.23 55.985 1094.91 54.105H1097.87V82.105H1093.47V60.745H1090.07ZM1111.69 62.545V60.985C1111.69 58.465 1110.81 57.785 1109.41 57.785C1108.01 57.785 1107.13 58.545 1107.13 60.545V62.345H1102.97V60.825C1102.97 56.345 1105.21 53.785 1109.53 53.785C1113.85 53.785 1116.09 56.345 1116.09 60.825V61.545C1116.09 64.545 1115.13 66.425 1113.01 67.305C1115.21 68.265 1116.09 70.345 1116.09 73.185V75.385C1116.09 79.865 1113.85 82.425 1109.53 82.425C1105.21 82.425 1102.97 79.865 1102.97 75.385V73.065H1107.13V75.665C1107.13 77.665 1108.01 78.425 1109.41 78.425C1110.81 78.425 1111.69 77.745 1111.69 75.265V73.065C1111.69 70.465 1110.81 69.505 1108.81 69.505H1107.33V65.505H1109.05C1110.69 65.505 1111.69 64.785 1111.69 62.545ZM1119.07 77.865H1123.31V82.105H1119.07V77.865ZM1126.29 73.065H1130.45V75.665C1130.45 77.665 1131.33 78.385 1132.73 78.385C1134.13 78.385 1135.01 77.665 1135.01 75.665V69.505C1135.01 67.505 1134.13 66.745 1132.73 66.745C1131.33 66.745 1130.45 67.505 1130.45 69.505V70.345H1126.29L1127.09 54.105H1138.69V58.105H1131.05L1130.69 64.785C1131.49 63.465 1132.77 62.745 1134.53 62.745C1137.77 62.745 1139.41 65.025 1139.41 69.145V75.385C1139.41 79.865 1137.17 82.425 1132.85 82.425C1128.53 82.425 1126.29 79.865 1126.29 75.385V73.065ZM1151.07 60.985C1151.07 58.465 1150.19 57.785 1148.79 57.785C1147.39 57.785 1146.51 58.545 1146.51 60.545V63.545H1142.35V60.825C1142.35 56.345 1144.59 53.785 1148.91 53.785C1153.23 53.785 1155.47 56.345 1155.47 60.825C1155.47 69.625 1146.71 72.905 1146.71 77.505C1146.71 77.705 1146.71 77.905 1146.75 78.105H1155.07V82.105H1142.35V78.665C1142.35 70.425 1151.07 69.065 1151.07 60.985ZM1163.86 60.825C1163.86 56.345 1166.06 53.785 1170.34 53.785C1174.62 53.785 1176.82 56.345 1176.82 60.825V61.705H1172.66V60.545C1172.66 58.545 1171.86 57.785 1170.46 57.785C1169.06 57.785 1168.26 58.545 1168.26 60.545C1168.26 66.305 1176.86 67.385 1176.86 75.385C1176.86 79.865 1174.62 82.425 1170.3 82.425C1165.98 82.425 1163.74 79.865 1163.74 75.385V73.665H1167.9V75.665C1167.9 77.665 1168.78 78.385 1170.18 78.385C1171.58 78.385 1172.46 77.665 1172.46 75.665C1172.46 69.905 1163.86 68.825 1163.86 60.825ZM1183.42 60.545V75.665C1183.42 77.665 1184.3 78.425 1185.7 78.425C1187.1 78.425 1187.98 77.665 1187.98 75.665V60.545C1187.98 58.545 1187.1 57.785 1185.7 57.785C1184.3 57.785 1183.42 58.545 1183.42 60.545ZM1179.02 75.385V60.825C1179.02 56.345 1181.38 53.785 1185.7 53.785C1190.02 53.785 1192.38 56.345 1192.38 60.825V75.385C1192.38 79.865 1190.02 82.425 1185.7 82.425C1181.38 82.425 1179.02 79.865 1179.02 75.385ZM1195.24 82.105V54.105H1199.64V78.105H1206.88V82.105H1195.24Z" fill="#7BDAFF"/>
<path d="M1583.3 26.0049H1293.94C1280.78 26.0049 1270.12 36.6695 1270.12 49.8249V102.785C1270.12 115.94 1280.78 126.605 1293.94 126.605H1583.3C1596.46 126.605 1607.12 115.94 1607.12 102.785V49.8249C1607.12 36.6695 1596.46 26.0049 1583.3 26.0049Z" fill="#043559"/>
<path d="M1583.3 27.895C1595.41 27.895 1605.22 37.705 1605.22 49.815V102.785C1605.22 114.895 1595.41 124.705 1583.3 124.705H1293.94C1281.83 124.705 1272.02 114.895 1272.02 102.785V49.815C1272.02 37.705 1281.83 27.895 1293.94 27.895H1583.3ZM1583.3 24.105H1293.94C1279.76 24.105 1268.23 35.635 1268.23 49.815V102.785C1268.23 116.965 1279.76 128.495 1293.94 128.495H1583.3C1597.48 128.495 1609.01 116.965 1609.01 102.785V49.815C1609.01 35.635 1597.48 24.105 1583.3 24.105Z" fill="#002C3A"/>
<path d="M1605.22 84.155V50.275C1605.22 37.9149 1595.2 27.895 1582.84 27.895L1294.4 27.895C1282.04 27.895 1272.02 37.9149 1272.02 50.275V84.155C1272.02 96.5152 1282.04 106.535 1294.4 106.535L1582.84 106.535C1595.2 106.535 1605.22 96.5152 1605.22 84.155Z" fill="#1091FC"/>
<path d="M1583.91 32.2251H1293.34C1283.92 32.2251 1276.28 39.8631 1276.28 49.2851V83.1651C1276.28 92.5871 1283.92 100.225 1293.34 100.225H1583.91C1593.33 100.225 1600.97 92.5871 1600.97 83.1651V49.2851C1600.97 39.8631 1593.33 32.2251 1583.91 32.2251Z" fill="#043E68"/>
<path d="M1583.9 33.315C1592.72 33.315 1599.88 40.465 1599.88 49.295V83.175C1599.88 91.995 1592.73 99.155 1583.9 99.155H1293.33C1284.51 99.155 1277.35 92.005 1277.35 83.175V49.285C1277.35 40.465 1284.5 33.305 1293.33 33.305H1583.9M1583.9 31.145H1293.33C1283.33 31.145 1275.19 39.285 1275.19 49.285V83.165C1275.19 93.165 1283.33 101.305 1293.33 101.305H1583.9C1593.9 101.305 1602.04 93.165 1602.04 83.165V49.285C1602.04 39.285 1593.9 31.145 1583.9 31.145Z" fill="#03ABFF"/>
<path d="M1581.07 37.585H1435.49C1427.8 37.585 1421.57 43.8172 1421.57 51.505V80.415C1421.57 88.1028 1427.8 94.335 1435.49 94.335H1581.07C1588.76 94.335 1594.99 88.1028 1594.99 80.415V51.505C1594.99 43.8172 1588.76 37.585 1581.07 37.585Z" fill="#00263D"/>
<path d="M1316.89 58.825C1316.89 54.345 1319.09 51.785 1323.37 51.785C1327.65 51.785 1329.85 54.345 1329.85 58.825V59.705H1325.69V58.545C1325.69 56.545 1324.89 55.785 1323.49 55.785C1322.09 55.785 1321.29 56.545 1321.29 58.545C1321.29 64.305 1329.89 65.385 1329.89 73.385C1329.89 77.865 1327.65 80.425 1323.33 80.425C1319.01 80.425 1316.77 77.865 1316.77 73.385V71.665H1320.93V73.665C1320.93 75.665 1321.81 76.385 1323.21 76.385C1324.61 76.385 1325.49 75.665 1325.49 73.665C1325.49 67.905 1316.89 66.825 1316.89 58.825ZM1336.45 58.545V73.665C1336.45 75.665 1337.33 76.425 1338.73 76.425C1340.13 76.425 1341.01 75.665 1341.01 73.665V58.545C1341.01 56.545 1340.13 55.785 1338.73 55.785C1337.33 55.785 1336.45 56.545 1336.45 58.545ZM1332.05 73.385V58.825C1332.05 54.345 1334.41 51.785 1338.73 51.785C1343.05 51.785 1345.41 54.345 1345.41 58.825V73.385C1345.41 77.865 1343.05 80.425 1338.73 80.425C1334.41 80.425 1332.05 77.865 1332.05 73.385ZM1348.27 80.105V52.105H1352.67V76.105H1359.91V80.105H1348.27ZM1360.42 80.105L1371.46 52.105H1375.26L1364.22 80.105H1360.42ZM1376.94 59.225C1376.94 55.465 1378.5 53.065 1381.58 52.385V50.305H1385.18V52.385C1388.3 53.025 1389.9 55.425 1389.9 59.225V60.105H1385.74V58.945C1385.74 56.945 1384.94 56.185 1383.54 56.185C1382.14 56.185 1381.34 56.945 1381.34 58.945C1381.34 64.705 1389.94 64.985 1389.94 72.985C1389.94 76.785 1388.3 79.225 1385.18 79.865V81.905H1381.58V79.865C1378.42 79.225 1376.82 76.785 1376.82 72.985V71.065H1380.98V73.265C1380.98 75.265 1381.86 75.985 1383.26 75.985C1384.66 75.985 1385.54 75.265 1385.54 73.265C1385.54 67.505 1376.94 67.225 1376.94 59.225Z" fill="white"/>
<path d="M1473.62 71.065H1477.78V73.665C1477.78 75.665 1478.66 76.385 1480.06 76.385C1481.46 76.385 1482.34 75.665 1482.34 73.665V67.505C1482.34 65.505 1481.46 64.745 1480.06 64.745C1478.66 64.745 1477.78 65.505 1477.78 67.505V68.345H1473.62L1474.42 52.105H1486.02V56.105H1478.38L1478.02 62.785C1478.82 61.465 1480.1 60.745 1481.86 60.745C1485.1 60.745 1486.74 63.025 1486.74 67.145V73.385C1486.74 77.865 1484.5 80.425 1480.18 80.425C1475.86 80.425 1473.62 77.865 1473.62 73.385V71.065ZM1502.6 58.825V73.145C1502.6 77.865 1500.44 80.425 1495.88 80.425C1491.56 80.425 1489.32 77.865 1489.32 73.385V72.665H1493.48V73.665C1493.48 75.665 1494.36 76.425 1495.76 76.425C1497.32 76.425 1498.2 75.665 1498.2 72.985V67.865C1497.44 69.465 1496.08 70.345 1494.12 70.345C1490.88 70.345 1489.24 68.065 1489.24 63.945V58.825C1489.24 54.345 1491.6 51.785 1495.92 51.785C1500.24 51.785 1502.6 54.345 1502.6 58.825ZM1495.92 66.345C1497.32 66.345 1498.2 65.585 1498.2 63.585V58.545C1498.2 56.545 1497.32 55.825 1495.92 55.825C1494.52 55.825 1493.64 56.545 1493.64 58.545V63.585C1493.64 65.585 1494.52 66.345 1495.92 66.345ZM1505.54 75.865H1509.78V80.105H1505.54V75.865ZM1521.68 58.985C1521.68 56.465 1520.8 55.785 1519.4 55.785C1518 55.785 1517.12 56.545 1517.12 58.545V61.545H1512.96V58.825C1512.96 54.345 1515.2 51.785 1519.52 51.785C1523.84 51.785 1526.08 54.345 1526.08 58.825C1526.08 67.625 1517.32 70.905 1517.32 75.505C1517.32 75.705 1517.32 75.905 1517.36 76.105H1525.68V80.105H1512.96V76.665C1512.96 68.425 1521.68 67.065 1521.68 58.985ZM1537.3 60.545V58.985C1537.3 56.465 1536.42 55.785 1535.02 55.785C1533.62 55.785 1532.74 56.545 1532.74 58.545V60.345H1528.58V58.825C1528.58 54.345 1530.82 51.785 1535.14 51.785C1539.46 51.785 1541.7 54.345 1541.7 58.825V59.545C1541.7 62.545 1540.74 64.425 1538.62 65.305C1540.82 66.265 1541.7 68.345 1541.7 71.185V73.385C1541.7 77.865 1539.46 80.425 1535.14 80.425C1530.82 80.425 1528.58 77.865 1528.58 73.385V71.065H1532.74V73.665C1532.74 75.665 1533.62 76.425 1535.02 76.425C1536.42 76.425 1537.3 75.745 1537.3 73.265V71.065C1537.3 68.465 1536.42 67.505 1534.42 67.505H1532.94V63.505H1534.66C1536.3 63.505 1537.3 62.785 1537.3 60.545Z" fill="#7BDAFF"/>
<path d="M1690.02 26.0249H1707.4C1730.63 26.0249 1749.49 44.8849 1749.49 68.1149V86.1749C1749.49 109.405 1730.63 128.265 1707.4 128.265H1690.02C1666.79 128.265 1647.93 109.405 1647.93 86.1749V68.1149C1647.93 44.8849 1666.79 26.0249 1690.02 26.0249Z" fill="#127B93"/>
<path d="M1707.41 27.955C1729.59 27.955 1747.58 45.935 1747.58 68.125V86.185C1747.58 108.365 1729.6 126.355 1707.41 126.355H1690.03C1667.85 126.355 1649.86 108.375 1649.86 86.185V68.125C1649.86 45.945 1667.84 27.955 1690.03 27.955H1707.41ZM1707.41 24.105H1690.03C1665.76 24.105 1646.01 43.855 1646.01 68.125V86.185C1646.01 110.455 1665.76 130.205 1690.03 130.205H1707.41C1731.68 130.205 1751.43 110.455 1751.43 86.185V68.125C1751.43 43.855 1731.68 24.105 1707.41 24.105Z" fill="#002C3A"/>
<path d="M1747.58 67.925V67.915C1747.58 45.8457 1729.69 27.9551 1707.62 27.9551H1689.83C1667.76 27.9551 1649.87 45.8457 1649.87 67.915V67.925C1649.87 89.9943 1667.76 107.885 1689.83 107.885H1707.62C1729.69 107.885 1747.58 89.9943 1747.58 67.925Z" fill="#06BADD"/>
<path d="M1708.7 33.4551H1688.74C1670.27 33.4551 1655.29 48.4312 1655.29 66.9051C1655.29 85.379 1670.27 100.355 1688.74 100.355H1708.7C1727.17 100.355 1742.15 85.379 1742.15 66.9051C1742.15 48.4312 1727.17 33.4551 1708.7 33.4551Z" fill="#34EBE6"/>
<path d="M1679.74 75.8648C1680.78 77.0648 1681.95 78.1248 1683.22 79.0748C1685.2 80.5748 1687.37 81.7148 1689.71 82.5448C1689.87 82.6048 1689.88 82.6448 1689.78 82.7748C1689.2 83.5448 1688.62 84.3148 1688.05 85.0848C1687.97 85.1948 1687.89 85.2248 1687.75 85.2248C1686.42 85.1648 1685.12 84.9548 1683.83 84.6648C1681.09 84.0348 1678.52 82.9848 1676.18 81.4148C1674.79 80.4848 1673.54 79.3848 1672.43 78.1348C1672.37 78.0648 1672.36 77.9948 1672.36 77.9048C1672.44 76.6748 1672.54 75.4448 1672.68 74.2148C1672.82 72.9248 1672.99 71.6348 1673.2 70.3548C1673.85 66.3548 1674.81 62.4348 1676.23 58.6348C1677.06 56.4048 1678.01 54.2348 1679.22 52.1848C1679.43 51.8348 1679.68 51.5548 1680.01 51.3248C1682.42 49.6448 1685.03 48.3848 1687.85 47.5748C1689 47.2448 1690.16 47.0248 1691.35 46.8948C1691.47 46.8848 1691.54 46.9048 1691.6 47.0348C1691.73 47.3248 1691.88 47.6148 1692.03 47.9048C1692.09 48.0248 1692.1 48.0648 1691.95 48.0948C1690.52 48.4248 1689.12 48.8648 1687.77 49.4348C1685.67 50.3248 1683.76 51.5348 1682 52.9948C1681.67 53.2748 1681.34 53.5548 1681.02 53.8348C1680.99 53.8648 1680.94 53.8848 1680.93 53.9448C1681.01 53.9648 1681.06 53.9148 1681.12 53.8848C1682.8 53.0348 1684.49 52.2048 1686.25 51.5248C1688.29 50.7348 1690.39 50.1448 1692.55 49.7848C1695.08 49.3648 1697.62 49.2448 1700.18 49.3248C1703.6 49.4348 1706.95 50.0048 1710.18 51.1548C1712.3 51.9048 1714.31 52.8848 1716.31 53.8948C1716.37 53.9248 1716.43 53.9548 1716.49 53.9748C1716.51 53.9748 1716.53 54.0048 1716.55 53.9748C1716.55 53.9748 1716.53 53.9548 1716.52 53.9448C1715.96 53.4148 1715.36 52.9248 1714.76 52.4448C1712.68 50.7748 1710.35 49.5948 1707.82 48.7748C1707.04 48.5248 1706.25 48.3048 1705.46 48.1048C1705.34 48.0748 1705.33 48.0448 1705.38 47.9448C1705.53 47.6648 1705.68 47.3848 1705.8 47.0948C1705.87 46.9348 1705.97 46.9048 1706.13 46.9148C1707.06 47.0148 1707.98 47.1648 1708.89 47.3948C1712.1 48.2048 1715.02 49.6448 1717.71 51.5548C1717.83 51.6448 1717.93 51.7448 1718.01 51.8748C1718.93 53.3448 1719.68 54.9048 1720.35 56.4948C1721.37 58.9048 1722.2 61.3848 1722.87 63.9248C1723.5 66.3048 1723.99 68.7248 1724.35 71.1648C1724.63 72.9948 1724.83 74.8348 1724.98 76.6748C1725.01 77.0848 1725.03 77.4848 1725.07 77.8948C1725.07 78.0148 1725.04 78.0948 1724.97 78.1848C1722.92 80.4948 1720.44 82.1948 1717.6 83.3948C1715.82 84.1448 1713.97 84.6648 1712.06 84.9848C1711.26 85.1148 1710.46 85.2148 1709.65 85.2448C1709.54 85.2448 1709.48 85.2248 1709.41 85.1348C1708.82 84.3448 1708.23 83.5548 1707.63 82.7648C1707.53 82.6348 1707.59 82.6148 1707.7 82.5748C1709.93 81.7848 1712.02 80.7048 1713.93 79.3048C1715.3 78.3048 1716.56 77.1648 1717.68 75.8848C1717.7 75.8648 1717.71 75.8448 1717.73 75.8248C1717.75 75.8248 1717.76 75.8148 1717.78 75.8048C1717.78 75.8048 1717.75 75.7848 1717.74 75.7948C1717.71 75.7948 1717.74 75.8148 1717.74 75.8248C1717.7 75.7748 1717.68 75.8248 1717.66 75.8448C1717.19 76.1748 1716.72 76.5048 1716.24 76.8248C1714.11 78.2348 1711.82 79.3148 1709.38 80.0948C1707.73 80.6248 1706.05 80.9948 1704.33 81.2548C1701.82 81.6248 1699.3 81.7148 1696.77 81.6048C1693.45 81.4548 1690.2 80.8948 1687.06 79.7648C1684.54 78.8548 1682.19 77.6048 1680.02 76.0148C1679.94 75.9548 1679.85 75.9048 1679.77 75.8448C1679.75 75.8148 1679.73 75.7748 1679.68 75.8248C1679.68 75.8148 1679.71 75.7948 1679.68 75.7948C1679.67 75.7948 1679.65 75.7948 1679.64 75.8048C1679.66 75.8048 1679.67 75.8148 1679.69 75.8248L1679.74 75.8848V75.8648ZM1686.73 68.3948C1686.74 68.6748 1686.74 68.9048 1686.77 69.1448C1686.94 70.4048 1687.46 71.4848 1688.44 72.3248C1689.98 73.6548 1692.26 73.5348 1693.67 72.0748C1694.45 71.2748 1694.91 70.3248 1695.05 69.2248C1695.27 67.5348 1694.84 66.0448 1693.63 64.8148C1692.12 63.2848 1689.66 63.3048 1688.16 64.8548C1687.19 65.8548 1686.75 67.0648 1686.73 68.3948ZM1710.69 68.6548C1710.69 67.2248 1710.31 66.1148 1709.53 65.1648C1708.75 64.2248 1707.75 63.6848 1706.51 63.6748C1705.27 63.6748 1704.27 64.2048 1703.48 65.1448C1702.84 65.8948 1702.47 66.7648 1702.36 67.7448C1702.15 69.5448 1702.64 71.1148 1704.03 72.3348C1705.55 73.6648 1707.82 73.5448 1709.23 72.1048C1710.22 71.0948 1710.67 69.8648 1710.69 68.6548ZM1680.92 53.9648C1680.92 53.9648 1680.92 53.9648 1680.91 53.9548C1680.91 53.9548 1680.91 53.9748 1680.9 53.9748C1680.9 53.9748 1680.9 53.9748 1680.91 53.9848C1680.91 53.9848 1680.91 53.9648 1680.92 53.9648Z" fill="#71FFF4"/>
<path d="M1679.74 73.4749C1680.78 74.6749 1681.95 75.7349 1683.22 76.6849C1685.2 78.1849 1687.37 79.3249 1689.71 80.1549C1689.87 80.2149 1689.88 80.2549 1689.78 80.3849C1689.2 81.1549 1688.62 81.9249 1688.05 82.6949C1687.97 82.8049 1687.89 82.8349 1687.75 82.8349C1686.42 82.7749 1685.12 82.5649 1683.83 82.2749C1681.09 81.6449 1678.52 80.5949 1676.18 79.0249C1674.79 78.0949 1673.54 76.9949 1672.43 75.7449C1672.37 75.6749 1672.36 75.6049 1672.36 75.5149C1672.44 74.2849 1672.54 73.0549 1672.68 71.8249C1672.82 70.5349 1672.99 69.2449 1673.2 67.9649C1673.85 63.9649 1674.81 60.0449 1676.23 56.2449C1677.06 54.0149 1678.01 51.8449 1679.22 49.7949C1679.43 49.4449 1679.68 49.1649 1680.01 48.9349C1682.42 47.2549 1685.03 45.9949 1687.85 45.1849C1689 44.8549 1690.16 44.6349 1691.35 44.5049C1691.47 44.4949 1691.54 44.5149 1691.6 44.6449C1691.73 44.9349 1691.88 45.2249 1692.03 45.5149C1692.09 45.6349 1692.1 45.6749 1691.95 45.7049C1690.52 46.0349 1689.12 46.4749 1687.77 47.0449C1685.67 47.9349 1683.76 49.1449 1682 50.6049C1681.67 50.8849 1681.34 51.1649 1681.02 51.4449C1680.99 51.4749 1680.94 51.4949 1680.93 51.5549C1681.01 51.5749 1681.06 51.5249 1681.12 51.4949C1682.8 50.6449 1684.49 49.8149 1686.25 49.1349C1688.29 48.3449 1690.39 47.7549 1692.55 47.3949C1695.08 46.9749 1697.62 46.8549 1700.18 46.9349C1703.6 47.0449 1706.95 47.6149 1710.18 48.7649C1712.3 49.5149 1714.31 50.4949 1716.31 51.5049C1716.37 51.5349 1716.43 51.5649 1716.49 51.5849C1716.51 51.5849 1716.53 51.6149 1716.55 51.5849C1716.55 51.5849 1716.53 51.5649 1716.52 51.5549C1715.96 51.0249 1715.36 50.5349 1714.76 50.0549C1712.68 48.3849 1710.35 47.2049 1707.82 46.3849C1707.04 46.1349 1706.25 45.9149 1705.46 45.7149C1705.34 45.6849 1705.33 45.6549 1705.38 45.5549C1705.53 45.2749 1705.68 44.9949 1705.8 44.7049C1705.87 44.5449 1705.97 44.5149 1706.13 44.5249C1707.06 44.6249 1707.98 44.7749 1708.89 45.0049C1712.1 45.8149 1715.02 47.2549 1717.71 49.1649C1717.83 49.2549 1717.93 49.3549 1718.01 49.4849C1718.93 50.9549 1719.68 52.5149 1720.35 54.1049C1721.37 56.5149 1722.2 58.9949 1722.87 61.5349C1723.5 63.9149 1723.99 66.3349 1724.35 68.7749C1724.63 70.6049 1724.83 72.4449 1724.98 74.2849C1725.01 74.6949 1725.03 75.0949 1725.07 75.5049C1725.07 75.6249 1725.04 75.7049 1724.97 75.7949C1722.92 78.1049 1720.44 79.8049 1717.6 81.0049C1715.82 81.7549 1713.97 82.2749 1712.06 82.5949C1711.26 82.7249 1710.46 82.8249 1709.65 82.8549C1709.54 82.8549 1709.48 82.8349 1709.41 82.7449C1708.82 81.9549 1708.23 81.1649 1707.63 80.3749C1707.53 80.2449 1707.59 80.2249 1707.7 80.1849C1709.93 79.3949 1712.02 78.3149 1713.93 76.9149C1715.3 75.9149 1716.56 74.7749 1717.68 73.4949C1717.7 73.4749 1717.71 73.4549 1717.73 73.4349C1717.75 73.4349 1717.76 73.4249 1717.78 73.4149C1717.78 73.4149 1717.75 73.3949 1717.74 73.4049C1717.71 73.4049 1717.74 73.4249 1717.74 73.4349C1717.7 73.3849 1717.68 73.4349 1717.66 73.4549C1717.19 73.7849 1716.72 74.1149 1716.24 74.4349C1714.11 75.8449 1711.82 76.9249 1709.38 77.7049C1707.73 78.2349 1706.05 78.6049 1704.33 78.8649C1701.82 79.2349 1699.3 79.3249 1696.77 79.2149C1693.45 79.0649 1690.2 78.5049 1687.06 77.3749C1684.54 76.4649 1682.19 75.2149 1680.02 73.6249C1679.94 73.5649 1679.85 73.5149 1679.77 73.4549C1679.75 73.4249 1679.73 73.3849 1679.68 73.4349C1679.68 73.4249 1679.71 73.4049 1679.68 73.4049C1679.67 73.4049 1679.65 73.4049 1679.64 73.4149C1679.66 73.4149 1679.67 73.4249 1679.69 73.4349L1679.74 73.4949V73.4749ZM1686.73 66.0049C1686.74 66.2849 1686.74 66.5149 1686.77 66.7549C1686.94 68.0149 1687.46 69.0949 1688.44 69.9349C1689.98 71.2649 1692.26 71.1449 1693.67 69.6849C1694.45 68.8849 1694.91 67.9349 1695.05 66.8349C1695.27 65.1449 1694.84 63.6549 1693.63 62.4249C1692.12 60.8949 1689.66 60.9149 1688.16 62.4649C1687.19 63.4649 1686.75 64.6749 1686.73 66.0049ZM1710.69 66.2549C1710.69 64.8249 1710.31 63.7149 1709.53 62.7649C1708.75 61.8249 1707.75 61.2849 1706.51 61.2749C1705.27 61.2749 1704.27 61.8049 1703.48 62.7449C1702.84 63.4949 1702.47 64.3649 1702.36 65.3449C1702.15 67.1449 1702.64 68.7149 1704.03 69.9349C1705.55 71.2649 1707.82 71.1449 1709.23 69.7049C1710.22 68.6949 1710.67 67.4649 1710.69 66.2549ZM1680.92 51.5749C1680.92 51.5749 1680.92 51.5749 1680.91 51.5649C1680.91 51.5649 1680.91 51.5849 1680.9 51.5849C1680.9 51.5849 1680.9 51.5849 1680.91 51.5949C1680.91 51.5949 1680.91 51.5749 1680.92 51.5749Z" fill="#002C3A"/>
<path d="M1817.45 26.0249H1834.83C1858.06 26.0249 1876.92 44.8849 1876.92 68.1149V86.1749C1876.92 109.405 1858.06 128.265 1834.83 128.265H1817.45C1794.22 128.265 1775.36 109.405 1775.36 86.1749V68.1149C1775.36 44.8849 1794.22 26.0249 1817.45 26.0249Z" fill="#127B93"/>
<path d="M1834.83 27.955C1857.01 27.955 1875 45.935 1875 68.125V86.185C1875 108.365 1857.02 126.355 1834.83 126.355H1817.45C1795.27 126.355 1777.28 108.375 1777.28 86.185V68.125C1777.28 45.945 1795.26 27.955 1817.45 27.955H1834.83ZM1834.83 24.105H1817.45C1793.18 24.105 1773.43 43.855 1773.43 68.125V86.185C1773.43 110.455 1793.18 130.205 1817.45 130.205H1834.83C1859.1 130.205 1878.85 110.455 1878.85 86.185V68.125C1878.85 43.855 1859.1 24.105 1834.83 24.105Z" fill="#002C3A"/>
<path d="M1875 67.915V67.905C1875 45.8357 1857.11 27.9451 1835.04 27.9451H1817.25C1795.18 27.9451 1777.29 45.8357 1777.29 67.905V67.915C1777.29 89.9843 1795.18 107.875 1817.25 107.875H1835.04C1857.11 107.875 1875 89.9843 1875 67.915Z" fill="#06BADD"/>
<path d="M1836.12 33.4551H1816.16C1797.69 33.4551 1782.71 48.4312 1782.71 66.9051C1782.71 85.379 1797.69 100.355 1816.16 100.355H1836.12C1854.59 100.355 1869.57 85.379 1869.57 66.9051C1869.57 48.4312 1854.59 33.4551 1836.12 33.4551Z" fill="#34EBE6"/>
<path d="M1852.6 52.6447C1850.84 53.4147 1848.95 53.9347 1846.96 54.1647C1848.99 52.9647 1850.55 51.0747 1851.28 48.8147C1849.38 49.9247 1847.27 50.7347 1845.04 51.1647C1843.25 49.2847 1840.69 48.1047 1837.87 48.1047C1832.44 48.1047 1828.04 52.4347 1828.04 57.7847C1828.04 58.5447 1828.13 59.2747 1828.29 59.9847C1820.12 59.5847 1812.88 55.7247 1808.03 49.8747C1807.19 51.3047 1806.7 52.9647 1806.7 54.7347C1806.7 58.0947 1808.44 61.0547 1811.07 62.7847C1809.46 62.7347 1807.94 62.2947 1806.62 61.5747V61.6947C1806.62 62.9347 1806.86 64.1147 1807.29 65.2047C1808.49 68.2347 1811.19 70.5347 1814.5 71.1847C1813.67 71.4047 1812.81 71.5247 1811.91 71.5247C1811.28 71.5247 1810.66 71.4647 1810.06 71.3447C1811.31 75.1847 1814.94 77.9847 1819.24 78.0647C1815.87 80.6647 1811.64 82.2047 1807.03 82.2047C1806.24 82.2047 1805.45 82.1547 1804.68 82.0647C1809.03 84.8047 1814.2 86.4147 1819.75 86.4147C1835.12 86.4147 1844.56 75.7647 1847.05 64.7247C1847.49 62.7747 1847.72 60.8047 1847.72 58.8847C1847.72 58.4647 1847.72 58.0447 1847.69 57.6347C1849.61 56.2747 1851.28 54.5647 1852.59 52.6247L1852.6 52.6447Z" fill="#71FFF4"/>
<path d="M1852.6 50.2548C1850.84 51.0248 1848.95 51.5448 1846.96 51.7748C1848.99 50.5748 1850.55 48.6848 1851.28 46.4248C1849.38 47.5348 1847.27 48.3448 1845.04 48.7748C1843.25 46.8948 1840.69 45.7148 1837.87 45.7148C1832.44 45.7148 1828.04 50.0448 1828.04 55.3948C1828.04 56.1548 1828.13 56.8848 1828.29 57.5948C1820.12 57.1948 1812.88 53.3348 1808.03 47.4848C1807.19 48.9148 1806.7 50.5748 1806.7 52.3448C1806.7 55.7048 1808.44 58.6648 1811.07 60.3948C1809.46 60.3448 1807.94 59.9048 1806.62 59.1848V59.3048C1806.62 60.5448 1806.86 61.7248 1807.29 62.8148C1808.49 65.8448 1811.19 68.1448 1814.5 68.7948C1813.67 69.0148 1812.81 69.1348 1811.91 69.1348C1811.28 69.1348 1810.66 69.0748 1810.06 68.9548C1811.31 72.7948 1814.94 75.5948 1819.24 75.6748C1815.87 78.2748 1811.64 79.8148 1807.03 79.8148C1806.24 79.8148 1805.45 79.7648 1804.68 79.6748C1809.03 82.4148 1814.2 84.0248 1819.75 84.0248C1835.12 84.0248 1844.56 73.3748 1847.05 62.3348C1847.49 60.3848 1847.72 58.4148 1847.72 56.4948C1847.72 56.0748 1847.72 55.6548 1847.69 55.2448C1849.61 53.8848 1851.28 52.1748 1852.59 50.2348L1852.6 50.2548Z" fill="#002C3A"/>
<defs>
<linearGradient id="paint0_linear_214_237" x1="960" y1="-64.47" x2="960" y2="249.92" gradientUnits="userSpaceOnUse">
<stop offset="0.33" stop-color="#0D5C7C"/>
<stop offset="0.6" stop-color="#094259"/>
</linearGradient>
<clipPath id="clip0_214_237">
<rect width="616.43" height="118.31" fill="white" transform="translate(40 18)"/>
</clipPath>
</defs>
</svg>
