<svg width="1920" height="154" viewBox="0 0 1920 154" fill="none" xmlns="http://www.w3.org/2000/svg">
<g clip-path="url(#clip0_218_242)">
<path opacity="0.9" d="M0 153.75V38.16V0H1920V153.75H700.84H0Z" fill="url(#paint0_linear_218_242)"/>
</g>
<path d="M106.05 25.7046H87.64C63.0081 25.7046 43.04 45.6727 43.04 70.3046V89.4246C43.04 114.056 63.0081 134.025 87.64 134.025H106.05C130.682 134.025 150.65 114.056 150.65 89.4246V70.3046C150.65 45.6727 130.682 25.7046 106.05 25.7046Z" fill="#127B93"/>
<path d="M106.05 27.7448C129.55 27.7448 148.61 46.7948 148.61 70.3048V89.4348C148.61 112.935 129.56 131.995 106.05 131.995H87.63C64.13 131.995 45.07 112.945 45.07 89.4348V70.3048C45.08 46.7948 64.13 27.7448 87.64 27.7448H106.06M106.05 23.6648H87.63C61.92 23.6648 41 44.5848 41 70.2948V89.4248C41 115.145 61.92 136.065 87.64 136.065H106.06C131.78 136.065 152.7 115.145 152.7 89.4248V70.2948C152.7 44.5748 131.78 23.6548 106.06 23.6548L106.05 23.6648Z" fill="#002C3A"/>
<path d="M106.27 112.425C129.654 112.425 148.61 93.4684 148.61 70.0846C148.61 46.7009 129.654 27.7446 106.27 27.7446H87.42C64.0363 27.7446 45.08 46.7009 45.08 70.0846C45.08 93.4684 64.0363 112.425 87.42 112.425H106.27Z" fill="#06BADD"/>
<path d="M107.41 33.5747H86.27C66.697 33.5747 50.83 49.4417 50.83 69.0147C50.83 88.5877 66.697 104.455 86.27 104.455H107.41C126.983 104.455 142.85 88.5877 142.85 69.0147C142.85 49.4417 126.983 33.5747 107.41 33.5747Z" fill="#34EBE6"/>
<path d="M77.6299 77.1245C77.1999 77.0545 76.8099 76.9645 76.4299 76.9345C72.9399 76.6445 69.3699 73.0445 69.9099 68.5945C70.0999 66.9845 70.7499 65.5645 71.8799 64.4045C74.0899 62.1445 76.3299 59.9145 78.5599 57.6745C82.4399 53.7845 86.3199 49.9045 90.1999 46.0245C90.6699 45.5545 91.1599 45.1045 91.6299 44.6345C94.2099 42.0445 99.1499 41.7945 102.01 44.5945C104.51 47.0345 106.96 49.5245 109.44 51.9845C113.31 55.8445 117.16 59.7145 121.04 63.5445C122.4 64.8845 123.43 66.3845 123.74 68.3045C124.16 70.9645 123.27 73.1845 121.37 75.0245C120.08 76.2745 118.52 76.9145 116.72 77.0045C116.58 77.0045 116.45 77.0245 116.31 77.0445C116.25 77.0445 116.2 77.0845 116.11 77.1245V77.6145C116.11 80.9745 116.15 84.3345 116.1 87.6845C116.03 91.7845 112.88 94.3645 110.2 94.7545C109.54 94.8445 108.88 94.9145 108.21 94.9145C100.59 94.9245 92.9699 94.9145 85.3399 94.9345C82.6699 94.9345 80.5099 93.9545 78.9299 91.8045C78.0599 90.6245 77.6599 89.2545 77.6399 87.8145C77.5899 84.4545 77.6299 81.1045 77.6299 77.7445C77.6299 77.5645 77.6299 77.3845 77.6299 77.1545V77.1245ZM101.36 83.6745C101.36 83.6745 101.33 83.6745 101.32 83.6745C101.32 82.7345 101.34 81.7945 101.32 80.8645C101.3 80.0345 100.97 79.3145 100.39 78.7145C98.7799 77.0445 96.7499 76.7745 94.6899 77.7045C93.3099 78.3245 92.4099 79.4345 92.3499 81.0045C92.2899 82.7845 92.3299 84.5745 92.3499 86.3545C92.3499 86.9945 92.5299 87.6045 92.9099 88.1445C94.1999 89.9445 96.5399 90.6845 98.5899 89.8645C100.26 89.2045 101.48 87.9745 101.36 85.8045C101.32 85.0945 101.36 84.3845 101.36 83.6745Z" fill="#9FFFFA"/>
<path d="M77.6299 74.0947C77.1999 74.0247 76.8099 73.9347 76.4299 73.9047C72.9399 73.6147 69.3699 70.0147 69.9099 65.5647C70.0999 63.9547 70.7499 62.5347 71.8799 61.3747C74.0899 59.1147 76.3299 56.8847 78.5599 54.6447C82.4399 50.7547 86.3199 46.8747 90.1999 42.9947C90.6699 42.5247 91.1599 42.0747 91.6299 41.6047C94.2099 39.0147 99.1499 38.7647 102.01 41.5647C104.51 44.0047 106.96 46.4947 109.44 48.9547C113.31 52.8147 117.16 56.6847 121.04 60.5147C122.4 61.8547 123.43 63.3547 123.74 65.2747C124.16 67.9347 123.27 70.1547 121.37 71.9947C120.08 73.2447 118.52 73.8847 116.72 73.9747C116.58 73.9747 116.45 73.9947 116.31 74.0147C116.25 74.0147 116.2 74.0547 116.11 74.0947V74.5847C116.11 77.9447 116.15 81.3047 116.1 84.6547C116.03 88.7547 112.88 91.3347 110.2 91.7247C109.54 91.8147 108.88 91.8847 108.21 91.8847C100.59 91.8947 92.9699 91.8847 85.3399 91.9047C82.6699 91.9047 80.5099 90.9247 78.9299 88.7747C78.0599 87.5947 77.6599 86.2247 77.6399 84.7847C77.5899 81.4247 77.6299 78.0747 77.6299 74.7147C77.6299 74.5347 77.6299 74.3547 77.6299 74.1247V74.0947ZM101.36 80.6447C101.36 80.6447 101.33 80.6447 101.32 80.6447C101.32 79.7047 101.34 78.7647 101.32 77.8347C101.3 77.0047 100.97 76.2847 100.39 75.6847C98.7799 74.0147 96.7499 73.7447 94.6899 74.6747C93.3099 75.2947 92.4099 76.4047 92.3499 77.9747C92.2899 79.7547 92.3299 81.5447 92.3499 83.3247C92.3499 83.9647 92.5299 84.5747 92.9099 85.1147C94.1999 86.9147 96.5399 87.6547 98.5899 86.8347C100.26 86.1747 101.48 84.9447 101.36 82.7747C101.32 82.0647 101.36 81.3547 101.36 80.6447Z" fill="#002C3A"/>
<g clip-path="url(#clip1_218_242)">
<path d="M469.54 23H209.49C197.456 23 187.7 32.7557 187.7 44.79V114.93C187.7 126.964 197.456 136.72 209.49 136.72H469.54C481.574 136.72 491.33 126.964 491.33 114.93V44.79C491.33 32.7557 481.574 23 469.54 23Z" fill="#531ED3"/>
<path d="M469.54 25C480.47 25 489.33 33.86 489.33 44.79V114.92C489.33 125.85 480.47 134.71 469.54 134.71H209.49C198.56 134.71 189.7 125.85 189.7 114.92V44.79C189.7 33.86 198.56 25 209.49 25H469.54ZM469.54 21H209.49C196.37 21 185.7 31.67 185.7 44.79V114.92C185.7 128.04 196.37 138.71 209.49 138.71H469.54C482.66 138.71 493.33 128.04 493.33 114.92V44.79C493.33 31.67 482.66 21 469.54 21Z" fill="#031C0A"/>
<path d="M489.33 93.81V45.32C489.33 34.0976 480.232 25 469.01 25L210.02 25C198.798 25 189.7 34.0976 189.7 45.32V93.81C189.7 105.032 198.798 114.13 210.02 114.13L469.01 114.13C480.232 114.13 489.33 105.032 489.33 93.81Z" fill="#BB9FFF"/>
<path d="M470.22 31.1401H208.8C201.593 31.1401 195.75 36.9828 195.75 44.1901V92.7001C195.75 99.9074 201.593 105.75 208.8 105.75H470.22C477.427 105.75 483.27 99.9074 483.27 92.7001V44.1901C483.27 36.9828 477.427 31.1401 470.22 31.1401Z" fill="#1D0E33"/>
<path d="M318.53 89.5597H312.21L311.13 82.3297H303.44L302.36 89.5597H296.61L302.99 49.6997H312.16L318.54 89.5597H318.53ZM304.23 76.9097H310.27L307.25 56.7497L304.23 76.9097Z" fill="#BB9FFF"/>
<path d="M321.43 49.6899H331.34C337.6 49.6899 340.68 53.1599 340.68 59.5399V79.6999C340.68 86.0799 337.6 89.5499 331.34 89.5499H321.43V49.6899ZM327.69 55.3899V83.8599H331.22C333.21 83.8599 334.41 82.8299 334.41 79.9899V59.2599C334.41 56.4099 333.21 55.3899 331.22 55.3899H327.69Z" fill="#BB9FFF"/>
<path d="M357.93 77.9999L362.2 49.6999H370.91V89.5599H364.99V60.9699L360.66 89.5599H354.74L350.07 61.3699V89.5599H344.6V49.6899H353.31L357.92 77.9899L357.93 77.9999Z" fill="#BB9FFF"/>
<path d="M375.47 49.6899H381.73V89.5499H375.47V49.6899Z" fill="#BB9FFF"/>
<path d="M391.87 60.6899V89.5599H386.23V49.6899H394.09L400.53 73.5499V49.6899H406.11V89.5499H399.68L391.88 60.6799L391.87 60.6899Z" fill="#BB9FFF"/>
<path d="M265.69 89.5599C265.69 97.5399 253.97 101.28 239.51 101.28C225.05 101.28 213.33 97.0599 213.33 89.5599C213.33 75.0999 225.05 63.3799 239.51 63.3799C253.97 63.3799 265.69 75.0999 265.69 89.5599Z" fill="#BB9FFF"/>
<path d="M265.69 89.5603C265.69 97.5403 253.97 101.28 239.51 101.28C228.75 101.28 219.5 98.9403 215.48 94.6503C220.19 96.5603 226.6 97.5603 233.66 97.5603C248.12 97.5603 259.84 93.8203 259.84 85.8403C259.84 77.8603 256.2 70.5803 250.48 65.7803C259.46 69.9303 265.69 79.0203 265.69 89.5603Z" fill="#9046F9"/>
<path d="M239.51 70.9801C249.28 70.9801 257.2 63.06 257.2 53.2901C257.2 43.5202 249.28 35.6001 239.51 35.6001C229.74 35.6001 221.82 43.5202 221.82 53.2901C221.82 63.06 229.74 70.9801 239.51 70.9801Z" fill="#BB9FFF"/>
<path d="M257.2 53.29C257.2 63.06 249.28 70.98 239.51 70.98C231.13 70.98 224.11 65.15 222.28 57.32C224.95 62.77 230.55 66.52 237.02 66.52C246.08 66.52 253.43 59.18 253.43 50.11C253.43 45.06 251.15 40.55 247.56 37.54C253.28 40.47 257.2 46.42 257.2 53.29Z" fill="#9046F9"/>
<path d="M232.98 47.1102C230.1 49.9902 228.13 52.6902 226.25 50.8102C224.37 48.9302 225.19 45.0802 228.07 42.2002C230.95 39.3202 234.8 38.5102 236.68 40.3802C238.55 42.2502 235.86 44.2302 232.98 47.1102Z" fill="#E8E1FF"/>
<path d="M227.53 78.3202C224.65 81.2002 222.68 83.9002 220.8 82.0202C218.92 80.1402 219.74 76.2902 222.62 73.4102C225.5 70.5302 229.35 69.7202 231.23 71.5902C233.1 73.4602 230.41 75.4402 227.53 78.3202Z" fill="#E8E1FF"/>
</g>
<path d="M932.06 28.71H1225.4C1237.45 28.71 1247.23 38.49 1247.23 50.54V107.48C1247.23 119.53 1237.45 129.31 1225.4 129.31H932.05C920 129.31 910.22 119.53 910.22 107.48V50.54C910.23 38.49 920.01 28.71 932.06 28.71Z" fill="#043559"/>
<path d="M1225.39 30.6001C1236.4 30.6001 1245.32 39.5201 1245.32 50.5301V107.47C1245.32 118.48 1236.4 127.4 1225.39 127.4H932.06C921.05 127.4 912.13 118.48 912.13 107.47V50.5401C912.12 39.5301 921.05 30.6001 932.06 30.6001H1225.4M1225.39 26.8101H932.06C918.97 26.8101 908.33 37.4501 908.33 50.5401V107.48C908.33 120.56 918.97 131.21 932.06 131.21H1225.4C1238.48 131.21 1249.13 120.57 1249.13 107.48V50.5401C1249.13 37.4601 1238.49 26.8101 1225.4 26.8101H1225.39Z" fill="#002C3A"/>
<path d="M1245.33 88.8401V51.0001C1245.33 39.7335 1236.2 30.6001 1224.93 30.6001L932.53 30.6001C921.263 30.6001 912.13 39.7335 912.13 51.0001V88.8401C912.13 100.107 921.263 109.24 932.53 109.24L1224.93 109.24C1236.2 109.24 1245.33 100.107 1245.33 88.8401Z" fill="#1091FC"/>
<path d="M931.45 34.9302H1225.99C1234.31 34.9302 1241.06 41.6802 1241.06 50.0002V87.8502C1241.06 96.1702 1234.31 102.92 1225.99 102.92H931.45C923.13 102.92 916.38 96.1702 916.38 87.8502V50.0102C916.38 41.6902 923.13 34.9402 931.45 34.9402V34.9302Z" fill="#043E68"/>
<path d="M1225.99 36.0201C1233.72 36.0201 1239.98 42.2801 1239.98 50.0101V87.8601C1239.98 95.5901 1233.72 101.85 1225.99 101.85H931.45C923.72 101.85 917.46 95.5901 917.46 87.8601V50.0101C917.46 42.2801 923.72 36.0201 931.45 36.0201H1225.99ZM1225.99 33.8501H931.45C922.54 33.8501 915.29 41.1001 915.29 50.0101V87.8601C915.29 96.7701 922.54 104.02 931.45 104.02H1225.99C1234.9 104.02 1242.15 96.7701 1242.15 87.8601V50.0101C1242.15 41.1001 1234.9 33.8501 1225.99 33.8501Z" fill="#03ABFF"/>
<path d="M1222.4 40.29H1074.38C1067.37 40.29 1061.68 45.976 1061.68 52.99V84.34C1061.68 91.3541 1067.37 97.04 1074.38 97.04H1222.4C1229.41 97.04 1235.1 91.3541 1235.1 84.34V52.99C1235.1 45.976 1229.41 40.29 1222.4 40.29Z" fill="#00263D"/>
<path d="M945.73 84.8101V80.8101C946.21 80.8501 946.77 80.8501 947.25 80.8501C948.65 80.8501 949.77 80.3301 949.77 78.1701V56.8101H954.17V77.8501C954.17 83.4501 951.17 84.8901 947.85 84.8901C947.05 84.8901 946.45 84.8901 945.73 84.8101ZM966.924 56.8101L971.404 84.8101H966.964L966.204 79.7301H960.804L960.044 84.8101H956.004L960.484 56.8101H966.924ZM963.484 61.7701L961.364 75.9301H965.604L963.484 61.7701ZM982.014 74.3701H986.174V78.0901C986.174 82.5701 983.934 85.1301 979.614 85.1301C975.294 85.1301 973.054 82.5701 973.054 78.0901V63.5301C973.054 59.0501 975.294 56.4901 979.614 56.4901C983.934 56.4901 986.174 59.0501 986.174 63.5301V66.2501H982.014V63.2501C982.014 61.2501 981.134 60.4901 979.734 60.4901C978.334 60.4901 977.454 61.2501 977.454 63.2501V78.3701C977.454 80.3701 978.334 81.0901 979.734 81.0901C981.134 81.0901 982.014 80.3701 982.014 78.3701V74.3701ZM998.884 84.8101L994.604 73.6501L993.244 76.2101V84.8101H988.844V56.8101H993.244V69.0101L999.004 56.8101H1003.4L997.284 69.2901L1003.4 84.8101H998.884ZM1011.89 56.8101C1016.29 56.8101 1018.45 59.2501 1018.45 63.7301V67.3701C1018.45 71.8501 1016.29 74.2901 1011.89 74.2901H1009.81V84.8101H1005.41V56.8101H1011.89ZM1011.89 60.8101H1009.81V70.2901H1011.89C1013.29 70.2901 1014.05 69.6501 1014.05 67.6501V63.4501C1014.05 61.4501 1013.29 60.8101 1011.89 60.8101ZM1024.52 63.2501V78.3701C1024.52 80.3701 1025.4 81.1301 1026.8 81.1301C1028.2 81.1301 1029.08 80.3701 1029.08 78.3701V63.2501C1029.08 61.2501 1028.2 60.4901 1026.8 60.4901C1025.4 60.4901 1024.52 61.2501 1024.52 63.2501ZM1020.12 78.0901V63.5301C1020.12 59.0501 1022.48 56.4901 1026.8 56.4901C1031.12 56.4901 1033.48 59.0501 1033.48 63.5301V78.0901C1033.48 82.5701 1031.12 85.1301 1026.8 85.1301C1022.48 85.1301 1020.12 82.5701 1020.12 78.0901ZM1035.06 60.8101V56.8101H1048.66V60.8101H1044.06V84.8101H1039.66V60.8101H1035.06Z" fill="white"/>
<path d="M1093.97 63.4501V60.3301C1097.37 60.3301 1098.13 58.6901 1098.81 56.8101H1101.77V84.8101H1097.37V63.4501H1093.97ZM1115.59 65.2501V63.6901C1115.59 61.1701 1114.71 60.4901 1113.31 60.4901C1111.91 60.4901 1111.03 61.2501 1111.03 63.2501V65.0501H1106.87V63.5301C1106.87 59.0501 1109.11 56.4901 1113.43 56.4901C1117.75 56.4901 1119.99 59.0501 1119.99 63.5301V64.2501C1119.99 67.2501 1119.03 69.1301 1116.91 70.0101C1119.11 70.9701 1119.99 73.0501 1119.99 75.8901V78.0901C1119.99 82.5701 1117.75 85.1301 1113.43 85.1301C1109.11 85.1301 1106.87 82.5701 1106.87 78.0901V75.7701H1111.03V78.3701C1111.03 80.3701 1111.91 81.1301 1113.31 81.1301C1114.71 81.1301 1115.59 80.4501 1115.59 77.9701V75.7701C1115.59 73.1701 1114.71 72.2101 1112.71 72.2101H1111.23V68.2101H1112.95C1114.59 68.2101 1115.59 67.4901 1115.59 65.2501ZM1122.97 80.5701H1127.21V84.8101H1122.97V80.5701ZM1130.19 75.7701H1134.35V78.3701C1134.35 80.3701 1135.23 81.0901 1136.63 81.0901C1138.03 81.0901 1138.91 80.3701 1138.91 78.3701V72.2101C1138.91 70.2101 1138.03 69.4501 1136.63 69.4501C1135.23 69.4501 1134.35 70.2101 1134.35 72.2101V73.0501H1130.19L1130.99 56.8101H1142.59V60.8101H1134.95L1134.59 67.4901C1135.39 66.1701 1136.67 65.4501 1138.43 65.4501C1141.67 65.4501 1143.31 67.7301 1143.31 71.8501V78.0901C1143.31 82.5701 1141.07 85.1301 1136.75 85.1301C1132.43 85.1301 1130.19 82.5701 1130.19 78.0901V75.7701ZM1154.97 63.6901C1154.97 61.1701 1154.09 60.4901 1152.69 60.4901C1151.29 60.4901 1150.41 61.2501 1150.41 63.2501V66.2501H1146.25V63.5301C1146.25 59.0501 1148.49 56.4901 1152.81 56.4901C1157.13 56.4901 1159.37 59.0501 1159.37 63.5301C1159.37 72.3301 1150.61 75.6101 1150.61 80.2101C1150.61 80.4101 1150.61 80.6101 1150.65 80.8101H1158.97V84.8101H1146.25V81.3701C1146.25 73.1301 1154.97 71.7701 1154.97 63.6901ZM1167.76 63.5301C1167.76 59.0501 1169.96 56.4901 1174.24 56.4901C1178.52 56.4901 1180.72 59.0501 1180.72 63.5301V64.4101H1176.56V63.2501C1176.56 61.2501 1175.76 60.4901 1174.36 60.4901C1172.96 60.4901 1172.16 61.2501 1172.16 63.2501C1172.16 69.0101 1180.76 70.0901 1180.76 78.0901C1180.76 82.5701 1178.52 85.1301 1174.2 85.1301C1169.88 85.1301 1167.64 82.5701 1167.64 78.0901V76.3701H1171.8V78.3701C1171.8 80.3701 1172.68 81.0901 1174.08 81.0901C1175.48 81.0901 1176.36 80.3701 1176.36 78.3701C1176.36 72.6101 1167.76 71.5301 1167.76 63.5301ZM1187.32 63.2501V78.3701C1187.32 80.3701 1188.2 81.1301 1189.6 81.1301C1191 81.1301 1191.88 80.3701 1191.88 78.3701V63.2501C1191.88 61.2501 1191 60.4901 1189.6 60.4901C1188.2 60.4901 1187.32 61.2501 1187.32 63.2501ZM1182.92 78.0901V63.5301C1182.92 59.0501 1185.28 56.4901 1189.6 56.4901C1193.92 56.4901 1196.28 59.0501 1196.28 63.5301V78.0901C1196.28 82.5701 1193.92 85.1301 1189.6 85.1301C1185.28 85.1301 1182.92 82.5701 1182.92 78.0901ZM1199.14 84.8101V56.8101H1203.54V80.8101H1210.78V84.8101H1199.14Z" fill="#7BDAFF"/>
<path d="M1587.2 28.71H1297.84C1284.68 28.71 1274.02 39.3745 1274.02 52.53V105.49C1274.02 118.645 1284.68 129.31 1297.84 129.31H1587.2C1600.36 129.31 1611.02 118.645 1611.02 105.49V52.53C1611.02 39.3745 1600.36 28.71 1587.2 28.71Z" fill="#043559"/>
<path d="M1587.2 30.6001C1599.31 30.6001 1609.12 40.4101 1609.12 52.5201V105.49C1609.12 117.6 1599.31 127.41 1587.2 127.41H1297.84C1285.73 127.41 1275.92 117.6 1275.92 105.49V52.5201C1275.92 40.4101 1285.73 30.6001 1297.84 30.6001H1587.2ZM1587.2 26.8101H1297.84C1283.66 26.8101 1272.13 38.3401 1272.13 52.5201V105.49C1272.13 119.67 1283.66 131.2 1297.84 131.2H1587.2C1601.38 131.2 1612.91 119.67 1612.91 105.49V52.5201C1612.91 38.3401 1601.38 26.8101 1587.2 26.8101Z" fill="#002C3A"/>
<path d="M1609.12 86.8601V52.9801C1609.12 40.62 1599.1 30.6001 1586.74 30.6001L1298.3 30.6001C1285.94 30.6001 1275.92 40.62 1275.92 52.9801V86.8601C1275.92 99.2202 1285.94 109.24 1298.3 109.24L1586.74 109.24C1599.1 109.24 1609.12 99.2202 1609.12 86.8601Z" fill="#1091FC"/>
<path d="M1587.81 34.9302H1297.24C1287.82 34.9302 1280.18 42.5682 1280.18 51.9902V85.8702C1280.18 95.2922 1287.82 102.93 1297.24 102.93H1587.81C1597.23 102.93 1604.87 95.2922 1604.87 85.8702V51.9902C1604.87 42.5682 1597.23 34.9302 1587.81 34.9302Z" fill="#043E68"/>
<path d="M1587.8 36.0201C1596.62 36.0201 1603.78 43.1701 1603.78 52.0001V85.8801C1603.78 94.7001 1596.63 101.86 1587.8 101.86H1297.23C1288.41 101.86 1281.25 94.7101 1281.25 85.8801V51.9901C1281.25 43.1701 1288.4 36.0101 1297.23 36.0101H1587.8M1587.8 33.8501H1297.23C1287.23 33.8501 1279.09 41.9901 1279.09 51.9901V85.8701C1279.09 95.8701 1287.23 104.01 1297.23 104.01H1587.8C1597.8 104.01 1605.94 95.8701 1605.94 85.8701V51.9901C1605.94 41.9901 1597.8 33.8501 1587.8 33.8501Z" fill="#03ABFF"/>
<path d="M1584.97 40.29H1439.39C1431.7 40.29 1425.47 46.5222 1425.47 54.21V83.12C1425.47 90.8078 1431.7 97.04 1439.39 97.04H1584.97C1592.66 97.04 1598.89 90.8078 1598.89 83.12V54.21C1598.89 46.5222 1592.66 40.29 1584.97 40.29Z" fill="#00263D"/>
<path d="M1320.79 61.5301C1320.79 57.0501 1322.99 54.4901 1327.27 54.4901C1331.55 54.4901 1333.75 57.0501 1333.75 61.5301V62.4101H1329.59V61.2501C1329.59 59.2501 1328.79 58.4901 1327.39 58.4901C1325.99 58.4901 1325.19 59.2501 1325.19 61.2501C1325.19 67.0101 1333.79 68.0901 1333.79 76.0901C1333.79 80.5701 1331.55 83.1301 1327.23 83.1301C1322.91 83.1301 1320.67 80.5701 1320.67 76.0901V74.3701H1324.83V76.3701C1324.83 78.3701 1325.71 79.0901 1327.11 79.0901C1328.51 79.0901 1329.39 78.3701 1329.39 76.3701C1329.39 70.6101 1320.79 69.5301 1320.79 61.5301ZM1340.35 61.2501V76.3701C1340.35 78.3701 1341.23 79.1301 1342.63 79.1301C1344.03 79.1301 1344.91 78.3701 1344.91 76.3701V61.2501C1344.91 59.2501 1344.03 58.4901 1342.63 58.4901C1341.23 58.4901 1340.35 59.2501 1340.35 61.2501ZM1335.95 76.0901V61.5301C1335.95 57.0501 1338.31 54.4901 1342.63 54.4901C1346.95 54.4901 1349.31 57.0501 1349.31 61.5301V76.0901C1349.31 80.5701 1346.95 83.1301 1342.63 83.1301C1338.31 83.1301 1335.95 80.5701 1335.95 76.0901ZM1352.17 82.8101V54.8101H1356.57V78.8101H1363.81V82.8101H1352.17ZM1364.33 82.8101L1375.37 54.8101H1379.17L1368.13 82.8101H1364.33ZM1380.84 61.9301C1380.84 58.1701 1382.4 55.7701 1385.48 55.0901V53.0101H1389.08V55.0901C1392.2 55.7301 1393.8 58.1301 1393.8 61.9301V62.8101H1389.64V61.6501C1389.64 59.6501 1388.84 58.8901 1387.44 58.8901C1386.04 58.8901 1385.24 59.6501 1385.24 61.6501C1385.24 67.4101 1393.84 67.6901 1393.84 75.6901C1393.84 79.4901 1392.2 81.9301 1389.08 82.5701V84.6101H1385.48V82.5701C1382.32 81.9301 1380.72 79.4901 1380.72 75.6901V73.7701H1384.88V75.9701C1384.88 77.9701 1385.76 78.6901 1387.16 78.6901C1388.56 78.6901 1389.44 77.9701 1389.44 75.9701C1389.44 70.2101 1380.84 69.9301 1380.84 61.9301Z" fill="white"/>
<path d="M1477.52 73.7701H1481.68V76.3701C1481.68 78.3701 1482.56 79.0901 1483.96 79.0901C1485.36 79.0901 1486.24 78.3701 1486.24 76.3701V70.2101C1486.24 68.2101 1485.36 67.4501 1483.96 67.4501C1482.56 67.4501 1481.68 68.2101 1481.68 70.2101V71.0501H1477.52L1478.32 54.8101H1489.92V58.8101H1482.28L1481.92 65.4901C1482.72 64.1701 1484 63.4501 1485.76 63.4501C1489 63.4501 1490.64 65.7301 1490.64 69.8501V76.0901C1490.64 80.5701 1488.4 83.1301 1484.08 83.1301C1479.76 83.1301 1477.52 80.5701 1477.52 76.0901V73.7701ZM1506.5 61.5301V75.8501C1506.5 80.5701 1504.34 83.1301 1499.78 83.1301C1495.46 83.1301 1493.22 80.5701 1493.22 76.0901V75.3701H1497.38V76.3701C1497.38 78.3701 1498.26 79.1301 1499.66 79.1301C1501.22 79.1301 1502.1 78.3701 1502.1 75.6901V70.5701C1501.34 72.1701 1499.98 73.0501 1498.02 73.0501C1494.78 73.0501 1493.14 70.7701 1493.14 66.6501V61.5301C1493.14 57.0501 1495.5 54.4901 1499.82 54.4901C1504.14 54.4901 1506.5 57.0501 1506.5 61.5301ZM1499.82 69.0501C1501.22 69.0501 1502.1 68.2901 1502.1 66.2901V61.2501C1502.1 59.2501 1501.22 58.5301 1499.82 58.5301C1498.42 58.5301 1497.54 59.2501 1497.54 61.2501V66.2901C1497.54 68.2901 1498.42 69.0501 1499.82 69.0501ZM1509.44 78.5701H1513.68V82.8101H1509.44V78.5701ZM1525.58 61.6901C1525.58 59.1701 1524.7 58.4901 1523.3 58.4901C1521.9 58.4901 1521.02 59.2501 1521.02 61.2501V64.2501H1516.86V61.5301C1516.86 57.0501 1519.1 54.4901 1523.42 54.4901C1527.74 54.4901 1529.98 57.0501 1529.98 61.5301C1529.98 70.3301 1521.22 73.6101 1521.22 78.2101C1521.22 78.4101 1521.22 78.6101 1521.26 78.8101H1529.58V82.8101H1516.86V79.3701C1516.86 71.1301 1525.58 69.7701 1525.58 61.6901ZM1541.2 63.2501V61.6901C1541.2 59.1701 1540.32 58.4901 1538.92 58.4901C1537.52 58.4901 1536.64 59.2501 1536.64 61.2501V63.0501H1532.48V61.5301C1532.48 57.0501 1534.72 54.4901 1539.04 54.4901C1543.36 54.4901 1545.6 57.0501 1545.6 61.5301V62.2501C1545.6 65.2501 1544.64 67.1301 1542.52 68.0101C1544.72 68.9701 1545.6 71.0501 1545.6 73.8901V76.0901C1545.6 80.5701 1543.36 83.1301 1539.04 83.1301C1534.72 83.1301 1532.48 80.5701 1532.48 76.0901V73.7701H1536.64V76.3701C1536.64 78.3701 1537.52 79.1301 1538.92 79.1301C1540.32 79.1301 1541.2 78.4501 1541.2 75.9701V73.7701C1541.2 71.1701 1540.32 70.2101 1538.32 70.2101H1536.84V66.2101H1538.56C1540.2 66.2101 1541.2 65.4901 1541.2 63.2501Z" fill="#7BDAFF"/>
<path d="M1693.92 28.73H1711.3C1734.53 28.73 1753.39 47.59 1753.39 70.82V88.88C1753.39 112.11 1734.53 130.97 1711.3 130.97H1693.92C1670.69 130.97 1651.83 112.11 1651.83 88.88V70.82C1651.83 47.59 1670.69 28.73 1693.92 28.73Z" fill="#127B93"/>
<path d="M1711.31 30.6601C1733.49 30.6601 1751.48 48.6401 1751.48 70.8301V88.8901C1751.48 111.07 1733.5 129.06 1711.31 129.06H1693.93C1671.75 129.06 1653.76 111.08 1653.76 88.8901V70.8301C1653.76 48.6501 1671.74 30.6601 1693.93 30.6601H1711.31ZM1711.31 26.8101H1693.93C1669.66 26.8101 1649.91 46.5601 1649.91 70.8301V88.8901C1649.91 113.16 1669.66 132.91 1693.93 132.91H1711.31C1735.58 132.91 1755.33 113.16 1755.33 88.8901V70.8301C1755.33 46.5601 1735.58 26.8101 1711.31 26.8101Z" fill="#002C3A"/>
<path d="M1751.48 70.6301V70.6201C1751.48 48.5508 1733.59 30.6602 1711.52 30.6602H1693.73C1671.66 30.6602 1653.77 48.5508 1653.77 70.6201V70.6301C1653.77 92.6994 1671.66 110.59 1693.73 110.59H1711.52C1733.59 110.59 1751.48 92.6994 1751.48 70.6301Z" fill="#06BADD"/>
<path d="M1712.6 36.1602H1692.64C1674.17 36.1602 1659.19 51.1362 1659.19 69.6102C1659.19 88.0841 1674.17 103.06 1692.64 103.06H1712.6C1731.07 103.06 1746.05 88.0841 1746.05 69.6102C1746.05 51.1362 1731.07 36.1602 1712.6 36.1602Z" fill="#34EBE6"/>
<path d="M1683.64 78.5704C1684.68 79.7704 1685.85 80.8304 1687.12 81.7804C1689.1 83.2804 1691.27 84.4204 1693.61 85.2504C1693.77 85.3104 1693.78 85.3504 1693.68 85.4804C1693.1 86.2504 1692.52 87.0204 1691.95 87.7904C1691.87 87.9004 1691.79 87.9304 1691.65 87.9304C1690.32 87.8704 1689.02 87.6604 1687.73 87.3704C1684.99 86.7404 1682.42 85.6904 1680.08 84.1204C1678.69 83.1904 1677.44 82.0904 1676.33 80.8404C1676.27 80.7704 1676.26 80.7004 1676.26 80.6104C1676.34 79.3804 1676.44 78.1504 1676.58 76.9204C1676.72 75.6304 1676.89 74.3404 1677.1 73.0604C1677.75 69.0604 1678.71 65.1404 1680.13 61.3404C1680.96 59.1104 1681.91 56.9404 1683.12 54.8904C1683.33 54.5404 1683.58 54.2604 1683.91 54.0304C1686.32 52.3504 1688.93 51.0904 1691.75 50.2804C1692.9 49.9504 1694.06 49.7304 1695.25 49.6004C1695.37 49.5904 1695.44 49.6104 1695.5 49.7404C1695.63 50.0304 1695.78 50.3204 1695.93 50.6104C1695.99 50.7304 1696 50.7704 1695.85 50.8004C1694.42 51.1304 1693.02 51.5704 1691.67 52.1404C1689.57 53.0304 1687.66 54.2404 1685.9 55.7004C1685.57 55.9804 1685.24 56.2604 1684.92 56.5404C1684.89 56.5704 1684.84 56.5904 1684.83 56.6504C1684.91 56.6704 1684.96 56.6204 1685.02 56.5904C1686.7 55.7404 1688.39 54.9104 1690.15 54.2304C1692.19 53.4404 1694.29 52.8504 1696.45 52.4904C1698.98 52.0704 1701.52 51.9504 1704.08 52.0304C1707.5 52.1404 1710.85 52.7104 1714.08 53.8604C1716.2 54.6104 1718.21 55.5904 1720.21 56.6004C1720.27 56.6304 1720.33 56.6604 1720.39 56.6804C1720.41 56.6804 1720.43 56.7104 1720.45 56.6804C1720.45 56.6804 1720.43 56.6604 1720.42 56.6504C1719.86 56.1204 1719.26 55.6304 1718.66 55.1504C1716.58 53.4804 1714.25 52.3004 1711.72 51.4804C1710.94 51.2304 1710.15 51.0104 1709.36 50.8104C1709.24 50.7804 1709.23 50.7504 1709.28 50.6504C1709.43 50.3704 1709.58 50.0904 1709.7 49.8004C1709.77 49.6404 1709.87 49.6104 1710.03 49.6204C1710.96 49.7204 1711.88 49.8704 1712.79 50.1004C1716 50.9104 1718.92 52.3504 1721.61 54.2604C1721.73 54.3504 1721.83 54.4504 1721.91 54.5804C1722.83 56.0504 1723.58 57.6104 1724.25 59.2004C1725.27 61.6104 1726.1 64.0904 1726.77 66.6304C1727.4 69.0104 1727.89 71.4304 1728.25 73.8704C1728.53 75.7004 1728.73 77.5404 1728.88 79.3804C1728.91 79.7904 1728.93 80.1904 1728.97 80.6004C1728.97 80.7204 1728.94 80.8004 1728.87 80.8904C1726.82 83.2004 1724.34 84.9004 1721.5 86.1004C1719.72 86.8504 1717.87 87.3704 1715.96 87.6904C1715.16 87.8204 1714.36 87.9204 1713.55 87.9504C1713.44 87.9504 1713.38 87.9304 1713.31 87.8404C1712.72 87.0504 1712.13 86.2604 1711.53 85.4704C1711.43 85.3404 1711.49 85.3204 1711.6 85.2804C1713.83 84.4904 1715.92 83.4104 1717.83 82.0104C1719.2 81.0104 1720.46 79.8704 1721.58 78.5904C1721.6 78.5704 1721.61 78.5504 1721.63 78.5304C1721.65 78.5304 1721.66 78.5204 1721.68 78.5104C1721.68 78.5104 1721.65 78.4904 1721.64 78.5004C1721.61 78.5004 1721.64 78.5204 1721.64 78.5304C1721.6 78.4804 1721.58 78.5304 1721.56 78.5504C1721.09 78.8804 1720.62 79.2104 1720.14 79.5304C1718.01 80.9404 1715.72 82.0204 1713.28 82.8004C1711.63 83.3304 1709.95 83.7004 1708.23 83.9604C1705.72 84.3304 1703.2 84.4204 1700.67 84.3104C1697.35 84.1604 1694.1 83.6004 1690.96 82.4704C1688.44 81.5604 1686.09 80.3104 1683.92 78.7204C1683.84 78.6604 1683.75 78.6104 1683.67 78.5504C1683.65 78.5204 1683.63 78.4804 1683.58 78.5304C1683.58 78.5204 1683.61 78.5004 1683.58 78.5004C1683.57 78.5004 1683.55 78.5004 1683.54 78.5104C1683.56 78.5104 1683.57 78.5204 1683.59 78.5304L1683.64 78.5904V78.5704ZM1690.63 71.1004C1690.64 71.3804 1690.64 71.6104 1690.67 71.8504C1690.84 73.1104 1691.36 74.1904 1692.34 75.0304C1693.88 76.3604 1696.16 76.2404 1697.57 74.7804C1698.35 73.9804 1698.81 73.0304 1698.95 71.9304C1699.17 70.2404 1698.74 68.7504 1697.53 67.5204C1696.02 65.9904 1693.56 66.0104 1692.06 67.5604C1691.09 68.5604 1690.65 69.7704 1690.63 71.1004ZM1714.59 71.3604C1714.59 69.9304 1714.21 68.8204 1713.43 67.8704C1712.65 66.9304 1711.65 66.3904 1710.41 66.3804C1709.17 66.3804 1708.17 66.9104 1707.38 67.8504C1706.74 68.6004 1706.37 69.4704 1706.26 70.4504C1706.05 72.2504 1706.54 73.8204 1707.93 75.0404C1709.45 76.3704 1711.72 76.2504 1713.13 74.8104C1714.12 73.8004 1714.57 72.5704 1714.59 71.3604ZM1684.82 56.6704C1684.82 56.6704 1684.82 56.6704 1684.81 56.6604C1684.81 56.6604 1684.81 56.6804 1684.8 56.6804C1684.8 56.6804 1684.8 56.6804 1684.81 56.6904C1684.81 56.6904 1684.81 56.6704 1684.82 56.6704Z" fill="#71FFF4"/>
<path d="M1683.64 76.1802C1684.68 77.3802 1685.85 78.4402 1687.12 79.3902C1689.1 80.8902 1691.27 82.0302 1693.61 82.8602C1693.77 82.9202 1693.78 82.9602 1693.68 83.0902C1693.1 83.8602 1692.52 84.6302 1691.95 85.4002C1691.87 85.5102 1691.79 85.5402 1691.65 85.5402C1690.32 85.4802 1689.02 85.2702 1687.73 84.9802C1684.99 84.3502 1682.42 83.3002 1680.08 81.7302C1678.69 80.8002 1677.44 79.7002 1676.33 78.4502C1676.27 78.3802 1676.26 78.3102 1676.26 78.2202C1676.34 76.9902 1676.44 75.7602 1676.58 74.5302C1676.72 73.2402 1676.89 71.9502 1677.1 70.6702C1677.75 66.6702 1678.71 62.7502 1680.13 58.9502C1680.96 56.7202 1681.91 54.5502 1683.12 52.5002C1683.33 52.1502 1683.58 51.8702 1683.91 51.6402C1686.32 49.9602 1688.93 48.7002 1691.75 47.8902C1692.9 47.5602 1694.06 47.3402 1695.25 47.2102C1695.37 47.2002 1695.44 47.2202 1695.5 47.3502C1695.63 47.6402 1695.78 47.9302 1695.93 48.2202C1695.99 48.3402 1696 48.3802 1695.85 48.4102C1694.42 48.7402 1693.02 49.1802 1691.67 49.7502C1689.57 50.6402 1687.66 51.8502 1685.9 53.3102C1685.57 53.5902 1685.24 53.8702 1684.92 54.1502C1684.89 54.1802 1684.84 54.2002 1684.83 54.2602C1684.91 54.2802 1684.96 54.2302 1685.02 54.2002C1686.7 53.3502 1688.39 52.5202 1690.15 51.8402C1692.19 51.0502 1694.29 50.4602 1696.45 50.1002C1698.98 49.6802 1701.52 49.5602 1704.08 49.6402C1707.5 49.7502 1710.85 50.3202 1714.08 51.4702C1716.2 52.2202 1718.21 53.2002 1720.21 54.2102C1720.27 54.2402 1720.33 54.2702 1720.39 54.2902C1720.41 54.2902 1720.43 54.3202 1720.45 54.2902C1720.45 54.2902 1720.43 54.2702 1720.42 54.2602C1719.86 53.7302 1719.26 53.2402 1718.66 52.7602C1716.58 51.0902 1714.25 49.9102 1711.72 49.0902C1710.94 48.8402 1710.15 48.6202 1709.36 48.4202C1709.24 48.3902 1709.23 48.3602 1709.28 48.2602C1709.43 47.9802 1709.58 47.7002 1709.7 47.4102C1709.77 47.2502 1709.87 47.2202 1710.03 47.2302C1710.96 47.3302 1711.88 47.4802 1712.79 47.7102C1716 48.5202 1718.92 49.9602 1721.61 51.8702C1721.73 51.9602 1721.83 52.0602 1721.91 52.1902C1722.83 53.6602 1723.58 55.2202 1724.25 56.8102C1725.27 59.2202 1726.1 61.7002 1726.77 64.2402C1727.4 66.6202 1727.89 69.0402 1728.25 71.4802C1728.53 73.3102 1728.73 75.1502 1728.88 76.9902C1728.91 77.4002 1728.93 77.8002 1728.97 78.2102C1728.97 78.3302 1728.94 78.4102 1728.87 78.5002C1726.82 80.8102 1724.34 82.5102 1721.5 83.7102C1719.72 84.4602 1717.87 84.9802 1715.96 85.3002C1715.16 85.4302 1714.36 85.5302 1713.55 85.5602C1713.44 85.5602 1713.38 85.5402 1713.31 85.4502C1712.72 84.6602 1712.13 83.8702 1711.53 83.0802C1711.43 82.9502 1711.49 82.9302 1711.6 82.8902C1713.83 82.1002 1715.92 81.0202 1717.83 79.6202C1719.2 78.6202 1720.46 77.4802 1721.58 76.2002C1721.6 76.1802 1721.61 76.1602 1721.63 76.1402C1721.65 76.1402 1721.66 76.1302 1721.68 76.1202C1721.68 76.1202 1721.65 76.1002 1721.64 76.1102C1721.61 76.1102 1721.64 76.1302 1721.64 76.1402C1721.6 76.0902 1721.58 76.1402 1721.56 76.1602C1721.09 76.4902 1720.62 76.8202 1720.14 77.1402C1718.01 78.5502 1715.72 79.6302 1713.28 80.4102C1711.63 80.9402 1709.95 81.3102 1708.23 81.5702C1705.72 81.9402 1703.2 82.0302 1700.67 81.9202C1697.35 81.7702 1694.1 81.2102 1690.96 80.0802C1688.44 79.1702 1686.09 77.9202 1683.92 76.3302C1683.84 76.2702 1683.75 76.2202 1683.67 76.1602C1683.65 76.1302 1683.63 76.0902 1683.58 76.1402C1683.58 76.1302 1683.61 76.1102 1683.58 76.1102C1683.57 76.1102 1683.55 76.1102 1683.54 76.1202C1683.56 76.1202 1683.57 76.1302 1683.59 76.1402L1683.64 76.2002V76.1802ZM1690.63 68.7102C1690.64 68.9902 1690.64 69.2202 1690.67 69.4602C1690.84 70.7202 1691.36 71.8002 1692.34 72.6402C1693.88 73.9702 1696.16 73.8502 1697.57 72.3902C1698.35 71.5902 1698.81 70.6402 1698.95 69.5402C1699.17 67.8502 1698.74 66.3602 1697.53 65.1302C1696.02 63.6002 1693.56 63.6202 1692.06 65.1702C1691.09 66.1702 1690.65 67.3802 1690.63 68.7102ZM1714.59 68.9602C1714.59 67.5302 1714.21 66.4202 1713.43 65.4702C1712.65 64.5302 1711.65 63.9902 1710.41 63.9802C1709.17 63.9802 1708.17 64.5102 1707.38 65.4502C1706.74 66.2002 1706.37 67.0702 1706.26 68.0502C1706.05 69.8502 1706.54 71.4202 1707.93 72.6402C1709.45 73.9702 1711.72 73.8502 1713.13 72.4102C1714.12 71.4002 1714.57 70.1702 1714.59 68.9602ZM1684.82 54.2802C1684.82 54.2802 1684.82 54.2802 1684.81 54.2702C1684.81 54.2702 1684.81 54.2902 1684.8 54.2902C1684.8 54.2902 1684.8 54.2902 1684.81 54.3002C1684.81 54.3002 1684.81 54.2802 1684.82 54.2802Z" fill="#002C3A"/>
<path d="M1821.35 28.73H1838.73C1861.96 28.73 1880.82 47.59 1880.82 70.82V88.88C1880.82 112.11 1861.96 130.97 1838.73 130.97H1821.35C1798.12 130.97 1779.26 112.11 1779.26 88.88V70.82C1779.26 47.59 1798.12 28.73 1821.35 28.73Z" fill="#127B93"/>
<path d="M1838.73 30.6601C1860.91 30.6601 1878.9 48.6401 1878.9 70.8301V88.8901C1878.9 111.07 1860.92 129.06 1838.73 129.06H1821.35C1799.17 129.06 1781.18 111.08 1781.18 88.8901V70.8301C1781.18 48.6501 1799.16 30.6601 1821.35 30.6601H1838.73ZM1838.73 26.8101H1821.35C1797.08 26.8101 1777.33 46.5601 1777.33 70.8301V88.8901C1777.33 113.16 1797.08 132.91 1821.35 132.91H1838.73C1863 132.91 1882.75 113.16 1882.75 88.8901V70.8301C1882.75 46.5601 1863 26.8101 1838.73 26.8101Z" fill="#002C3A"/>
<path d="M1878.9 70.6199V70.6099C1878.9 48.5406 1861.01 30.6499 1838.94 30.6499H1821.15C1799.08 30.6499 1781.19 48.5406 1781.19 70.6099V70.6199C1781.19 92.6892 1799.08 110.58 1821.15 110.58H1838.94C1861.01 110.58 1878.9 92.6892 1878.9 70.6199Z" fill="#06BADD"/>
<path d="M1840.02 36.1602H1820.06C1801.59 36.1602 1786.61 51.1362 1786.61 69.6102C1786.61 88.0841 1801.59 103.06 1820.06 103.06H1840.02C1858.49 103.06 1873.47 88.0841 1873.47 69.6102C1873.47 51.1362 1858.49 36.1602 1840.02 36.1602Z" fill="#34EBE6"/>
<path d="M1856.5 55.3501C1854.74 56.1201 1852.85 56.6401 1850.86 56.8701C1852.89 55.6701 1854.45 53.7801 1855.18 51.5201C1853.28 52.6301 1851.17 53.4401 1848.94 53.8701C1847.15 51.9901 1844.59 50.8101 1841.77 50.8101C1836.34 50.8101 1831.94 55.1401 1831.94 60.4901C1831.94 61.2501 1832.03 61.9801 1832.19 62.6901C1824.02 62.2901 1816.78 58.4301 1811.93 52.5801C1811.09 54.0101 1810.6 55.6701 1810.6 57.4401C1810.6 60.8001 1812.34 63.7601 1814.97 65.4901C1813.36 65.4401 1811.84 65.0001 1810.52 64.2801V64.4001C1810.52 65.6401 1810.76 66.8201 1811.19 67.9101C1812.39 70.9401 1815.09 73.2401 1818.4 73.8901C1817.57 74.1101 1816.71 74.2301 1815.81 74.2301C1815.18 74.2301 1814.56 74.1701 1813.96 74.0501C1815.21 77.8901 1818.84 80.6901 1823.14 80.7701C1819.77 83.3701 1815.54 84.9101 1810.93 84.9101C1810.14 84.9101 1809.35 84.8601 1808.58 84.7701C1812.93 87.5101 1818.1 89.1201 1823.65 89.1201C1839.02 89.1201 1848.46 78.4701 1850.95 67.4301C1851.39 65.4801 1851.62 63.5101 1851.62 61.5901C1851.62 61.1701 1851.62 60.7501 1851.59 60.3401C1853.51 58.9801 1855.18 57.2701 1856.49 55.3301L1856.5 55.3501Z" fill="#71FFF4"/>
<path d="M1856.5 52.9599C1854.74 53.7299 1852.85 54.2499 1850.86 54.4799C1852.89 53.2799 1854.45 51.3899 1855.18 49.1299C1853.28 50.2399 1851.17 51.0499 1848.94 51.4799C1847.15 49.5999 1844.59 48.4199 1841.77 48.4199C1836.34 48.4199 1831.94 52.7499 1831.94 58.0999C1831.94 58.8599 1832.03 59.5899 1832.19 60.2999C1824.02 59.8999 1816.78 56.0399 1811.93 50.1899C1811.09 51.6199 1810.6 53.2799 1810.6 55.0499C1810.6 58.4099 1812.34 61.3699 1814.97 63.0999C1813.36 63.0499 1811.84 62.6099 1810.52 61.8899V62.0099C1810.52 63.2499 1810.76 64.4299 1811.19 65.5199C1812.39 68.5499 1815.09 70.8499 1818.4 71.4999C1817.57 71.7199 1816.71 71.8399 1815.81 71.8399C1815.18 71.8399 1814.56 71.7799 1813.96 71.6599C1815.21 75.4999 1818.84 78.2999 1823.14 78.3799C1819.77 80.9799 1815.54 82.5199 1810.93 82.5199C1810.14 82.5199 1809.35 82.4699 1808.58 82.3799C1812.93 85.1199 1818.1 86.7299 1823.65 86.7299C1839.02 86.7299 1848.46 76.0799 1850.95 65.0399C1851.39 63.0899 1851.62 61.1199 1851.62 59.1999C1851.62 58.7799 1851.62 58.3599 1851.59 57.9499C1853.51 56.5899 1855.18 54.8799 1856.49 52.9399L1856.5 52.9599Z" fill="#002C3A"/>
<defs>
<linearGradient id="paint0_linear_218_242" x1="960" y1="-63.47" x2="960" y2="250.92" gradientUnits="userSpaceOnUse">
<stop offset="0.33" stop-color="#0D5C7C"/>
<stop offset="0.6" stop-color="#094259"/>
</linearGradient>
<clipPath id="clip0_218_242">
<rect width="1920" height="153.75" fill="white"/>
</clipPath>
<clipPath id="clip1_218_242">
<rect width="307.63" height="117.72" fill="white" transform="translate(185.7 21)"/>
</clipPath>
</defs>
</svg>
