<svg width="36" height="65" viewBox="0 0 36 65" fill="none" xmlns="http://www.w3.org/2000/svg">
<path d="M1.12 19C0.906667 17.6133 0.8 16.2 0.8 14.76C0.853334 13.32 1.12 11.9067 1.6 10.52C2.18667 8.70666 3.14667 7.10666 4.48 5.72C5.81333 4.33333 7.33333 3.24 9.04 2.44C10.8533 1.58666 12.6933 0.999998 14.56 0.679999C16.48 0.306664 18.3467 0.226664 20.16 0.439998C22.0267 0.653331 23.8133 1.13333 25.52 1.88C27.28 2.57333 28.9333 3.58667 30.48 4.92C32.1333 6.36 33.36 8.04 34.16 9.96C35.0133 11.8267 35.4667 13.7733 35.52 15.8C35.6267 17.8267 35.3867 19.8533 34.8 21.88C34.2667 23.8533 33.44 25.6933 32.32 27.4C32.32 27.4 32.2933 27.4533 32.24 27.56C31.3333 28.7867 30.2933 29.9067 29.12 30.92C27.9467 31.88 26.8533 32.92 25.84 34.04C24.6667 35.2667 23.9733 36.52 23.76 37.8C23.5467 39.0267 23.3333 40.4133 23.12 41.96C22.96 43.4533 22.56 44.76 21.92 45.88C21.3333 46.9467 20.2133 47.4533 18.56 47.4C17.44 47.3467 16.5867 47 16 46.36C15.4667 45.6667 15.0667 44.8667 14.8 43.96C14.5867 43 14.5067 42.0133 14.56 41C14.6133 39.9333 14.6933 39 14.8 38.2C15.12 36.3333 15.7067 34.5733 16.56 32.92C17.4133 31.2133 18.4533 29.6133 19.68 28.12C20.3733 27.32 21.0667 26.6 21.76 25.96C22.4533 25.2667 23.0933 24.5467 23.68 23.8C24.2667 23.0533 24.7733 22.2533 25.2 21.4C25.6267 20.5467 25.92 19.56 26.08 18.44C26.24 17.4267 26.16 16.4133 25.84 15.4C25.52 14.3333 25.04 13.4 24.4 12.6C23.76 11.7467 22.9867 11.0533 22.08 10.52C21.1733 9.93333 20.1867 9.61333 19.12 9.56C18.16 9.50666 17.1467 9.64 16.08 9.96C15.0133 10.2267 14.0267 10.68 13.12 11.32C12.2133 11.9067 11.4667 12.6267 10.88 13.48C10.3467 14.3333 10.1067 15.2933 10.16 16.36C10.2133 17 10.32 17.6667 10.48 18.36C10.6933 19 10.8267 19.64 10.88 20.28C10.9867 20.8667 10.96 21.4533 10.8 22.04C10.6933 22.6267 10.3467 23.1867 9.76 23.72C8.8 24.6267 7.84 25.08 6.88 25.08C5.92 25.0267 5.04 24.7067 4.24 24.12C3.44 23.5333 2.74667 22.7867 2.16 21.88C1.62667 20.92 1.28 19.96 1.12 19ZM24.16 58.92C24.16 60.4667 23.5733 61.8533 22.4 63.08C21.28 64.2533 19.9733 64.84 18.48 64.84C17.04 64.84 15.76 64.2533 14.64 63.08C13.52 61.8 12.96 60.4133 12.96 58.92C12.96 57.2667 13.52 55.88 14.64 54.76C15.76 53.5333 17.04 52.92 18.48 52.92C19.9733 52.92 21.28 53.5333 22.4 54.76C23.5733 55.9333 24.16 57.32 24.16 58.92Z" fill="black"/>
</svg>
