<svg width="1676" height="820" viewBox="0 0 1676 820" fill="none" xmlns="http://www.w3.org/2000/svg">
<g clip-path="url(#clip0_218_245)">
<path d="M1598.15 6.98999H60.76C30.5114 6.98999 5.98999 31.5114 5.98999 61.76V758.55C5.98999 788.799 30.5114 813.32 60.76 813.32H1598.15C1628.4 813.32 1652.92 788.799 1652.92 758.55V61.76C1652.92 31.5114 1628.4 6.98999 1598.15 6.98999Z" fill="#0C7E40"/>
<path d="M1598.15 12.97C1625.09 12.97 1646.93 34.81 1646.93 61.75V758.55C1646.93 785.49 1625.09 807.33 1598.15 807.33H60.75C33.81 807.33 11.97 785.49 11.97 758.55V61.75C11.97 34.81 33.81 12.97 60.75 12.97H1598.15ZM1598.15 1H60.75C27.25 1 0 28.25 0 61.75V758.55C0 792.05 27.25 819.3 60.75 819.3H1598.15C1631.65 819.3 1658.9 792.05 1658.9 758.55V61.75C1658.9 28.25 1631.65 1 1598.15 1Z" fill="#0E361B"/>
<path d="M1646.93 701.19V61.76C1646.93 34.8195 1625.09 12.98 1598.15 12.98L60.7501 12.98C33.8097 12.98 11.9702 34.8195 11.9702 61.76V701.19C11.9702 728.13 33.8097 749.97 60.7501 749.97L1598.15 749.97C1625.09 749.97 1646.93 728.13 1646.93 701.19Z" fill="#6FD800"/>
<path d="M1581.94 30.0701H76.9601C50.3841 30.0701 28.8401 51.6141 28.8401 78.1901V671.25C28.8401 697.826 50.3841 719.37 76.9601 719.37H1581.94C1608.52 719.37 1630.06 697.826 1630.06 671.25V78.1901C1630.06 51.6141 1608.52 30.0701 1581.94 30.0701Z" fill="#BDFA19"/>
<g opacity="0.51">
<path d="M1576.28 764.37H82.6301C74.1912 764.37 67.3501 771.209 67.3501 779.645C67.3501 788.081 74.1912 794.92 82.6301 794.92H1576.28C1584.72 794.92 1591.56 788.081 1591.56 779.645C1591.56 771.209 1584.72 764.37 1576.28 764.37Z" fill="#0CA052"/>
</g>
<path d="M1598.15 743.22H60.75C33.81 743.22 11.97 721.38 11.97 694.44V701.18C11.97 728.12 33.81 749.96 60.75 749.96H1598.15C1625.09 749.96 1646.93 728.12 1646.93 701.18V694.44C1646.93 721.38 1625.09 743.22 1598.15 743.22Z" fill="#D6FF57"/>
<path d="M1574.05 85.1799H84.45C65.3078 85.1799 49.79 100.698 49.79 119.84V427.47C49.79 446.612 65.3078 462.13 84.45 462.13H1574.05C1593.19 462.13 1608.71 446.612 1608.71 427.47V119.84C1608.71 100.698 1593.19 85.1799 1574.05 85.1799Z" fill="#DCFF48"/>
<path d="M1573.59 61.75H84.91C65.5138 61.75 49.79 77.4738 49.79 96.87V643.71C49.79 663.106 65.5138 678.83 84.91 678.83H1573.59C1592.99 678.83 1608.71 663.106 1608.71 643.71V96.87C1608.71 77.4738 1592.99 61.75 1573.59 61.75Z" fill="#0E3318"/>
</g>
<path d="M751.03 112.39C732.31 103.07 709.82 102.07 689.69 111.11C699.22 116.46 707.8 123.71 714.82 132.67C706.7 141.31 700.27 151.86 693.19 162.21C679.74 181.82 662.97 152.63 636.74 162.37C649.35 168.67 649 190.14 673.51 189.43C657.22 209.48 674.72 215.13 671.76 228.91C697.52 214.46 684.43 186.36 706.74 190.43C727.47 193.56 745.52 196.48 760.38 188.04C753.95 195.33 747.55 197.96 741.53 199.02C742.41 206.65 741.79 211.71 740.12 218.97C755.61 212.22 766.74 199.15 771.46 183.87C807.79 162.35 816.66 140.04 821.71 118.2C799.96 108.35 775 105.93 751.01 112.4L751.03 112.39ZM793.21 129.05C790.63 130.29 787.52 129.2 786.28 126.62C785.04 124.03 786.13 120.93 788.71 119.69C791.29 118.45 794.4 119.54 795.64 122.12C796.88 124.7 795.79 127.81 793.21 129.05Z" fill="#BDFA19"/>
<path d="M867.3 228.34L826.92 166.87L867.3 105.4L911.12 166.87L867.3 228.34Z" fill="#BDFA19"/>
<path d="M894.91 228.34L854.53 166.87L894.91 105.4L938.73 166.87L894.91 228.34Z" stroke="#BDFA19" stroke-width="1.92" stroke-miterlimit="10"/>
<path d="M818.634 532.926H1092C1100.77 532.926 1107.9 540.052 1107.9 548.826V622.677C1107.9 631.451 1100.77 638.577 1092 638.577H818.634C809.86 638.577 802.734 631.451 802.734 622.677V548.826C802.734 540.052 809.86 532.926 818.634 532.926Z" fill="#0C7E40"/>
<path d="M1092.01 534.669C1099.83 534.669 1106.17 541.013 1106.17 548.835V622.685C1106.17 630.507 1099.83 636.851 1092.01 636.851H818.643C810.822 636.851 804.477 630.507 804.477 622.685V548.835C804.477 541.013 810.822 534.669 818.643 534.669H1092.01ZM1092.01 531.192H818.643C808.916 531.192 801 539.108 801 548.835V622.685C801 632.413 808.916 640.328 818.643 640.328H1092.01C1101.73 640.328 1109.65 632.413 1109.65 622.685V548.835C1109.65 539.108 1101.73 531.192 1092.01 531.192Z" fill="#0E361B"/>
<path d="M1106.16 606.021V548.835C1106.16 541.011 1099.82 534.669 1092 534.669H818.634C810.811 534.669 804.469 541.011 804.469 548.835V606.021C804.469 613.845 810.811 620.187 818.634 620.187H1092C1099.82 620.187 1106.16 613.845 1106.16 606.021Z" fill="#6FD800"/>
<path d="M1087.3 539.631H823.339C815.624 539.631 809.371 545.885 809.371 553.6V597.333C809.371 605.048 815.624 611.301 823.339 611.301H1087.3C1095.02 611.301 1101.27 605.048 1101.27 597.333V553.6C1101.27 545.885 1095.02 539.631 1087.3 539.631Z" fill="#BDFA19"/>
<g opacity="0.51">
<path d="M1085.65 624.368H824.996C822.545 624.368 820.557 626.354 820.557 628.803C820.557 631.252 822.545 633.237 824.996 633.237H1085.65C1088.11 633.237 1090.09 631.252 1090.09 628.803C1090.09 626.354 1088.11 624.368 1085.65 624.368Z" fill="#0CA052"/>
</g>
<path d="M1092.01 618.23H818.643C810.822 618.23 804.477 611.885 804.477 604.064V606.021C804.477 613.843 810.822 620.187 818.643 620.187H1092.01C1099.83 620.187 1106.17 613.843 1106.17 606.021V604.064C1106.17 611.885 1099.83 618.23 1092.01 618.23Z" fill="#D6FF57"/>
<path d="M809.371 577.604V591.469L848.356 539.631H837.925L809.371 577.604Z" fill="#DCFF48"/>
<path d="M809.371 573.887L835.127 539.631H823.339C822.12 539.631 820.935 539.786 819.81 540.086L809.371 553.969V573.887Z" fill="#DCFF48"/>
<path d="M1101.27 573.328V559.463L1062.29 611.301H1072.72L1101.27 573.328Z" fill="#DCFF48"/>
<path d="M1101.27 577.046L1075.51 611.301H1087.3C1088.52 611.301 1089.71 611.147 1090.83 610.846L1101.27 596.964V577.046Z" fill="#DCFF48"/>
<path d="M858.376 555.411H865.75V595.633H877.882V602.338H858.376V555.411Z" fill="#DCFF48"/>
<path d="M888.476 575.183H898.598V581.888H888.476V595.633H901.216V602.338H881.109V555.411H901.216V562.116H888.476V575.191V575.183Z" fill="#DCFF48"/>
<path d="M903.629 555.411H926.423V562.116H918.713V602.338H911.338V562.116H903.629V555.411Z" fill="#DCFF48"/>
<path d="M929.634 562.511V555.402H936.742V561.773L933.523 569.216H930.509L932.449 562.511H929.634Z" fill="#DCFF48"/>
<path d="M951.689 554.87C958.858 554.87 962.55 559.163 962.55 566.666V568.143H955.578V566.203C955.578 562.854 954.239 561.575 951.895 561.575C949.551 561.575 948.212 562.846 948.212 566.203C948.212 575.853 962.627 577.664 962.627 591.074C962.627 598.586 958.875 602.871 951.629 602.871C944.383 602.871 940.631 598.578 940.631 591.074V588.19H947.603V591.538C947.603 594.886 949.079 596.097 951.423 596.097C953.767 596.097 955.243 594.886 955.243 591.538C955.243 581.888 940.829 580.077 940.829 566.666C940.829 559.154 944.512 554.87 951.689 554.87Z" fill="#DCFF48"/>
<path d="M984.605 576.256H994.126V582.961H984.605V602.338H977.23V555.411H996.736V562.116H984.605V576.265V576.256Z" fill="#DCFF48"/>
<path d="M1000.29 555.411H1007.67V602.338H1000.29V555.411Z" fill="#DCFF48"/>
<path d="M1022.95 554.87C1030.12 554.87 1033.81 559.163 1033.81 566.666V568.143H1026.84V566.203C1026.84 562.854 1025.5 561.575 1023.15 561.575C1020.81 561.575 1019.47 562.846 1019.47 566.203C1019.47 575.853 1033.88 577.664 1033.88 591.074C1033.88 598.586 1030.13 602.871 1022.89 602.871C1015.64 602.871 1011.89 598.578 1011.89 591.074V588.19H1018.86V591.538C1018.86 594.886 1020.34 596.097 1022.68 596.097C1025.02 596.097 1026.5 594.886 1026.5 591.538C1026.5 581.888 1012.09 580.077 1012.09 566.666C1012.09 559.154 1015.77 554.87 1022.95 554.87Z" fill="#DCFF48"/>
<path d="M1045.47 602.33H1038.09V555.402H1045.47V575.509H1053.85V555.402H1061.36V602.33H1053.85V582.223H1045.47V602.33Z" fill="#DCFF48"/>
<path d="M858.376 552.518H865.75V592.74H877.882V599.445H858.376V552.518Z" fill="#0E361B"/>
<path d="M888.476 572.29H898.598V578.995H888.476V592.74H901.216V599.445H881.109V552.518H901.216V559.223H888.476V572.298V572.29Z" fill="#0E361B"/>
<path d="M903.629 552.518H926.423V559.223H918.713V599.445H911.338V559.223H903.629V552.518Z" fill="#0E361B"/>
<path d="M929.634 559.618V552.509H936.742V558.879L933.523 566.323H930.509L932.449 559.618H929.634Z" fill="#0E361B"/>
<path d="M951.689 551.977C958.858 551.977 962.55 556.27 962.55 563.773V565.25H955.578V563.309C955.578 559.961 954.239 558.682 951.895 558.682C949.551 558.682 948.212 559.953 948.212 563.309C948.212 572.959 962.627 574.771 962.627 588.181C962.627 595.693 958.875 599.977 951.629 599.977C944.383 599.977 940.631 595.685 940.631 588.181V585.296H947.603V588.645C947.603 591.993 949.079 593.203 951.423 593.203C953.767 593.203 955.243 591.993 955.243 588.645C955.243 578.995 940.829 577.183 940.829 563.773C940.829 556.261 944.512 551.977 951.689 551.977Z" fill="#0E361B"/>
<path d="M984.605 573.363H994.126V580.068H984.605V599.445H977.23V552.518H996.736V559.223H984.605V573.372V573.363Z" fill="#0E361B"/>
<path d="M1000.29 552.518H1007.67V599.445H1000.29V552.518Z" fill="#0E361B"/>
<path d="M1022.95 551.977C1030.12 551.977 1033.81 556.27 1033.81 563.773V565.25H1026.84V563.309C1026.84 559.961 1025.5 558.682 1023.15 558.682C1020.81 558.682 1019.47 559.953 1019.47 563.309C1019.47 572.959 1033.88 574.771 1033.88 588.181C1033.88 595.693 1030.13 599.977 1022.89 599.977C1015.64 599.977 1011.89 595.685 1011.89 588.181V585.296H1018.86V588.645C1018.86 591.993 1020.34 593.203 1022.68 593.203C1025.02 593.203 1026.5 591.993 1026.5 588.645C1026.5 578.995 1012.09 577.183 1012.09 563.773C1012.09 556.261 1015.77 551.977 1022.95 551.977Z" fill="#0E361B"/>
<path d="M1045.47 599.436H1038.09V552.509H1045.47V572.616H1053.85V552.509H1061.36V599.436H1053.85V579.33H1045.47V599.436Z" fill="#0E361B"/>
<path d="M743.445 532.333H483.943C471.462 532.333 461.344 542.451 461.344 554.932V610.927C461.344 623.408 471.462 633.526 483.943 633.526H743.445C755.926 633.526 766.044 623.408 766.044 610.927V554.932C766.044 542.451 755.926 532.333 743.445 532.333Z" fill="#DCFF48"/>
<path d="M743.434 534.677C754.623 534.677 763.7 543.753 763.7 554.943V610.927C763.7 622.117 754.623 631.193 743.434 631.193H483.943C472.753 631.193 463.677 622.117 463.677 610.927V554.943C463.677 543.753 472.753 534.677 483.943 534.677H743.434ZM743.434 530H483.943C470.19 530 459 541.19 459 554.943V610.927C459 624.68 470.19 635.87 483.943 635.87H743.434C757.187 635.87 768.377 624.68 768.377 610.927V554.943C768.377 541.19 757.187 530 743.434 530Z" fill="#0E361B"/>
<path d="M740.87 542.125H486.507C478.248 542.125 471.552 548.821 471.552 557.08V600.788C471.552 609.047 478.248 615.742 486.507 615.742H740.87C749.129 615.742 755.824 609.047 755.824 600.788V557.08C755.824 548.821 749.129 542.125 740.87 542.125Z" fill="#0E3318"/>
<path d="M496.172 576.641H509.279V583.189H496.172V576.641Z" fill="#BDFA19"/>
<path d="M513.61 567.992C513.61 560.648 517.478 556.456 524.557 556.456C531.636 556.456 535.504 560.648 535.504 567.992V591.85C535.504 599.194 531.636 603.386 524.557 603.386C517.478 603.386 513.61 599.194 513.61 591.85V567.992ZM520.815 592.3C520.815 595.58 522.259 596.827 524.557 596.827C526.855 596.827 528.287 595.58 528.287 592.3V567.53C528.287 564.251 526.843 563.003 524.557 563.003C522.27 563.003 520.815 564.251 520.815 567.53V592.3Z" fill="#BDFA19"/>
<path d="M544.604 562.749C550.17 562.749 551.417 560.059 552.537 556.987H557.387V602.855H550.181V567.865H544.615V562.749H544.604Z" fill="#BDFA19"/>
<path d="M573.312 602.855H566.106V556.987H573.312V576.641H581.499V556.987H588.843V602.855H581.499V583.201H573.312V602.855Z" fill="#BDFA19"/>
<path d="M603.659 567.992C603.659 560.648 607.528 556.456 614.607 556.456C621.685 556.456 625.554 560.648 625.554 567.992V591.85C625.554 599.194 621.685 603.386 614.607 603.386C607.528 603.386 603.659 599.194 603.659 591.85V567.992ZM610.865 592.3C610.865 595.58 612.309 596.827 614.607 596.827C616.905 596.827 618.336 595.58 618.336 592.3V567.53C618.336 564.251 616.893 563.003 614.607 563.003C612.32 563.003 610.865 564.251 610.865 567.53V592.3Z" fill="#BDFA19"/>
<path d="M651.363 556.976V563.269L640.75 602.855H633.545L644.099 563.535H629.745V556.987H651.374L651.363 556.976Z" fill="#BDFA19"/>
<path d="M671.422 589.552L676.341 556.987H686.364V602.855H679.551V569.955L674.574 602.855H667.761L662.391 570.417V602.855H656.098V556.987H666.121L671.433 589.552H671.422Z" fill="#BDFA19"/>
<path d="M691.607 556.976H698.813V602.843H691.607V556.976Z" fill="#BDFA19"/>
<path d="M710.476 569.632V602.855H703.986V556.987H713.028L720.43 584.448V556.987H726.851V602.855H719.449L710.476 569.632Z" fill="#BDFA19"/>
<path opacity="0.07" d="M486.507 615.742H740.858C749.115 615.742 755.813 609.045 755.813 600.788V595.568C755.813 603.825 749.115 610.523 740.858 610.523H486.507C478.25 610.523 471.552 603.825 471.552 595.568V600.788C471.552 609.045 478.25 615.742 486.507 615.742Z" fill="#C2FEFF"/>
<path d="M1058.03 408.13H531.36C520.894 408.13 512.41 416.614 512.41 427.08V475.52C512.41 485.986 520.894 494.47 531.36 494.47H1058.03C1068.5 494.47 1076.98 485.986 1076.98 475.52V427.08C1076.98 416.614 1068.5 408.13 1058.03 408.13Z" fill="#0C7E40"/>
<path d="M1058.04 410.15C1067.39 410.15 1074.96 417.73 1074.96 427.07V475.51C1074.96 484.86 1067.38 492.43 1058.04 492.43H531.36C522.01 492.43 514.44 484.85 514.44 475.51V427.07C514.44 417.72 522.02 410.15 531.36 410.15H1058.04ZM1058.04 406.1H531.36C519.8 406.1 510.39 415.51 510.39 427.07V475.51C510.39 487.07 519.8 496.48 531.36 496.48H1058.04C1069.6 496.48 1079.01 487.07 1079.01 475.51V427.07C1079.01 415.51 1069.6 406.1 1058.04 406.1Z" fill="#0E361B"/>
<path d="M1058.99 410.15H530.39C521.576 410.15 514.43 417.296 514.43 426.11V467.41C514.43 476.225 521.576 483.37 530.39 483.37H1058.99C1067.8 483.37 1074.95 476.225 1074.95 467.41V426.11C1074.95 417.296 1067.8 410.15 1058.99 410.15Z" fill="#DCFF48"/>
<path d="M626.22 461.27H621.94L621.21 456.37H616L615.27 461.27H611.37L615.69 434.27H621.9L626.22 461.27ZM616.54 452.71H620.63L618.59 439.05L616.55 452.71H616.54Z" fill="#0A2A3F"/>
<path d="M628.19 434.27H634.9C639.14 434.27 641.23 436.62 641.23 440.94V454.59C641.23 458.91 639.15 461.26 634.9 461.26H628.19V434.26V434.27ZM632.43 438.12V457.41H634.82C636.17 457.41 636.98 456.72 636.98 454.79V440.75C636.98 438.82 636.17 438.13 634.82 438.13H632.43V438.12Z" fill="#0A2A3F"/>
<path d="M643.93 434.27H650.64C654.88 434.27 656.97 436.62 656.97 440.94V454.59C656.97 458.91 654.89 461.26 650.64 461.26H643.93V434.26V434.27ZM648.17 438.12V457.41H650.56C651.91 457.41 652.72 456.72 652.72 454.79V440.75C652.72 438.82 651.91 438.13 650.56 438.13H648.17V438.12Z" fill="#0A2A3F"/>
<path d="M664.41 434.27H677.53V438.13H673.09V461.27H668.85V438.13H664.41V434.27Z" fill="#0A2A3F"/>
<path d="M679.03 440.75C679.03 436.43 681.31 433.96 685.47 433.96C689.63 433.96 691.91 436.43 691.91 440.75V454.79C691.91 459.11 689.63 461.58 685.47 461.58C681.31 461.58 679.03 459.11 679.03 454.79V440.75ZM683.27 455.06C683.27 456.99 684.12 457.72 685.47 457.72C686.82 457.72 687.67 456.99 687.67 455.06V440.48C687.67 438.55 686.82 437.82 685.47 437.82C684.12 437.82 683.27 438.55 683.27 440.48V455.06Z" fill="#0A2A3F"/>
<path d="M700.21 450.51L698.9 452.98V461.27H694.66V434.27H698.9V446.04L704.45 434.27H708.69L702.79 446.31L708.69 461.28H704.33L700.2 450.52L700.21 450.51Z" fill="#0A2A3F"/>
<path d="M714.87 445.65H720.69V449.51H714.87V457.42H722.2V461.28H710.63V434.28H722.2V438.14H714.87V445.66V445.65Z" fill="#0A2A3F"/>
<path d="M728.6 441.71V461.27H724.78V434.27H730.1L734.46 450.43V434.27H738.24V461.27H733.88L728.59 441.71H728.6Z" fill="#0A2A3F"/>
<path d="M1053.93 417.48H786.27C779.93 417.48 774.79 422.62 774.79 428.96V463.87C774.79 470.21 779.93 475.35 786.27 475.35H1053.93C1060.27 475.35 1065.41 470.21 1065.41 463.87V428.96C1065.41 422.62 1060.27 417.48 1053.93 417.48Z" fill="#0E3318"/>
<path d="M830.81 460.87C830.53 460.03 830.34 459.51 830.34 456.85V451.71C830.34 448.67 829.31 447.55 826.97 447.55H825.19V460.87H820.05V428.14H827.81C833.14 428.14 835.43 430.62 835.43 435.67V438.24C835.43 441.61 834.35 443.8 832.06 444.88C834.63 445.96 835.47 448.43 835.47 451.85V456.9C835.47 458.49 835.52 459.66 836.03 460.87H830.79H830.81ZM825.19 432.82V442.87H827.2C829.12 442.87 830.28 442.03 830.28 439.41V436.18C830.28 433.84 829.49 432.81 827.66 432.81H825.18L825.19 432.82Z" fill="#BDFA19"/>
<path d="M843.76 428.14V453.39C843.76 455.73 844.79 456.57 846.43 456.57C848.07 456.57 849.09 455.73 849.09 453.39V428.14H853.95V453.06C853.95 458.3 851.33 461.29 846.28 461.29C841.23 461.29 838.61 458.3 838.61 453.06V428.14H843.75H843.76Z" fill="#BDFA19"/>
<path d="M872.84 435.67V436.84C872.84 440.21 871.81 442.36 869.52 443.43C872.28 444.51 873.35 446.98 873.35 450.44V453.11C873.35 458.16 870.68 460.87 865.54 460.87H857.45V428.14H865.21C870.54 428.14 872.83 430.62 872.83 435.67H872.84ZM862.6 432.82V441.47H864.61C866.53 441.47 867.69 440.63 867.69 438.01V436.19C867.69 433.85 866.9 432.82 865.07 432.82H862.59H862.6ZM862.6 446.14V456.19H865.55C867.28 456.19 868.22 455.4 868.22 452.96V450.11C868.22 447.07 867.24 446.14 864.9 446.14H862.61H862.6Z" fill="#BDFA19"/>
<path d="M880.56 450.02L874.06 428.14H879.44L883.37 443.06L887.3 428.14H892.21L885.71 450.02V460.87H880.57V450.02H880.56Z" fill="#BDFA19"/>
<path d="M1045.17 454.03L1053.87 438.96C1055.49 436.16 1053.47 432.66 1050.23 432.66H1032.82C1029.59 432.66 1027.57 436.16 1029.18 438.96L1037.88 454.03C1039.5 456.83 1043.54 456.83 1045.16 454.03H1045.17Z" fill="#BDFA19"/>
<path d="M566.24 421.54H535.98C530.855 421.54 526.7 425.695 526.7 430.82V461.08C526.7 466.205 530.855 470.36 535.98 470.36H566.24C571.365 470.36 575.52 466.205 575.52 461.08V430.82C575.52 425.695 571.365 421.54 566.24 421.54Z" fill="#0E3318"/>
<path d="M929.05 317H667.92C658.023 317 650 325.023 650 334.92V354.03C650 363.927 658.023 371.95 667.92 371.95H929.05C938.947 371.95 946.97 363.927 946.97 354.03V334.92C946.97 325.023 938.947 317 929.05 317Z" stroke="#BDFA19" stroke-width="1.92" stroke-miterlimit="10"/>
<path d="M679.57 337.6C679.57 333.28 681.85 330.81 686.01 330.81C690.17 330.81 692.45 333.28 692.45 337.6V351.64C692.45 355.96 690.17 358.43 686.01 358.43C681.85 358.43 679.57 355.96 679.57 351.64V337.6ZM683.82 351.91C683.82 353.84 684.67 354.57 686.02 354.57C687.37 354.57 688.22 353.84 688.22 351.91V337.33C688.22 335.4 687.37 334.67 686.02 334.67C684.67 334.67 683.82 335.4 683.82 337.33V351.91Z" fill="#BDFA19"/>
<path d="M699.28 354.04V358.13H695.19V354.04H699.28Z" fill="#BDFA19"/>
<path d="M702.02 337.6C702.02 333.28 704.3 330.81 708.46 330.81C712.62 330.81 714.9 333.28 714.9 337.6V351.64C714.9 355.96 712.62 358.43 708.46 358.43C704.3 358.43 702.02 355.96 702.02 351.64V337.6ZM706.27 351.91C706.27 353.84 707.12 354.57 708.47 354.57C709.82 354.57 710.67 353.84 710.67 351.91V337.33C710.67 335.4 709.82 334.67 708.47 334.67C707.12 334.67 706.27 335.4 706.27 337.33V351.91Z" fill="#BDFA19"/>
<path d="M717.3 337.6C717.3 333.28 719.58 330.81 723.74 330.81C727.9 330.81 730.18 333.28 730.18 337.6V351.64C730.18 355.96 727.9 358.43 723.74 358.43C719.58 358.43 717.3 355.96 717.3 351.64V337.6ZM721.54 351.91C721.54 353.84 722.39 354.57 723.74 354.57C725.09 354.57 725.94 353.84 725.94 351.91V337.33C725.94 335.4 725.09 334.67 723.74 334.67C722.39 334.67 721.54 335.4 721.54 337.33V351.91Z" fill="#BDFA19"/>
<path d="M735.54 334.52C738.82 334.52 739.55 332.94 740.21 331.13H743.06V358.13H738.82V337.53H735.54V334.52Z" fill="#BDFA19"/>
<path d="M759.88 330.81C764.01 330.81 766.13 333.28 766.13 337.6V338.45H762.12V337.33C762.12 335.4 761.35 334.67 760 334.67C758.65 334.67 757.88 335.4 757.88 337.33C757.88 342.88 766.17 343.93 766.17 351.64C766.17 355.96 764.01 358.43 759.84 358.43C755.67 358.43 753.51 355.96 753.51 351.64V349.98H757.52V351.91C757.52 353.84 758.37 354.53 759.72 354.53C761.07 354.53 761.92 353.84 761.92 351.91C761.92 346.36 753.63 345.31 753.63 337.6C753.63 333.28 755.75 330.81 759.88 330.81Z" fill="#BDFA19"/>
<path d="M768.26 337.6C768.26 333.28 770.54 330.81 774.7 330.81C778.86 330.81 781.14 333.28 781.14 337.6V351.64C781.14 355.96 778.86 358.43 774.7 358.43C770.54 358.43 768.26 355.96 768.26 351.64V337.6ZM772.5 351.91C772.5 353.84 773.35 354.57 774.7 354.57C776.05 354.57 776.9 353.84 776.9 351.91V337.33C776.9 335.4 776.05 334.67 774.7 334.67C773.35 334.67 772.5 335.4 772.5 337.33V351.91Z" fill="#BDFA19"/>
<path d="M783.88 331.12H788.12V354.26H795.1V358.12H783.88V331.12Z" fill="#BDFA19"/>
<path d="M810.53 343.12H815.7V346.13H810.53V351.42H807.52V346.13H802.35V343.12H807.52V337.91H810.53V343.12Z" fill="#BDFA19"/>
<path d="M826.81 334.52C830.09 334.52 830.82 332.94 831.48 331.13H834.33V358.13H830.09V337.53H826.81V334.52Z" fill="#BDFA19"/>
<path d="M849.8 331.39V329.38H853.27V331.39C856.28 332.01 857.82 334.32 857.82 337.99V338.84H853.81V337.72C853.81 335.79 853.04 335.06 851.69 335.06C850.34 335.06 849.57 335.79 849.57 337.72C849.57 343.27 857.86 343.55 857.86 351.26C857.86 354.92 856.28 357.28 853.27 357.89V359.86H849.8V357.89C846.75 357.27 845.21 354.92 845.21 351.26V349.41H849.22V351.53C849.22 353.46 850.07 354.15 851.42 354.15C852.77 354.15 853.62 353.46 853.62 351.53C853.62 345.98 845.33 345.71 845.33 337.99C845.33 334.36 846.83 332.05 849.8 331.39Z" fill="#BDFA19"/>
<path d="M869.59 358.12C869.36 357.43 869.2 357 869.2 354.8V350.56C869.2 348.05 868.35 347.13 866.42 347.13H864.95V358.12H860.71V331.12H867.11C871.51 331.12 873.4 333.16 873.4 337.33V339.45C873.4 342.23 872.51 344.04 870.62 344.93C872.74 345.82 873.44 347.86 873.44 350.68V354.85C873.44 356.16 873.48 357.13 873.9 358.13H869.58L869.59 358.12ZM864.96 334.98V343.27H866.62C868.2 343.27 869.17 342.58 869.17 340.42V337.76C869.17 335.83 868.51 334.98 867.01 334.98H864.97H864.96Z" fill="#BDFA19"/>
<path d="M880.28 331.12V351.95C880.28 353.88 881.13 354.57 882.48 354.57C883.83 354.57 884.68 353.88 884.68 351.95V331.12H888.69V351.68C888.69 356 886.53 358.47 882.36 358.47C878.19 358.47 876.03 356 876.03 351.68V331.12H880.27H880.28Z" fill="#BDFA19"/>
<path d="M904.27 337.33V338.29C904.27 341.07 903.42 342.84 901.53 343.73C903.81 344.62 904.69 346.66 904.69 349.52V351.72C904.69 355.89 902.49 358.12 898.25 358.12H891.58V331.12H897.98C902.38 331.12 904.27 333.16 904.27 337.33ZM895.82 334.98V342.12H897.48C899.06 342.12 900.03 341.43 900.03 339.27V337.77C900.03 335.84 899.37 334.99 897.87 334.99H895.83L895.82 334.98ZM895.82 345.97V354.26H898.25C899.68 354.26 900.45 353.6 900.45 351.6V349.25C900.45 346.74 899.64 345.97 897.71 345.97H895.82Z" fill="#BDFA19"/>
<path d="M910.63 349.18L905.27 331.13H909.71L912.95 343.43L916.19 331.13H920.24L914.88 349.18V358.13H910.64V349.18H910.63Z" fill="#BDFA19"/>
<path opacity="0.1" d="M1539.05 92.1001H1178.39C1160.42 92.1001 1145.86 106.664 1145.86 124.63V615.96C1145.86 633.926 1160.42 648.49 1178.39 648.49H1539.05C1557.02 648.49 1571.58 633.926 1571.58 615.96V124.63C1571.58 106.664 1557.02 92.1001 1539.05 92.1001Z" fill="#6FD800"/>
<path d="M1199.76 212.26V237.46H1194.84V202.66H1201.7L1207.32 223.49V202.66H1212.19V237.46H1206.57L1199.76 212.26Z" fill="#BDFA19"/>
<path d="M1221.58 218.12H1228.64V223.09H1221.58V237.46H1216.11V202.66H1230.58V207.63H1221.58V218.12Z" fill="#BDFA19"/>
<path d="M1231.62 202.66H1248.52V207.63H1242.8V237.46H1237.33V207.63H1231.61V202.66H1231.62Z" fill="#BDFA19"/>
<path d="M1267.51 227.52H1264.28L1263.24 237.46H1258.77L1259.81 227.52H1257.37L1257.77 223.64H1260.21L1261.16 214.54H1258.67L1259.07 210.66H1261.55L1262.4 202.66H1266.87L1266.02 210.66H1269.25L1270.09 202.66H1274.56L1273.72 210.66H1276.26L1275.86 214.54H1273.32L1272.37 223.64H1274.91L1274.51 227.52H1271.97L1270.93 237.46H1266.46L1267.5 227.52H1267.51ZM1264.68 223.64H1267.91L1268.86 214.54H1265.63L1264.69 223.64H1264.68Z" fill="#BDFA19"/>
<path d="M1287 207.24C1285.26 207.24 1284.17 208.18 1284.17 210.67V214.4H1279V211.02C1279 205.45 1281.78 202.27 1287.15 202.27C1292.52 202.27 1295.3 205.45 1295.3 211.02C1295.3 221.96 1284.41 226.03 1284.41 231.75C1284.41 232 1284.41 232.25 1284.46 232.5H1294.8V237.47H1278.99V233.19C1278.99 222.95 1289.83 221.26 1289.83 211.22C1289.83 208.09 1288.74 207.24 1287 207.24Z" fill="#BDFA19"/>
<path d="M1309.22 211.21C1309.22 208.08 1308.13 207.23 1306.39 207.23C1304.65 207.23 1303.56 208.17 1303.56 210.66V212.9H1298.39V211.01C1298.39 205.44 1301.17 202.26 1306.54 202.26C1311.91 202.26 1314.69 205.44 1314.69 211.01V211.9C1314.69 215.63 1313.5 217.97 1310.86 219.06C1313.59 220.25 1314.69 222.84 1314.69 226.37V229.1C1314.69 234.67 1311.91 237.85 1306.54 237.85C1301.17 237.85 1298.39 234.67 1298.39 229.1V226.22H1303.56V229.45C1303.56 231.94 1304.65 232.88 1306.39 232.88C1308.13 232.88 1309.22 232.03 1309.22 228.95V226.22C1309.22 222.99 1308.13 221.8 1305.64 221.8H1303.8V216.83H1305.94C1307.98 216.83 1309.22 215.94 1309.22 213.15V211.21Z" fill="#BDFA19"/>
<path d="M1317.07 226.18L1327.01 202.67H1332.97V226.18H1335.56V231.15H1332.97V237.46H1327.6V231.15H1317.06V226.18H1317.07ZM1327.61 226.18V213.11L1322.09 226.18H1327.61Z" fill="#BDFA19"/>
<path d="M1342.97 226.23V229.46C1342.97 231.95 1344.06 232.84 1345.8 232.84C1347.54 232.84 1348.63 231.94 1348.63 229.46V221.8C1348.63 219.31 1347.54 218.37 1345.8 218.37C1344.06 218.37 1342.97 219.31 1342.97 221.8V222.84H1337.8L1338.79 202.66H1353.21V207.63H1343.71L1343.26 215.93C1344.25 214.29 1345.84 213.39 1348.03 213.39C1352.06 213.39 1354.1 216.22 1354.1 221.34V229.1C1354.1 234.67 1351.31 237.85 1345.95 237.85C1340.59 237.85 1337.8 234.67 1337.8 229.1V226.22H1342.97V226.23Z" fill="#BDFA19"/>
<path d="M1193.89 352C1198.12 352 1199.06 349.96 1199.91 347.63H1203.59V382.43H1198.12V355.88H1193.89V352Z" fill="#BDFA19"/>
<path d="M1228.44 347.63L1222.72 364.53L1228.84 382.43H1223.07L1218.6 368.66L1214.08 382.43H1208.96L1215.07 364.53L1209.35 347.63H1215.02L1219.15 360.46L1223.38 347.63H1228.45H1228.44Z" fill="#BDFA19"/>
<path d="M1238.83 355.98C1238.83 350.41 1241.76 347.23 1247.13 347.23C1252.5 347.23 1255.43 350.41 1255.43 355.98V374.08C1255.43 379.65 1252.5 382.83 1247.13 382.83C1241.76 382.83 1238.83 379.65 1238.83 374.08V355.98ZM1244.3 374.42C1244.3 376.91 1245.39 377.85 1247.13 377.85C1248.87 377.85 1249.96 376.9 1249.96 374.42V355.63C1249.96 353.14 1248.87 352.2 1247.13 352.2C1245.39 352.2 1244.3 353.14 1244.3 355.63V374.42Z" fill="#BDFA19"/>
<path d="M1258.96 382.43V377.16H1264.23V381.88L1261.84 387.4H1259.6L1261.04 382.43H1258.95H1258.96Z" fill="#BDFA19"/>
<path d="M1266.91 371.14L1276.85 347.63H1282.81V371.14H1285.4V376.11H1282.81V382.42H1277.44V376.11H1266.9V371.14H1266.91ZM1277.45 371.14V358.07L1271.93 371.14H1277.45Z" fill="#BDFA19"/>
<path d="M1292.81 371.19V374.42C1292.81 376.91 1293.9 377.8 1295.64 377.8C1297.38 377.8 1298.47 376.9 1298.47 374.42V366.76C1298.47 364.27 1297.38 363.33 1295.64 363.33C1293.9 363.33 1292.81 364.27 1292.81 366.76V367.8H1287.64L1288.64 347.62H1303.06V352.59H1293.56L1293.11 360.89C1294.1 359.25 1295.7 358.35 1297.88 358.35C1301.91 358.35 1303.94 361.18 1303.94 366.3V374.06C1303.94 379.63 1301.16 382.81 1295.79 382.81C1290.42 382.81 1287.64 379.63 1287.64 374.06V371.18H1292.81V371.19Z" fill="#BDFA19"/>
<path d="M1307.13 355.98C1307.13 350.41 1310.06 347.23 1315.43 347.23C1320.8 347.23 1323.73 350.41 1323.73 355.98V374.08C1323.73 379.65 1320.8 382.83 1315.43 382.83C1310.06 382.83 1307.13 379.65 1307.13 374.08V355.98ZM1312.59 374.42C1312.59 376.91 1313.68 377.85 1315.42 377.85C1317.16 377.85 1318.25 376.9 1318.25 374.42V355.63C1318.25 353.14 1317.16 352.2 1315.42 352.2C1313.68 352.2 1312.59 353.14 1312.59 355.63V374.42Z" fill="#BDFA19"/>
<path d="M1327.26 347.63H1332.73V377.46H1341.73V382.43H1327.26V347.63Z" fill="#BDFA19"/>
<path opacity="0.1" d="M1560.43 262.37H1157.01C1150.85 262.37 1145.86 267.362 1145.86 273.52V316.6C1145.86 322.758 1150.85 327.75 1157.01 327.75H1560.43C1566.59 327.75 1571.58 322.758 1571.58 316.6V273.52C1571.58 267.362 1566.59 262.37 1560.43 262.37Z" fill="#6FD800"/>
<path opacity="0.1" d="M1560.43 403.72H1157.01C1150.85 403.72 1145.86 408.712 1145.86 414.87V457.95C1145.86 464.108 1150.85 469.1 1157.01 469.1H1560.43C1566.59 469.1 1571.58 464.108 1571.58 457.95V414.87C1571.58 408.712 1566.59 403.72 1560.43 403.72Z" fill="#6FD800"/>
<path opacity="0.1" d="M1560.43 545.08H1157.01C1150.85 545.08 1145.86 550.072 1145.86 556.23V599.31C1145.86 605.468 1150.85 610.46 1157.01 610.46H1560.43C1566.59 610.46 1571.58 605.468 1571.58 599.31V556.23C1571.58 550.072 1566.59 545.08 1560.43 545.08Z" fill="#6FD800"/>
<path d="M1192.89 281.43C1197.12 281.43 1198.06 279.39 1198.91 277.06H1202.59V311.86H1197.12V285.31H1192.89V281.43Z" fill="#BDFA19"/>
<path d="M1227.44 277.06L1221.72 293.96L1227.84 311.86H1222.07L1217.6 298.09L1213.08 311.86H1207.96L1214.07 293.96L1208.35 277.06H1214.02L1218.15 289.89L1222.38 277.06H1227.45H1227.44Z" fill="#BDFA19"/>
<path d="M1237.83 285.41C1237.83 279.84 1240.76 276.66 1246.13 276.66C1251.5 276.66 1254.43 279.84 1254.43 285.41V303.51C1254.43 309.08 1251.5 312.26 1246.13 312.26C1240.76 312.26 1237.83 309.08 1237.83 303.51V285.41ZM1243.3 303.85C1243.3 306.34 1244.39 307.28 1246.13 307.28C1247.87 307.28 1248.96 306.33 1248.96 303.85V285.06C1248.96 282.57 1247.87 281.63 1246.13 281.63C1244.39 281.63 1243.3 282.57 1243.3 285.06V303.85Z" fill="#BDFA19"/>
<path d="M1257.96 311.86V306.59H1263.23V311.31L1260.84 316.83H1258.6L1260.04 311.86H1257.95H1257.96Z" fill="#BDFA19"/>
<path d="M1272.13 300.62V303.85C1272.13 306.34 1273.22 307.23 1274.96 307.23C1276.7 307.23 1277.79 306.33 1277.79 303.85V296.19C1277.79 293.7 1276.7 292.76 1274.96 292.76C1273.22 292.76 1272.13 293.7 1272.13 296.19V297.23H1266.96L1267.95 277.05H1282.37V282.02H1272.88L1272.43 290.32C1273.42 288.68 1275.01 287.78 1277.2 287.78C1281.23 287.78 1283.27 290.61 1283.27 295.73V303.49C1283.27 309.06 1280.49 312.24 1275.12 312.24C1269.75 312.24 1266.97 309.06 1266.97 303.49V300.61H1272.14L1272.13 300.62Z" fill="#BDFA19"/>
<path d="M1291.81 300.62V303.85C1291.81 306.34 1292.9 307.23 1294.64 307.23C1296.38 307.23 1297.47 306.33 1297.47 303.85V296.19C1297.47 293.7 1296.38 292.76 1294.64 292.76C1292.9 292.76 1291.81 293.7 1291.81 296.19V297.23H1286.64L1287.64 277.05H1302.06V282.02H1292.56L1292.11 290.32C1293.1 288.68 1294.7 287.78 1296.88 287.78C1300.91 287.78 1302.94 290.61 1302.94 295.73V303.49C1302.94 309.06 1300.16 312.24 1294.79 312.24C1289.42 312.24 1286.64 309.06 1286.64 303.49V300.61H1291.81V300.62Z" fill="#BDFA19"/>
<path d="M1306.13 285.41C1306.13 279.84 1309.06 276.66 1314.43 276.66C1319.8 276.66 1322.73 279.84 1322.73 285.41V303.51C1322.73 309.08 1319.8 312.26 1314.43 312.26C1309.06 312.26 1306.13 309.08 1306.13 303.51V285.41ZM1311.59 303.85C1311.59 306.34 1312.68 307.28 1314.42 307.28C1316.16 307.28 1317.25 306.33 1317.25 303.85V285.06C1317.25 282.57 1316.16 281.63 1314.42 281.63C1312.68 281.63 1311.59 282.57 1311.59 285.06V303.85Z" fill="#BDFA19"/>
<path d="M1326.26 277.06H1331.73V306.89H1340.73V311.86H1326.26V277.06Z" fill="#BDFA19"/>
<path d="M1199.76 430.26V455.46H1194.84V420.66H1201.7L1207.32 441.49V420.66H1212.19V455.46H1206.57L1199.76 430.26Z" fill="#BDFA19"/>
<path d="M1221.58 436.12H1228.64V441.09H1221.58V455.46H1216.11V420.66H1230.58V425.63H1221.58V436.12Z" fill="#BDFA19"/>
<path d="M1231.62 420.66H1248.52V425.63H1242.8V455.46H1237.33V425.63H1231.61V420.66H1231.62Z" fill="#BDFA19"/>
<path d="M1267.51 445.52H1264.28L1263.24 455.46H1258.77L1259.81 445.52H1257.37L1257.77 441.64H1260.21L1261.16 432.54H1258.67L1259.07 428.66H1261.55L1262.4 420.66H1266.87L1266.02 428.66H1269.25L1270.09 420.66H1274.56L1273.72 428.66H1276.26L1275.86 432.54H1273.32L1272.37 441.64H1274.91L1274.51 445.52H1271.97L1270.93 455.46H1266.46L1267.5 445.52H1267.51ZM1264.68 441.64H1267.91L1268.86 432.54H1265.63L1264.69 441.64H1264.68Z" fill="#BDFA19"/>
<path d="M1287 425.23C1285.26 425.23 1284.17 426.17 1284.17 428.66V432.39H1279V429.01C1279 423.44 1281.78 420.26 1287.15 420.26C1292.52 420.26 1295.3 423.44 1295.3 429.01C1295.3 439.95 1284.41 444.02 1284.41 449.74C1284.41 449.99 1284.41 450.24 1284.46 450.49H1294.8V455.46H1278.99V451.18C1278.99 440.94 1289.83 439.25 1289.83 429.21C1289.83 426.08 1288.74 425.23 1287 425.23Z" fill="#BDFA19"/>
<path d="M1309.22 429.21C1309.22 426.08 1308.13 425.23 1306.39 425.23C1304.65 425.23 1303.56 426.17 1303.56 428.66V430.9H1298.39V429.01C1298.39 423.44 1301.17 420.26 1306.54 420.26C1311.91 420.26 1314.69 423.44 1314.69 429.01V429.9C1314.69 433.63 1313.5 435.97 1310.86 437.06C1313.59 438.25 1314.69 440.84 1314.69 444.37V447.1C1314.69 452.67 1311.91 455.85 1306.54 455.85C1301.17 455.85 1298.39 452.67 1298.39 447.1V444.22H1303.56V447.45C1303.56 449.94 1304.65 450.88 1306.39 450.88C1308.13 450.88 1309.22 450.03 1309.22 446.95V444.22C1309.22 440.99 1308.13 439.8 1305.64 439.8H1303.8V434.83H1305.94C1307.98 434.83 1309.22 433.94 1309.22 431.15V429.21Z" fill="#BDFA19"/>
<path d="M1317.07 444.17L1327.01 420.66H1332.97V444.17H1335.56V449.14H1332.97V455.45H1327.6V449.14H1317.06V444.17H1317.07ZM1327.61 444.17V431.1L1322.09 444.17H1327.61Z" fill="#BDFA19"/>
<path d="M1342.97 444.22V447.45C1342.97 449.94 1344.06 450.83 1345.8 450.83C1347.54 450.83 1348.63 449.93 1348.63 447.45V439.79C1348.63 437.3 1347.54 436.36 1345.8 436.36C1344.06 436.36 1342.97 437.3 1342.97 439.79V440.83H1337.8L1338.79 420.65H1353.21V425.62H1343.71L1343.26 433.92C1344.25 432.28 1345.84 431.38 1348.03 431.38C1352.06 431.38 1354.1 434.21 1354.1 439.33V447.09C1354.1 452.66 1351.31 455.84 1345.95 455.84C1340.59 455.84 1337.8 452.66 1337.8 447.09V444.21H1342.97V444.22Z" fill="#BDFA19"/>
<path d="M1193.89 570C1198.12 570 1199.06 567.96 1199.91 565.63H1203.59V600.43H1198.12V573.88H1193.89V570Z" fill="#BDFA19"/>
<path d="M1228.44 565.63L1222.72 582.53L1228.84 600.43H1223.07L1218.6 586.66L1214.08 600.43H1208.96L1215.07 582.53L1209.35 565.63H1215.02L1219.15 578.46L1223.38 565.63H1228.45H1228.44Z" fill="#BDFA19"/>
<path d="M1238.83 573.98C1238.83 568.41 1241.76 565.23 1247.13 565.23C1252.5 565.23 1255.43 568.41 1255.43 573.98V592.08C1255.43 597.65 1252.5 600.83 1247.13 600.83C1241.76 600.83 1238.83 597.65 1238.83 592.08V573.98ZM1244.3 592.42C1244.3 594.91 1245.39 595.85 1247.13 595.85C1248.87 595.85 1249.96 594.9 1249.96 592.42V573.63C1249.96 571.14 1248.87 570.2 1247.13 570.2C1245.39 570.2 1244.3 571.14 1244.3 573.63V592.42Z" fill="#BDFA19"/>
<path d="M1258.96 600.43V595.16H1264.23V599.88L1261.84 605.4H1259.6L1261.04 600.43H1258.95H1258.96Z" fill="#BDFA19"/>
<path d="M1266.91 589.14L1276.85 565.63H1282.81V589.14H1285.4V594.11H1282.81V600.42H1277.44V594.11H1266.9V589.14H1266.91ZM1277.45 589.14V576.07L1271.93 589.14H1277.45Z" fill="#BDFA19"/>
<path d="M1292.81 589.19V592.42C1292.81 594.91 1293.9 595.8 1295.64 595.8C1297.38 595.8 1298.47 594.9 1298.47 592.42V584.76C1298.47 582.27 1297.38 581.33 1295.64 581.33C1293.9 581.33 1292.81 582.27 1292.81 584.76V585.8H1287.64L1288.64 565.62H1303.06V570.59H1293.56L1293.11 578.89C1294.1 577.25 1295.7 576.35 1297.88 576.35C1301.91 576.35 1303.94 579.18 1303.94 584.3V592.06C1303.94 597.63 1301.16 600.81 1295.79 600.81C1290.42 600.81 1287.64 597.63 1287.64 592.06V589.18H1292.81V589.19Z" fill="#BDFA19"/>
<path d="M1307.13 573.98C1307.13 568.41 1310.06 565.23 1315.43 565.23C1320.8 565.23 1323.73 568.41 1323.73 573.98V592.08C1323.73 597.65 1320.8 600.83 1315.43 600.83C1310.06 600.83 1307.13 597.65 1307.13 592.08V573.98ZM1312.59 592.42C1312.59 594.91 1313.68 595.85 1315.42 595.85C1317.16 595.85 1318.25 594.9 1318.25 592.42V573.63C1318.25 571.14 1317.16 570.2 1315.42 570.2C1313.68 570.2 1312.59 571.14 1312.59 573.63V592.42Z" fill="#BDFA19"/>
<path d="M1327.26 565.63H1332.73V595.46H1341.73V600.43H1327.26V565.63Z" fill="#BDFA19"/>
<path d="M1192.89 499.43C1197.12 499.43 1198.06 497.39 1198.91 495.06H1202.59V529.86H1197.12V503.31H1192.89V499.43Z" fill="#BDFA19"/>
<path d="M1227.44 495.06L1221.72 511.96L1227.84 529.86H1222.07L1217.6 516.09L1213.08 529.86H1207.96L1214.07 511.96L1208.35 495.06H1214.02L1218.15 507.89L1222.38 495.06H1227.45H1227.44Z" fill="#BDFA19"/>
<path d="M1237.83 503.41C1237.83 497.84 1240.76 494.66 1246.13 494.66C1251.5 494.66 1254.43 497.84 1254.43 503.41V521.51C1254.43 527.08 1251.5 530.26 1246.13 530.26C1240.76 530.26 1237.83 527.08 1237.83 521.51V503.41ZM1243.3 521.85C1243.3 524.34 1244.39 525.28 1246.13 525.28C1247.87 525.28 1248.96 524.33 1248.96 521.85V503.06C1248.96 500.57 1247.87 499.63 1246.13 499.63C1244.39 499.63 1243.3 500.57 1243.3 503.06V521.85Z" fill="#BDFA19"/>
<path d="M1257.96 529.85V524.58H1263.23V529.3L1260.84 534.82H1258.6L1260.04 529.85H1257.95H1257.96Z" fill="#BDFA19"/>
<path d="M1272.13 518.62V521.85C1272.13 524.34 1273.22 525.23 1274.96 525.23C1276.7 525.23 1277.79 524.33 1277.79 521.85V514.19C1277.79 511.7 1276.7 510.76 1274.96 510.76C1273.22 510.76 1272.13 511.7 1272.13 514.19V515.23H1266.96L1267.95 495.05H1282.37V500.02H1272.88L1272.43 508.32C1273.42 506.68 1275.01 505.78 1277.2 505.78C1281.23 505.78 1283.27 508.61 1283.27 513.73V521.49C1283.27 527.06 1280.49 530.24 1275.12 530.24C1269.75 530.24 1266.97 527.06 1266.97 521.49V518.61H1272.14L1272.13 518.62Z" fill="#BDFA19"/>
<path d="M1291.81 518.62V521.85C1291.81 524.34 1292.9 525.23 1294.64 525.23C1296.38 525.23 1297.47 524.33 1297.47 521.85V514.19C1297.47 511.7 1296.38 510.76 1294.64 510.76C1292.9 510.76 1291.81 511.7 1291.81 514.19V515.23H1286.64L1287.64 495.05H1302.06V500.02H1292.56L1292.11 508.32C1293.1 506.68 1294.7 505.78 1296.88 505.78C1300.91 505.78 1302.94 508.61 1302.94 513.73V521.49C1302.94 527.06 1300.16 530.24 1294.79 530.24C1289.42 530.24 1286.64 527.06 1286.64 521.49V518.61H1291.81V518.62Z" fill="#BDFA19"/>
<path d="M1306.13 503.41C1306.13 497.84 1309.06 494.66 1314.43 494.66C1319.8 494.66 1322.73 497.84 1322.73 503.41V521.51C1322.73 527.08 1319.8 530.26 1314.43 530.26C1309.06 530.26 1306.13 527.08 1306.13 521.51V503.41ZM1311.59 521.85C1311.59 524.34 1312.68 525.28 1314.42 525.28C1316.16 525.28 1317.25 524.33 1317.25 521.85V503.06C1317.25 500.57 1316.16 499.63 1314.42 499.63C1312.68 499.63 1311.59 500.57 1311.59 503.06V521.85Z" fill="#BDFA19"/>
<path d="M1326.26 495.06H1331.73V524.89H1340.73V529.86H1326.26V495.06Z" fill="#BDFA19"/>
<path d="M1492.13 207.04C1496.35 207.04 1497.3 205 1498.14 202.67H1501.82V237.47H1496.35V210.92H1492.13V207.04Z" fill="#BDFA19"/>
<path d="M1507.98 211.01C1507.98 205.44 1510.91 202.26 1516.28 202.26C1521.65 202.26 1524.58 205.44 1524.58 211.01V229.11C1524.58 234.68 1521.65 237.86 1516.28 237.86C1510.91 237.86 1507.98 234.68 1507.98 229.11V211.01ZM1513.45 229.46C1513.45 231.95 1514.54 232.89 1516.28 232.89C1518.02 232.89 1519.11 231.94 1519.11 229.46V210.67C1519.11 208.18 1518.02 207.24 1516.28 207.24C1514.54 207.24 1513.45 208.18 1513.45 210.67V229.46Z" fill="#BDFA19"/>
<path d="M1527.82 207.98C1527.82 204.4 1529.66 202.41 1533.09 202.41C1536.52 202.41 1538.36 204.4 1538.36 207.98V219.41C1538.36 222.99 1536.52 224.98 1533.09 224.98C1529.66 224.98 1527.82 222.99 1527.82 219.41V207.98ZM1531.3 219.67C1531.3 221.21 1531.95 221.86 1533.09 221.86C1534.23 221.86 1534.88 221.21 1534.88 219.67V207.74C1534.88 206.2 1534.18 205.55 1533.09 205.55C1532 205.55 1531.3 206.2 1531.3 207.74V219.67ZM1546.81 202.66H1550.04L1536.32 237.46H1533.09L1546.81 202.66ZM1545.07 220.71C1545.07 217.13 1546.91 215.14 1550.34 215.14C1553.77 215.14 1555.61 217.13 1555.61 220.71V232.14C1555.61 235.72 1553.77 237.71 1550.34 237.71C1546.91 237.71 1545.07 235.72 1545.07 232.14V220.71ZM1548.55 232.39C1548.55 233.93 1549.2 234.58 1550.34 234.58C1551.48 234.58 1552.13 233.93 1552.13 232.39V220.46C1552.13 218.92 1551.43 218.27 1550.34 218.27C1549.25 218.27 1548.55 218.92 1548.55 220.46V232.39Z" fill="#BDFA19"/>
<path d="M1492.13 352C1496.35 352 1497.3 349.96 1498.14 347.63H1501.82V382.43H1496.35V355.88H1492.13V352Z" fill="#BDFA19"/>
<path d="M1507.98 355.98C1507.98 350.41 1510.91 347.23 1516.28 347.23C1521.65 347.23 1524.58 350.41 1524.58 355.98V374.08C1524.58 379.65 1521.65 382.83 1516.28 382.83C1510.91 382.83 1507.98 379.65 1507.98 374.08V355.98ZM1513.45 374.42C1513.45 376.91 1514.54 377.85 1516.28 377.85C1518.02 377.85 1519.11 376.9 1519.11 374.42V355.63C1519.11 353.14 1518.02 352.2 1516.28 352.2C1514.54 352.2 1513.45 353.14 1513.45 355.63V374.42Z" fill="#BDFA19"/>
<path d="M1527.82 352.95C1527.82 349.37 1529.66 347.38 1533.09 347.38C1536.52 347.38 1538.36 349.37 1538.36 352.95V364.38C1538.36 367.96 1536.52 369.95 1533.09 369.95C1529.66 369.95 1527.82 367.96 1527.82 364.38V352.95ZM1531.3 364.63C1531.3 366.17 1531.95 366.82 1533.09 366.82C1534.23 366.82 1534.88 366.17 1534.88 364.63V352.7C1534.88 351.16 1534.18 350.51 1533.09 350.51C1532 350.51 1531.3 351.16 1531.3 352.7V364.63ZM1546.81 347.63H1550.04L1536.32 382.43H1533.09L1546.81 347.63ZM1545.07 365.67C1545.07 362.09 1546.91 360.1 1550.34 360.1C1553.77 360.1 1555.61 362.09 1555.61 365.67V377.1C1555.61 380.68 1553.77 382.67 1550.34 382.67C1546.91 382.67 1545.07 380.68 1545.07 377.1V365.67ZM1548.55 377.36C1548.55 378.9 1549.2 379.55 1550.34 379.55C1551.48 379.55 1552.13 378.9 1552.13 377.36V365.43C1552.13 363.89 1551.43 363.24 1550.34 363.24C1549.25 363.24 1548.55 363.89 1548.55 365.43V377.36Z" fill="#BDFA19"/>
<path d="M1492.13 281.43C1496.35 281.43 1497.3 279.39 1498.14 277.06H1501.82V311.86H1496.35V285.31H1492.13V281.43Z" fill="#BDFA19"/>
<path d="M1507.98 285.41C1507.98 279.84 1510.91 276.66 1516.28 276.66C1521.65 276.66 1524.58 279.84 1524.58 285.41V303.51C1524.58 309.08 1521.65 312.26 1516.28 312.26C1510.91 312.26 1507.98 309.08 1507.98 303.51V285.41ZM1513.45 303.85C1513.45 306.34 1514.54 307.28 1516.28 307.28C1518.02 307.28 1519.11 306.33 1519.11 303.85V285.06C1519.11 282.57 1518.02 281.63 1516.28 281.63C1514.54 281.63 1513.45 282.57 1513.45 285.06V303.85Z" fill="#BDFA19"/>
<path d="M1527.82 282.38C1527.82 278.8 1529.66 276.81 1533.09 276.81C1536.52 276.81 1538.36 278.8 1538.36 282.38V293.81C1538.36 297.39 1536.52 299.38 1533.09 299.38C1529.66 299.38 1527.82 297.39 1527.82 293.81V282.38ZM1531.3 294.06C1531.3 295.6 1531.95 296.25 1533.09 296.25C1534.23 296.25 1534.88 295.6 1534.88 294.06V282.13C1534.88 280.59 1534.18 279.94 1533.09 279.94C1532 279.94 1531.3 280.59 1531.3 282.13V294.06ZM1546.81 277.06H1550.04L1536.32 311.86H1533.09L1546.81 277.06ZM1545.07 295.1C1545.07 291.52 1546.91 289.53 1550.34 289.53C1553.77 289.53 1555.61 291.52 1555.61 295.1V306.53C1555.61 310.11 1553.77 312.1 1550.34 312.1C1546.91 312.1 1545.07 310.11 1545.07 306.53V295.1ZM1548.55 306.79C1548.55 308.33 1549.2 308.98 1550.34 308.98C1551.48 308.98 1552.13 308.33 1552.13 306.79V294.86C1552.13 293.32 1551.43 292.67 1550.34 292.67C1549.25 292.67 1548.55 293.32 1548.55 294.86V306.79Z" fill="#BDFA19"/>
<path d="M1492.13 425.04C1496.35 425.04 1497.3 423 1498.14 420.67H1501.82V455.47H1496.35V428.92H1492.13V425.04Z" fill="#BDFA19"/>
<path d="M1507.98 429.01C1507.98 423.44 1510.91 420.26 1516.28 420.26C1521.65 420.26 1524.58 423.44 1524.58 429.01V447.11C1524.58 452.68 1521.65 455.86 1516.28 455.86C1510.91 455.86 1507.98 452.68 1507.98 447.11V429.01ZM1513.45 447.46C1513.45 449.95 1514.54 450.89 1516.28 450.89C1518.02 450.89 1519.11 449.94 1519.11 447.46V428.67C1519.11 426.18 1518.02 425.24 1516.28 425.24C1514.54 425.24 1513.45 426.18 1513.45 428.67V447.46Z" fill="#BDFA19"/>
<path d="M1527.82 425.98C1527.82 422.4 1529.66 420.41 1533.09 420.41C1536.52 420.41 1538.36 422.4 1538.36 425.98V437.41C1538.36 440.99 1536.52 442.98 1533.09 442.98C1529.66 442.98 1527.82 440.99 1527.82 437.41V425.98ZM1531.3 437.66C1531.3 439.2 1531.95 439.85 1533.09 439.85C1534.23 439.85 1534.88 439.2 1534.88 437.66V425.73C1534.88 424.19 1534.18 423.54 1533.09 423.54C1532 423.54 1531.3 424.19 1531.3 425.73V437.66ZM1546.81 420.66H1550.04L1536.32 455.46H1533.09L1546.81 420.66ZM1545.07 438.71C1545.07 435.13 1546.91 433.14 1550.34 433.14C1553.77 433.14 1555.61 435.13 1555.61 438.71V450.14C1555.61 453.72 1553.77 455.71 1550.34 455.71C1546.91 455.71 1545.07 453.72 1545.07 450.14V438.71ZM1548.55 450.39C1548.55 451.93 1549.2 452.58 1550.34 452.58C1551.48 452.58 1552.13 451.93 1552.13 450.39V438.46C1552.13 436.92 1551.43 436.27 1550.34 436.27C1549.25 436.27 1548.55 436.92 1548.55 438.46V450.39Z" fill="#BDFA19"/>
<path d="M1492.13 570C1496.35 570 1497.3 567.96 1498.14 565.63H1501.82V600.43H1496.35V573.88H1492.13V570Z" fill="#BDFA19"/>
<path d="M1507.98 573.98C1507.98 568.41 1510.91 565.23 1516.28 565.23C1521.65 565.23 1524.58 568.41 1524.58 573.98V592.08C1524.58 597.65 1521.65 600.83 1516.28 600.83C1510.91 600.83 1507.98 597.65 1507.98 592.08V573.98ZM1513.45 592.42C1513.45 594.91 1514.54 595.85 1516.28 595.85C1518.02 595.85 1519.11 594.9 1519.11 592.42V573.63C1519.11 571.14 1518.02 570.2 1516.28 570.2C1514.54 570.2 1513.45 571.14 1513.45 573.63V592.42Z" fill="#BDFA19"/>
<path d="M1527.82 570.95C1527.82 567.37 1529.66 565.38 1533.09 565.38C1536.52 565.38 1538.36 567.37 1538.36 570.95V582.38C1538.36 585.96 1536.52 587.95 1533.09 587.95C1529.66 587.95 1527.82 585.96 1527.82 582.38V570.95ZM1531.3 582.63C1531.3 584.17 1531.95 584.82 1533.09 584.82C1534.23 584.82 1534.88 584.17 1534.88 582.63V570.7C1534.88 569.16 1534.18 568.51 1533.09 568.51C1532 568.51 1531.3 569.16 1531.3 570.7V582.63ZM1546.81 565.63H1550.04L1536.32 600.43H1533.09L1546.81 565.63ZM1545.07 583.67C1545.07 580.09 1546.91 578.1 1550.34 578.1C1553.77 578.1 1555.61 580.09 1555.61 583.67V595.1C1555.61 598.68 1553.77 600.67 1550.34 600.67C1546.91 600.67 1545.07 598.68 1545.07 595.1V583.67ZM1548.55 595.36C1548.55 596.9 1549.2 597.55 1550.34 597.55C1551.48 597.55 1552.13 596.9 1552.13 595.36V583.43C1552.13 581.89 1551.43 581.24 1550.34 581.24C1549.25 581.24 1548.55 581.89 1548.55 583.43V595.36Z" fill="#BDFA19"/>
<path d="M1492.13 499.43C1496.35 499.43 1497.3 497.39 1498.14 495.06H1501.82V529.86H1496.35V503.31H1492.13V499.43Z" fill="#BDFA19"/>
<path d="M1507.98 503.41C1507.98 497.84 1510.91 494.66 1516.28 494.66C1521.65 494.66 1524.58 497.84 1524.58 503.41V521.51C1524.58 527.08 1521.65 530.26 1516.28 530.26C1510.91 530.26 1507.98 527.08 1507.98 521.51V503.41ZM1513.45 521.85C1513.45 524.34 1514.54 525.28 1516.28 525.28C1518.02 525.28 1519.11 524.33 1519.11 521.85V503.06C1519.11 500.57 1518.02 499.63 1516.28 499.63C1514.54 499.63 1513.45 500.57 1513.45 503.06V521.85Z" fill="#BDFA19"/>
<path d="M1527.82 500.38C1527.82 496.8 1529.66 494.81 1533.09 494.81C1536.52 494.81 1538.36 496.8 1538.36 500.38V511.81C1538.36 515.39 1536.52 517.38 1533.09 517.38C1529.66 517.38 1527.82 515.39 1527.82 511.81V500.38ZM1531.3 512.06C1531.3 513.6 1531.95 514.25 1533.09 514.25C1534.23 514.25 1534.88 513.6 1534.88 512.06V500.13C1534.88 498.59 1534.18 497.94 1533.09 497.94C1532 497.94 1531.3 498.59 1531.3 500.13V512.06ZM1546.81 495.06H1550.04L1536.32 529.86H1533.09L1546.81 495.06ZM1545.07 513.1C1545.07 509.52 1546.91 507.53 1550.34 507.53C1553.77 507.53 1555.61 509.52 1555.61 513.1V524.53C1555.61 528.11 1553.77 530.1 1550.34 530.1C1546.91 530.1 1545.07 528.11 1545.07 524.53V513.1ZM1548.55 524.78C1548.55 526.32 1549.2 526.97 1550.34 526.97C1551.48 526.97 1552.13 526.32 1552.13 524.78V512.85C1552.13 511.31 1551.43 510.66 1550.34 510.66C1549.25 510.66 1548.55 511.31 1548.55 512.85V524.78Z" fill="#BDFA19"/>
<path d="M1292.28 160.82C1291.88 159.62 1291.61 158.89 1291.61 155.09V147.76C1291.61 143.43 1290.14 141.83 1286.81 141.83H1284.28V160.82H1276.95V114.19H1288.01C1295.6 114.19 1298.87 117.72 1298.87 124.92V128.58C1298.87 133.38 1297.34 136.51 1294.07 138.04C1297.73 139.57 1298.93 143.1 1298.93 147.97V155.16C1298.93 157.43 1299 159.09 1299.73 160.82H1292.27H1292.28ZM1284.29 120.84V135.16H1287.15C1289.88 135.16 1291.55 133.96 1291.55 130.23V125.63C1291.55 122.3 1290.42 120.83 1287.82 120.83H1284.29V120.84Z" fill="#BDFA19"/>
<path d="M1311.06 133.83H1321.12V140.49H1311.06V154.15H1323.72V160.81H1303.73V114.18H1323.72V120.84H1311.06V133.83Z" fill="#BDFA19"/>
<path d="M1344.51 135.97L1341.84 160.82H1331.78L1326.58 114.19H1333.71L1337.64 150.96L1341.17 114.19H1348.23L1351.89 151.23L1355.69 114.19H1362.09L1356.89 160.82H1347.16L1344.49 135.97H1344.51Z" fill="#BDFA19"/>
<path d="M1388.47 160.82H1381.07L1379.8 152.36H1370.81L1369.54 160.82H1362.81L1370.27 114.19H1381L1388.46 160.82H1388.47ZM1371.75 146.03H1378.81L1375.28 122.45L1371.75 146.03Z" fill="#BDFA19"/>
<path d="M1407.19 160.82C1406.79 159.62 1406.52 158.89 1406.52 155.09V147.76C1406.52 143.43 1405.05 141.83 1401.72 141.83H1399.19V160.82H1391.86V114.19H1402.92C1410.51 114.19 1413.78 117.72 1413.78 124.92V128.58C1413.78 133.38 1412.25 136.51 1408.98 138.04C1412.64 139.57 1413.84 143.1 1413.84 147.97V155.16C1413.84 157.43 1413.91 159.09 1414.64 160.82H1407.18H1407.19ZM1399.19 120.84V135.16H1402.05C1404.78 135.16 1406.45 133.96 1406.45 130.23V125.63C1406.45 122.3 1405.32 120.83 1402.72 120.83H1399.19V120.84Z" fill="#BDFA19"/>
<path d="M1418.64 114.18H1430.23C1437.56 114.18 1441.16 118.24 1441.16 125.7V149.28C1441.16 156.74 1437.56 160.81 1430.23 160.81H1418.64V114.18ZM1425.97 120.84V154.15H1430.1C1432.43 154.15 1433.83 152.95 1433.83 149.62V125.37C1433.83 122.04 1432.43 120.84 1430.1 120.84H1425.97Z" fill="#BDFA19"/>
<path d="M709.09 267.3H715.67V271.93H709.09V285.31H704V252.89H717.48V257.52H709.1V267.29L709.09 267.3Z" fill="#BDFA19"/>
<path d="M719.93 252.9H725.02V285.32H719.93V252.9Z" fill="#BDFA19"/>
<path d="M735.58 252.53C740.54 252.53 743.08 255.49 743.08 260.68V261.7H738.26V260.36C738.26 258.04 737.33 257.16 735.71 257.16C734.09 257.16 733.16 258.04 733.16 260.36C733.16 267.03 743.12 268.28 743.12 277.54C743.12 282.73 740.53 285.69 735.53 285.69C730.53 285.69 727.94 282.73 727.94 277.54V275.55H732.76V277.87C732.76 280.19 733.78 281.02 735.4 281.02C737.02 281.02 738.04 280.19 738.04 277.87C738.04 271.2 728.08 269.95 728.08 260.69C728.08 255.5 730.63 252.54 735.58 252.54V252.53Z" fill="#BDFA19"/>
<path d="M751.14 285.32H746.05V252.9H751.14V266.79H756.93V252.9H762.12V285.32H756.93V271.43H751.14V285.32Z" fill="#BDFA19"/>
<path d="M782.12 267.3H788.33V270.91H782.12V277.25H778.51V270.91H772.3V267.3H778.51V261.05H782.12V267.3Z" fill="#BDFA19"/>
<path d="M797.03 252.9H812.78V257.53H807.45V285.32H802.36V257.53H797.03V252.9Z" fill="#BDFA19"/>
<path d="M814.58 260.68C814.58 255.49 817.31 252.53 822.31 252.53C827.31 252.53 830.04 255.49 830.04 260.68V277.54C830.04 282.73 827.31 285.69 822.31 285.69C817.31 285.69 814.58 282.73 814.58 277.54V260.68ZM819.67 277.86C819.67 280.18 820.69 281.06 822.31 281.06C823.93 281.06 824.95 280.18 824.95 277.86V260.35C824.95 258.03 823.93 257.15 822.31 257.15C820.69 257.15 819.67 258.03 819.67 260.35V277.86Z" fill="#BDFA19"/>
<path d="M840 272.4L838.42 275.36V285.32H833.33V252.9H838.42V267.02L845.09 252.9H850.18L843.1 267.35L850.18 285.32H844.95L839.99 272.4H840Z" fill="#BDFA19"/>
<path d="M857.59 266.56H864.58V271.19H857.59V280.68H866.39V285.31H852.5V252.89H866.39V257.52H857.59V266.55V266.56Z" fill="#BDFA19"/>
<path d="M874.08 261.84V285.32H869.5V252.9H875.89L881.12 272.3V252.9H885.66V285.32H880.43L874.09 261.84H874.08Z" fill="#BDFA19"/>
<path d="M139.24 100C143.8 100 145.76 102.12 145.76 106.44V107.44C145.76 110.32 144.88 112.16 142.92 113.08C145.28 114 146.2 116.12 146.2 119.08V121.36C146.2 125.68 143.92 128 139.52 128H132.6V100H139.24ZM138.96 115.4H137V124H139.52C141 124 141.8 123.32 141.8 121.24V118.8C141.8 116.2 140.96 115.4 138.96 115.4ZM139.12 104H137V111.4H138.72C140.36 111.4 141.36 110.68 141.36 108.44V106.88C141.36 104.88 140.68 104 139.12 104ZM148.85 128V100H153.25V128H148.85ZM163.067 116.4V112.4H169.227V121.28C169.227 125.76 166.987 128.32 162.667 128.32C158.347 128.32 156.107 125.76 156.107 121.28V106.72C156.107 102.24 158.347 99.68 162.667 99.68C166.987 99.68 169.227 102.24 169.227 106.72V109.44H165.067V106.44C165.067 104.44 164.187 103.68 162.787 103.68C161.387 103.68 160.507 104.44 160.507 106.44V121.56C160.507 123.56 161.387 124.28 162.787 124.28C164.187 124.28 165.067 123.56 165.067 121.56V116.4H163.067ZM178.653 116.4V112.4H184.813V121.28C184.813 125.76 182.573 128.32 178.253 128.32C173.933 128.32 171.693 125.76 171.693 121.28V106.72C171.693 102.24 173.933 99.68 178.253 99.68C182.573 99.68 184.813 102.24 184.813 106.72V109.44H180.653V106.44C180.653 104.44 179.773 103.68 178.373 103.68C176.973 103.68 176.093 104.44 176.093 106.44V121.56C176.093 123.56 176.973 124.28 178.373 124.28C179.773 124.28 180.653 123.56 180.653 121.56V116.4H178.653ZM192.039 104V111.8H198.079V115.8H192.039V124H199.639V128H187.639V100H199.639V104H192.039ZM201.806 106.72C201.806 102.24 204.006 99.68 208.286 99.68C212.566 99.68 214.766 102.24 214.766 106.72V107.6H210.606V106.44C210.606 104.44 209.806 103.68 208.406 103.68C207.006 103.68 206.206 104.44 206.206 106.44C206.206 112.2 214.806 113.28 214.806 121.28C214.806 125.76 212.566 128.32 208.246 128.32C203.926 128.32 201.686 125.76 201.686 121.28V119.56H205.846V121.56C205.846 123.56 206.726 124.28 208.126 124.28C209.526 124.28 210.406 123.56 210.406 121.56C210.406 115.8 201.806 114.72 201.806 106.72ZM216.047 104V100H229.647V104H225.047V128H220.647V104H216.047ZM246.395 117.56H250.555V121.28C250.555 125.76 248.315 128.32 243.995 128.32C239.675 128.32 237.435 125.76 237.435 121.28V106.72C237.435 102.24 239.675 99.68 243.995 99.68C248.315 99.68 250.555 102.24 250.555 106.72V109.44H246.395V106.44C246.395 104.44 245.515 103.68 244.115 103.68C242.715 103.68 241.835 104.44 241.835 106.44V121.56C241.835 123.56 242.715 124.28 244.115 124.28C245.515 124.28 246.395 123.56 246.395 121.56V117.56ZM262.985 100L267.465 128H263.025L262.265 122.92H256.865L256.105 128H252.065L256.545 100H262.985ZM259.545 104.96L257.425 119.12H261.665L259.545 104.96ZM266.711 104V100H280.311V104H275.711V128H271.311V104H266.711ZM290.848 117.56H295.008V121.28C295.008 125.76 292.768 128.32 288.448 128.32C284.128 128.32 281.888 125.76 281.888 121.28V106.72C281.888 102.24 284.128 99.68 288.448 99.68C292.768 99.68 295.008 102.24 295.008 106.72V109.44H290.848V106.44C290.848 104.44 289.968 103.68 288.568 103.68C287.168 103.68 286.288 104.44 286.288 106.44V121.56C286.288 123.56 287.168 124.28 288.568 124.28C289.968 124.28 290.848 123.56 290.848 121.56V117.56ZM302.078 116V128H297.678V100H302.078V112H307.078V100H311.558V128H307.078V116H302.078ZM320.399 106.72C320.399 102.24 322.599 99.68 326.879 99.68C331.159 99.68 333.359 102.24 333.359 106.72V107.6H329.199V106.44C329.199 104.44 328.399 103.68 326.999 103.68C325.599 103.68 324.799 104.44 324.799 106.44C324.799 112.2 333.399 113.28 333.399 121.28C333.399 125.76 331.159 128.32 326.839 128.32C322.519 128.32 320.279 125.76 320.279 121.28V119.56H324.439V121.56C324.439 123.56 325.319 124.28 326.719 124.28C328.119 124.28 328.999 123.56 328.999 121.56C328.999 115.8 320.399 114.72 320.399 106.72ZM339.96 106.44V121.56C339.96 123.56 340.84 124.32 342.24 124.32C343.64 124.32 344.52 123.56 344.52 121.56V106.44C344.52 104.44 343.64 103.68 342.24 103.68C340.84 103.68 339.96 104.44 339.96 106.44ZM335.56 121.28V106.72C335.56 102.24 337.92 99.68 342.24 99.68C346.56 99.68 348.92 102.24 348.92 106.72V121.28C348.92 125.76 346.56 128.32 342.24 128.32C337.92 128.32 335.56 125.76 335.56 121.28ZM362.391 104V112.44H368.071V116.44H362.391V128H357.991V100H369.631V104H362.391ZM380.993 100L385.473 128H381.033L380.273 122.92H374.873L374.113 128H370.073L374.553 100H380.993ZM377.553 104.96L375.433 119.12H379.673L377.553 104.96ZM401.202 128H396.722C396.482 127.28 396.322 126.84 396.322 124.56V120.16C396.322 117.56 395.442 116.6 393.442 116.6H391.922V128H387.522V100H394.162C398.722 100 400.682 102.12 400.682 106.44V108.64C400.682 111.52 399.762 113.4 397.802 114.32C400.002 115.24 400.722 117.36 400.722 120.28V124.6C400.722 125.96 400.762 126.96 401.202 128ZM394.042 104H391.922V112.6H393.642C395.282 112.6 396.282 111.88 396.282 109.64V106.88C396.282 104.88 395.602 104 394.042 104Z" fill="white"/>
<path d="M143.084 192.061H380.916C410.822 192.061 435.098 216.372 435.098 246.32V564.203C435.098 594.151 410.822 618.462 380.916 618.462H143.084C113.178 618.462 88.9016 594.151 88.9016 564.203V246.32C88.9016 216.372 113.178 192.061 143.084 192.061Z" fill="#004AB5"/>
<path d="M380.916 194.966C409.236 194.966 432.197 217.96 432.197 246.319V564.202C432.197 592.562 409.236 615.556 380.916 615.556H143.084C114.764 615.556 91.8032 592.562 91.8032 564.202V246.319C91.8032 217.96 114.764 194.966 143.084 194.966H380.916ZM380.916 189.155H143.084C111.611 189.155 86 214.802 86 246.319V564.202C86 595.72 111.611 621.367 143.084 621.367H380.916C412.389 621.367 438 595.72 438 564.202V246.319C438 214.802 412.389 189.155 380.916 189.155Z" fill="#041521"/>
<path d="M380.935 194.966H143.084C114.762 194.966 91.803 217.958 91.803 246.32V527.378C91.803 555.739 114.762 578.731 143.084 578.731H380.935C409.257 578.731 432.216 555.739 432.216 527.378V246.32C432.216 217.958 409.257 194.966 380.935 194.966Z" fill="#005EB1"/>
<path d="M417.38 507.541V266.175C417.38 237.813 394.421 214.822 366.099 214.822L157.94 214.822C129.618 214.822 106.659 237.813 106.659 266.175V507.541C106.659 535.903 129.618 558.895 157.94 558.895H366.099C394.421 558.895 417.38 535.903 417.38 507.541Z" fill="#012947"/>
<g clip-path="url(#clip1_218_245)">
<path d="M182.037 560.437H194.435C211.007 560.437 224.456 573.886 224.456 590.458V603.339C224.456 619.911 211.007 633.36 194.435 633.36H182.037C165.465 633.368 152.008 619.911 152.008 603.339V590.458C152.008 573.894 165.465 560.437 182.037 560.437Z" fill="#127B93"/>
<path d="M194.435 561.815C210.259 561.815 223.085 574.641 223.085 590.466V603.347C223.085 619.171 210.259 631.997 194.435 631.997H182.037C166.212 631.997 153.386 619.171 153.386 603.347V590.466C153.386 574.641 166.212 561.815 182.037 561.815H194.435ZM194.435 559.066H182.037C164.725 559.066 150.637 573.154 150.637 590.466V603.347C150.637 620.658 164.725 634.746 182.037 634.746H194.435C211.747 634.746 225.834 620.658 225.834 603.347V590.466C225.827 573.154 211.747 559.066 194.435 559.066Z" fill="#002C3A"/>
<path d="M194.583 618.821C210.324 618.821 223.085 606.06 223.085 590.318C223.085 574.577 210.324 561.815 194.583 561.815H181.889C166.147 561.815 153.386 574.577 153.386 590.318C153.386 606.06 166.147 618.821 181.889 618.821H194.583Z" fill="#06BADD"/>
<path d="M195.346 565.74H181.118C167.94 565.74 157.257 576.423 157.257 589.601C157.257 602.78 167.94 613.463 181.118 613.463H195.346C208.524 613.463 219.207 602.78 219.207 589.601C219.207 576.423 208.524 565.74 195.346 565.74Z" fill="#34EBE6"/>
<path d="M193.282 604.803C192.317 604.803 191.351 604.538 190.494 604.048L175.371 595.318C173.618 594.305 172.575 592.499 172.575 590.474C172.575 588.449 173.618 586.642 175.371 585.63L190.494 576.9C191.351 576.409 192.317 576.145 193.282 576.145C196.366 576.145 198.881 578.652 198.881 581.744V599.211C198.881 600.753 198.274 602.179 197.176 603.238C196.132 604.234 194.715 604.811 193.29 604.811L193.282 604.803Z" fill="#127B93"/>
<path d="M193.282 577.515C195.486 577.515 197.503 579.275 197.503 581.736V599.203C197.503 601.664 195.486 603.424 193.282 603.424C192.581 603.424 191.857 603.245 191.179 602.856L176.056 594.126C173.244 592.506 173.244 588.449 176.056 586.821L191.179 578.091C191.857 577.702 192.581 577.523 193.282 577.523M193.282 574.766C192.075 574.766 190.868 575.093 189.809 575.708L174.685 584.438C172.505 585.7 171.204 587.95 171.204 590.466C171.204 592.981 172.505 595.239 174.685 596.493L189.809 605.223C190.876 605.838 192.075 606.165 193.282 606.165C197.121 606.165 200.252 603.043 200.252 599.196V581.728C200.252 577.889 197.129 574.758 193.282 574.758V574.766Z" fill="#002C3A"/>
</g>
<g clip-path="url(#clip2_218_245)">
<path d="M335.881 560.437H348.279C364.851 560.437 378.3 573.886 378.3 590.458V603.339C378.3 619.911 364.851 633.36 348.279 633.36H335.881C319.309 633.368 305.852 619.911 305.852 603.339V590.458C305.852 573.894 319.309 560.437 335.881 560.437Z" fill="#127B93"/>
<path d="M348.279 561.815C364.103 561.815 376.93 574.641 376.93 590.466V603.347C376.93 619.171 364.103 631.997 348.279 631.997H335.881C320.057 631.997 307.23 619.171 307.23 603.347V590.466C307.23 574.641 320.057 561.815 335.881 561.815H348.279ZM348.279 559.066H335.881C318.569 559.066 304.481 573.154 304.481 590.466V603.347C304.481 620.658 318.569 634.746 335.881 634.746H348.279C365.591 634.746 379.679 620.658 379.679 603.347V590.466C379.671 573.154 365.591 559.066 348.279 559.066Z" fill="#002C3A"/>
<path d="M348.427 618.821C364.169 618.821 376.93 606.06 376.93 590.318C376.93 574.577 364.169 561.815 348.427 561.815H335.733C319.992 561.815 307.231 574.577 307.231 590.318C307.231 606.06 319.992 618.821 335.733 618.821H348.427Z" fill="#06BADD"/>
<path d="M349.19 565.74H334.962C321.784 565.74 311.101 576.423 311.101 589.601C311.101 602.78 321.784 613.463 334.962 613.463H349.19C362.368 613.463 373.051 602.78 373.051 589.601C373.051 576.423 362.368 565.74 349.19 565.74Z" fill="#34EBE6"/>
<path d="M335.912 576.121C336.878 576.121 337.843 576.386 338.7 576.877L353.824 585.606C355.576 586.619 356.619 588.426 356.619 590.45C356.619 592.475 355.576 594.282 353.824 595.294L338.7 604.024C337.843 604.515 336.878 604.78 335.912 604.78C332.828 604.78 330.313 602.272 330.313 599.18L330.313 581.713C330.313 580.171 330.92 578.746 332.018 577.686C333.062 576.69 334.479 576.113 335.904 576.113L335.912 576.121Z" fill="#127B93"/>
<path d="M335.912 603.409C333.708 603.409 331.691 601.649 331.691 599.188L331.691 581.72C331.691 579.259 333.708 577.499 335.912 577.499C336.613 577.499 337.337 577.678 338.015 578.068L353.139 586.798C355.95 588.418 355.95 592.475 353.139 594.103L338.015 602.832C337.337 603.222 336.613 603.401 335.912 603.401M335.912 606.158C337.119 606.158 338.327 605.831 339.386 605.215L354.509 596.486C356.69 595.224 357.99 592.973 357.99 590.458C357.99 587.943 356.69 585.684 354.509 584.43L339.386 575.7C338.319 575.085 337.119 574.758 335.912 574.758C332.073 574.758 328.942 577.881 328.942 581.728L328.942 599.196C328.942 603.035 332.065 606.166 335.912 606.166L335.912 606.158Z" fill="#002C3A"/>
</g>
<path d="M216.52 533.783V511.978H221.94C225.367 511.978 227.049 513.878 227.049 517.367V528.394C227.049 531.883 225.367 533.783 221.94 533.783H216.52ZM221.878 515.093H219.947V530.668H221.878C222.968 530.668 223.622 530.107 223.622 528.55V517.211C223.622 515.653 222.968 515.093 221.878 515.093ZM236.806 511.978L240.295 533.783H236.837L236.245 529.827H232.04L231.448 533.783H228.302L231.791 511.978H236.806ZM234.127 515.84L232.476 526.868H235.778L234.127 515.84ZM241.735 511.978H245.162V528.799C245.162 530.356 245.847 530.917 246.937 530.917C248.027 530.917 248.713 530.356 248.713 528.799V511.978H251.952V528.581C251.952 532.07 250.208 534.063 246.844 534.063C243.479 534.063 241.735 532.07 241.735 528.581V511.978ZM254.302 533.783V511.978H257.729V530.668H263.367V533.783H254.302ZM269.905 511.978C273.331 511.978 275.013 513.878 275.013 517.367V520.201C275.013 523.69 273.331 525.59 269.905 525.59H268.285V533.783H264.858V511.978H269.905ZM269.905 515.093H268.285V522.475H269.905C270.995 522.475 271.587 521.977 271.587 520.419V517.149C271.587 515.591 270.995 515.093 269.905 515.093ZM280.027 524.438V533.783H276.6V511.978H280.027V521.323H283.921V511.978H287.41V533.783H283.921V524.438H280.027ZM289.894 533.783V511.978H293.321V533.783H289.894ZM303.146 533.783L298.879 517.99V533.783H295.795V511.978H300.094L303.614 525.03V511.978H306.666V533.783H303.146Z" fill="#34EBE6"/>
<path d="M301.555 185.779V178.155H285.404L278.925 176.418C278.925 176.418 274.345 169.355 274.338 169.355L268.622 160.547C266.098 156.669 261.986 156.669 259.463 160.547L253.747 169.355L249.168 176.418L242.681 178.155H226.506V185.779H226.529C226.428 187.118 226.911 188.59 228.064 190.023L234.675 198.177L239.971 204.711L238.974 223.596C238.733 228.214 242.066 230.636 246.388 228.985L264.042 222.202L281.689 228.985C286.011 230.636 289.337 228.214 289.095 223.596L288.106 204.711L293.394 198.177L300.006 190.023C301.158 188.598 301.649 187.118 301.548 185.779H301.555Z" fill="#FBA91E"/>
<path d="M297.187 173.1L278.925 168.21C278.925 168.21 274.345 161.146 274.338 161.146L268.622 152.346C266.098 148.468 261.987 148.468 259.463 152.346L253.747 161.146L249.168 168.21L230.898 173.1C226.436 174.292 225.159 178.217 228.064 181.807L234.675 189.961L239.971 196.494L238.974 215.379C238.733 219.997 242.066 222.419 246.388 220.768L264.042 213.985L281.689 220.768C286.011 222.419 289.337 219.997 289.095 215.379L288.106 196.494L293.394 189.961L300.006 181.807C302.918 178.209 301.641 174.292 297.171 173.1H297.187Z" fill="#FEDA34"/>
<g style="mix-blend-mode:overlay" opacity="0.2">
<path d="M244.566 169.448L230.906 173.101C229.325 173.521 228.149 174.292 227.417 175.266L260.265 215.442L264.05 213.986L281.697 220.769C283.566 221.485 285.248 221.438 286.541 220.769L244.566 169.44V169.448Z" fill="white"/>
</g>
<g style="mix-blend-mode:overlay" opacity="0.2">
<path d="M293.441 189.914L261.184 150.47C260.569 150.937 259.985 151.56 259.471 152.347L253.942 160.866L288.464 203.083L288.122 196.502L293.41 189.968L293.448 189.922L293.441 189.914Z" fill="white"/>
</g>
<path d="M227.184 194.057L225.65 189.228L215.417 192.476L210.962 192.678C210.962 192.678 206.64 189.127 206.632 189.127L201.243 184.696C198.86 182.741 196.259 183.575 195.441 186.542L193.588 193.27L192.108 198.667L188.347 201.073L178.098 204.329L179.633 209.157H179.648C179.851 210.021 180.458 210.862 181.478 211.532L187.311 215.364L191.984 218.44L195.153 230.612C195.932 233.587 198.533 234.451 200.932 232.535L210.752 224.685L223.305 225.433C226.374 225.612 228.001 223.408 226.919 220.527L222.488 208.76L224.528 203.558L227.082 197.063C227.526 195.926 227.542 194.89 227.207 194.065L227.184 194.057Z" fill="#FBA91E"/>
<path d="M221.857 186.892L209.295 187.469L204.973 183.918L199.577 179.486C197.194 177.532 194.592 178.365 193.775 181.332L191.921 188.061L190.442 193.457L179.851 200.233C177.257 201.884 177.242 204.625 179.804 206.322L185.637 210.154L190.309 213.23L193.479 225.402C194.258 228.377 196.859 229.241 199.257 227.326L209.077 219.476L221.631 220.223C224.699 220.403 226.327 218.199 225.244 215.317L220.813 203.55L222.854 198.34L225.408 191.845C226.529 188.979 224.933 186.752 221.857 186.892Z" fill="#FEDA34"/>
<g style="mix-blend-mode:overlay" opacity="0.2">
<path d="M187.771 195.163L179.851 200.225C178.932 200.809 178.348 201.533 178.075 202.297L206.983 221.15L209.085 219.468L221.639 220.216C222.971 220.294 224.022 219.92 224.707 219.242L187.778 195.155L187.771 195.163Z" fill="white"/>
</g>
<g style="mix-blend-mode:overlay" opacity="0.2">
<path d="M222.869 198.309L194.491 179.798C194.195 180.219 193.946 180.733 193.783 181.332L191.991 187.843L222.363 207.654L220.821 203.55L222.862 198.34L222.877 198.301L222.869 198.309Z" fill="white"/>
</g>
<path d="M301.688 193.925L303.222 189.096L313.455 192.344L317.909 192.546C317.909 192.546 322.231 188.995 322.239 188.995L327.628 184.564C330.011 182.609 332.62 183.443 333.43 186.41L335.283 193.138L336.763 198.535L340.524 200.941L350.773 204.197L349.239 209.025H349.223C349.021 209.889 348.413 210.73 347.393 211.4L341.56 215.232L336.888 218.308L333.718 230.48C332.939 233.455 330.338 234.319 327.94 232.403L318.119 224.553L305.566 225.301C302.498 225.48 300.87 223.276 301.952 220.395L306.384 208.628L304.343 203.426L301.789 196.931C301.345 195.794 301.329 194.758 301.664 193.933L301.688 193.925Z" fill="#FBA91E"/>
<path d="M307.007 186.768L319.568 187.344L323.89 183.793L329.287 179.362C331.67 177.415 334.271 178.24 335.089 181.208L336.942 187.936L338.422 193.333L349.013 200.108C351.606 201.759 351.622 204.5 349.06 206.198L343.227 210.037L338.554 213.113L335.385 225.285C334.606 228.26 332.005 229.125 329.606 227.209L319.786 219.359L307.233 220.107C304.164 220.286 302.537 218.082 303.619 215.2L308.05 203.433L306.01 198.223L303.456 191.729C302.334 188.863 303.931 186.635 306.999 186.776L307.007 186.768Z" fill="#FEDA34"/>
<g style="mix-blend-mode:overlay" opacity="0.2">
<path d="M341.093 195.038L349.013 200.1C349.932 200.684 350.516 201.409 350.788 202.172L321.881 221.026L319.778 219.343L307.225 220.091C305.893 220.169 304.842 219.795 304.156 219.118L341.085 195.031L341.093 195.038Z" fill="white"/>
</g>
<g style="mix-blend-mode:overlay" opacity="0.2">
<path d="M305.994 198.177L334.38 179.666C334.676 180.086 334.917 180.6 335.089 181.2L336.88 187.71L306.508 207.522L308.05 203.418L306.01 198.208L305.994 198.169V198.177Z" fill="white"/>
</g>
<path d="M209.107 252.65C212.533 252.65 214.215 254.55 214.215 258.039V260.874C214.215 264.363 212.533 266.263 209.107 266.263H207.487V274.456H204.06V252.65H209.107ZM209.107 255.765H207.487V263.148H209.107C210.197 263.148 210.789 262.65 210.789 261.092V257.821C210.789 256.264 210.197 255.765 209.107 255.765ZM215.955 274.456V252.65H219.381V271.341H225.019V274.456H215.955ZM234.111 252.65L237.6 274.456H234.142L233.55 270.499H229.345L228.753 274.456H225.607L229.096 252.65H234.111ZM231.432 256.513L229.781 267.54H233.083L231.432 256.513ZM240.883 274.456V267.229L236.553 252.65H240.136L242.752 262.587L245.369 252.65H248.64L244.31 267.229V274.456H240.883ZM253.452 255.765V261.84H258.156V264.955H253.452V271.341H259.371V274.456H250.025V252.65H259.371V255.765H253.452ZM272.147 274.456H268.658C268.472 273.895 268.347 273.552 268.347 271.777V268.35C268.347 266.325 267.662 265.578 266.104 265.578H264.92V274.456H261.494V252.65H266.665C270.216 252.65 271.742 254.301 271.742 257.665V259.379C271.742 261.622 271.026 263.086 269.5 263.802C271.213 264.519 271.774 266.17 271.774 268.444V271.808C271.774 272.867 271.805 273.646 272.147 274.456ZM266.571 255.765H264.92V262.463H266.26C267.537 262.463 268.316 261.902 268.316 260.158V258.008C268.316 256.451 267.786 255.765 266.571 255.765Z" fill="#34EBE6"/>
<path d="M287.143 267.416H290.383V269.44C290.383 270.998 291.068 271.559 292.159 271.559C293.249 271.559 293.934 270.998 293.934 269.44V264.643C293.934 263.086 293.249 262.494 292.159 262.494C291.068 262.494 290.383 263.086 290.383 264.643V265.297H287.143L287.766 252.65H296.8V255.765H290.85L290.57 260.967C291.193 259.939 292.19 259.379 293.56 259.379C296.084 259.379 297.361 261.154 297.361 264.363V269.222C297.361 272.711 295.616 274.705 292.252 274.705C288.888 274.705 287.143 272.711 287.143 269.222V267.416ZM302.796 257.665V269.44C302.796 270.998 303.481 271.59 304.572 271.59C305.662 271.59 306.347 270.998 306.347 269.44V257.665C306.347 256.108 305.662 255.516 304.572 255.516C303.481 255.516 302.796 256.108 302.796 257.665ZM299.37 269.222V257.884C299.37 254.395 301.207 252.401 304.572 252.401C307.936 252.401 309.774 254.395 309.774 257.884V269.222C309.774 272.711 307.936 274.705 304.572 274.705C301.207 274.705 299.37 272.711 299.37 269.222ZM317.14 265.422V262.307H321.938V269.222C321.938 272.711 320.193 274.705 316.829 274.705C313.465 274.705 311.72 272.711 311.72 269.222V257.884C311.72 254.395 313.465 252.401 316.829 252.401C320.193 252.401 321.938 254.395 321.938 257.884V260.002H318.698V257.665C318.698 256.108 318.013 255.516 316.922 255.516C315.832 255.516 315.147 256.108 315.147 257.665V269.44C315.147 270.998 315.832 271.559 316.922 271.559C318.013 271.559 318.698 270.998 318.698 269.44V265.422H317.14Z" fill="#34EBE6"/>
<defs>
<clipPath id="clip0_218_245">
<rect width="1658.9" height="818.3" fill="white" transform="translate(0 1)"/>
</clipPath>
<clipPath id="clip1_218_245">
<rect width="75.1894" height="75.6722" fill="white" transform="translate(150.637 559.066)"/>
</clipPath>
<clipPath id="clip2_218_245">
<rect width="75.1894" height="75.6722" fill="white" transform="translate(304.481 559.066)"/>
</clipPath>
</defs>
</svg>
