<svg width="342" height="109" viewBox="0 0 342 109" fill="none" xmlns="http://www.w3.org/2000/svg">
<path d="M315.45 2.68146H26.09C12.9346 2.68146 2.27002 13.7266 2.27002 27.3515V82.2013C2.27002 95.8262 12.9346 106.871 26.09 106.871H315.45C328.605 106.871 339.27 95.8262 339.27 82.2013V27.3515C339.27 13.7266 328.605 2.68146 315.45 2.68146Z" fill="#043559"/>
<path d="M315.45 4.63893C327.56 4.63893 337.37 14.799 337.37 27.3411V82.2013C337.37 94.7435 327.56 104.904 315.45 104.904H26.09C13.98 104.904 4.17001 94.7435 4.17001 82.2013V27.3411C4.17001 14.799 13.98 4.63893 26.09 4.63893H315.45ZM315.45 0.713684H26.09C11.91 0.713684 0.380005 12.6551 0.380005 27.3411V82.2013C0.380005 96.8873 11.91 108.829 26.09 108.829H315.45C329.63 108.829 341.16 96.8873 341.16 82.2013V27.3411C341.16 12.6551 329.63 0.713684 315.45 0.713684Z" fill="#002C3A"/>
<path d="M337.37 62.9065V27.8175C337.37 15.0163 327.35 4.63892 314.99 4.63892L26.55 4.63892C14.1898 4.63892 4.16998 15.0163 4.16998 27.8175V62.9065C4.16998 75.7077 14.1898 86.0852 26.55 86.0852L314.99 86.0852C327.35 86.0852 337.37 75.7077 337.37 62.9065Z" fill="#1091FC"/>
<path d="M316.06 9.12341H25.4899C16.068 9.12341 8.42993 17.034 8.42993 26.7922V61.8812C8.42993 71.6394 16.068 79.55 25.4899 79.55H316.06C325.482 79.55 333.12 71.6394 333.12 61.8812V26.7922C333.12 17.034 325.482 9.12341 316.06 9.12341Z" fill="#043E68"/>
<path d="M316.05 10.2523C324.87 10.2523 332.03 17.6575 332.03 26.8026V61.8915C332.03 71.0263 324.88 78.4418 316.05 78.4418H25.48C16.66 78.4418 9.49997 71.0366 9.49997 61.8915V26.7922C9.49997 17.6575 16.65 10.242 25.48 10.242H316.05M316.05 8.00488H25.48C15.48 8.00488 7.33997 16.4354 7.33997 26.7922V61.8812C7.33997 72.238 15.48 80.6685 25.48 80.6685H316.05C326.05 80.6685 334.19 72.238 334.19 61.8812V26.7922C334.19 16.4354 326.05 8.00488 316.05 8.00488Z" fill="#03ABFF"/>
<path d="M313.22 14.6747H167.64C159.952 14.6747 153.72 21.1293 153.72 29.0914V59.0331C153.72 66.9952 159.952 73.4498 167.64 73.4498H313.22C320.908 73.4498 327.14 66.9952 327.14 59.0331V29.0914C327.14 21.1293 320.908 14.6747 313.22 14.6747Z" fill="#00263D"/>
</svg>
